<svg width="22" height="19" viewBox="0 0 22 19" fill="none" xmlns="http://www.w3.org/2000/svg">
    <path fill-rule="evenodd" clip-rule="evenodd"
          d="M0 5.75C0 5.33579 0.335786 5 0.75 5H20.75C21.1642 5 21.5 5.33579 21.5 5.75C21.5 6.16421 21.1642 6.5 20.75 6.5H0.75C0.335786 6.5 0 6.16421 0 5.75Z"
          fill="white"/>
    <path fill-rule="evenodd" clip-rule="evenodd"
          d="M4 13.75C4 13.3358 4.33579 13 4.75 13H6.75C7.16421 13 7.5 13.3358 7.5 13.75C7.5 14.1642 7.16421 14.5 6.75 14.5H4.75C4.33579 14.5 4 14.1642 4 13.75Z"
          fill="white"/>
    <path fill-rule="evenodd" clip-rule="evenodd"
          d="M8.5 13.75C8.5 13.3358 8.83579 13 9.25 13H13.25C13.6642 13 14 13.3358 14 13.75C14 14.1642 13.6642 14.5 13.25 14.5H9.25C8.83579 14.5 8.5 14.1642 8.5 13.75Z"
          fill="white"/>
    <path fill-rule="evenodd" clip-rule="evenodd"
          d="M2.16607 2.16207C1.74101 2.58235 1.5 3.38117 1.5 5.14V13.36C1.5 15.1192 1.74115 15.9173 2.16556 16.3362C2.59272 16.7577 3.40679 16.995 5.18789 16.99L5.19 16.99L16.31 16.99C18.091 16.99 18.9059 16.7511 19.3339 16.3279C19.759 15.9076 20 15.1088 20 13.35V5.14C20 3.38111 19.7589 2.58275 19.3332 2.16257C18.9039 1.73896 18.0863 1.5 16.3 1.5H5.19C3.409 1.5 2.59409 1.73887 2.16607 2.16207ZM1.11143 1.09543C2.01591 0.201125 3.421 0 5.19 0H16.3C18.0737 0 19.4811 0.201043 20.3868 1.09493C21.2961 1.99225 21.5 3.38889 21.5 5.14V13.35C21.5 15.1012 21.296 16.4974 20.3886 17.3946C19.4841 18.2889 18.079 18.49 16.31 18.49H5.19074C3.42249 18.4949 2.01704 18.297 1.11194 17.4038C0.203853 16.5077 0 15.1108 0 13.36V5.14C0 3.38883 0.203993 1.99265 1.11143 1.09543Z"
          fill="white"/>
</svg>
