<svg width="375" height="503" fill="none" xmlns="http://www.w3.org/2000/svg"><g clip-path="url(#a)"><g filter="url(#b)"><rect x="317.155" y="116.182" width="180.053" height="259.507" rx="10.252" fill="#1E242D" shape-rendering="crispEdges"/><g clip-path="url(#c)"><path d="M337.909 150c5.82 0 10.501-4.682 10.501-10.501 0-5.82-4.681-10.502-10.501-10.502a10.477 10.477 0 0 0-10.502 10.502A10.476 10.476 0 0 0 337.909 150z" fill="#2775CA"/><path d="M340.797 141.161c0-1.531-.919-2.056-2.757-2.275-1.313-.175-1.575-.525-1.575-1.138 0-.612.438-1.006 1.313-1.006.787 0 1.225.263 1.444.919a.329.329 0 0 0 .306.219h.7a.3.3 0 0 0 .306-.307v-.043a2.184 2.184 0 0 0-1.969-1.794v-1.05c0-.175-.131-.307-.35-.351h-.656c-.175 0-.306.132-.35.351v1.006c-1.313.175-2.144 1.05-2.144 2.144 0 1.444.875 2.013 2.713 2.232 1.225.218 1.619.481 1.619 1.181 0 .7-.613 1.181-1.444 1.181-1.138 0-1.532-.481-1.663-1.137-.044-.175-.175-.263-.306-.263h-.744a.299.299 0 0 0-.306.306v.044c.174 1.094.875 1.882 2.319 2.101v1.05c0 .175.131.306.35.35h.656c.175 0 .306-.132.35-.35v-1.05c1.313-.219 2.188-1.138 2.188-2.32z" fill="#fff"/><path d="M335.677 145.756c-3.413-1.225-5.163-5.032-3.894-8.402.656-1.837 2.1-3.237 3.894-3.894.175-.087.263-.219.263-.437v-.613c0-.175-.088-.306-.263-.35-.043 0-.131 0-.175.044-4.157 1.312-6.432 5.732-5.119 9.889a7.869 7.869 0 0 0 5.119 5.119c.175.088.35 0 .394-.175.044-.044.044-.087.044-.175v-.613c0-.131-.131-.306-.263-.393zm4.638-13.652c-.175-.088-.35 0-.393.175-.044.044-.044.087-.044.175v.612c0 .175.131.35.262.438 3.413 1.225 5.164 5.032 3.895 8.401-.657 1.838-2.101 3.238-3.895 3.894-.175.088-.262.219-.262.438v.613c0 .175.087.306.262.35.044 0 .132 0 .175-.044 4.157-1.313 6.433-5.732 5.12-9.889a7.935 7.935 0 0 0-5.12-5.163z" fill="#fff"/></g><rect x="342.003" y="128.997" width="21.003" height="21.003" rx="10.502" fill="#F0B90B"/><path d="m352.504 133.033 1.597 1.636-4.021 4.021-1.597-1.597 4.021-4.06zM354.929 135.458l1.597 1.635-6.446 6.446-1.597-1.597 6.446-6.484zM347.655 137.882l1.597 1.635-1.597 1.597-1.597-1.597 1.597-1.635zM357.353 137.882l1.597 1.635-6.446 6.446-1.597-1.597 6.446-6.484z" fill="#fff" stroke="#fff" stroke-width=".038"/><path d="M330.741 171.905c-.562 0-1.061-.096-1.5-.289-.438-.192-.784-.453-1.038-.784a2.107 2.107 0 0 1-.427-1.13h1.95a.75.75 0 0 0 .311.542c.185.138.411.208.681.208.246 0 .434-.047.565-.139a.453.453 0 0 0 .207-.38c0-.185-.096-.32-.288-.404-.192-.092-.504-.192-.934-.3a9.44 9.44 0 0 1-1.154-.335 2.069 2.069 0 0 1-.795-.565c-.223-.261-.335-.611-.335-1.049 0-.369.1-.704.3-1.004.208-.307.507-.549.9-.726.399-.177.872-.266 1.418-.266.808 0 1.442.2 1.903.6.469.4.738.931.808 1.592h-1.823a.773.773 0 0 0-.3-.531c-.161-.13-.376-.196-.645-.196-.231 0-.408.046-.531.139a.408.408 0 0 0-.185.357c0 .185.097.323.289.415.2.093.507.185.923.277.476.123.865.246 1.164.369.3.116.562.308.785.577.23.261.35.615.357 1.061 0 .377-.107.715-.323 1.015-.207.292-.511.523-.911.692-.392.169-.85.254-1.372.254zm7.4-1.765v1.672h-1.004c-.715 0-1.272-.173-1.672-.519-.4-.353-.6-.926-.6-1.718v-2.561h-.784v-1.637h.784v-1.569h1.973v1.569h1.291v1.637h-1.291v2.584c0 .192.046.331.138.415.092.085.246.127.461.127h.704zm4.028 1.753c-.592 0-1.123-.096-1.592-.288a2.634 2.634 0 0 1-1.13-.854c-.277-.376-.423-.83-.438-1.361h2.099c.031.3.134.531.311.692.177.154.408.231.692.231.292 0 .523-.065.692-.196a.692.692 0 0 0 .254-.565c0-.2-.069-.365-.208-.496a1.54 1.54 0 0 0-.495-.323 7.389 7.389 0 0 0-.831-.288 9.057 9.057 0 0 1-1.28-.485 2.367 2.367 0 0 1-.854-.715c-.238-.315-.357-.726-.357-1.234 0-.753.273-1.342.819-1.765.546-.43 1.257-.645 2.133-.645.892 0 1.611.215 2.157.645.546.423.838 1.015.877 1.777h-2.134c-.015-.262-.111-.466-.288-.612-.177-.153-.404-.23-.681-.23-.238 0-.43.065-.576.196-.147.123-.22.303-.22.542 0 .261.123.465.369.611.247.146.631.304 1.154.473.523.177.946.346 1.269.507.33.162.615.396.853.704.238.308.358.704.358 1.188 0 .461-.12.88-.358 1.257-.231.377-.569.677-1.015.9-.446.223-.973.334-1.58.334zm7.995 0c-.761 0-1.46-.177-2.099-.53a4.04 4.04 0 0 1-1.511-1.477c-.369-.638-.553-1.353-.553-2.145s.184-1.503.553-2.134a4.044 4.044 0 0 1 1.511-1.476 4.257 4.257 0 0 1 2.099-.53c.762 0 1.458.176 2.088.53a3.846 3.846 0 0 1 1.499 1.476c.37.631.554 1.342.554 2.134 0 .792-.184 1.507-.554 2.145a3.944 3.944 0 0 1-1.499 1.477c-.63.353-1.326.53-2.088.53zm0-1.799c.646 0 1.162-.215 1.546-.646.392-.43.588-.999.588-1.707 0-.715-.196-1.284-.588-1.707-.384-.43-.9-.646-1.546-.646-.653 0-1.176.212-1.568.635-.385.423-.577.995-.577 1.718 0 .715.192 1.288.577 1.719.392.423.915.634 1.568.634zm7.211.196h2.583v1.522h-4.556v-8.096h1.973v6.574zm8.483-3.345v1.638h-5.075v-1.638h5.075zm3.669-3.229v4.844c0 .484.119.857.357 1.119.239.261.589.392 1.05.392.461 0 .815-.131 1.061-.392.246-.262.369-.635.369-1.119v-4.844h1.972v4.832c0 .723-.153 1.335-.461 1.834-.307.5-.723.877-1.246 1.131a3.869 3.869 0 0 1-1.73.38c-.638 0-1.211-.123-1.718-.369-.5-.254-.896-.63-1.188-1.13-.292-.508-.438-1.123-.438-1.846v-4.832h1.972zm9.124 8.177c-.592 0-1.123-.096-1.592-.288a2.628 2.628 0 0 1-1.13-.854c-.277-.376-.423-.83-.438-1.361h2.099c.031.3.134.531.311.692.177.154.408.231.692.231.292 0 .523-.065.692-.196a.692.692 0 0 0 .254-.565c0-.2-.069-.365-.208-.496a1.533 1.533 0 0 0-.496-.323 7.288 7.288 0 0 0-.83-.288 9.057 9.057 0 0 1-1.28-.485 2.367 2.367 0 0 1-.854-.715c-.238-.315-.357-.726-.357-1.234 0-.753.273-1.342.819-1.765.546-.43 1.257-.645 2.133-.645.892 0 1.611.215 2.157.645.546.423.838 1.015.877 1.777h-2.134c-.015-.262-.111-.466-.288-.612-.177-.153-.404-.23-.681-.23-.238 0-.43.065-.576.196-.147.123-.22.303-.22.542 0 .261.123.465.369.611.246.146.631.304 1.154.473.523.177.946.346 1.269.507.33.162.615.396.853.704.238.308.358.704.358 1.188 0 .461-.12.88-.358 1.257-.231.377-.569.677-1.015.9-.446.223-.973.334-1.58.334zm7.2-8.177c.853 0 1.599.169 2.237.507.638.339 1.13.815 1.476 1.431.354.607.531 1.311.531 2.11 0 .792-.177 1.496-.531 2.111a3.557 3.557 0 0 1-1.487 1.43c-.639.338-1.381.507-2.226.507h-3.034v-8.096h3.034zm-.127 6.39c.746 0 1.326-.204 1.741-.612.416-.407.623-.984.623-1.73s-.207-1.326-.623-1.741c-.415-.416-.995-.623-1.741-.623h-.934v4.706h.934zm11.298-6.39v1.58h-2.146v6.516h-1.972v-6.516h-2.145v-1.58h6.263z" fill="#fff"/><path d="M333.105 194.864h-3.356l-.577 1.637H327.8l2.871-8.027h1.523l2.872 8.027h-1.384l-.577-1.637zm-.369-1.073-1.303-3.725-1.315 3.725h2.618zm9.184-2.918c0 .408-.096.792-.289 1.153-.192.362-.499.658-.922.888-.423.223-.965.335-1.626.335h-1.454v3.252h-1.315v-8.015h2.769c.615 0 1.134.107 1.557.323.43.207.749.492.957.853.215.361.323.765.323 1.211zm-2.837 1.303c.499 0 .872-.111 1.118-.334.246-.231.369-.554.369-.969 0-.877-.496-1.315-1.487-1.315h-1.454v2.618h1.454zm10.031-3.69-2.653 5.109v2.906h-1.315v-2.906l-2.664-5.109h1.465l1.857 3.933 1.856-3.933h1.454zM333.451 213.175v1.073h-2.134v6.943h-1.315v-6.943h-2.145v-1.073h5.594zm8.24 0-3.01 8.016h-1.522l-3.022-8.016h1.407l2.376 6.666 2.387-6.666h1.384zm2.415 6.955h2.71v1.061h-4.025v-8.016h1.315v6.955zM333.878 240.251c0 .408-.096.792-.289 1.154-.192.361-.499.657-.922.888-.423.223-.965.334-1.626.334h-1.454v3.253h-1.315v-8.016h2.769c.615 0 1.134.108 1.557.323.43.208.749.492.957.853.215.362.323.765.323 1.211zm-2.837 1.304c.499 0 .872-.112 1.118-.335.246-.23.369-.553.369-.969 0-.876-.496-1.314-1.487-1.314h-1.454v2.618h1.454zm5.406-1.107c.192-.323.446-.573.761-.75.323-.185.703-.277 1.142-.277v1.361h-.335c-.515 0-.907.131-1.176.392-.262.262-.392.715-.392 1.361v3.345h-1.315v-6.355h1.315v.923zm5.868 5.536a3.29 3.29 0 0 1-1.626-.404 2.991 2.991 0 0 1-1.142-1.153c-.277-.5-.415-1.077-.415-1.73 0-.646.142-1.219.426-1.719.285-.5.673-.884 1.165-1.153a3.383 3.383 0 0 1 1.65-.404c.607 0 1.157.135 1.649.404s.88.653 1.165 1.153c.284.5.426 1.073.426 1.719 0 .645-.146 1.218-.438 1.718-.292.5-.692.888-1.199 1.165a3.45 3.45 0 0 1-1.661.404zm0-1.142c.338 0 .653-.081.946-.242.299-.162.542-.404.726-.727.185-.323.277-.715.277-1.176 0-.462-.088-.85-.265-1.165a1.79 1.79 0 0 0-.704-.727 1.927 1.927 0 0 0-.946-.242c-.338 0-.653.081-.945.242a1.734 1.734 0 0 0-.681.727c-.169.315-.254.703-.254 1.165 0 .684.173 1.214.519 1.591.354.369.796.554 1.327.554zm7.055-.139 1.799-5.178h1.396l-2.422 6.355h-1.569l-2.41-6.355h1.407l1.799 5.178zm4.858-6.02a.815.815 0 0 1-.6-.242.814.814 0 0 1-.242-.6c0-.238.08-.438.242-.6a.815.815 0 0 1 .6-.242c.23 0 .426.081.588.242a.818.818 0 0 1 .242.6.818.818 0 0 1-.242.6.804.804 0 0 1-.588.242zm.645.842v6.355h-1.314v-6.355h1.314zm1.288 3.149c0-.639.131-1.204.393-1.696a2.926 2.926 0 0 1 2.618-1.557c.415 0 .822.092 1.222.277.408.177.731.415.969.715v-3.068h1.327v8.535h-1.327v-.957a2.455 2.455 0 0 1-.899.761c-.377.2-.812.3-1.304.3a2.902 2.902 0 0 1-1.522-.416 3.071 3.071 0 0 1-1.084-1.176c-.262-.507-.393-1.08-.393-1.718zm5.202.023c0-.439-.092-.819-.277-1.142a1.849 1.849 0 0 0-1.649-.992c-.338 0-.654.084-.946.254-.292.161-.53.403-.715.726-.177.315-.265.692-.265 1.131 0 .438.088.822.265 1.153.185.331.423.584.715.761.3.169.615.254.946.254.338 0 .654-.085.946-.254.292-.169.526-.415.703-.738.185-.331.277-.715.277-1.153zm8.878-.15c0 .238-.015.453-.046.646h-4.856c.039.507.227.915.565 1.222.339.308.754.461 1.246.461.707 0 1.207-.296 1.499-.888h1.419a2.877 2.877 0 0 1-1.05 1.442c-.499.369-1.122.554-1.868.554a3.32 3.32 0 0 1-1.638-.404 3.017 3.017 0 0 1-1.13-1.153c-.269-.5-.404-1.077-.404-1.73 0-.654.131-1.227.392-1.719.269-.5.642-.884 1.119-1.153.485-.269 1.038-.404 1.661-.404.6 0 1.134.131 1.603.392.469.262.834.631 1.096 1.107.261.469.392 1.012.392 1.627zm-1.373-.416c-.007-.484-.18-.872-.519-1.164-.338-.293-.757-.439-1.257-.439-.453 0-.842.146-1.165.439-.323.284-.515.672-.576 1.164h3.517zm3.982-1.683c.192-.323.446-.573.761-.75.323-.185.704-.277 1.142-.277v1.361h-.335c-.515 0-.907.131-1.176.392-.262.262-.392.715-.392 1.361v3.345h-1.315v-6.355h1.315v.923zm5.418 5.536c-.5 0-.949-.089-1.349-.266a2.434 2.434 0 0 1-.935-.738 1.876 1.876 0 0 1-.369-1.049h1.361a.95.95 0 0 0 .381.68c.238.177.534.265.888.265.369 0 .654-.069.854-.207.207-.146.311-.331.311-.554 0-.238-.115-.415-.346-.53-.223-.116-.581-.243-1.073-.381a10.526 10.526 0 0 1-1.165-.381 2.093 2.093 0 0 1-.784-.565c-.215-.253-.323-.588-.323-1.003 0-.338.1-.646.3-.923.2-.284.485-.507.854-.669a3.256 3.256 0 0 1 1.291-.242c.723 0 1.304.185 1.742.554.446.361.684.857.715 1.487h-1.315a.934.934 0 0 0-.346-.68c-.207-.169-.488-.254-.842-.254-.346 0-.611.066-.796.196a.608.608 0 0 0-.276.519c0 .17.061.312.184.427.123.115.273.208.45.277.177.061.438.142.784.242.462.123.838.25 1.131.381.299.123.557.307.772.553.216.246.327.573.335.981 0 .361-.1.684-.3.969-.2.284-.485.507-.854.668-.361.162-.788.243-1.28.243zM330.891 266.057c.853 0 1.599.166 2.237.496a3.42 3.42 0 0 1 1.488 1.407c.354.608.53 1.319.53 2.134s-.176 1.523-.53 2.122a3.457 3.457 0 0 1-1.488 1.384c-.638.316-1.384.473-2.237.473h-2.619v-8.016h2.619zm0 6.944c.938 0 1.657-.254 2.156-.762.5-.507.75-1.222.75-2.145 0-.93-.25-1.657-.75-2.18-.499-.523-1.218-.784-2.156-.784h-1.304v5.871h1.304zm11.383-2.261c0 .238-.015.454-.046.646h-4.856c.039.507.227.915.565 1.222.339.308.754.462 1.246.462.707 0 1.207-.296 1.499-.888h1.419a2.879 2.879 0 0 1-1.049 1.441c-.5.37-1.123.554-1.869.554a3.32 3.32 0 0 1-1.638-.404 3.017 3.017 0 0 1-1.13-1.153c-.269-.5-.404-1.076-.404-1.73 0-.654.131-1.226.392-1.719.27-.499.643-.884 1.119-1.153.485-.269 1.038-.404 1.661-.404.6 0 1.134.131 1.603.393.469.261.835.63 1.096 1.107.261.469.392 1.011.392 1.626zm-1.372-.415c-.008-.485-.181-.873-.519-1.165-.339-.292-.758-.438-1.258-.438-.453 0-.842.146-1.164.438-.323.284-.516.673-.577 1.165h3.518zm3.981-1.673c.223-.292.527-.538.911-.738.385-.2.819-.3 1.303-.3a2.84 2.84 0 0 1 1.511.416c.462.269.823.649 1.084 1.141.262.493.393 1.058.393 1.696 0 .638-.131 1.211-.393 1.718-.261.5-.622.892-1.084 1.177a2.84 2.84 0 0 1-1.511.415c-.484 0-.915-.096-1.291-.288a2.96 2.96 0 0 1-.923-.738v3.944h-1.315v-9.377h1.315v.934zm3.864 2.215c0-.438-.093-.815-.277-1.13a1.759 1.759 0 0 0-.715-.727 1.859 1.859 0 0 0-.946-.254 1.9 1.9 0 0 0-.946.254c-.292.169-.53.415-.715.738-.177.323-.265.704-.265 1.142 0 .438.088.823.265 1.153.185.323.423.569.715.738a1.889 1.889 0 0 0 1.892 0c.3-.176.538-.43.715-.761a2.33 2.33 0 0 0 .277-1.153zm5.394 3.31a3.296 3.296 0 0 1-1.626-.404 2.991 2.991 0 0 1-1.142-1.153c-.277-.5-.415-1.076-.415-1.73 0-.646.142-1.219.427-1.719a2.949 2.949 0 0 1 1.165-1.153 3.381 3.381 0 0 1 1.649-.404c.607 0 1.157.135 1.649.404s.881.654 1.165 1.153c.285.5.427 1.073.427 1.719 0 .646-.146 1.219-.438 1.718-.292.5-.692.889-1.2 1.165-.5.269-1.053.404-1.661.404zm0-1.142c.339 0 .654-.081.946-.242.3-.161.542-.404.727-.727.184-.323.277-.715.277-1.176 0-.461-.089-.85-.266-1.165a1.787 1.787 0 0 0-.703-.727 1.93 1.93 0 0 0-.946-.242 1.93 1.93 0 0 0-.946.242 1.738 1.738 0 0 0-.68.727c-.169.315-.254.704-.254 1.165 0 .684.173 1.215.519 1.592.354.369.796.553 1.326.553zm6.906 1.142c-.5 0-.95-.088-1.35-.265a2.45 2.45 0 0 1-.934-.738 1.864 1.864 0 0 1-.369-1.05h1.361c.023.269.15.496.38.681.239.176.535.265.888.265.37 0 .654-.069.854-.208.208-.146.311-.33.311-.553 0-.239-.115-.416-.346-.531-.223-.115-.58-.242-1.072-.381-.477-.13-.865-.257-1.165-.38a2.089 2.089 0 0 1-.784-.565c-.216-.254-.323-.589-.323-1.004 0-.338.1-.646.299-.922.2-.285.485-.508.854-.669a3.243 3.243 0 0 1 1.292-.243c.722 0 1.303.185 1.741.554.446.361.685.857.715 1.488h-1.314a.944.944 0 0 0-.346-.681c-.208-.169-.489-.253-.842-.253-.346 0-.612.065-.796.196a.604.604 0 0 0-.277.519.56.56 0 0 0 .184.426c.124.116.273.208.45.277.177.062.439.143.785.242.461.123.838.25 1.13.381.3.123.557.308.773.554.215.246.326.573.334.98 0 .361-.1.684-.3.969a1.99 1.99 0 0 1-.853.669c-.362.161-.788.242-1.28.242zm4.523-7.301a.811.811 0 0 1-.6-.242.815.815 0 0 1-.242-.6c0-.238.081-.438.242-.599a.812.812 0 0 1 .6-.243.8.8 0 0 1 .588.243.814.814 0 0 1 .242.599.815.815 0 0 1-.242.6.798.798 0 0 1-.588.242zm.646.842v6.355h-1.315v-6.355h1.315zm3.26 1.073v3.518c0 .238.054.411.161.519.116.1.308.15.577.15h.807v1.095h-1.038c-.592 0-1.045-.138-1.361-.415-.315-.277-.472-.727-.472-1.349v-3.518h-.75v-1.073h.75v-1.58h1.326v1.58h1.545v1.073h-1.545zm8.582 1.949c0 .238-.016.454-.046.646h-4.856c.038.507.227.915.565 1.222.338.308.754.462 1.246.462.707 0 1.207-.296 1.499-.888h1.419a2.875 2.875 0 0 1-1.05 1.441c-.5.37-1.122.554-1.868.554a3.314 3.314 0 0 1-1.638-.404 3.003 3.003 0 0 1-1.13-1.153c-.269-.5-.404-1.076-.404-1.73 0-.654.131-1.226.392-1.719a2.839 2.839 0 0 1 1.119-1.153c.484-.269 1.038-.404 1.661-.404.599 0 1.134.131 1.603.393.469.261.834.63 1.096 1.107.261.469.392 1.011.392 1.626zm-1.373-.415c-.007-.485-.18-.873-.519-1.165-.338-.292-.757-.438-1.257-.438-.454 0-.842.146-1.165.438-.323.284-.515.673-.577 1.165h3.518zm2.228.542c0-.638.131-1.203.393-1.696.269-.492.63-.872 1.084-1.141a2.921 2.921 0 0 1 1.534-.416c.415 0 .822.093 1.222.277.408.177.731.415.969.715v-3.068h1.326v8.535h-1.326v-.957a2.441 2.441 0 0 1-.9.761c-.376.2-.811.3-1.303.3a2.9 2.9 0 0 1-1.522-.415 3.081 3.081 0 0 1-1.084-1.177c-.262-.507-.393-1.08-.393-1.718zm5.202.023c0-.438-.092-.819-.277-1.142a1.862 1.862 0 0 0-.703-.738 1.859 1.859 0 0 0-.946-.254c-.338 0-.654.085-.946.254a1.86 1.86 0 0 0-.715.727c-.177.315-.265.692-.265 1.13 0 .438.088.823.265 1.153.185.331.423.585.715.761a1.889 1.889 0 0 0 1.892 0c.292-.169.526-.415.703-.738.185-.33.277-.715.277-1.153z" fill="#7D7D7D"/></g><g filter="url(#d)"><rect x="-120.752" y="116.182" width="180.053" height="259.507" rx="10.252" fill="#1E242D" shape-rendering="crispEdges"/><path d="M7.11 140.5c0-.799.173-1.511.52-2.134a3.672 3.672 0 0 1 1.441-1.464c.623-.354 1.327-.531 2.11-.531.962 0 1.785.254 2.469.761.684.508 1.142 1.2 1.373 2.076h-2.169a1.741 1.741 0 0 0-.692-.772 1.899 1.899 0 0 0-1.003-.266c-.608 0-1.1.212-1.477.635-.376.423-.565.988-.565 1.695 0 .708.189 1.273.565 1.696.377.423.87.634 1.477.634.377 0 .711-.088 1.003-.265.3-.177.53-.435.692-.773h2.169c-.231.877-.689 1.569-1.373 2.076-.684.5-1.507.75-2.468.75-.784 0-1.488-.173-2.11-.519a3.772 3.772 0 0 1-1.443-1.465c-.346-.623-.519-1.334-.519-2.134z" fill="#FF5151"/><rect x="-.639" y="129.317" width="23.738" height="21.485" rx="10.743" stroke="#FF5151" stroke-width=".641"/><path d="M38.797 150.312c5.662 0 10.252-4.59 10.252-10.252 0-5.662-4.59-10.252-10.252-10.252-5.662 0-10.252 4.59-10.252 10.252 0 5.662 4.59 10.252 10.252 10.252z" fill="#FF0420"/><path d="M35.98 142.93c-.618 0-1.125-.149-1.52-.446-.39-.303-.584-.734-.584-1.292 0-.117.013-.261.038-.431.068-.382.164-.842.289-1.379.353-1.462 1.265-2.193 2.736-2.193.4 0 .758.069 1.075.207.317.133.567.335.749.606.181.266.273.585.273.957 0 .112-.014.253-.04.423-.077.473-.171.933-.28 1.379-.182.729-.496 1.273-.943 1.635-.447.356-1.045.534-1.793.534zm.11-1.148c.29 0 .537-.088.74-.263.208-.176.356-.444.444-.806.12-.499.21-.935.273-1.307.02-.112.03-.226.03-.343 0-.484-.246-.726-.74-.726-.29 0-.54.088-.748.263-.203.176-.348.444-.436.806-.094.356-.187.792-.28 1.307-.022.107-.032.218-.032.335 0 .489.25.734.748.734zM39.394 142.851c-.057 0-.101-.018-.132-.056a.193.193 0 0 1-.024-.143l1.076-5.183a.23.23 0 0 1 .086-.144.234.234 0 0 1 .148-.055h2.073c.577 0 1.04.122 1.387.366.354.245.53.598.53 1.061 0 .133-.015.271-.046.415-.13.611-.393 1.063-.787 1.355-.39.292-.925.439-1.606.439h-1.052l-.359 1.746a.229.229 0 0 1-.086.143.23.23 0 0 1-.148.056h-1.06zm2.76-3.046a.916.916 0 0 0 .568-.183.864.864 0 0 0 .328-.526c.015-.091.023-.171.023-.24 0-.154-.044-.271-.132-.351-.089-.085-.24-.127-.453-.127h-.935l-.296 1.427h.896z" fill="#fff"/><path d="M20.844 190.354c-.062-.284-.17-.496-.323-.634-.154-.146-.373-.219-.658-.219-.438 0-.753.192-.945.576-.193.377-.293.977-.3 1.799.169-.269.411-.48.726-.634a2.433 2.433 0 0 1 1.061-.231c.754 0 1.357.239 1.811.716.461.476.692 1.141.692 1.995 0 .561-.115 1.053-.346 1.476a2.37 2.37 0 0 1-.992.992c-.43.238-.942.358-1.534.358-1.184 0-2.007-.369-2.468-1.108-.461-.745-.692-1.814-.692-3.206 0-1.461.242-2.545.727-3.252.492-.716 1.276-1.073 2.352-1.073.577 0 1.062.115 1.454.346.4.223.7.519.9.888.207.369.33.773.368 1.211h-1.833zm-.912 2.214c-.33 0-.607.1-.83.3-.215.193-.323.469-.323.831 0 .369.1.657.3.865.208.207.5.311.877.311.338 0 .603-.1.795-.3.2-.207.3-.488.3-.842 0-.361-.096-.645-.288-.853-.192-.208-.47-.312-.83-.312zm4.138 2.434v-1.592l3.645-5.213h2.202v5.098h.946v1.707h-.946v1.499h-1.972v-1.499H24.07zm4.014-4.636-1.938 2.929h1.938v-2.929zm4.864 6.228c-.346 0-.63-.1-.854-.3a1.017 1.017 0 0 1-.323-.761c0-.308.108-.566.323-.773.223-.208.508-.312.854-.312.338 0 .615.104.83.312.223.207.335.465.335.773a1 1 0 0 1-.335.761c-.215.2-.492.3-.83.3zm1.929-6.678v-1.834h3.194v8.419H36.02v-6.585h-1.142zm4.382.288c0-.623.177-1.103.53-1.442.362-.338.827-.507 1.396-.507.57 0 1.03.169 1.384.507.354.339.53.819.53 1.442s-.176 1.103-.53 1.442c-.353.338-.815.507-1.384.507s-1.034-.169-1.395-.507c-.354-.339-.53-.819-.53-1.442zm7.832-1.822-4.44 8.119h-1.904l4.44-8.119h1.904zm-5.917 1.026c-.37 0-.554.266-.554.796 0 .523.185.784.554.784a.493.493 0 0 0 .415-.196c.1-.13.15-.326.15-.588 0-.53-.188-.796-.565-.796zm3.575 5.271c0-.623.177-1.103.53-1.442.354-.338.816-.507 1.385-.507.569 0 1.03.169 1.384.507.354.339.53.819.53 1.442s-.176 1.104-.53 1.442c-.354.338-.815.507-1.384.507-.57 0-1.03-.169-1.384-.507-.354-.338-.53-.819-.53-1.442zm1.903-.796a.495.495 0 0 0-.415.196c-.092.131-.138.331-.138.6 0 .523.184.784.553.784a.493.493 0 0 0 .416-.196c.1-.13.15-.326.15-.588 0-.261-.05-.457-.15-.588a.485.485 0 0 0-.416-.208z" fill="#EF9011"/><path d="M2.903 218.838c0 .423-.112.815-.335 1.176-.215.354-.538.646-.968.877-.423.223-.927.346-1.511.369v.934H-.65v-.945c-.815-.07-1.472-.312-1.972-.727-.5-.423-.765-.996-.796-1.719h2.1c.046.462.269.758.668.889v-1.823c-.6-.154-1.08-.303-1.441-.45a2.404 2.404 0 0 1-.934-.703c-.27-.323-.404-.765-.404-1.327 0-.699.257-1.261.773-1.683.522-.423 1.191-.662 2.006-.716v-.934H.09v.934c.807.062 1.445.297 1.914.704.47.408.73.973.785 1.695H.677c-.046-.415-.242-.684-.588-.807v1.788c.638.177 1.13.334 1.476.473.346.138.654.369.923.692.276.315.415.749.415 1.303zm-4.245-3.541c0 .192.058.354.173.485.123.13.296.246.52.346v-1.604a.89.89 0 0 0-.508.254c-.123.123-.185.296-.185.519zm1.43 4.429a.897.897 0 0 0 .543-.277.756.756 0 0 0 .207-.542c0-.2-.065-.361-.196-.484-.123-.131-.307-.242-.553-.335v1.638zm4.017-.115a41.972 41.972 0 0 0 2.134-1.823 7.198 7.198 0 0 0 1.107-1.257c.3-.438.45-.865.45-1.28 0-.315-.074-.561-.22-.738-.146-.177-.365-.265-.657-.265a.821.821 0 0 0-.692.334c-.162.215-.242.523-.242.923H4.082c.015-.654.153-1.2.415-1.638.269-.438.619-.761 1.05-.969A3.36 3.36 0 0 1 7 212.587c.915 0 1.603.234 2.064.703.47.469.704 1.081.704 1.834 0 .823-.28 1.588-.842 2.295-.562.7-1.277 1.384-2.146 2.053h3.115v1.604h-5.79v-1.465zm12.033-5.363-2.895 6.943h-2.019l2.93-6.724h-3.587v-1.684h5.57v1.465zm.843 5.444V218.1l3.645-5.213h2.203v5.098h.946v1.707h-.946v1.499h-1.972v-1.499H16.98zm4.014-4.637-1.938 2.93h1.938v-2.93zm6.064 4.314-1.28 3.31h-1.257l.669-3.31h1.868zm6.368-5.121-2.895 6.943h-2.018l2.93-6.724h-3.588v-1.684h5.57v1.465zm.797 2.618c0-1.323.254-2.365.762-3.126.515-.761 1.342-1.142 2.48-1.142 1.137 0 1.96.381 2.468 1.142.515.761.772 1.803.772 3.126 0 1.338-.257 2.387-.772 3.148-.508.762-1.33 1.142-2.469 1.142-1.138 0-1.964-.38-2.48-1.142-.507-.761-.76-1.81-.76-3.148zm4.545 0c0-.777-.085-1.373-.254-1.788-.17-.423-.519-.634-1.05-.634-.53 0-.88.211-1.05.634-.168.415-.253 1.011-.253 1.788 0 .523.03.957.092 1.303.062.338.185.615.37.831.192.207.472.311.841.311.37 0 .646-.104.83-.311a1.67 1.67 0 0 0 .381-.831 7.64 7.64 0 0 0 .093-1.303zm3.026 2.826V218.1l3.644-5.213h2.203v5.098h.946v1.707h-.946v1.499H45.67v-1.499h-3.876zm4.013-4.637-1.937 2.93h1.937v-2.93z" fill="#fff"/><path d="m-12.1 237.848-1.38 1.417a3.383 3.383 0 0 0 4.772 4.796l1.935-1.868a3.608 3.608 0 1 1 4.836 5.353l-.974.824" stroke="url(#e)" stroke-width="1.952" stroke-linecap="round"/><g clip-path="url(#f)" fill-rule="evenodd" clip-rule="evenodd"><path d="M23.179 239.829a.49.49 0 0 0-.233-.417l-7.145-4.422a.49.49 0 0 0-.517 0l-7.145 4.422a.49.49 0 0 0-.232.417v7.174c0 .17.088.328.232.418l7.146 4.422a.49.49 0 0 0 .516 0l7.145-4.422a.493.493 0 0 0 .233-.418v-7.174zm.722 8.11a.493.493 0 0 0 .233-.418v-8.21a.49.49 0 0 0-.233-.417l-8.1-5.013a.49.49 0 0 0-.517 0l-8.1 5.013a.49.49 0 0 0-.232.417v8.21c0 .17.088.328.233.418l8.1 5.013a.49.49 0 0 0 .516 0l8.1-5.013z" fill="url(#g)"/><path d="M19.997 241.336a.492.492 0 0 0-.211-.404l-3.964-2.743a.492.492 0 0 0-.558 0l-3.964 2.743a.492.492 0 0 0-.212.404v4.161c0 .161.08.312.212.404l3.963 2.742c.169.117.391.117.56 0l3.963-2.742a.492.492 0 0 0 .211-.404v-4.161zm.743 5.052a.492.492 0 0 0 .212-.404v-5.135a.492.492 0 0 0-.212-.404l-4.918-3.403a.492.492 0 0 0-.558 0l-4.918 3.403a.492.492 0 0 0-.212.404v5.135c0 .161.079.312.211.404l4.918 3.403c.169.116.391.116.56 0l4.917-3.403z" fill="url(#h)"/><path d="M15.543 233.878c.264 0 .477.21.477.469v2.971a.473.473 0 0 1-.477.469.473.473 0 0 1-.477-.469v-2.971c0-.259.213-.469.477-.469z" fill="url(#i)"/><path d="M15.543 248.889c.264 0 .477.21.477.47v2.971a.473.473 0 0 1-.477.469.473.473 0 0 1-.477-.469v-2.971c0-.26.213-.47.477-.47z" fill="url(#j)"/><path d="M20.22 245.684a.48.48 0 0 1 .652-.172l2.618 1.486a.464.464 0 0 1 .175.64.481.481 0 0 1-.652.172l-2.618-1.485a.465.465 0 0 1-.175-.641z" fill="url(#k)"/><path d="M20.22 241.071a.483.483 0 0 0 .652.172l2.618-1.486a.465.465 0 0 0 .175-.641.483.483 0 0 0-.652-.172l-2.618 1.486a.465.465 0 0 0-.175.641z" fill="url(#l)"/><path d="M10.938 245.684a.48.48 0 0 0-.652-.172l-2.618 1.486a.464.464 0 0 0-.175.64.48.48 0 0 0 .652.172l2.618-1.485a.465.465 0 0 0 .175-.641z" fill="url(#m)"/><path d="M10.938 241.071a.483.483 0 0 1-.652.172l-2.618-1.486a.465.465 0 0 1-.175-.641.483.483 0 0 1 .652-.172l2.618 1.486c.228.13.306.416.175.641z" fill="url(#n)"/></g><path d="M45.848 240.888v6.417l-7.138 4.12-7.141-4.12v-8.244l7.141-4.124 5.486 3.168.828-.477-6.314-3.647-7.97 4.602v9.2l7.97 4.601 7.97-4.601v-7.373l-.832.478z" fill="url(#o)"/><path d="M36.713 247.309H35.52v-4.004h3.98a1.435 1.435 0 0 0 1.312-1.972 1.375 1.375 0 0 0-.312-.457 1.39 1.39 0 0 0-1-.418h-3.98v-1.218h3.985a2.648 2.648 0 0 1 2.635 2.635 2.56 2.56 0 0 1-.466 1.493 2.596 2.596 0 0 1-1.146.94c-.461.146-.942.218-1.425.215h-2.389v2.786z" fill="url(#p)"/><path d="M42.112 247.21h-1.393l-1.075-1.875a4.537 4.537 0 0 0 1.246-.255l1.222 2.13z" fill="url(#q)"/><path d="m45.016 239.555.824.458.824-.458v-.967l-.824-.478-.824.478v.967z" fill="url(#r)"/><path d="M22.18 271.796a2.2 2.2 0 0 1-.335 1.176c-.215.354-.538.646-.969.877-.423.223-.926.346-1.51.369v.934h-.739v-.946c-.815-.069-1.472-.311-1.972-.727-.5-.422-.765-.995-.796-1.718h2.1c.045.461.268.757.668.888v-1.822c-.6-.154-1.08-.304-1.442-.45a2.407 2.407 0 0 1-.934-.704c-.269-.323-.404-.765-.404-1.326 0-.7.258-1.261.773-1.684.523-.423 1.192-.661 2.007-.715v-.934h.738v.934c.808.062 1.446.296 1.915.704.469.407.73.972.784 1.695h-2.11c-.047-.415-.243-.684-.589-.807v1.787c.638.177 1.13.335 1.477.473.346.139.653.369.922.692.277.316.415.75.415 1.304zm-4.245-3.541c0 .192.058.353.173.484.123.131.296.246.52.346v-1.603a.883.883 0 0 0-.508.254c-.123.123-.185.296-.185.519zm1.43 4.429a.902.902 0 0 0 .542-.277.758.758 0 0 0 .208-.542c0-.2-.066-.362-.196-.485-.123-.13-.308-.242-.554-.334v1.638zm4.086-2.861c0-1.322.253-2.364.76-3.125.516-.762 1.342-1.142 2.48-1.142s1.961.38 2.469 1.142c.515.761.772 1.803.772 3.125 0 1.338-.257 2.388-.772 3.149-.508.761-1.33 1.142-2.469 1.142-1.138 0-1.964-.381-2.48-1.142-.507-.761-.76-1.811-.76-3.149zm4.544 0c0-.776-.085-1.372-.254-1.787-.17-.423-.519-.635-1.05-.635-.53 0-.88.212-1.05.635-.168.415-.253 1.011-.253 1.787 0 .523.03.958.092 1.304.062.338.185.615.37.83.192.208.472.311.841.311.37 0 .646-.103.83-.311.193-.215.32-.492.381-.83.062-.346.093-.781.093-1.304zm4.098 4.418c-.346 0-.63-.1-.853-.3a1.018 1.018 0 0 1-.323-.761c0-.308.107-.566.323-.773.223-.208.507-.312.853-.312.338 0 .615.104.83.312.224.207.335.465.335.773 0 .299-.111.553-.334.761-.216.2-.492.3-.83.3zm2.136-4.418c0-1.322.254-2.364.762-3.125.515-.762 1.342-1.142 2.48-1.142 1.137 0 1.96.38 2.468 1.142.515.761.772 1.803.772 3.125 0 1.338-.257 2.388-.772 3.149-.508.761-1.33 1.142-2.469 1.142-1.137 0-1.964-.381-2.48-1.142-.507-.761-.76-1.811-.76-3.149zm4.545 0c0-.776-.085-1.372-.254-1.787-.17-.423-.519-.635-1.05-.635-.53 0-.88.212-1.05.635-.168.415-.253 1.011-.253 1.787 0 .523.03.958.092 1.304.062.338.185.615.37.83.192.208.472.311.841.311.37 0 .646-.103.83-.311.193-.215.32-.492.382-.83.061-.346.092-.781.092-1.304zm2.98 0c0-1.322.253-2.364.76-3.125.516-.762 1.342-1.142 2.48-1.142s1.961.38 2.469 1.142c.515.761.772 1.803.772 3.125 0 1.338-.257 2.388-.772 3.149-.508.761-1.33 1.142-2.469 1.142-1.138 0-1.964-.381-2.48-1.142-.507-.761-.76-1.811-.76-3.149zm4.544 0c0-.776-.085-1.372-.254-1.787-.17-.423-.52-.635-1.05-.635s-.88.212-1.05.635c-.168.415-.253 1.011-.253 1.787 0 .523.03.958.092 1.304.062.338.185.615.37.83.192.208.472.311.841.311.37 0 .646-.103.83-.311.193-.215.32-.492.381-.83.062-.346.093-.781.093-1.304z" fill="#fff"/></g><g opacity=".75" filter="url(#s)"><rect x="331.931" y="160.927" width="170.758" height="60.714" rx="12.735" transform="rotate(90 331.931 160.927)" fill="#336FFF"/></g><g opacity=".75" filter="url(#t)"><rect x="102.461" y="160.927" width="170.758" height="60.714" rx="12.735" transform="rotate(90 102.461 160.927)" fill="#FFA96A"/></g><g filter="url(#u)"><rect x="73.714" y="90" width="229.595" height="315" rx="16" fill="url(#v)" shape-rendering="crispEdges"/><rect x="73.714" y="90" width="229.595" height="315" rx="16" fill="url(#w)" shape-rendering="crispEdges"/><rect x="86.816" y="106.377" width="27" height="27" rx="13.5" fill="#F0B90B"/><path d="m100.315 111.566 2.054 2.103-5.17 5.17-2.053-2.053 5.169-5.22zM103.432 114.683l2.053 2.103-8.286 8.286-2.053-2.053 8.286-8.336zM94.082 117.8l2.053 2.102-2.053 2.053-2.053-2.053 2.053-2.102zM106.549 117.8l2.053 2.102-8.286 8.287-2.054-2.053 8.287-8.336z" fill="#fff" stroke="#fff" stroke-width=".049"/><path d="M243.982 123.825h-3.862l-.619 1.828h-2.639l3.744-10.347h2.919l3.743 10.347h-2.667l-.619-1.828zm-.649-1.945-1.282-3.788-1.268 3.788h2.55z" fill="#1DC981"/><rect x="227.21" y="106.787" width="29.834" height="27.732" rx="13.866" stroke="#1DC981" stroke-width=".819"/><circle cx="277.106" cy="120.653" r="13.102" fill="#F6F6F6"/><path d="m277.105 112.23-.116.384v11.139l.116.112 5.3-3.056-5.3-8.579z" fill="#343434"/><path d="m277.103 112.23-5.301 8.579 5.301 3.056V112.23z" fill="#8C8C8C"/><path d="m277.104 124.845-.065.077v3.968l.065.186 5.304-7.286-5.304 3.055z" fill="#3C3C3B"/><path d="M277.103 129.076v-4.231l-5.301-3.055 5.301 7.286z" fill="#8C8C8C"/><path d="m277.102 123.865 5.301-3.056-5.301-2.35v5.406z" fill="#141414"/><path d="m271.802 120.809 5.301 3.056v-5.406l-5.301 2.35z" fill="#393939"/><path d="M93.994 155.448c.599.128 1.08.428 1.444.899.364.462.545.993.545 1.592 0 .865-.304 1.553-.913 2.064-.6.501-1.44.751-2.52.751h-4.82v-10.347h4.657c1.051 0 1.872.241 2.462.723.599.481.899 1.134.899 1.96 0 .609-.163 1.115-.487 1.518-.314.403-.737.683-1.267.84zm-3.744-.855h1.65c.413 0 .728-.088.944-.265.226-.187.339-.457.339-.811 0-.353-.113-.624-.34-.81-.215-.187-.53-.28-.942-.28H90.25v2.166zm1.857 4.127c.422 0 .747-.093.973-.28.236-.196.353-.476.353-.84 0-.363-.122-.648-.368-.855-.236-.206-.565-.309-.988-.309H90.25v2.284h1.857zm7.814-8.313v6.191c0 .619.153 1.096.457 1.43.305.334.752.501 1.342.501.589 0 1.041-.167 1.356-.501.314-.334.471-.811.471-1.43v-6.191h2.521v6.176c0 .924-.197 1.705-.59 2.344a3.762 3.762 0 0 1-1.592 1.444c-.658.324-1.395.487-2.211.487-.815 0-1.547-.158-2.196-.472a3.639 3.639 0 0 1-1.518-1.445c-.373-.648-.56-1.434-.56-2.358v-6.176h2.52zm11.661 10.451c-.757 0-1.435-.123-2.035-.369a3.37 3.37 0 0 1-1.444-1.091c-.354-.481-.54-1.061-.56-1.739h2.682c.04.383.172.678.398.884.226.197.521.295.885.295.373 0 .668-.083.884-.25.216-.177.324-.418.324-.723a.833.833 0 0 0-.265-.633 1.962 1.962 0 0 0-.634-.413 9.601 9.601 0 0 0-1.061-.369c-.668-.206-1.213-.412-1.636-.619a3.026 3.026 0 0 1-1.091-.913c-.304-.403-.457-.929-.457-1.578 0-.963.349-1.714 1.047-2.255.698-.55 1.606-.825 2.727-.825 1.14 0 2.058.275 2.756.825.698.541 1.071 1.297 1.12 2.27h-2.727c-.019-.334-.142-.594-.368-.781-.226-.197-.516-.295-.87-.295-.304 0-.55.084-.737.251-.186.157-.28.388-.28.693 0 .334.157.594.472.781.314.186.806.388 1.474.604.668.226 1.208.442 1.621.649.423.206.786.506 1.091.899.305.393.457.899.457 1.518 0 .589-.152 1.125-.457 1.606-.295.482-.727.865-1.297 1.15-.57.285-1.243.428-2.019.428zm9.2-10.451c1.091 0 2.044.216 2.86.649a4.566 4.566 0 0 1 1.886 1.828c.452.776.678 1.675.678 2.697 0 1.012-.226 1.911-.678 2.697a4.55 4.55 0 0 1-1.901 1.828c-.815.432-1.764.648-2.845.648h-3.876v-10.347h3.876zm-.162 8.166c.953 0 1.695-.26 2.226-.781.531-.521.796-1.258.796-2.211 0-.953-.265-1.695-.796-2.226-.531-.53-1.273-.796-2.226-.796h-1.194v6.014h1.194z" fill="#fff"/><path d="M94.097 190.488h-4.29l-.736 2.093h-1.754l3.67-10.259h1.945l3.67 10.259h-1.768l-.737-2.093zm-.472-1.371-1.665-4.761-1.68 4.761h3.345zm11.737-3.729a3.09 3.09 0 0 1-.369 1.474c-.246.462-.639.84-1.179 1.135-.541.285-1.233.428-2.078.428h-1.858v4.156h-1.68v-10.244h3.538c.786 0 1.449.138 1.99.413.55.265.958.629 1.223 1.091.275.461.413.977.413 1.547zm-3.626 1.666c.638 0 1.115-.143 1.429-.428.315-.294.472-.707.472-1.238 0-1.12-.634-1.68-1.901-1.68h-1.858v3.346h1.858zm12.819-4.717-3.39 6.53v3.714h-1.68v-3.714l-3.405-6.53h1.872l2.373 5.026 2.373-5.026h1.857z" fill="#7D7D7D"/><path d="M245.208 190.665v-2.034l4.658-6.662h2.815v6.514h1.209v2.182h-1.209v1.916h-2.52v-1.916h-4.953zm5.13-5.925-2.476 3.743h2.476v-3.743zm6.555 2.063c-.923-.491-1.385-1.262-1.385-2.314 0-.531.137-1.012.412-1.444.276-.443.693-.791 1.253-1.047.56-.265 1.248-.398 2.064-.398.815 0 1.498.133 2.049.398.56.256.977.604 1.252 1.047.276.432.413.913.413 1.444 0 .531-.128.993-.383 1.386-.246.393-.58.702-1.002.928.53.256.938.609 1.223 1.061.285.443.427.963.427 1.563 0 .697-.176 1.302-.53 1.813a3.365 3.365 0 0 1-1.445 1.149c-.599.266-1.267.398-2.004.398-.737 0-1.41-.132-2.02-.398a3.384 3.384 0 0 1-1.429-1.149c-.354-.511-.531-1.116-.531-1.813 0-.609.143-1.135.428-1.577a2.803 2.803 0 0 1 1.208-1.047zm3.611-1.931c0-.403-.118-.712-.353-.928-.226-.226-.531-.339-.914-.339s-.693.113-.929.339c-.226.226-.339.54-.339.943 0 .383.118.688.354.914.236.216.54.324.914.324.373 0 .678-.113.914-.339.235-.226.353-.53.353-.914zm-1.267 3.022c-.462 0-.835.128-1.12.383-.285.246-.428.59-.428 1.032 0 .413.138.752.413 1.017.285.265.663.398 1.135.398.471 0 .84-.133 1.105-.398.275-.265.413-.604.413-1.017 0-.432-.143-.776-.427-1.032-.276-.255-.639-.383-1.091-.383zm6.875 4.805c-.442 0-.806-.128-1.091-.383a1.302 1.302 0 0 1-.413-.973c0-.393.138-.722.413-.988.285-.265.649-.398 1.091-.398.432 0 .786.133 1.061.398.285.266.428.595.428.988 0 .383-.143.707-.428.973-.275.255-.629.383-1.061.383zm2.818-7.841c.04-1.052.384-1.862 1.032-2.432.649-.57 1.528-.855 2.639-.855.736 0 1.365.127 1.886.383.531.255.929.604 1.194 1.046.275.443.413.939.413 1.489 0 .649-.162 1.179-.487 1.592-.324.403-.702.678-1.135.825v.059c.561.187 1.003.497 1.327.929.324.432.486.987.486 1.665 0 .61-.142 1.15-.427 1.622-.275.462-.683.825-1.223 1.091-.531.265-1.165.397-1.902.397-1.179 0-2.122-.289-2.83-.869-.697-.58-1.066-1.454-1.105-2.624h2.446c.01.433.133.777.369 1.032.236.246.58.368 1.032.368.383 0 .678-.108.884-.324.216-.226.324-.521.324-.884 0-.472-.152-.811-.457-1.017-.294-.216-.771-.324-1.429-.324h-.472v-2.049h.472c.501 0 .904-.084 1.208-.251.315-.177.472-.486.472-.928 0-.354-.098-.629-.295-.826-.196-.196-.467-.295-.81-.295-.374 0-.654.113-.841.339-.176.226-.28.506-.309.841h-2.462zm8.63-.325c0-.796.226-1.41.678-1.842.462-.432 1.056-.649 1.783-.649.728 0 1.317.217 1.769.649.452.432.678 1.046.678 1.842s-.226 1.41-.678 1.843c-.452.432-1.041.648-1.769.648-.727 0-1.321-.216-1.783-.648-.452-.433-.678-1.047-.678-1.843zm10.008-2.329-5.675 10.377h-2.432l5.675-10.377h2.432zm-7.561 1.312c-.472 0-.708.339-.708 1.017 0 .669.236 1.003.708 1.003a.629.629 0 0 0 .53-.251c.128-.167.192-.418.192-.752 0-.678-.241-1.017-.722-1.017zm4.569 6.736c0-.796.226-1.41.678-1.842.452-.433 1.041-.649 1.769-.649.727 0 1.316.216 1.768.649.452.432.678 1.046.678 1.842s-.226 1.41-.678 1.843c-.452.432-1.041.648-1.768.648-.728 0-1.317-.216-1.769-.648-.452-.433-.678-1.047-.678-1.843zm2.432-1.017a.632.632 0 0 0-.531.251c-.118.167-.177.422-.177.766 0 .668.236 1.003.708 1.003a.629.629 0 0 0 .53-.251c.128-.167.192-.418.192-.752s-.064-.584-.192-.751a.616.616 0 0 0-.53-.266z" fill="#EF9011"/><path d="M94.539 214.163v1.371h-2.727v8.873h-1.68v-8.873H87.39v-1.371h7.149zm10.531 0-3.847 10.244h-1.946l-3.862-10.244h1.798l3.037 8.52 3.051-8.52h1.769zm3.085 8.888h3.464v1.356h-5.144v-10.244h1.68v8.888z" fill="#7D7D7D"/><path d="M252.173 221.4c0 .541-.143 1.042-.428 1.504-.275.452-.688.825-1.238 1.12-.54.285-1.184.442-1.931.472v1.194h-.943v-1.209c-1.042-.089-1.882-.398-2.521-.929-.638-.54-.977-1.272-1.017-2.196h2.683c.059.59.344.968.855 1.135v-2.329c-.767-.196-1.381-.388-1.843-.575a3.067 3.067 0 0 1-1.194-.899c-.343-.412-.515-.977-.515-1.695 0-.894.329-1.611.987-2.152.668-.54 1.523-.845 2.565-.914v-1.193h.943v1.193c1.032.079 1.847.379 2.447.9.599.52.933 1.243 1.002 2.166h-2.697c-.059-.53-.31-.874-.752-1.031v2.284c.816.226 1.445.428 1.887.604.442.177.835.472 1.179.885.354.403.531.958.531 1.665zm-5.425-4.525c0 .246.074.452.221.619.158.167.379.315.664.443v-2.049c-.275.049-.492.157-.649.324-.157.157-.236.378-.236.663zm1.828 5.66c.295-.049.526-.167.693-.353a.97.97 0 0 0 .265-.693.81.81 0 0 0-.25-.619c-.158-.167-.393-.31-.708-.428v2.093zm4.956-6.544v-2.344h4.082v10.76h-2.623v-8.416h-1.459zm8.769 6.087-1.636 4.231h-1.607l.855-4.231h2.388zm1.181.31a54.374 54.374 0 0 0 2.727-2.329 9.278 9.278 0 0 0 1.415-1.607c.383-.56.575-1.105.575-1.636 0-.402-.094-.717-.281-.943-.186-.226-.466-.339-.84-.339a1.05 1.05 0 0 0-.884.428c-.206.275-.31.668-.31 1.179h-2.432c.02-.836.197-1.533.531-2.093.344-.56.791-.973 1.341-1.238a4.277 4.277 0 0 1 1.858-.398c1.169 0 2.048.299 2.638.899.599.599.899 1.38.899 2.343 0 1.052-.359 2.029-1.076 2.933-.717.895-1.631 1.769-2.742 2.624h3.98v2.049h-7.399v-1.872zm16.085-6.544h-4.599v2.034c.197-.217.472-.393.826-.531a3.132 3.132 0 0 1 1.149-.206c.737 0 1.346.167 1.828.501.491.334.85.766 1.076 1.297.226.531.339 1.105.339 1.724 0 1.15-.324 2.064-.973 2.742-.648.668-1.562 1.002-2.741 1.002-.786 0-1.469-.132-2.049-.398-.58-.275-1.027-.653-1.341-1.135-.315-.481-.487-1.036-.516-1.665h2.461c.059.304.202.56.428.766.226.197.535.295.928.295.462 0 .806-.147 1.032-.442.226-.295.339-.688.339-1.179 0-.482-.118-.85-.354-1.106-.236-.255-.58-.383-1.032-.383-.334 0-.609.084-.825.251a1.096 1.096 0 0 0-.427.633h-2.432v-6.411h6.883v2.211zm4.722 5.409c.148.776.6 1.164 1.356 1.164.521 0 .89-.231 1.106-.692.216-.462.324-1.214.324-2.255a2.12 2.12 0 0 1-.884.707 3.038 3.038 0 0 1-1.253.251c-.629 0-1.189-.128-1.68-.384a2.882 2.882 0 0 1-1.165-1.164c-.275-.521-.413-1.15-.413-1.887 0-.727.148-1.361.443-1.901a3.144 3.144 0 0 1 1.282-1.253c.56-.295 1.218-.442 1.975-.442 1.454 0 2.471.452 3.051 1.356.58.904.87 2.235.87 3.994 0 1.278-.118 2.334-.354 3.169-.226.826-.614 1.455-1.164 1.887-.541.432-1.283.648-2.226.648-.747 0-1.386-.147-1.916-.442a3.209 3.209 0 0 1-1.209-1.164 3.677 3.677 0 0 1-.472-1.592h2.329zm1.224-2.815c.412 0 .742-.123.987-.369.246-.255.369-.599.369-1.031 0-.472-.128-.836-.384-1.091-.255-.256-.599-.383-1.031-.383-.433 0-.777.132-1.032.398-.246.255-.369.609-.369 1.061 0 .422.123.766.369 1.032.255.255.619.383 1.091.383z" fill="#fff"/><path d="M95.084 249.041c0 .52-.123 1.012-.368 1.473-.246.462-.639.841-1.18 1.135-.54.285-1.233.428-2.078.428h-1.857v4.156h-1.68v-10.244h3.537c.787 0 1.45.138 1.99.413.55.266.958.629 1.224 1.091.275.462.412.978.412 1.548zm-3.626 1.665c.64 0 1.116-.142 1.43-.427.314-.295.472-.708.472-1.238 0-1.121-.634-1.681-1.902-1.681h-1.857v3.346h1.857zm6.91-1.415c.245-.413.57-.732.972-.958.413-.236.899-.354 1.459-.354v1.74h-.427c-.659 0-1.16.167-1.504.501-.334.334-.5.914-.5 1.739v4.274h-1.681v-8.121h1.68v1.179zm7.498 7.075c-.766 0-1.459-.172-2.078-.516a3.827 3.827 0 0 1-1.459-1.474c-.354-.638-.531-1.375-.531-2.211 0-.825.182-1.557.546-2.196a3.76 3.76 0 0 1 1.488-1.474c.629-.344 1.332-.516 2.108-.516s1.479.172 2.108.516a3.768 3.768 0 0 1 1.489 1.474c.363.639.545 1.371.545 2.196 0 .826-.187 1.558-.56 2.196a3.925 3.925 0 0 1-1.533 1.489 4.405 4.405 0 0 1-2.123.516zm0-1.459a2.45 2.45 0 0 0 1.209-.31c.383-.206.693-.516.929-.928.235-.413.353-.914.353-1.504 0-.589-.113-1.085-.339-1.488a2.271 2.271 0 0 0-.899-.929 2.46 2.46 0 0 0-1.208-.309 2.46 2.46 0 0 0-1.209.309c-.364.206-.653.516-.87.929-.216.403-.324.899-.324 1.488 0 .875.221 1.553.663 2.034.452.472 1.017.708 1.695.708zm9.016-.177 2.3-6.618h1.783l-3.095 8.121h-2.005l-3.08-8.121h1.798l2.299 6.618zm6.208-7.694c-.304 0-.56-.103-.766-.31a1.037 1.037 0 0 1-.31-.766c0-.305.103-.56.31-.766.206-.207.462-.31.766-.31.295 0 .546.103.752.31.206.206.31.461.31.766s-.104.56-.31.766c-.206.207-.457.31-.752.31zm.826 1.076v8.121h-1.681v-8.121h1.681zm1.646 4.024c0-.816.167-1.538.501-2.167a3.747 3.747 0 0 1 4.908-1.636c.521.226.934.531 1.238.914v-3.921h1.695v10.907h-1.695v-1.223c-.275.393-.658.717-1.15.973-.481.255-1.036.383-1.665.383a3.71 3.71 0 0 1-1.946-.531 3.936 3.936 0 0 1-1.385-1.503c-.334-.649-.501-1.381-.501-2.196zm6.647.029c0-.56-.118-1.046-.354-1.459a2.372 2.372 0 0 0-.899-.943 2.37 2.37 0 0 0-1.208-.324c-.433 0-.836.108-1.209.324a2.379 2.379 0 0 0-.914.928c-.226.403-.339.885-.339 1.445s.113 1.051.339 1.474c.236.422.541.747.914.973.383.216.786.324 1.209.324a2.37 2.37 0 0 0 1.208-.324c.374-.217.673-.531.899-.944.236-.422.354-.914.354-1.474zm11.346-.191c0 .304-.02.579-.059.825h-6.206c.049.649.29 1.169.723 1.562.432.394.963.59 1.591.59.904 0 1.543-.378 1.917-1.135h1.813a3.686 3.686 0 0 1-1.342 1.843c-.638.471-1.434.707-2.388.707-.776 0-1.473-.172-2.093-.516a3.859 3.859 0 0 1-1.444-1.474c-.344-.638-.516-1.375-.516-2.211 0-.835.167-1.567.501-2.196a3.627 3.627 0 0 1 1.43-1.474c.619-.344 1.327-.516 2.122-.516.767 0 1.45.167 2.049.501a3.53 3.53 0 0 1 1.4 1.415c.335.6.502 1.293.502 2.079zm-1.754-.531c-.01-.619-.231-1.115-.664-1.489-.432-.373-.968-.56-1.606-.56-.58 0-1.076.187-1.489.56-.413.364-.658.86-.737 1.489h4.496zm5.087-2.152c.246-.413.57-.732.973-.958.413-.236.899-.354 1.46-.354v1.74h-.428c-.658 0-1.159.167-1.503.501-.334.334-.502.914-.502 1.739v4.274h-1.68v-8.121h1.68v1.179zm6.925 7.075c-.639 0-1.214-.113-1.725-.339-.501-.236-.899-.55-1.193-.943a2.389 2.389 0 0 1-.472-1.342h1.739c.03.344.192.634.487.87.304.226.682.339 1.134.339.472 0 .836-.088 1.091-.265.265-.187.398-.423.398-.708 0-.304-.147-.53-.442-.678-.285-.147-.742-.309-1.371-.486a13.195 13.195 0 0 1-1.489-.487 2.673 2.673 0 0 1-1.002-.722c-.275-.324-.412-.751-.412-1.282 0-.432.127-.826.383-1.179.255-.364.619-.649 1.09-.855.482-.207 1.032-.31 1.651-.31.924 0 1.666.236 2.226.708.57.462.874 1.095.914 1.901h-1.681a1.192 1.192 0 0 0-.442-.869c-.265-.217-.624-.325-1.076-.325-.442 0-.781.084-1.017.251a.774.774 0 0 0-.353.663.72.72 0 0 0 .235.546c.158.147.349.265.575.353a21 21 0 0 0 1.002.31c.59.157 1.072.319 1.445.486.383.157.712.393.987.708.276.314.418.732.428 1.253 0 .461-.128.874-.383 1.238-.256.363-.619.648-1.091.855-.462.206-1.007.309-1.636.309z" fill="#7D7D7D"/><g clip-path="url(#x)"><path fill-rule="evenodd" clip-rule="evenodd" d="M269.109 242.905c-2.52 2.752-2.564 7.18-.093 9.294 1.246 1.066 1.47 1.355 1.303 1.686-.197.391-1.694-.136-3.118-1.097-1.935-1.305-2.236-1.385-2.654-.699-.866 1.418-.671 3.564.392 4.314l.435.307.965-.076c2.317-.183 2.797-.098 3.103.551.25.53-.276.689-2.488.753-2.245.066-2.47.199-1.902 1.125 1.004 1.637 2.609 1.956 3.95.784.492-.429.557-.42.735.1 1.225 5.261 13.315 5.261 14.539.092.334-.614.439-.637.909-.195 1.294 1.214 3.194.769 4.049-.949.388-.778.145-.894-2.009-.957-2.212-.064-2.738-.223-2.488-.753.304-.645.845-.744 3.027-.55 1.9.169 2.844-1.264 2.281-3.46-.465-1.813-.869-1.896-2.799-.577-2.833 1.935-4.874 1.888-2.476-.057 2.025-1.642 2.57-3.187 2.054-5.821-.478-2.445-2.086-4.842-2.742-4.089-.558.64-1.537 4.047-2.127 7.402-.398 2.262-.919 2.62-2.998 2.063a7.086 7.086 0 0 0-3.735 0c-2.06.552-2.592.198-2.993-1.994-.687-3.763-1.551-6.78-2.14-7.475-.239-.283-.545-.196-.98.278zm4.137 12.784c.874.252 1.475 1.814 1.211 3.146-.554 2.786-3.208 2.214-3.188-.688.011-1.692.881-2.774 1.977-2.458zm8.538.077c1.275.608 1.566 3.217.487 4.371-.653.7-1.394.701-1.969.003-1.441-1.749-.268-5.209 1.482-4.374z" fill="#fff"/></g><path d="M91.267 282.019c1.09 0 2.044.212 2.86.634a4.372 4.372 0 0 1 1.9 1.798c.453.777.679 1.685.679 2.727 0 1.042-.226 1.946-.678 2.712-.443.767-1.076 1.356-1.902 1.769-.815.403-1.769.604-2.86.604h-3.345v-10.244h3.346zm0 8.873c1.199 0 2.117-.324 2.756-.972.639-.649.958-1.563.958-2.742 0-1.189-.32-2.117-.958-2.786-.639-.668-1.557-1.002-2.756-1.002H89.6v7.502h1.666zm14.547-2.889c0 .305-.019.58-.059.826H99.55c.05.648.29 1.169.722 1.562.433.393.963.59 1.592.59.904 0 1.543-.378 1.916-1.135h1.813a3.672 3.672 0 0 1-1.341 1.842c-.639.472-1.435.708-2.388.708-.776 0-1.474-.172-2.093-.516a3.857 3.857 0 0 1-1.444-1.474c-.344-.639-.516-1.376-.516-2.211s.167-1.567.501-2.196c.344-.639.82-1.13 1.43-1.474.619-.344 1.326-.516 2.122-.516.767 0 1.45.167 2.049.501a3.53 3.53 0 0 1 1.4 1.415c.334.6.501 1.292.501 2.078zm-1.754-.53c-.009-.619-.231-1.115-.663-1.489-.432-.373-.968-.56-1.607-.56-.579 0-1.075.187-1.488.56-.413.364-.659.86-.737 1.489h4.495zm5.088-2.137c.285-.374.673-.688 1.165-.944.491-.255 1.046-.383 1.665-.383.708 0 1.351.177 1.931.531.59.344 1.051.83 1.386 1.459.334.629.501 1.351.501 2.167 0 .815-.167 1.547-.501 2.196a3.79 3.79 0 0 1-1.386 1.503 3.632 3.632 0 0 1-1.931.531c-.619 0-1.169-.123-1.651-.369a3.794 3.794 0 0 1-1.179-.943v5.041h-1.68v-11.983h1.68v1.194zm4.938 2.83c0-.56-.118-1.042-.354-1.445a2.24 2.24 0 0 0-.914-.928 2.416 2.416 0 0 0-2.417 0c-.373.216-.678.53-.914.943-.226.413-.339.899-.339 1.459s.113 1.052.339 1.474c.236.413.541.727.914.943a2.416 2.416 0 0 0 2.417 0c.384-.226.688-.55.914-.972.236-.423.354-.914.354-1.474zm6.894 4.23c-.766 0-1.459-.172-2.078-.516a3.82 3.82 0 0 1-1.459-1.474c-.354-.639-.531-1.376-.531-2.211 0-.825.182-1.557.545-2.196.364-.639.86-1.13 1.489-1.474.629-.344 1.332-.516 2.108-.516s1.479.172 2.108.516a3.766 3.766 0 0 1 1.488 1.474c.364.639.546 1.371.546 2.196 0 .826-.187 1.558-.561 2.196a3.916 3.916 0 0 1-1.532 1.489 4.407 4.407 0 0 1-2.123.516zm0-1.459c.432 0 .835-.104 1.209-.31.383-.206.692-.516.928-.928.236-.413.354-.914.354-1.504 0-.589-.113-1.086-.339-1.489a2.28 2.28 0 0 0-.899-.928 2.45 2.45 0 0 0-1.209-.31 2.45 2.45 0 0 0-1.208.31 2.212 2.212 0 0 0-.87.928c-.216.403-.324.9-.324 1.489 0 .875.221 1.553.663 2.034.452.472 1.017.708 1.695.708zm8.825 1.459c-.639 0-1.214-.113-1.725-.339-.501-.236-.899-.55-1.194-.943a2.389 2.389 0 0 1-.472-1.342h1.74c.029.344.191.634.486.87.305.226.683.339 1.135.339.472 0 .835-.089 1.091-.265.265-.187.398-.423.398-.708 0-.305-.148-.531-.442-.678-.285-.147-.742-.309-1.371-.486a13.332 13.332 0 0 1-1.489-.487 2.673 2.673 0 0 1-1.002-.722c-.275-.324-.413-.752-.413-1.282 0-.433.128-.826.383-1.179.256-.364.619-.649 1.091-.855.482-.207 1.032-.31 1.651-.31.924 0 1.665.236 2.226.708.569.461.874 1.095.913 1.901h-1.68a1.198 1.198 0 0 0-.442-.87c-.265-.216-.624-.324-1.076-.324-.442 0-.781.084-1.017.251a.775.775 0 0 0-.354.663c0 .216.079.398.236.545.157.148.349.266.575.354a21 21 0 0 0 1.002.31c.59.157 1.071.319 1.445.486.383.157.712.393.987.707.275.315.418.733.428 1.253 0 .462-.128.875-.384 1.238-.255.364-.619.649-1.09.855-.462.207-1.008.31-1.636.31zm5.78-9.33c-.305 0-.56-.103-.766-.31a1.038 1.038 0 0 1-.31-.766c0-.305.103-.56.31-.767a1.04 1.04 0 0 1 .766-.309c.295 0 .545.103.752.309.206.207.309.462.309.767 0 .304-.103.56-.309.766-.207.207-.457.31-.752.31zm.825 1.076v8.121h-1.68v-8.121h1.68zm4.167 1.371v4.495c0 .305.069.526.206.663.148.128.393.192.737.192h1.032v1.4h-1.327c-.756 0-1.336-.177-1.739-.53-.403-.354-.604-.929-.604-1.725v-4.495h-.958v-1.371h.958v-2.02h1.695v2.02h1.975v1.371h-1.975zm10.967 2.49c0 .305-.02.58-.059.826h-6.205c.049.648.29 1.169.722 1.562s.963.59 1.592.59c.904 0 1.543-.378 1.916-1.135h1.813a3.684 3.684 0 0 1-1.341 1.842c-.639.472-1.435.708-2.388.708-.776 0-1.474-.172-2.093-.516a3.861 3.861 0 0 1-1.445-1.474c-.344-.639-.515-1.376-.515-2.211s.167-1.567.501-2.196c.344-.639.82-1.13 1.429-1.474.619-.344 1.327-.516 2.123-.516.766 0 1.449.167 2.049.501a3.53 3.53 0 0 1 1.4 1.415c.334.6.501 1.292.501 2.078zm-1.754-.53c-.01-.619-.231-1.115-.663-1.489-.433-.373-.968-.56-1.607-.56-.58 0-1.076.187-1.489.56-.412.364-.658.86-.736 1.489h4.495zm2.848.693c0-.816.167-1.538.501-2.167a3.74 3.74 0 0 1 3.346-1.99c.53 0 1.051.118 1.562.354.521.226.933.53 1.238.914v-3.921h1.695v10.907h-1.695v-1.223c-.275.393-.658.717-1.15.973-.481.255-1.036.383-1.665.383a3.71 3.71 0 0 1-1.946-.531 3.928 3.928 0 0 1-1.385-1.503c-.334-.649-.501-1.381-.501-2.196zm6.647.029c0-.56-.118-1.046-.354-1.459a2.372 2.372 0 0 0-2.107-1.268c-.433 0-.836.108-1.209.325a2.366 2.366 0 0 0-.914.928c-.226.403-.339.885-.339 1.445s.113 1.051.339 1.474c.236.422.54.746.914.972a2.416 2.416 0 0 0 2.417 0c.374-.216.673-.53.899-.943.236-.422.354-.914.354-1.474z" fill="#7D7D7D"/><path d="M256.094 289.256a2.81 2.81 0 0 1-.427 1.504c-.275.452-.688.825-1.238 1.12-.541.285-1.185.442-1.931.472v1.194h-.944v-1.209c-1.041-.089-1.881-.398-2.52-.929-.639-.54-.978-1.272-1.017-2.196h2.682c.059.59.344.968.855 1.135v-2.329c-.766-.196-1.38-.388-1.842-.575a3.067 3.067 0 0 1-1.194-.899c-.344-.412-.516-.977-.516-1.695 0-.894.329-1.611.988-2.152.668-.54 1.523-.845 2.564-.914v-1.193h.944v1.193c1.031.079 1.847.379 2.446.9.6.52.934 1.243 1.003 2.166h-2.698c-.059-.53-.309-.874-.751-1.032v2.285c.815.226 1.444.428 1.886.604.443.177.836.472 1.179.885.354.403.531.958.531 1.665zm-5.424-4.525c0 .246.074.452.221.619.157.167.378.315.663.443v-2.049c-.275.049-.491.157-.648.324-.157.157-.236.378-.236.663zm1.828 5.66c.294-.049.525-.167.692-.353a.97.97 0 0 0 .266-.693.81.81 0 0 0-.251-.619c-.157-.167-.393-.31-.707-.428v2.093zm5.22-3.655c0-1.69.325-3.022.973-3.994.659-.973 1.715-1.46 3.169-1.46 1.455 0 2.506.487 3.154 1.46.659.972.988 2.304.988 3.994 0 1.71-.329 3.051-.988 4.024-.648.973-1.699 1.459-3.154 1.459-1.454 0-2.51-.486-3.169-1.459-.648-.973-.973-2.314-.973-4.024zm5.808 0c0-.993-.108-1.754-.324-2.285-.217-.54-.664-.81-1.342-.81s-1.125.27-1.341.81c-.216.531-.324 1.292-.324 2.285 0 .668.039 1.223.118 1.665.078.433.235.787.471 1.062.246.265.605.398 1.076.398.472 0 .826-.133 1.061-.398.246-.275.408-.629.487-1.062.078-.442.118-.997.118-1.665zm5.237 5.645c-.442 0-.805-.128-1.09-.383a1.297 1.297 0 0 1-.413-.973c0-.393.137-.722.413-.987.285-.266.648-.398 1.09-.398.433 0 .786.132 1.062.398.285.265.427.594.427.987 0 .383-.142.708-.427.973-.276.255-.629.383-1.062.383zm2.73-5.645c0-1.69.325-3.022.973-3.994.659-.973 1.715-1.46 3.169-1.46 1.455 0 2.506.487 3.154 1.46.659.972.988 2.304.988 3.994 0 1.71-.329 3.051-.988 4.024-.648.973-1.699 1.459-3.154 1.459-1.454 0-2.51-.486-3.169-1.459-.648-.973-.973-2.314-.973-4.024zm5.808 0c0-.993-.108-1.754-.324-2.285-.217-.54-.664-.81-1.342-.81s-1.125.27-1.341.81c-.216.531-.324 1.292-.324 2.285 0 .668.039 1.223.118 1.665.078.433.235.787.471 1.062.246.265.605.398 1.076.398.472 0 .826-.133 1.062-.398.245-.275.407-.629.486-1.062.079-.442.118-.997.118-1.665zm3.808 0c0-1.69.324-3.022.972-3.994.659-.973 1.715-1.46 3.169-1.46 1.455 0 2.506.487 3.155 1.46.658.972.987 2.304.987 3.994 0 1.71-.329 3.051-.987 4.024-.649.973-1.7 1.459-3.155 1.459-1.454 0-2.51-.486-3.169-1.459-.648-.973-.972-2.314-.972-4.024zm5.807 0c0-.993-.108-1.754-.324-2.285-.216-.54-.664-.81-1.342-.81s-1.125.27-1.341.81c-.216.531-.324 1.292-.324 2.285 0 .668.039 1.223.118 1.665.078.433.236.787.471 1.062.246.265.605.398 1.076.398.472 0 .826-.133 1.062-.398.245-.275.407-.629.486-1.062.079-.442.118-.997.118-1.665z" fill="#fff"/><rect x="86.816" y="360.072" width="78.653" height="28.551" rx="14.275" fill="#3C4757"/><path d="M103.923 377.254h-4.29l-.736 2.093h-1.754l3.67-10.258h1.946l3.67 10.258h-1.769l-.737-2.093zm-.472-1.371-1.665-4.76-1.68 4.76h3.345zm11.929-4.657v8.121h-1.681v-.958c-.265.334-.614.6-1.046.796-.423.187-.875.28-1.356.28a3.691 3.691 0 0 1-1.725-.398 2.932 2.932 0 0 1-1.194-1.179c-.285-.521-.427-1.15-.427-1.887v-4.775h1.665v4.525c0 .727.182 1.287.546 1.68.363.383.86.575 1.488.575.629 0 1.126-.192 1.489-.575.374-.393.56-.953.56-1.68v-4.525h1.681zm1.656 4.024c0-.816.168-1.538.502-2.167a3.74 3.74 0 0 1 3.345-1.99c.531 0 1.052.118 1.563.354.521.226.933.53 1.238.914v-3.921h1.695v10.907h-1.695v-1.223c-.275.393-.658.717-1.15.973-.481.255-1.036.383-1.665.383a3.71 3.71 0 0 1-1.946-.531 3.935 3.935 0 0 1-1.385-1.503c-.334-.649-.502-1.381-.502-2.196zm6.648.029c0-.56-.118-1.046-.354-1.459a2.372 2.372 0 0 0-2.108-1.268c-.432 0-.835.108-1.208.325a2.366 2.366 0 0 0-.914.928c-.226.403-.339.885-.339 1.445s.113 1.051.339 1.474c.236.422.54.746.914.972a2.415 2.415 0 0 0 2.417 0c.374-.216.673-.53.899-.943.236-.423.354-.914.354-1.474zm4.757-5.129a1.04 1.04 0 0 1-.767-.31 1.041 1.041 0 0 1-.309-.766c0-.305.103-.56.309-.767.207-.206.462-.309.767-.309.295 0 .545.103.752.309.206.207.309.462.309.767 0 .304-.103.56-.309.766-.207.207-.457.31-.752.31zm.825 1.076v8.121h-1.68v-8.121h1.68zm4.167 1.371v4.495c0 .305.068.526.206.663.147.128.393.192.737.192h1.032v1.4h-1.327c-.756 0-1.336-.177-1.739-.53-.403-.354-.604-.929-.604-1.725v-4.495h-.958v-1.371h.958v-2.02h1.695v2.02h1.975v1.371h-1.975zm10.967 2.49c0 .305-.02.58-.059.826h-6.205c.049.648.29 1.169.722 1.562s.963.59 1.592.59c.904 0 1.542-.378 1.916-1.135h1.813a3.684 3.684 0 0 1-1.341 1.842c-.639.472-1.435.708-2.388.708-.777 0-1.474-.172-2.093-.516a3.854 3.854 0 0 1-1.445-1.474c-.344-.639-.516-1.376-.516-2.211s.167-1.567.502-2.196c.343-.639.82-1.13 1.429-1.474.619-.344 1.327-.516 2.123-.516.766 0 1.449.167 2.049.501a3.53 3.53 0 0 1 1.4 1.415c.334.6.501 1.292.501 2.078zm-1.754-.53c-.01-.619-.231-1.115-.663-1.489-.433-.373-.968-.56-1.607-.56-.58 0-1.076.187-1.489.56-.412.364-.658.86-.737 1.489h4.496zm2.847.693c0-.816.167-1.538.502-2.167a3.736 3.736 0 0 1 3.345-1.99c.531 0 1.052.118 1.563.354.521.226.933.53 1.238.914v-3.921h1.695v10.907h-1.695v-1.223c-.275.393-.659.717-1.15.973-.481.255-1.036.383-1.665.383a3.71 3.71 0 0 1-1.946-.531 3.928 3.928 0 0 1-1.385-1.503c-.335-.649-.502-1.381-.502-2.196zm6.648.029c0-.56-.118-1.046-.354-1.459a2.363 2.363 0 0 0-2.108-1.268c-.432 0-.835.108-1.208.325a2.366 2.366 0 0 0-.914.928c-.226.403-.339.885-.339 1.445s.113 1.051.339 1.474c.236.422.54.746.914.972a2.415 2.415 0 0 0 2.417 0 2.38 2.38 0 0 0 .899-.943c.236-.423.354-.914.354-1.474z" fill="#fff"/><rect x="74.268" y="90.555" width="228.486" height="313.891" rx="15.445" stroke="url(#y)" stroke-width="1.109" shape-rendering="crispEdges"/></g></g><defs><linearGradient id="l" x1="6.952" y1="243.416" x2="24.134" y2="243.416" gradientUnits="userSpaceOnUse"><stop stop-color="#5490DD"/><stop offset="1" stop-color="#D875AC"/></linearGradient><linearGradient id="m" x1="6.952" y1="243.416" x2="24.134" y2="243.416" gradientUnits="userSpaceOnUse"><stop stop-color="#5490DD"/><stop offset="1" stop-color="#D875AC"/></linearGradient><linearGradient id="g" x1="6.952" y1="243.416" x2="24.134" y2="243.416" gradientUnits="userSpaceOnUse"><stop stop-color="#5490DD"/><stop offset="1" stop-color="#D875AC"/></linearGradient><linearGradient id="h" x1="6.952" y1="243.416" x2="24.134" y2="243.416" gradientUnits="userSpaceOnUse"><stop stop-color="#5490DD"/><stop offset="1" stop-color="#D875AC"/></linearGradient><linearGradient id="i" x1="6.952" y1="243.416" x2="24.134" y2="243.416" gradientUnits="userSpaceOnUse"><stop stop-color="#5490DD"/><stop offset="1" stop-color="#D875AC"/></linearGradient><linearGradient id="j" x1="6.952" y1="243.416" x2="24.134" y2="243.416" gradientUnits="userSpaceOnUse"><stop stop-color="#5490DD"/><stop offset="1" stop-color="#D875AC"/></linearGradient><linearGradient id="k" x1="6.952" y1="243.416" x2="24.134" y2="243.416" gradientUnits="userSpaceOnUse"><stop stop-color="#5490DD"/><stop offset="1" stop-color="#D875AC"/></linearGradient><linearGradient id="e" x1="-14.442" y1="241.486" x2="-3.392" y2="244.205" gradientUnits="userSpaceOnUse"><stop stop-color="#FF9351"/><stop offset="1" stop-color="#FF5C28"/></linearGradient><linearGradient id="n" x1="6.952" y1="243.416" x2="24.134" y2="243.416" gradientUnits="userSpaceOnUse"><stop stop-color="#5490DD"/><stop offset="1" stop-color="#D875AC"/></linearGradient><linearGradient id="o" x1="46.666" y1="238.588" x2="29.766" y2="245.346" gradientUnits="userSpaceOnUse"><stop stop-color="#C200FB"/><stop offset=".49" stop-color="#3772FF"/><stop offset=".49" stop-color="#3773FE"/><stop offset="1" stop-color="#5AC4BE"/></linearGradient><linearGradient id="p" x1="46.667" y1="238.588" x2="29.767" y2="245.347" gradientUnits="userSpaceOnUse"><stop stop-color="#C200FB"/><stop offset=".49" stop-color="#3772FF"/><stop offset=".49" stop-color="#3773FE"/><stop offset="1" stop-color="#5AC4BE"/></linearGradient><linearGradient id="q" x1="46.668" y1="238.589" x2="29.768" y2="245.347" gradientUnits="userSpaceOnUse"><stop stop-color="#C200FB"/><stop offset=".49" stop-color="#3772FF"/><stop offset=".49" stop-color="#3773FE"/><stop offset="1" stop-color="#5AC4BE"/></linearGradient><linearGradient id="r" x1="46.666" y1="238.589" x2="29.767" y2="245.347" gradientUnits="userSpaceOnUse"><stop stop-color="#C200FB"/><stop offset=".49" stop-color="#3772FF"/><stop offset=".49" stop-color="#3773FE"/><stop offset="1" stop-color="#5AC4BE"/></linearGradient><linearGradient id="v" x1="74.192" y1="90" x2="288.294" y2="414.879" gradientUnits="userSpaceOnUse"><stop stop-color="#424F62"/><stop offset="1" stop-color="#1E242D"/></linearGradient><linearGradient id="y" x1="74.192" y1="90" x2="205.212" y2="324.254" gradientUnits="userSpaceOnUse"><stop stop-color="#fff"/><stop offset="1" stop-color="#fff" stop-opacity="0"/></linearGradient><filter id="s" x="144.73" y="34.44" width="313.688" height="423.731" filterUnits="userSpaceOnUse" color-interpolation-filters="sRGB"><feFlood flood-opacity="0" result="BackgroundImageFix"/><feBlend in="SourceGraphic" in2="BackgroundImageFix" result="shape"/><feGaussianBlur stdDeviation="63.243" result="effect1_foregroundBlur_7284_39682"/></filter><filter id="t" x="-84.74" y="34.44" width="313.688" height="423.731" filterUnits="userSpaceOnUse" color-interpolation-filters="sRGB"><feFlood flood-opacity="0" result="BackgroundImageFix"/><feBlend in="SourceGraphic" in2="BackgroundImageFix" result="shape"/><feGaussianBlur stdDeviation="63.243" result="effect1_foregroundBlur_7284_39682"/></filter><filter id="d" x="-124.924" y="116.182" width="188.398" height="267.852" filterUnits="userSpaceOnUse" color-interpolation-filters="sRGB"><feFlood flood-opacity="0" result="BackgroundImageFix"/><feColorMatrix in="SourceAlpha" values="0 0 0 0 0 0 0 0 0 0 0 0 0 0 0 0 0 0 127 0" result="hardAlpha"/><feOffset dy="4.172"/><feGaussianBlur stdDeviation="2.086"/><feComposite in2="hardAlpha" operator="out"/><feColorMatrix values="0 0 0 0 0 0 0 0 0 0 0 0 0 0 0 0 0 0 0.25 0"/><feBlend in2="BackgroundImageFix" result="effect1_dropShadow_7284_39682"/><feBlend in="SourceGraphic" in2="effect1_dropShadow_7284_39682" result="shape"/></filter><filter id="u" x="67.059" y="83.345" width="287.271" height="372.676" filterUnits="userSpaceOnUse" color-interpolation-filters="sRGB"><feFlood flood-opacity="0" result="BackgroundImageFix"/><feColorMatrix in="SourceAlpha" values="0 0 0 0 0 0 0 0 0 0 0 0 0 0 0 0 0 0 127 0" result="hardAlpha"/><feOffset dx="22.183" dy="22.183"/><feGaussianBlur stdDeviation="14.419"/><feComposite in2="hardAlpha" operator="out"/><feColorMatrix values="0 0 0 0 0 0 0 0 0 0 0 0 0 0 0 0 0 0 0.3 0"/><feBlend in2="BackgroundImageFix" result="effect1_dropShadow_7284_39682"/><feBlend in="SourceGraphic" in2="effect1_dropShadow_7284_39682" result="shape"/></filter><filter id="b" x="312.983" y="116.182" width="188.398" height="267.852" filterUnits="userSpaceOnUse" color-interpolation-filters="sRGB"><feFlood flood-opacity="0" result="BackgroundImageFix"/><feColorMatrix in="SourceAlpha" values="0 0 0 0 0 0 0 0 0 0 0 0 0 0 0 0 0 0 127 0" result="hardAlpha"/><feOffset dy="4.172"/><feGaussianBlur stdDeviation="2.086"/><feComposite in2="hardAlpha" operator="out"/><feColorMatrix values="0 0 0 0 0 0 0 0 0 0 0 0 0 0 0 0 0 0 0.25 0"/><feBlend in2="BackgroundImageFix" result="effect1_dropShadow_7284_39682"/><feBlend in="SourceGraphic" in2="effect1_dropShadow_7284_39682" result="shape"/></filter><clipPath id="a"><path fill="#fff" d="M0 0h375v503H0z"/></clipPath><clipPath id="c"><path fill="#fff" transform="translate(327.407 128.997)" d="M0 0h21.003v21.003H0z"/></clipPath><clipPath id="f"><path fill="#fff" transform="translate(5.402 232.917)" d="M0 0h20.504v20.504H0z"/></clipPath><clipPath id="x"><path fill="#fff" transform="translate(264.004 240.233)" d="M0 0h26.203v26.203H0z"/></clipPath><radialGradient id="w" cx="0" cy="0" r="1" gradientUnits="userSpaceOnUse" gradientTransform="rotate(148.116 114.937 171.276) scale(224.349 194.264)"><stop stop-color="#fff" stop-opacity=".17"/><stop offset="1" stop-color="#455163" stop-opacity="0"/></radialGradient></defs></svg>