<svg width="375" height="503" viewBox="0 0 375 503" fill="none" xmlns="http://www.w3.org/2000/svg">
<g clip-path="url(#clip0_7284_39899)">
<path opacity="0.1" d="M61 45V465.5" stroke="url(#paint0_linear_7284_39899)" stroke-width="1.4"/>
<path opacity="0.1" d="M124 45V465.5" stroke="url(#paint1_linear_7284_39899)" stroke-width="1.4"/>
<path opacity="0.1" d="M188 45V465.5" stroke="url(#paint2_linear_7284_39899)" stroke-width="1.4"/>
<path opacity="0.1" d="M252 45V465.5" stroke="url(#paint3_linear_7284_39899)" stroke-width="1.4"/>
<path opacity="0.1" d="M316 45V465.5" stroke="url(#paint4_linear_7284_39899)" stroke-width="1.4"/>
<path opacity="0.1" d="M16 412L359 412" stroke="url(#paint5_linear_7284_39899)" stroke-width="1.4"/>
<path opacity="0.1" d="M16 348L359 348" stroke="url(#paint6_linear_7284_39899)" stroke-width="1.4"/>
<path opacity="0.1" d="M16 284L359 284" stroke="url(#paint7_linear_7284_39899)" stroke-width="1.4"/>
<path opacity="0.1" d="M16 220L359 220" stroke="url(#paint8_linear_7284_39899)" stroke-width="1.4"/>
<path opacity="0.1" d="M16 156L359 156" stroke="url(#paint9_linear_7284_39899)" stroke-width="1.4"/>
<path opacity="0.1" d="M16 92L359 92" stroke="url(#paint10_linear_7284_39899)" stroke-width="1.4"/>
<g opacity="0.5">
<g opacity="0.75" filter="url(#filter0_f_7284_39899)">
<rect x="304" y="225" width="44" height="47" rx="12.3293" transform="rotate(90 304 225)" fill="#4ADE80"/>
</g>
<g opacity="0.75" filter="url(#filter1_f_7284_39899)">
<rect x="257" y="296" width="43" height="47" rx="12.3293" transform="rotate(90 257 296)" fill="#4ADE80"/>
</g>
<g opacity="0.75" filter="url(#filter2_f_7284_39899)">
<rect x="234" y="180" width="95" height="103" rx="12.3293" transform="rotate(90 234 180)" fill="#4ADE80"/>
</g>
<g opacity="0.75" filter="url(#filter3_f_7284_39899)">
<rect x="249" y="359" width="43" height="47" rx="12.3293" transform="rotate(90 249 359)" fill="#4ADE80"/>
</g>
<g opacity="0.75" filter="url(#filter4_f_7284_39899)">
<rect x="183" y="147" width="43" height="47" rx="12.3293" transform="rotate(90 183 147)" fill="#4ADE80"/>
</g>
<g opacity="0.75" filter="url(#filter5_f_7284_39899)">
<rect x="299" y="172" width="44" height="47" rx="12.3293" transform="rotate(90 299 172)" fill="#4ADE80"/>
</g>
<g opacity="0.75" filter="url(#filter6_f_7284_39899)">
<rect x="130" y="99" width="43" height="47" rx="12.3293" transform="rotate(90 130 99)" fill="#FFC700"/>
</g>
<g opacity="0.75" filter="url(#filter7_f_7284_39899)">
<rect x="89" y="291" width="43" height="47" rx="12.3293" transform="rotate(90 89 291)" fill="#FFC700"/>
</g>
<g opacity="0.75" filter="url(#filter8_f_7284_39899)">
<rect x="166" y="364" width="43" height="47" rx="12.3293" transform="rotate(90 166 364)" fill="#FFC700"/>
</g>
<g opacity="0.75" filter="url(#filter9_f_7284_39899)">
<rect x="323" y="335" width="66" height="71" rx="12.3293" transform="rotate(90 323 335)" fill="#FF3C3C"/>
</g>
<g opacity="0.75" filter="url(#filter10_f_7284_39899)">
<rect x="303" y="76" width="54" height="57" rx="12.3293" transform="rotate(90 303 76)" fill="#FF3C3C"/>
</g>
</g>
<g filter="url(#filter11_d_7284_39899)">
<rect x="228" y="196" width="48" height="48" rx="12" fill="url(#paint11_linear_7284_39899)" shape-rendering="crispEdges"/>
<path d="M254.934 224.574H248.818L247.806 227.5H244.572L250.094 212.122H253.68L259.202 227.5H255.946L254.934 224.574ZM254.098 222.11L251.876 215.686L249.654 222.11H254.098Z" fill="#1DC981"/>
<rect x="228.555" y="196.555" width="46.89" height="46.89" rx="11.445" stroke="url(#paint12_linear_7284_39899)" stroke-width="1.11" shape-rendering="crispEdges"/>
</g>
<g filter="url(#filter12_d_7284_39899)">
<rect x="100" y="132" width="48" height="48" rx="12" fill="url(#paint13_linear_7284_39899)" shape-rendering="crispEdges"/>
<path d="M126.934 160.574H120.818L119.806 163.5H116.572L122.094 148.122H125.68L131.202 163.5H127.946L126.934 160.574ZM126.098 158.11L123.876 151.686L121.654 158.11H126.098Z" fill="#1DC981"/>
<rect x="100.555" y="132.555" width="46.89" height="46.89" rx="11.445" stroke="url(#paint14_linear_7284_39899)" stroke-width="1.11" shape-rendering="crispEdges"/>
</g>
<g opacity="0.7">
<rect x="164.555" y="132.555" width="46.89" height="46.89" rx="11.445" fill="url(#paint15_linear_7284_39899)" fill-opacity="0.3"/>
<path d="M183.73 155.624C184.595 155.785 185.307 156.218 185.864 156.922C186.421 157.626 186.7 158.433 186.7 159.342C186.7 160.163 186.495 160.889 186.084 161.52C185.688 162.136 185.109 162.62 184.346 162.972C183.583 163.324 182.681 163.5 181.64 163.5H175.018V148.144H181.354C182.395 148.144 183.29 148.313 184.038 148.65C184.801 148.987 185.373 149.457 185.754 150.058C186.15 150.659 186.348 151.341 186.348 152.104C186.348 152.999 186.106 153.747 185.622 154.348C185.153 154.949 184.522 155.375 183.73 155.624ZM178.098 154.48H180.914C181.647 154.48 182.212 154.319 182.608 153.996C183.004 153.659 183.202 153.182 183.202 152.566C183.202 151.95 183.004 151.473 182.608 151.136C182.212 150.799 181.647 150.63 180.914 150.63H178.098V154.48ZM181.2 160.992C181.948 160.992 182.527 160.816 182.938 160.464C183.363 160.112 183.576 159.613 183.576 158.968C183.576 158.308 183.356 157.795 182.916 157.428C182.476 157.047 181.882 156.856 181.134 156.856H178.098V160.992H181.2ZM200.661 157.01H196.503V161.278H193.599V157.01H189.441V154.326H193.599V150.058H196.503V154.326H200.661V157.01Z" fill="#FFD15C"/>
<rect x="164.555" y="132.555" width="46.89" height="46.89" rx="11.445" stroke="url(#paint16_linear_7284_39899)" stroke-width="1.11"/>
</g>
<g opacity="0.3">
<rect x="292.555" y="132.555" width="46.89" height="46.89" rx="11.445" fill="url(#paint17_linear_7284_39899)" fill-opacity="0.3"/>
<path d="M308.27 155.8C308.27 154.289 308.607 152.94 309.282 151.752C309.971 150.549 310.903 149.618 312.076 148.958C313.264 148.283 314.591 147.946 316.058 147.946C317.774 147.946 319.277 148.386 320.568 149.266C321.859 150.146 322.761 151.363 323.274 152.918H319.732C319.38 152.185 318.881 151.635 318.236 151.268C317.605 150.901 316.872 150.718 316.036 150.718C315.141 150.718 314.342 150.931 313.638 151.356C312.949 151.767 312.406 152.353 312.01 153.116C311.629 153.879 311.438 154.773 311.438 155.8C311.438 156.812 311.629 157.707 312.01 158.484C312.406 159.247 312.949 159.841 313.638 160.266C314.342 160.677 315.141 160.882 316.036 160.882C316.872 160.882 317.605 160.699 318.236 160.332C318.881 159.951 319.38 159.393 319.732 158.66H323.274C322.761 160.229 321.859 161.454 320.568 162.334C319.292 163.199 317.789 163.632 316.058 163.632C314.591 163.632 313.264 163.302 312.076 162.642C310.903 161.967 309.971 161.036 309.282 159.848C308.607 158.66 308.27 157.311 308.27 155.8Z" fill="#FF5151"/>
<rect x="292.555" y="132.555" width="46.89" height="46.89" rx="11.445" stroke="url(#paint18_linear_7284_39899)" stroke-width="1.11"/>
</g>
<g filter="url(#filter13_d_7284_39899)">
<rect x="164" y="324" width="48" height="48" rx="12" fill="url(#paint19_linear_7284_39899)" shape-rendering="crispEdges"/>
<path d="M190.934 352.574H184.818L183.806 355.5H180.572L186.094 340.122H189.68L195.202 355.5H191.946L190.934 352.574ZM190.098 350.11L187.876 343.686L185.654 350.11H190.098Z" fill="#1DC981"/>
<rect x="164.555" y="324.555" width="46.89" height="46.89" rx="11.445" stroke="url(#paint20_linear_7284_39899)" stroke-width="1.11" shape-rendering="crispEdges"/>
</g>
<g filter="url(#filter14_d_7284_39899)">
<rect x="228" y="132" width="48" height="48" rx="12" fill="url(#paint21_linear_7284_39899)" shape-rendering="crispEdges"/>
<path d="M254.934 160.574H248.818L247.806 163.5H244.572L250.094 148.122H253.68L259.202 163.5H255.946L254.934 160.574ZM254.098 158.11L251.876 151.686L249.654 158.11H254.098Z" fill="#1DC981"/>
<rect x="228.555" y="132.555" width="46.89" height="46.89" rx="11.445" stroke="url(#paint22_linear_7284_39899)" stroke-width="1.11" shape-rendering="crispEdges"/>
</g>
<g opacity="0.7">
<rect x="164.555" y="68.555" width="46.89" height="46.89" rx="11.445" fill="url(#paint23_linear_7284_39899)" fill-opacity="0.3"/>
<path d="M190.73 91.624C191.595 91.7853 192.307 92.218 192.864 92.922C193.421 93.626 193.7 94.4327 193.7 95.342C193.7 96.1633 193.495 96.8893 193.084 97.52C192.688 98.136 192.109 98.62 191.346 98.972C190.583 99.324 189.681 99.5 188.64 99.5H182.018V84.144H188.354C189.395 84.144 190.29 84.3127 191.038 84.65C191.801 84.9873 192.373 85.4567 192.754 86.058C193.15 86.6593 193.348 87.3413 193.348 88.104C193.348 88.9987 193.106 89.7467 192.622 90.348C192.153 90.9493 191.522 91.3747 190.73 91.624ZM185.098 90.48H187.914C188.647 90.48 189.212 90.3187 189.608 89.996C190.004 89.6587 190.202 89.182 190.202 88.566C190.202 87.95 190.004 87.4733 189.608 87.136C189.212 86.7987 188.647 86.63 187.914 86.63H185.098V90.48ZM188.2 96.992C188.948 96.992 189.527 96.816 189.938 96.464C190.363 96.112 190.576 95.6133 190.576 94.968C190.576 94.308 190.356 93.7947 189.916 93.428C189.476 93.0467 188.882 92.856 188.134 92.856H185.098V96.992H188.2Z" fill="#FFD15C"/>
<rect x="164.555" y="68.555" width="46.89" height="46.89" rx="11.445" stroke="url(#paint24_linear_7284_39899)" stroke-width="1.11"/>
</g>
<g opacity="0.16">
<rect x="100.555" y="68.555" width="46.89" height="46.89" rx="11.445" fill="url(#paint25_linear_7284_39899)" fill-opacity="0.3"/>
<path d="M119.73 91.624C120.595 91.7853 121.307 92.218 121.864 92.922C122.421 93.626 122.7 94.4327 122.7 95.342C122.7 96.1633 122.495 96.8893 122.084 97.52C121.688 98.136 121.109 98.62 120.346 98.972C119.583 99.324 118.681 99.5 117.64 99.5H111.018V84.144H117.354C118.395 84.144 119.29 84.3127 120.038 84.65C120.801 84.9873 121.373 85.4567 121.754 86.058C122.15 86.6593 122.348 87.3413 122.348 88.104C122.348 88.9987 122.106 89.7467 121.622 90.348C121.153 90.9493 120.522 91.3747 119.73 91.624ZM114.098 90.48H116.914C117.647 90.48 118.212 90.3187 118.608 89.996C119.004 89.6587 119.202 89.182 119.202 88.566C119.202 87.95 119.004 87.4733 118.608 87.136C118.212 86.7987 117.647 86.63 116.914 86.63H114.098V90.48ZM117.2 96.992C117.948 96.992 118.527 96.816 118.938 96.464C119.363 96.112 119.576 95.6133 119.576 94.968C119.576 94.308 119.356 93.7947 118.916 93.428C118.476 93.0467 117.882 92.856 117.134 92.856H114.098V96.992H117.2ZM136.661 93.01H132.503V97.278H129.599V93.01H125.441V90.326H129.599V86.058H132.503V90.326H136.661V93.01Z" fill="#FFD15C"/>
<rect x="100.555" y="68.555" width="46.89" height="46.89" rx="11.445" stroke="url(#paint26_linear_7284_39899)" stroke-width="1.11"/>
</g>
<g opacity="0.3">
<rect x="228.555" y="68.555" width="46.89" height="46.89" rx="11.445" fill="url(#paint27_linear_7284_39899)" fill-opacity="0.3"/>
<path d="M248.73 91.624C249.595 91.7853 250.307 92.218 250.864 92.922C251.421 93.626 251.7 94.4327 251.7 95.342C251.7 96.1633 251.495 96.8893 251.084 97.52C250.688 98.136 250.109 98.62 249.346 98.972C248.583 99.324 247.681 99.5 246.64 99.5H240.018V84.144H246.354C247.395 84.144 248.29 84.3127 249.038 84.65C249.801 84.9873 250.373 85.4567 250.754 86.058C251.15 86.6593 251.348 87.3413 251.348 88.104C251.348 88.9987 251.106 89.7467 250.622 90.348C250.153 90.9493 249.522 91.3747 248.73 91.624ZM243.098 90.48H245.914C246.647 90.48 247.212 90.3187 247.608 89.996C248.004 89.6587 248.202 89.182 248.202 88.566C248.202 87.95 248.004 87.4733 247.608 87.136C247.212 86.7987 246.647 86.63 245.914 86.63H243.098V90.48ZM246.2 96.992C246.948 96.992 247.527 96.816 247.938 96.464C248.363 96.112 248.576 95.6133 248.576 94.968C248.576 94.308 248.356 93.7947 247.916 93.428C247.476 93.0467 246.882 92.856 246.134 92.856H243.098V96.992H246.2ZM263.527 90.348V92.944H254.199V90.348H263.527Z" fill="#FFD15C"/>
<rect x="228.555" y="68.555" width="46.89" height="46.89" rx="11.445" stroke="url(#paint28_linear_7284_39899)" stroke-width="1.11"/>
</g>
<g opacity="0.07">
<rect x="292.555" y="68.555" width="46.89" height="46.89" rx="11.445" fill="url(#paint29_linear_7284_39899)" fill-opacity="0.3"/>
<path d="M300.77 91.8C300.77 90.2893 301.107 88.94 301.782 87.752C302.471 86.5493 303.403 85.618 304.576 84.958C305.764 84.2833 307.091 83.946 308.558 83.946C310.274 83.946 311.777 84.386 313.068 85.266C314.359 86.146 315.261 87.3633 315.774 88.918H312.232C311.88 88.1847 311.381 87.6347 310.736 87.268C310.105 86.9013 309.372 86.718 308.536 86.718C307.641 86.718 306.842 86.9307 306.138 87.356C305.449 87.7667 304.906 88.3533 304.51 89.116C304.129 89.8787 303.938 90.7733 303.938 91.8C303.938 92.812 304.129 93.7067 304.51 94.484C304.906 95.2467 305.449 95.8407 306.138 96.266C306.842 96.6767 307.641 96.882 308.536 96.882C309.372 96.882 310.105 96.6987 310.736 96.332C311.381 95.9507 311.88 95.3933 312.232 94.66H315.774C315.261 96.2293 314.359 97.454 313.068 98.334C311.792 99.1993 310.289 99.632 308.558 99.632C307.091 99.632 305.764 99.302 304.576 98.642C303.403 97.9673 302.471 97.036 301.782 95.848C301.107 94.66 300.77 93.3107 300.77 91.8ZM329.911 93.01H325.753V97.278H322.849V93.01H318.691V90.326H322.849V86.058H325.753V90.326H329.911V93.01Z" fill="#FF5151"/>
<rect x="292.555" y="68.555" width="46.89" height="46.89" rx="11.445" stroke="url(#paint30_linear_7284_39899)" stroke-width="1.11"/>
</g>
<g filter="url(#filter15_d_7284_39899)">
<rect x="164" y="260" width="48" height="48" rx="12" fill="url(#paint31_linear_7284_39899)" shape-rendering="crispEdges"/>
<path d="M183.434 288.574H177.318L176.306 291.5H173.072L178.594 276.122H182.18L187.702 291.5H184.446L183.434 288.574ZM182.598 286.11L180.376 279.686L178.154 286.11H182.598ZM201.272 285.01H197.114V289.278H194.21V285.01H190.052V282.326H194.21V278.058H197.114V282.326H201.272V285.01Z" fill="#1DC981"/>
<rect x="164.555" y="260.555" width="46.89" height="46.89" rx="11.445" stroke="url(#paint32_linear_7284_39899)" stroke-width="1.11" shape-rendering="crispEdges"/>
</g>
<g opacity="0.16">
<rect x="36.555" y="132.555" width="46.89" height="46.89" rx="11.445" fill="url(#paint33_linear_7284_39899)" fill-opacity="0.3"/>
<path d="M56.73 155.624C57.5953 155.785 58.3067 156.218 58.864 156.922C59.4213 157.626 59.7 158.433 59.7 159.342C59.7 160.163 59.4947 160.889 59.084 161.52C58.688 162.136 58.1087 162.62 57.346 162.972C56.5833 163.324 55.6813 163.5 54.64 163.5H48.018V148.144H54.354C55.3953 148.144 56.29 148.313 57.038 148.65C57.8007 148.987 58.3727 149.457 58.754 150.058C59.15 150.659 59.348 151.341 59.348 152.104C59.348 152.999 59.106 153.747 58.622 154.348C58.1527 154.949 57.522 155.375 56.73 155.624ZM51.098 154.48H53.914C54.6473 154.48 55.212 154.319 55.608 153.996C56.004 153.659 56.202 153.182 56.202 152.566C56.202 151.95 56.004 151.473 55.608 151.136C55.212 150.799 54.6473 150.63 53.914 150.63H51.098V154.48ZM54.2 160.992C54.948 160.992 55.5273 160.816 55.938 160.464C56.3633 160.112 56.576 159.613 56.576 158.968C56.576 158.308 56.356 157.795 55.916 157.428C55.476 157.047 54.882 156.856 54.134 156.856H51.098V160.992H54.2ZM71.5267 154.348V156.944H62.1987V154.348H71.5267Z" fill="#FFD15C"/>
<rect x="36.555" y="132.555" width="46.89" height="46.89" rx="11.445" stroke="url(#paint34_linear_7284_39899)" stroke-width="1.11"/>
</g>
<g opacity="0.07">
<rect x="36.555" y="68.555" width="46.89" height="46.89" rx="11.445" fill="url(#paint35_linear_7284_39899)" fill-opacity="0.3"/>
<path d="M62.73 91.624C63.5953 91.7853 64.3067 92.218 64.864 92.922C65.4213 93.626 65.7 94.4327 65.7 95.342C65.7 96.1633 65.4947 96.8893 65.084 97.52C64.688 98.136 64.1087 98.62 63.346 98.972C62.5833 99.324 61.6813 99.5 60.64 99.5H54.018V84.144H60.354C61.3953 84.144 62.29 84.3127 63.038 84.65C63.8007 84.9873 64.3727 85.4567 64.754 86.058C65.15 86.6593 65.348 87.3413 65.348 88.104C65.348 88.9987 65.106 89.7467 64.622 90.348C64.1527 90.9493 63.522 91.3747 62.73 91.624ZM57.098 90.48H59.914C60.6473 90.48 61.212 90.3187 61.608 89.996C62.004 89.6587 62.202 89.182 62.202 88.566C62.202 87.95 62.004 87.4733 61.608 87.136C61.212 86.7987 60.6473 86.63 59.914 86.63H57.098V90.48ZM60.2 96.992C60.948 96.992 61.5273 96.816 61.938 96.464C62.3633 96.112 62.576 95.6133 62.576 94.968C62.576 94.308 62.356 93.7947 61.916 93.428C61.476 93.0467 60.882 92.856 60.134 92.856H57.098V96.992H60.2Z" fill="#FFD15C"/>
<rect x="36.555" y="68.555" width="46.89" height="46.89" rx="11.445" stroke="url(#paint36_linear_7284_39899)" stroke-width="1.11"/>
</g>
<g opacity="0.7">
<rect x="100.555" y="324.555" width="46.89" height="46.89" rx="11.445" fill="url(#paint37_linear_7284_39899)" fill-opacity="0.3"/>
<path d="M126.73 347.624C127.595 347.785 128.307 348.218 128.864 348.922C129.421 349.626 129.7 350.433 129.7 351.342C129.7 352.163 129.495 352.889 129.084 353.52C128.688 354.136 128.109 354.62 127.346 354.972C126.583 355.324 125.681 355.5 124.64 355.5H118.018V340.144H124.354C125.395 340.144 126.29 340.313 127.038 340.65C127.801 340.987 128.373 341.457 128.754 342.058C129.15 342.659 129.348 343.341 129.348 344.104C129.348 344.999 129.106 345.747 128.622 346.348C128.153 346.949 127.522 347.375 126.73 347.624ZM121.098 346.48H123.914C124.647 346.48 125.212 346.319 125.608 345.996C126.004 345.659 126.202 345.182 126.202 344.566C126.202 343.95 126.004 343.473 125.608 343.136C125.212 342.799 124.647 342.63 123.914 342.63H121.098V346.48ZM124.2 352.992C124.948 352.992 125.527 352.816 125.938 352.464C126.363 352.112 126.576 351.613 126.576 350.968C126.576 350.308 126.356 349.795 125.916 349.428C125.476 349.047 124.882 348.856 124.134 348.856H121.098V352.992H124.2Z" fill="#FFD15C"/>
<rect x="100.555" y="324.555" width="46.89" height="46.89" rx="11.445" stroke="url(#paint38_linear_7284_39899)" stroke-width="1.11"/>
</g>
<g opacity="0.4">
<rect x="228.555" y="260.555" width="46.89" height="46.89" rx="11.445" fill="url(#paint39_linear_7284_39899)" fill-opacity="0.3"/>
<path d="M236.77 283.8C236.77 282.289 237.107 280.94 237.782 279.752C238.471 278.549 239.403 277.618 240.576 276.958C241.764 276.283 243.091 275.946 244.558 275.946C246.274 275.946 247.777 276.386 249.068 277.266C250.359 278.146 251.261 279.363 251.774 280.918H248.232C247.88 280.185 247.381 279.635 246.736 279.268C246.105 278.901 245.372 278.718 244.536 278.718C243.641 278.718 242.842 278.931 242.138 279.356C241.449 279.767 240.906 280.353 240.51 281.116C240.129 281.879 239.938 282.773 239.938 283.8C239.938 284.812 240.129 285.707 240.51 286.484C240.906 287.247 241.449 287.841 242.138 288.266C242.842 288.677 243.641 288.882 244.536 288.882C245.372 288.882 246.105 288.699 246.736 288.332C247.381 287.951 247.88 287.393 248.232 286.66H251.774C251.261 288.229 250.359 289.454 249.068 290.334C247.792 291.199 246.289 291.632 244.558 291.632C243.091 291.632 241.764 291.302 240.576 290.642C239.403 289.967 238.471 289.036 237.782 287.848C237.107 286.66 236.77 285.311 236.77 283.8ZM265.911 285.01H261.753V289.278H258.849V285.01H254.691V282.326H258.849V278.058H261.753V282.326H265.911V285.01Z" fill="#FF5151"/>
<rect x="228.555" y="260.555" width="46.89" height="46.89" rx="11.445" stroke="url(#paint40_linear_7284_39899)" stroke-width="1.11"/>
</g>
<g opacity="0.4">
<rect x="292.555" y="260.555" width="46.89" height="46.89" rx="11.445" fill="url(#paint41_linear_7284_39899)" fill-opacity="0.3"/>
<path d="M308.27 283.8C308.27 282.289 308.607 280.94 309.282 279.752C309.971 278.549 310.903 277.618 312.076 276.958C313.264 276.283 314.591 275.946 316.058 275.946C317.774 275.946 319.277 276.386 320.568 277.266C321.859 278.146 322.761 279.363 323.274 280.918H319.732C319.38 280.185 318.881 279.635 318.236 279.268C317.605 278.901 316.872 278.718 316.036 278.718C315.141 278.718 314.342 278.931 313.638 279.356C312.949 279.767 312.406 280.353 312.01 281.116C311.629 281.879 311.438 282.773 311.438 283.8C311.438 284.812 311.629 285.707 312.01 286.484C312.406 287.247 312.949 287.841 313.638 288.266C314.342 288.677 315.141 288.882 316.036 288.882C316.872 288.882 317.605 288.699 318.236 288.332C318.881 287.951 319.38 287.393 319.732 286.66H323.274C322.761 288.229 321.859 289.454 320.568 290.334C319.292 291.199 317.789 291.632 316.058 291.632C314.591 291.632 313.264 291.302 312.076 290.642C310.903 289.967 309.971 289.036 309.282 287.848C308.607 286.66 308.27 285.311 308.27 283.8Z" fill="#FF5151"/>
<rect x="292.555" y="260.555" width="46.89" height="46.89" rx="11.445" stroke="url(#paint42_linear_7284_39899)" stroke-width="1.11"/>
</g>
<g filter="url(#filter16_d_7284_39899)">
<rect x="164" y="196" width="48" height="48" rx="12" fill="url(#paint43_linear_7284_39899)" shape-rendering="crispEdges"/>
<path d="M183.434 224.574H177.318L176.306 227.5H173.072L178.594 212.122H182.18L187.702 227.5H184.446L183.434 224.574ZM182.598 222.11L180.376 215.686L178.154 222.11H182.598ZM201.272 221.01H197.114V225.278H194.21V221.01H190.052V218.326H194.21V214.058H197.114V218.326H201.272V221.01Z" fill="#1DC981"/>
<rect x="164.555" y="196.555" width="46.89" height="46.89" rx="11.445" stroke="url(#paint44_linear_7284_39899)" stroke-width="1.11" shape-rendering="crispEdges"/>
</g>
<g opacity="0.7">
<rect x="100.555" y="196.555" width="46.89" height="46.89" rx="11.445" fill="url(#paint45_linear_7284_39899)" fill-opacity="0.3"/>
<path d="M119.73 219.624C120.595 219.785 121.307 220.218 121.864 220.922C122.421 221.626 122.7 222.433 122.7 223.342C122.7 224.163 122.495 224.889 122.084 225.52C121.688 226.136 121.109 226.62 120.346 226.972C119.583 227.324 118.681 227.5 117.64 227.5H111.018V212.144H117.354C118.395 212.144 119.29 212.313 120.038 212.65C120.801 212.987 121.373 213.457 121.754 214.058C122.15 214.659 122.348 215.341 122.348 216.104C122.348 216.999 122.106 217.747 121.622 218.348C121.153 218.949 120.522 219.375 119.73 219.624ZM114.098 218.48H116.914C117.647 218.48 118.212 218.319 118.608 217.996C119.004 217.659 119.202 217.182 119.202 216.566C119.202 215.95 119.004 215.473 118.608 215.136C118.212 214.799 117.647 214.63 116.914 214.63H114.098V218.48ZM117.2 224.992C117.948 224.992 118.527 224.816 118.938 224.464C119.363 224.112 119.576 223.613 119.576 222.968C119.576 222.308 119.356 221.795 118.916 221.428C118.476 221.047 117.882 220.856 117.134 220.856H114.098V224.992H117.2ZM136.661 221.01H132.503V225.278H129.599V221.01H125.441V218.326H129.599V214.058H132.503V218.326H136.661V221.01Z" fill="#FFD15C"/>
<rect x="100.555" y="196.555" width="46.89" height="46.89" rx="11.445" stroke="url(#paint46_linear_7284_39899)" stroke-width="1.11"/>
</g>
<g opacity="0.5">
<rect x="36.555" y="196.555" width="46.89" height="46.89" rx="11.445" fill="url(#paint47_linear_7284_39899)" fill-opacity="0.3"/>
<path d="M55.73 219.624C56.5953 219.785 57.3067 220.218 57.864 220.922C58.4213 221.626 58.7 222.433 58.7 223.342C58.7 224.163 58.4947 224.889 58.084 225.52C57.688 226.136 57.1087 226.62 56.346 226.972C55.5833 227.324 54.6813 227.5 53.64 227.5H47.018V212.144H53.354C54.3953 212.144 55.29 212.313 56.038 212.65C56.8007 212.987 57.3727 213.457 57.754 214.058C58.15 214.659 58.348 215.341 58.348 216.104C58.348 216.999 58.106 217.747 57.622 218.348C57.1527 218.949 56.522 219.375 55.73 219.624ZM50.098 218.48H52.914C53.6473 218.48 54.212 218.319 54.608 217.996C55.004 217.659 55.202 217.182 55.202 216.566C55.202 215.95 55.004 215.473 54.608 215.136C54.212 214.799 53.6473 214.63 52.914 214.63H50.098V218.48ZM53.2 224.992C53.948 224.992 54.5273 224.816 54.938 224.464C55.3633 224.112 55.576 223.613 55.576 222.968C55.576 222.308 55.356 221.795 54.916 221.428C54.476 221.047 53.882 220.856 53.134 220.856H50.098V224.992H53.2ZM72.6607 221.01H68.5027V225.278H65.5987V221.01H61.4407V218.326H65.5987V214.058H68.5027V218.326H72.6607V221.01Z" fill="#FFD15C"/>
<rect x="36.555" y="196.555" width="46.89" height="46.89" rx="11.445" stroke="url(#paint48_linear_7284_39899)" stroke-width="1.11"/>
</g>
<g opacity="0.5">
<rect x="36.555" y="260.555" width="46.89" height="46.89" rx="11.445" fill="url(#paint49_linear_7284_39899)" fill-opacity="0.3"/>
<path d="M56.73 283.624C57.5953 283.785 58.3067 284.218 58.864 284.922C59.4213 285.626 59.7 286.433 59.7 287.342C59.7 288.163 59.4947 288.889 59.084 289.52C58.688 290.136 58.1087 290.62 57.346 290.972C56.5833 291.324 55.6813 291.5 54.64 291.5H48.018V276.144H54.354C55.3953 276.144 56.29 276.313 57.038 276.65C57.8007 276.987 58.3727 277.457 58.754 278.058C59.15 278.659 59.348 279.341 59.348 280.104C59.348 280.999 59.106 281.747 58.622 282.348C58.1527 282.949 57.522 283.375 56.73 283.624ZM51.098 282.48H53.914C54.6473 282.48 55.212 282.319 55.608 281.996C56.004 281.659 56.202 281.182 56.202 280.566C56.202 279.95 56.004 279.473 55.608 279.136C55.212 278.799 54.6473 278.63 53.914 278.63H51.098V282.48ZM54.2 288.992C54.948 288.992 55.5273 288.816 55.938 288.464C56.3633 288.112 56.576 287.613 56.576 286.968C56.576 286.308 56.356 285.795 55.916 285.428C55.476 285.047 54.882 284.856 54.134 284.856H51.098V288.992H54.2ZM71.5267 282.348V284.944H62.1987V282.348H71.5267Z" fill="#FFD15C"/>
<rect x="36.555" y="260.555" width="46.89" height="46.89" rx="11.445" stroke="url(#paint50_linear_7284_39899)" stroke-width="1.11"/>
</g>
<g opacity="0.4">
<rect x="292.555" y="196.555" width="46.89" height="46.89" rx="11.445" fill="url(#paint51_linear_7284_39899)" fill-opacity="0.3"/>
<path d="M301.77 219.8C301.77 218.289 302.107 216.94 302.782 215.752C303.471 214.549 304.403 213.618 305.576 212.958C306.764 212.283 308.091 211.946 309.558 211.946C311.274 211.946 312.777 212.386 314.068 213.266C315.359 214.146 316.261 215.363 316.774 216.918H313.232C312.88 216.185 312.381 215.635 311.736 215.268C311.105 214.901 310.372 214.718 309.536 214.718C308.641 214.718 307.842 214.931 307.138 215.356C306.449 215.767 305.906 216.353 305.51 217.116C305.129 217.879 304.938 218.773 304.938 219.8C304.938 220.812 305.129 221.707 305.51 222.484C305.906 223.247 306.449 223.841 307.138 224.266C307.842 224.677 308.641 224.882 309.536 224.882C310.372 224.882 311.105 224.699 311.736 224.332C312.381 223.951 312.88 223.393 313.232 222.66H316.774C316.261 224.229 315.359 225.454 314.068 226.334C312.792 227.199 311.289 227.632 309.558 227.632C308.091 227.632 306.764 227.302 305.576 226.642C304.403 225.967 303.471 225.036 302.782 223.848C302.107 222.66 301.77 221.311 301.77 219.8ZM328.777 218.348V220.944H319.449V218.348H328.777Z" fill="#FF5151"/>
<rect x="292.555" y="196.555" width="46.89" height="46.89" rx="11.445" stroke="url(#paint52_linear_7284_39899)" stroke-width="1.11"/>
</g>
<g opacity="0.3">
<rect x="36.555" y="324.555" width="46.89" height="46.89" rx="11.445" fill="url(#paint53_linear_7284_39899)" fill-opacity="0.3"/>
<path d="M55.73 347.624C56.5953 347.785 57.3067 348.218 57.864 348.922C58.4213 349.626 58.7 350.433 58.7 351.342C58.7 352.163 58.4947 352.889 58.084 353.52C57.688 354.136 57.1087 354.62 56.346 354.972C55.5833 355.324 54.6813 355.5 53.64 355.5H47.018V340.144H53.354C54.3953 340.144 55.29 340.313 56.038 340.65C56.8007 340.987 57.3727 341.457 57.754 342.058C58.15 342.659 58.348 343.341 58.348 344.104C58.348 344.999 58.106 345.747 57.622 346.348C57.1527 346.949 56.522 347.375 55.73 347.624ZM50.098 346.48H52.914C53.6473 346.48 54.212 346.319 54.608 345.996C55.004 345.659 55.202 345.182 55.202 344.566C55.202 343.95 55.004 343.473 54.608 343.136C54.212 342.799 53.6473 342.63 52.914 342.63H50.098V346.48ZM53.2 352.992C53.948 352.992 54.5273 352.816 54.938 352.464C55.3633 352.112 55.576 351.613 55.576 350.968C55.576 350.308 55.356 349.795 54.916 349.428C54.476 349.047 53.882 348.856 53.134 348.856H50.098V352.992H53.2ZM72.6607 349.01H68.5027V353.278H65.5987V349.01H61.4407V346.326H65.5987V342.058H68.5027V346.326H72.6607V349.01Z" fill="#FFD15C"/>
<rect x="36.555" y="324.555" width="46.89" height="46.89" rx="11.445" stroke="url(#paint54_linear_7284_39899)" stroke-width="1.11"/>
</g>
<g filter="url(#filter17_d_7284_39899)">
<rect x="100" y="260" width="48" height="48" rx="12" fill="url(#paint55_linear_7284_39899)" shape-rendering="crispEdges"/>
<path d="M126.934 288.574H120.818L119.806 291.5H116.572L122.094 276.122H125.68L131.202 291.5H127.946L126.934 288.574ZM126.098 286.11L123.876 279.686L121.654 286.11H126.098Z" fill="#1DC981"/>
<rect x="100.555" y="260.555" width="46.89" height="46.89" rx="11.445" stroke="url(#paint56_linear_7284_39899)" stroke-width="1.11" shape-rendering="crispEdges"/>
</g>
<g opacity="0.4">
<rect x="228.555" y="324.555" width="46.89" height="46.89" rx="11.445" fill="url(#paint57_linear_7284_39899)" fill-opacity="0.3"/>
<path d="M244.27 347.8C244.27 346.289 244.607 344.94 245.282 343.752C245.971 342.549 246.903 341.618 248.076 340.958C249.264 340.283 250.591 339.946 252.058 339.946C253.774 339.946 255.277 340.386 256.568 341.266C257.859 342.146 258.761 343.363 259.274 344.918H255.732C255.38 344.185 254.881 343.635 254.236 343.268C253.605 342.901 252.872 342.718 252.036 342.718C251.141 342.718 250.342 342.931 249.638 343.356C248.949 343.767 248.406 344.353 248.01 345.116C247.629 345.879 247.438 346.773 247.438 347.8C247.438 348.812 247.629 349.707 248.01 350.484C248.406 351.247 248.949 351.841 249.638 352.266C250.342 352.677 251.141 352.882 252.036 352.882C252.872 352.882 253.605 352.699 254.236 352.332C254.881 351.951 255.38 351.393 255.732 350.66H259.274C258.761 352.229 257.859 353.454 256.568 354.334C255.292 355.199 253.789 355.632 252.058 355.632C250.591 355.632 249.264 355.302 248.076 354.642C246.903 353.967 245.971 353.036 245.282 351.848C244.607 350.66 244.27 349.311 244.27 347.8Z" fill="#FF5151"/>
<rect x="228.555" y="324.555" width="46.89" height="46.89" rx="11.445" stroke="url(#paint58_linear_7284_39899)" stroke-width="1.11"/>
</g>
<g opacity="0.16">
<rect x="292.555" y="324.555" width="46.89" height="46.89" rx="11.445" fill="url(#paint59_linear_7284_39899)" fill-opacity="0.3"/>
<path d="M301.77 347.8C301.77 346.289 302.107 344.94 302.782 343.752C303.471 342.549 304.403 341.618 305.576 340.958C306.764 340.283 308.091 339.946 309.558 339.946C311.274 339.946 312.777 340.386 314.068 341.266C315.359 342.146 316.261 343.363 316.774 344.918H313.232C312.88 344.185 312.381 343.635 311.736 343.268C311.105 342.901 310.372 342.718 309.536 342.718C308.641 342.718 307.842 342.931 307.138 343.356C306.449 343.767 305.906 344.353 305.51 345.116C305.129 345.879 304.938 346.773 304.938 347.8C304.938 348.812 305.129 349.707 305.51 350.484C305.906 351.247 306.449 351.841 307.138 352.266C307.842 352.677 308.641 352.882 309.536 352.882C310.372 352.882 311.105 352.699 311.736 352.332C312.381 351.951 312.88 351.393 313.232 350.66H316.774C316.261 352.229 315.359 353.454 314.068 354.334C312.792 355.199 311.289 355.632 309.558 355.632C308.091 355.632 306.764 355.302 305.576 354.642C304.403 353.967 303.471 353.036 302.782 351.848C302.107 350.66 301.77 349.311 301.77 347.8ZM328.777 346.348V348.944H319.449V346.348H328.777Z" fill="#FF5151"/>
<rect x="292.555" y="324.555" width="46.89" height="46.89" rx="11.445" stroke="url(#paint60_linear_7284_39899)" stroke-width="1.11"/>
</g>
<g opacity="0.07">
<rect x="36.555" y="388.555" width="46.89" height="46.89" rx="11.445" fill="url(#paint61_linear_7284_39899)" fill-opacity="0.3"/>
<path d="M62.73 411.624C63.5953 411.785 64.3067 412.218 64.864 412.922C65.4213 413.626 65.7 414.433 65.7 415.342C65.7 416.163 65.4947 416.889 65.084 417.52C64.688 418.136 64.1087 418.62 63.346 418.972C62.5833 419.324 61.6813 419.5 60.64 419.5H54.018V404.144H60.354C61.3953 404.144 62.29 404.313 63.038 404.65C63.8007 404.987 64.3727 405.457 64.754 406.058C65.15 406.659 65.348 407.341 65.348 408.104C65.348 408.999 65.106 409.747 64.622 410.348C64.1527 410.949 63.522 411.375 62.73 411.624ZM57.098 410.48H59.914C60.6473 410.48 61.212 410.319 61.608 409.996C62.004 409.659 62.202 409.182 62.202 408.566C62.202 407.95 62.004 407.473 61.608 407.136C61.212 406.799 60.6473 406.63 59.914 406.63H57.098V410.48ZM60.2 416.992C60.948 416.992 61.5273 416.816 61.938 416.464C62.3633 416.112 62.576 415.613 62.576 414.968C62.576 414.308 62.356 413.795 61.916 413.428C61.476 413.047 60.882 412.856 60.134 412.856H57.098V416.992H60.2Z" fill="#FFD15C"/>
<rect x="36.555" y="388.555" width="46.89" height="46.89" rx="11.445" stroke="url(#paint62_linear_7284_39899)" stroke-width="1.11"/>
</g>
<g opacity="0.7">
<rect x="164.555" y="388.555" width="46.89" height="46.89" rx="11.445" fill="url(#paint63_linear_7284_39899)" fill-opacity="0.3"/>
<path d="M184.73 411.624C185.595 411.785 186.307 412.218 186.864 412.922C187.421 413.626 187.7 414.433 187.7 415.342C187.7 416.163 187.495 416.889 187.084 417.52C186.688 418.136 186.109 418.62 185.346 418.972C184.583 419.324 183.681 419.5 182.64 419.5H176.018V404.144H182.354C183.395 404.144 184.29 404.313 185.038 404.65C185.801 404.987 186.373 405.457 186.754 406.058C187.15 406.659 187.348 407.341 187.348 408.104C187.348 408.999 187.106 409.747 186.622 410.348C186.153 410.949 185.522 411.375 184.73 411.624ZM179.098 410.48H181.914C182.647 410.48 183.212 410.319 183.608 409.996C184.004 409.659 184.202 409.182 184.202 408.566C184.202 407.95 184.004 407.473 183.608 407.136C183.212 406.799 182.647 406.63 181.914 406.63H179.098V410.48ZM182.2 416.992C182.948 416.992 183.527 416.816 183.938 416.464C184.363 416.112 184.576 415.613 184.576 414.968C184.576 414.308 184.356 413.795 183.916 413.428C183.476 413.047 182.882 412.856 182.134 412.856H179.098V416.992H182.2ZM199.527 410.348V412.944H190.199V410.348H199.527Z" fill="#FFD15C"/>
<rect x="164.555" y="388.555" width="46.89" height="46.89" rx="11.445" stroke="url(#paint64_linear_7284_39899)" stroke-width="1.11"/>
</g>
<g opacity="0.3">
<rect x="100.555" y="388.555" width="46.89" height="46.89" rx="11.445" fill="url(#paint65_linear_7284_39899)" fill-opacity="0.3"/>
<path d="M119.73 411.624C120.595 411.785 121.307 412.218 121.864 412.922C122.421 413.626 122.7 414.433 122.7 415.342C122.7 416.163 122.495 416.889 122.084 417.52C121.688 418.136 121.109 418.62 120.346 418.972C119.583 419.324 118.681 419.5 117.64 419.5H111.018V404.144H117.354C118.395 404.144 119.29 404.313 120.038 404.65C120.801 404.987 121.373 405.457 121.754 406.058C122.15 406.659 122.348 407.341 122.348 408.104C122.348 408.999 122.106 409.747 121.622 410.348C121.153 410.949 120.522 411.375 119.73 411.624ZM114.098 410.48H116.914C117.647 410.48 118.212 410.319 118.608 409.996C119.004 409.659 119.202 409.182 119.202 408.566C119.202 407.95 119.004 407.473 118.608 407.136C118.212 406.799 117.647 406.63 116.914 406.63H114.098V410.48ZM117.2 416.992C117.948 416.992 118.527 416.816 118.938 416.464C119.363 416.112 119.576 415.613 119.576 414.968C119.576 414.308 119.356 413.795 118.916 413.428C118.476 413.047 117.882 412.856 117.134 412.856H114.098V416.992H117.2ZM136.661 413.01H132.503V417.278H129.599V413.01H125.441V410.326H129.599V406.058H132.503V410.326H136.661V413.01Z" fill="#FFD15C"/>
<rect x="100.555" y="388.555" width="46.89" height="46.89" rx="11.445" stroke="url(#paint66_linear_7284_39899)" stroke-width="1.11"/>
</g>
<g opacity="0.16">
<rect x="228.555" y="388.555" width="46.89" height="46.89" rx="11.445" fill="url(#paint67_linear_7284_39899)" fill-opacity="0.3"/>
<path d="M236.77 411.8C236.77 410.289 237.107 408.94 237.782 407.752C238.471 406.549 239.403 405.618 240.576 404.958C241.764 404.283 243.091 403.946 244.558 403.946C246.274 403.946 247.777 404.386 249.068 405.266C250.359 406.146 251.261 407.363 251.774 408.918H248.232C247.88 408.185 247.381 407.635 246.736 407.268C246.105 406.901 245.372 406.718 244.536 406.718C243.641 406.718 242.842 406.931 242.138 407.356C241.449 407.767 240.906 408.353 240.51 409.116C240.129 409.879 239.938 410.773 239.938 411.8C239.938 412.812 240.129 413.707 240.51 414.484C240.906 415.247 241.449 415.841 242.138 416.266C242.842 416.677 243.641 416.882 244.536 416.882C245.372 416.882 246.105 416.699 246.736 416.332C247.381 415.951 247.88 415.393 248.232 414.66H251.774C251.261 416.229 250.359 417.454 249.068 418.334C247.792 419.199 246.289 419.632 244.558 419.632C243.091 419.632 241.764 419.302 240.576 418.642C239.403 417.967 238.471 417.036 237.782 415.848C237.107 414.66 236.77 413.311 236.77 411.8ZM265.911 413.01H261.753V417.278H258.849V413.01H254.691V410.326H258.849V406.058H261.753V410.326H265.911V413.01Z" fill="#FF5151"/>
<rect x="228.555" y="388.555" width="46.89" height="46.89" rx="11.445" stroke="url(#paint68_linear_7284_39899)" stroke-width="1.11"/>
</g>
<g opacity="0.07">
<rect x="292.555" y="388.555" width="46.89" height="46.89" rx="11.445" fill="url(#paint69_linear_7284_39899)" fill-opacity="0.3"/>
<path d="M301.77 411.8C301.77 410.289 302.107 408.94 302.782 407.752C303.471 406.549 304.403 405.618 305.576 404.958C306.764 404.283 308.091 403.946 309.558 403.946C311.274 403.946 312.777 404.386 314.068 405.266C315.359 406.146 316.261 407.363 316.774 408.918H313.232C312.88 408.185 312.381 407.635 311.736 407.268C311.105 406.901 310.372 406.718 309.536 406.718C308.641 406.718 307.842 406.931 307.138 407.356C306.449 407.767 305.906 408.353 305.51 409.116C305.129 409.879 304.938 410.773 304.938 411.8C304.938 412.812 305.129 413.707 305.51 414.484C305.906 415.247 306.449 415.841 307.138 416.266C307.842 416.677 308.641 416.882 309.536 416.882C310.372 416.882 311.105 416.699 311.736 416.332C312.381 415.951 312.88 415.393 313.232 414.66H316.774C316.261 416.229 315.359 417.454 314.068 418.334C312.792 419.199 311.289 419.632 309.558 419.632C308.091 419.632 306.764 419.302 305.576 418.642C304.403 417.967 303.471 417.036 302.782 415.848C302.107 414.66 301.77 413.311 301.77 411.8ZM328.777 410.348V412.944H319.449V410.348H328.777Z" fill="#FF5151"/>
<rect x="292.555" y="388.555" width="46.89" height="46.89" rx="11.445" stroke="url(#paint70_linear_7284_39899)" stroke-width="1.11"/>
</g>
</g>
<defs>
<filter id="filter0_f_7284_39899" x="177" y="145" width="207" height="204" filterUnits="userSpaceOnUse" color-interpolation-filters="sRGB">
<feFlood flood-opacity="0" result="BackgroundImageFix"/>
<feBlend mode="normal" in="SourceGraphic" in2="BackgroundImageFix" result="shape"/>
<feGaussianBlur stdDeviation="40" result="effect1_foregroundBlur_7284_39899"/>
</filter>
<filter id="filter1_f_7284_39899" x="130" y="216" width="207" height="203" filterUnits="userSpaceOnUse" color-interpolation-filters="sRGB">
<feFlood flood-opacity="0" result="BackgroundImageFix"/>
<feBlend mode="normal" in="SourceGraphic" in2="BackgroundImageFix" result="shape"/>
<feGaussianBlur stdDeviation="40" result="effect1_foregroundBlur_7284_39899"/>
</filter>
<filter id="filter2_f_7284_39899" x="51" y="100" width="263" height="255" filterUnits="userSpaceOnUse" color-interpolation-filters="sRGB">
<feFlood flood-opacity="0" result="BackgroundImageFix"/>
<feBlend mode="normal" in="SourceGraphic" in2="BackgroundImageFix" result="shape"/>
<feGaussianBlur stdDeviation="40" result="effect1_foregroundBlur_7284_39899"/>
</filter>
<filter id="filter3_f_7284_39899" x="122" y="279" width="207" height="203" filterUnits="userSpaceOnUse" color-interpolation-filters="sRGB">
<feFlood flood-opacity="0" result="BackgroundImageFix"/>
<feBlend mode="normal" in="SourceGraphic" in2="BackgroundImageFix" result="shape"/>
<feGaussianBlur stdDeviation="40" result="effect1_foregroundBlur_7284_39899"/>
</filter>
<filter id="filter4_f_7284_39899" x="56" y="67" width="207" height="203" filterUnits="userSpaceOnUse" color-interpolation-filters="sRGB">
<feFlood flood-opacity="0" result="BackgroundImageFix"/>
<feBlend mode="normal" in="SourceGraphic" in2="BackgroundImageFix" result="shape"/>
<feGaussianBlur stdDeviation="40" result="effect1_foregroundBlur_7284_39899"/>
</filter>
<filter id="filter5_f_7284_39899" x="172" y="92" width="207" height="204" filterUnits="userSpaceOnUse" color-interpolation-filters="sRGB">
<feFlood flood-opacity="0" result="BackgroundImageFix"/>
<feBlend mode="normal" in="SourceGraphic" in2="BackgroundImageFix" result="shape"/>
<feGaussianBlur stdDeviation="40" result="effect1_foregroundBlur_7284_39899"/>
</filter>
<filter id="filter6_f_7284_39899" x="3" y="19" width="207" height="203" filterUnits="userSpaceOnUse" color-interpolation-filters="sRGB">
<feFlood flood-opacity="0" result="BackgroundImageFix"/>
<feBlend mode="normal" in="SourceGraphic" in2="BackgroundImageFix" result="shape"/>
<feGaussianBlur stdDeviation="40" result="effect1_foregroundBlur_7284_39899"/>
</filter>
<filter id="filter7_f_7284_39899" x="-38" y="211" width="207" height="203" filterUnits="userSpaceOnUse" color-interpolation-filters="sRGB">
<feFlood flood-opacity="0" result="BackgroundImageFix"/>
<feBlend mode="normal" in="SourceGraphic" in2="BackgroundImageFix" result="shape"/>
<feGaussianBlur stdDeviation="40" result="effect1_foregroundBlur_7284_39899"/>
</filter>
<filter id="filter8_f_7284_39899" x="39" y="284" width="207" height="203" filterUnits="userSpaceOnUse" color-interpolation-filters="sRGB">
<feFlood flood-opacity="0" result="BackgroundImageFix"/>
<feBlend mode="normal" in="SourceGraphic" in2="BackgroundImageFix" result="shape"/>
<feGaussianBlur stdDeviation="40" result="effect1_foregroundBlur_7284_39899"/>
</filter>
<filter id="filter9_f_7284_39899" x="172" y="255" width="231" height="226" filterUnits="userSpaceOnUse" color-interpolation-filters="sRGB">
<feFlood flood-opacity="0" result="BackgroundImageFix"/>
<feBlend mode="normal" in="SourceGraphic" in2="BackgroundImageFix" result="shape"/>
<feGaussianBlur stdDeviation="40" result="effect1_foregroundBlur_7284_39899"/>
</filter>
<filter id="filter10_f_7284_39899" x="166" y="-4" width="217" height="214" filterUnits="userSpaceOnUse" color-interpolation-filters="sRGB">
<feFlood flood-opacity="0" result="BackgroundImageFix"/>
<feBlend mode="normal" in="SourceGraphic" in2="BackgroundImageFix" result="shape"/>
<feGaussianBlur stdDeviation="40" result="effect1_foregroundBlur_7284_39899"/>
</filter>
<filter id="filter11_d_7284_39899" x="221.345" y="189.345" width="105.676" height="105.676" filterUnits="userSpaceOnUse" color-interpolation-filters="sRGB">
<feFlood flood-opacity="0" result="BackgroundImageFix"/>
<feColorMatrix in="SourceAlpha" type="matrix" values="0 0 0 0 0 0 0 0 0 0 0 0 0 0 0 0 0 0 127 0" result="hardAlpha"/>
<feOffset dx="22.1831" dy="22.1831"/>
<feGaussianBlur stdDeviation="14.419"/>
<feComposite in2="hardAlpha" operator="out"/>
<feColorMatrix type="matrix" values="0 0 0 0 0 0 0 0 0 0 0 0 0 0 0 0 0 0 0.3 0"/>
<feBlend mode="normal" in2="BackgroundImageFix" result="effect1_dropShadow_7284_39899"/>
<feBlend mode="normal" in="SourceGraphic" in2="effect1_dropShadow_7284_39899" result="shape"/>
</filter>
<filter id="filter12_d_7284_39899" x="93.3451" y="125.345" width="105.676" height="105.676" filterUnits="userSpaceOnUse" color-interpolation-filters="sRGB">
<feFlood flood-opacity="0" result="BackgroundImageFix"/>
<feColorMatrix in="SourceAlpha" type="matrix" values="0 0 0 0 0 0 0 0 0 0 0 0 0 0 0 0 0 0 127 0" result="hardAlpha"/>
<feOffset dx="22.1831" dy="22.1831"/>
<feGaussianBlur stdDeviation="14.419"/>
<feComposite in2="hardAlpha" operator="out"/>
<feColorMatrix type="matrix" values="0 0 0 0 0 0 0 0 0 0 0 0 0 0 0 0 0 0 0.3 0"/>
<feBlend mode="normal" in2="BackgroundImageFix" result="effect1_dropShadow_7284_39899"/>
<feBlend mode="normal" in="SourceGraphic" in2="effect1_dropShadow_7284_39899" result="shape"/>
</filter>
<filter id="filter13_d_7284_39899" x="157.345" y="317.345" width="105.676" height="105.676" filterUnits="userSpaceOnUse" color-interpolation-filters="sRGB">
<feFlood flood-opacity="0" result="BackgroundImageFix"/>
<feColorMatrix in="SourceAlpha" type="matrix" values="0 0 0 0 0 0 0 0 0 0 0 0 0 0 0 0 0 0 127 0" result="hardAlpha"/>
<feOffset dx="22.1831" dy="22.1831"/>
<feGaussianBlur stdDeviation="14.419"/>
<feComposite in2="hardAlpha" operator="out"/>
<feColorMatrix type="matrix" values="0 0 0 0 0 0 0 0 0 0 0 0 0 0 0 0 0 0 0.3 0"/>
<feBlend mode="normal" in2="BackgroundImageFix" result="effect1_dropShadow_7284_39899"/>
<feBlend mode="normal" in="SourceGraphic" in2="effect1_dropShadow_7284_39899" result="shape"/>
</filter>
<filter id="filter14_d_7284_39899" x="221.345" y="125.345" width="105.676" height="105.676" filterUnits="userSpaceOnUse" color-interpolation-filters="sRGB">
<feFlood flood-opacity="0" result="BackgroundImageFix"/>
<feColorMatrix in="SourceAlpha" type="matrix" values="0 0 0 0 0 0 0 0 0 0 0 0 0 0 0 0 0 0 127 0" result="hardAlpha"/>
<feOffset dx="22.1831" dy="22.1831"/>
<feGaussianBlur stdDeviation="14.419"/>
<feComposite in2="hardAlpha" operator="out"/>
<feColorMatrix type="matrix" values="0 0 0 0 0 0 0 0 0 0 0 0 0 0 0 0 0 0 0.3 0"/>
<feBlend mode="normal" in2="BackgroundImageFix" result="effect1_dropShadow_7284_39899"/>
<feBlend mode="normal" in="SourceGraphic" in2="effect1_dropShadow_7284_39899" result="shape"/>
</filter>
<filter id="filter15_d_7284_39899" x="157.345" y="253.345" width="105.676" height="105.676" filterUnits="userSpaceOnUse" color-interpolation-filters="sRGB">
<feFlood flood-opacity="0" result="BackgroundImageFix"/>
<feColorMatrix in="SourceAlpha" type="matrix" values="0 0 0 0 0 0 0 0 0 0 0 0 0 0 0 0 0 0 127 0" result="hardAlpha"/>
<feOffset dx="22.1831" dy="22.1831"/>
<feGaussianBlur stdDeviation="14.419"/>
<feComposite in2="hardAlpha" operator="out"/>
<feColorMatrix type="matrix" values="0 0 0 0 0 0 0 0 0 0 0 0 0 0 0 0 0 0 0.3 0"/>
<feBlend mode="normal" in2="BackgroundImageFix" result="effect1_dropShadow_7284_39899"/>
<feBlend mode="normal" in="SourceGraphic" in2="effect1_dropShadow_7284_39899" result="shape"/>
</filter>
<filter id="filter16_d_7284_39899" x="157.345" y="189.345" width="105.676" height="105.676" filterUnits="userSpaceOnUse" color-interpolation-filters="sRGB">
<feFlood flood-opacity="0" result="BackgroundImageFix"/>
<feColorMatrix in="SourceAlpha" type="matrix" values="0 0 0 0 0 0 0 0 0 0 0 0 0 0 0 0 0 0 127 0" result="hardAlpha"/>
<feOffset dx="22.1831" dy="22.1831"/>
<feGaussianBlur stdDeviation="14.419"/>
<feComposite in2="hardAlpha" operator="out"/>
<feColorMatrix type="matrix" values="0 0 0 0 0 0 0 0 0 0 0 0 0 0 0 0 0 0 0.3 0"/>
<feBlend mode="normal" in2="BackgroundImageFix" result="effect1_dropShadow_7284_39899"/>
<feBlend mode="normal" in="SourceGraphic" in2="effect1_dropShadow_7284_39899" result="shape"/>
</filter>
<filter id="filter17_d_7284_39899" x="93.3451" y="253.345" width="105.676" height="105.676" filterUnits="userSpaceOnUse" color-interpolation-filters="sRGB">
<feFlood flood-opacity="0" result="BackgroundImageFix"/>
<feColorMatrix in="SourceAlpha" type="matrix" values="0 0 0 0 0 0 0 0 0 0 0 0 0 0 0 0 0 0 127 0" result="hardAlpha"/>
<feOffset dx="22.1831" dy="22.1831"/>
<feGaussianBlur stdDeviation="14.419"/>
<feComposite in2="hardAlpha" operator="out"/>
<feColorMatrix type="matrix" values="0 0 0 0 0 0 0 0 0 0 0 0 0 0 0 0 0 0 0.3 0"/>
<feBlend mode="normal" in2="BackgroundImageFix" result="effect1_dropShadow_7284_39899"/>
<feBlend mode="normal" in="SourceGraphic" in2="effect1_dropShadow_7284_39899" result="shape"/>
</filter>
<linearGradient id="paint0_linear_7284_39899" x1="61.5" y1="45" x2="61.5" y2="465.5" gradientUnits="userSpaceOnUse">
<stop stop-color="white" stop-opacity="0"/>
<stop offset="0.526042" stop-color="#4C596D"/>
<stop offset="1" stop-color="white" stop-opacity="0"/>
</linearGradient>
<linearGradient id="paint1_linear_7284_39899" x1="124.5" y1="45" x2="124.5" y2="465.5" gradientUnits="userSpaceOnUse">
<stop stop-color="white" stop-opacity="0"/>
<stop offset="0.526042" stop-color="#4C596D"/>
<stop offset="1" stop-color="white" stop-opacity="0"/>
</linearGradient>
<linearGradient id="paint2_linear_7284_39899" x1="188.5" y1="45" x2="188.5" y2="465.5" gradientUnits="userSpaceOnUse">
<stop stop-color="white" stop-opacity="0"/>
<stop offset="0.526042" stop-color="#4C596D"/>
<stop offset="1" stop-color="white" stop-opacity="0"/>
</linearGradient>
<linearGradient id="paint3_linear_7284_39899" x1="252.5" y1="45" x2="252.5" y2="465.5" gradientUnits="userSpaceOnUse">
<stop stop-color="white" stop-opacity="0"/>
<stop offset="0.526042" stop-color="#4C596D"/>
<stop offset="1" stop-color="white" stop-opacity="0"/>
</linearGradient>
<linearGradient id="paint4_linear_7284_39899" x1="316.5" y1="45" x2="316.5" y2="465.5" gradientUnits="userSpaceOnUse">
<stop stop-color="white" stop-opacity="0"/>
<stop offset="0.526042" stop-color="#4C596D"/>
<stop offset="1" stop-color="white" stop-opacity="0"/>
</linearGradient>
<linearGradient id="paint5_linear_7284_39899" x1="16" y1="411.5" x2="359" y2="411.5" gradientUnits="userSpaceOnUse">
<stop stop-color="white" stop-opacity="0"/>
<stop offset="0.526042" stop-color="#4C596D"/>
<stop offset="1" stop-color="white" stop-opacity="0"/>
</linearGradient>
<linearGradient id="paint6_linear_7284_39899" x1="16" y1="347.5" x2="359" y2="347.5" gradientUnits="userSpaceOnUse">
<stop stop-color="white" stop-opacity="0"/>
<stop offset="0.526042" stop-color="#4C596D"/>
<stop offset="1" stop-color="white" stop-opacity="0"/>
</linearGradient>
<linearGradient id="paint7_linear_7284_39899" x1="16" y1="283.5" x2="359" y2="283.5" gradientUnits="userSpaceOnUse">
<stop stop-color="white" stop-opacity="0"/>
<stop offset="0.526042" stop-color="#4C596D"/>
<stop offset="1" stop-color="white" stop-opacity="0"/>
</linearGradient>
<linearGradient id="paint8_linear_7284_39899" x1="16" y1="219.5" x2="359" y2="219.5" gradientUnits="userSpaceOnUse">
<stop stop-color="white" stop-opacity="0"/>
<stop offset="0.526042" stop-color="#4C596D"/>
<stop offset="1" stop-color="white" stop-opacity="0"/>
</linearGradient>
<linearGradient id="paint9_linear_7284_39899" x1="16" y1="155.5" x2="359" y2="155.5" gradientUnits="userSpaceOnUse">
<stop stop-color="white" stop-opacity="0"/>
<stop offset="0.526042" stop-color="#4C596D"/>
<stop offset="1" stop-color="white" stop-opacity="0"/>
</linearGradient>
<linearGradient id="paint10_linear_7284_39899" x1="16" y1="91.5" x2="359" y2="91.5" gradientUnits="userSpaceOnUse">
<stop stop-color="white" stop-opacity="0"/>
<stop offset="0.526042" stop-color="#4C596D"/>
<stop offset="1" stop-color="white" stop-opacity="0"/>
</linearGradient>
<linearGradient id="paint11_linear_7284_39899" x1="252" y1="196" x2="252" y2="244" gradientUnits="userSpaceOnUse">
<stop stop-color="#57606F"/>
<stop offset="1" stop-color="#313740"/>
</linearGradient>
<linearGradient id="paint12_linear_7284_39899" x1="252" y1="196" x2="252" y2="244" gradientUnits="userSpaceOnUse">
<stop stop-color="white"/>
<stop offset="1" stop-color="white" stop-opacity="0"/>
</linearGradient>
<linearGradient id="paint13_linear_7284_39899" x1="124" y1="132" x2="124" y2="180" gradientUnits="userSpaceOnUse">
<stop stop-color="#57606F"/>
<stop offset="1" stop-color="#313740"/>
</linearGradient>
<linearGradient id="paint14_linear_7284_39899" x1="124" y1="132" x2="124" y2="180" gradientUnits="userSpaceOnUse">
<stop stop-color="white"/>
<stop offset="1" stop-color="white" stop-opacity="0"/>
</linearGradient>
<linearGradient id="paint15_linear_7284_39899" x1="188" y1="132" x2="188" y2="180" gradientUnits="userSpaceOnUse">
<stop stop-color="#57657A"/>
<stop offset="1" stop-color="#3D4858"/>
</linearGradient>
<linearGradient id="paint16_linear_7284_39899" x1="188" y1="132" x2="188" y2="180" gradientUnits="userSpaceOnUse">
<stop stop-color="white"/>
<stop offset="1" stop-color="white" stop-opacity="0"/>
</linearGradient>
<linearGradient id="paint17_linear_7284_39899" x1="316" y1="132" x2="316" y2="180" gradientUnits="userSpaceOnUse">
<stop stop-color="#57657A"/>
<stop offset="1" stop-color="#3D4858"/>
</linearGradient>
<linearGradient id="paint18_linear_7284_39899" x1="316" y1="132" x2="316" y2="180" gradientUnits="userSpaceOnUse">
<stop stop-color="white"/>
<stop offset="1" stop-color="white" stop-opacity="0"/>
</linearGradient>
<linearGradient id="paint19_linear_7284_39899" x1="188" y1="324" x2="188" y2="372" gradientUnits="userSpaceOnUse">
<stop stop-color="#57606F"/>
<stop offset="1" stop-color="#313740"/>
</linearGradient>
<linearGradient id="paint20_linear_7284_39899" x1="188" y1="324" x2="188" y2="372" gradientUnits="userSpaceOnUse">
<stop stop-color="white"/>
<stop offset="1" stop-color="white" stop-opacity="0"/>
</linearGradient>
<linearGradient id="paint21_linear_7284_39899" x1="252" y1="132" x2="252" y2="180" gradientUnits="userSpaceOnUse">
<stop stop-color="#57606F"/>
<stop offset="1" stop-color="#313740"/>
</linearGradient>
<linearGradient id="paint22_linear_7284_39899" x1="252" y1="132" x2="252" y2="180" gradientUnits="userSpaceOnUse">
<stop stop-color="white"/>
<stop offset="1" stop-color="white" stop-opacity="0"/>
</linearGradient>
<linearGradient id="paint23_linear_7284_39899" x1="188" y1="68" x2="188" y2="116" gradientUnits="userSpaceOnUse">
<stop stop-color="#57657A"/>
<stop offset="1" stop-color="#3D4858"/>
</linearGradient>
<linearGradient id="paint24_linear_7284_39899" x1="188" y1="68" x2="188" y2="116" gradientUnits="userSpaceOnUse">
<stop stop-color="white"/>
<stop offset="1" stop-color="white" stop-opacity="0"/>
</linearGradient>
<linearGradient id="paint25_linear_7284_39899" x1="124" y1="68" x2="124" y2="116" gradientUnits="userSpaceOnUse">
<stop stop-color="#57657A"/>
<stop offset="1" stop-color="#3D4858"/>
</linearGradient>
<linearGradient id="paint26_linear_7284_39899" x1="124" y1="68" x2="124" y2="116" gradientUnits="userSpaceOnUse">
<stop stop-color="white"/>
<stop offset="1" stop-color="white" stop-opacity="0"/>
</linearGradient>
<linearGradient id="paint27_linear_7284_39899" x1="252" y1="68" x2="252" y2="116" gradientUnits="userSpaceOnUse">
<stop stop-color="#57657A"/>
<stop offset="1" stop-color="#3D4858"/>
</linearGradient>
<linearGradient id="paint28_linear_7284_39899" x1="252" y1="68" x2="252" y2="116" gradientUnits="userSpaceOnUse">
<stop stop-color="white"/>
<stop offset="1" stop-color="white" stop-opacity="0"/>
</linearGradient>
<linearGradient id="paint29_linear_7284_39899" x1="316" y1="68" x2="316" y2="116" gradientUnits="userSpaceOnUse">
<stop stop-color="#57657A"/>
<stop offset="1" stop-color="#3D4858"/>
</linearGradient>
<linearGradient id="paint30_linear_7284_39899" x1="316" y1="68" x2="316" y2="116" gradientUnits="userSpaceOnUse">
<stop stop-color="white"/>
<stop offset="1" stop-color="white" stop-opacity="0"/>
</linearGradient>
<linearGradient id="paint31_linear_7284_39899" x1="188" y1="260" x2="188" y2="308" gradientUnits="userSpaceOnUse">
<stop stop-color="#57606F"/>
<stop offset="1" stop-color="#313740"/>
</linearGradient>
<linearGradient id="paint32_linear_7284_39899" x1="188" y1="260" x2="188" y2="308" gradientUnits="userSpaceOnUse">
<stop stop-color="white"/>
<stop offset="1" stop-color="white" stop-opacity="0"/>
</linearGradient>
<linearGradient id="paint33_linear_7284_39899" x1="60" y1="132" x2="60" y2="180" gradientUnits="userSpaceOnUse">
<stop stop-color="#57657A"/>
<stop offset="1" stop-color="#3D4858"/>
</linearGradient>
<linearGradient id="paint34_linear_7284_39899" x1="60" y1="132" x2="60" y2="180" gradientUnits="userSpaceOnUse">
<stop stop-color="white"/>
<stop offset="1" stop-color="white" stop-opacity="0"/>
</linearGradient>
<linearGradient id="paint35_linear_7284_39899" x1="60" y1="68" x2="60" y2="116" gradientUnits="userSpaceOnUse">
<stop stop-color="#57657A"/>
<stop offset="1" stop-color="#3D4858"/>
</linearGradient>
<linearGradient id="paint36_linear_7284_39899" x1="60" y1="68" x2="60" y2="116" gradientUnits="userSpaceOnUse">
<stop stop-color="white"/>
<stop offset="1" stop-color="white" stop-opacity="0"/>
</linearGradient>
<linearGradient id="paint37_linear_7284_39899" x1="124" y1="324" x2="124" y2="372" gradientUnits="userSpaceOnUse">
<stop stop-color="#57657A"/>
<stop offset="1" stop-color="#3D4858"/>
</linearGradient>
<linearGradient id="paint38_linear_7284_39899" x1="124" y1="324" x2="124" y2="372" gradientUnits="userSpaceOnUse">
<stop stop-color="white"/>
<stop offset="1" stop-color="white" stop-opacity="0"/>
</linearGradient>
<linearGradient id="paint39_linear_7284_39899" x1="252" y1="260" x2="252" y2="308" gradientUnits="userSpaceOnUse">
<stop stop-color="#57657A"/>
<stop offset="1" stop-color="#3D4858"/>
</linearGradient>
<linearGradient id="paint40_linear_7284_39899" x1="252" y1="260" x2="252" y2="308" gradientUnits="userSpaceOnUse">
<stop stop-color="white"/>
<stop offset="1" stop-color="white" stop-opacity="0"/>
</linearGradient>
<linearGradient id="paint41_linear_7284_39899" x1="316" y1="260" x2="316" y2="308" gradientUnits="userSpaceOnUse">
<stop stop-color="#57657A"/>
<stop offset="1" stop-color="#3D4858"/>
</linearGradient>
<linearGradient id="paint42_linear_7284_39899" x1="316" y1="260" x2="316" y2="308" gradientUnits="userSpaceOnUse">
<stop stop-color="white"/>
<stop offset="1" stop-color="white" stop-opacity="0"/>
</linearGradient>
<linearGradient id="paint43_linear_7284_39899" x1="188" y1="196" x2="188" y2="244" gradientUnits="userSpaceOnUse">
<stop stop-color="#57606F"/>
<stop offset="1" stop-color="#313740"/>
</linearGradient>
<linearGradient id="paint44_linear_7284_39899" x1="188" y1="196" x2="188" y2="244" gradientUnits="userSpaceOnUse">
<stop stop-color="white"/>
<stop offset="1" stop-color="white" stop-opacity="0"/>
</linearGradient>
<linearGradient id="paint45_linear_7284_39899" x1="124" y1="196" x2="124" y2="244" gradientUnits="userSpaceOnUse">
<stop stop-color="#57657A"/>
<stop offset="1" stop-color="#3D4858"/>
</linearGradient>
<linearGradient id="paint46_linear_7284_39899" x1="124" y1="196" x2="124" y2="244" gradientUnits="userSpaceOnUse">
<stop stop-color="white"/>
<stop offset="1" stop-color="white" stop-opacity="0"/>
</linearGradient>
<linearGradient id="paint47_linear_7284_39899" x1="60" y1="196" x2="60" y2="244" gradientUnits="userSpaceOnUse">
<stop stop-color="#57657A"/>
<stop offset="1" stop-color="#3D4858"/>
</linearGradient>
<linearGradient id="paint48_linear_7284_39899" x1="60" y1="196" x2="60" y2="244" gradientUnits="userSpaceOnUse">
<stop stop-color="white"/>
<stop offset="1" stop-color="white" stop-opacity="0"/>
</linearGradient>
<linearGradient id="paint49_linear_7284_39899" x1="60" y1="260" x2="60" y2="308" gradientUnits="userSpaceOnUse">
<stop stop-color="#57657A"/>
<stop offset="1" stop-color="#3D4858"/>
</linearGradient>
<linearGradient id="paint50_linear_7284_39899" x1="60" y1="260" x2="60" y2="308" gradientUnits="userSpaceOnUse">
<stop stop-color="white"/>
<stop offset="1" stop-color="white" stop-opacity="0"/>
</linearGradient>
<linearGradient id="paint51_linear_7284_39899" x1="316" y1="196" x2="316" y2="244" gradientUnits="userSpaceOnUse">
<stop stop-color="#57657A"/>
<stop offset="1" stop-color="#3D4858"/>
</linearGradient>
<linearGradient id="paint52_linear_7284_39899" x1="316" y1="196" x2="316" y2="244" gradientUnits="userSpaceOnUse">
<stop stop-color="white"/>
<stop offset="1" stop-color="white" stop-opacity="0"/>
</linearGradient>
<linearGradient id="paint53_linear_7284_39899" x1="60" y1="324" x2="60" y2="372" gradientUnits="userSpaceOnUse">
<stop stop-color="#57657A"/>
<stop offset="1" stop-color="#3D4858"/>
</linearGradient>
<linearGradient id="paint54_linear_7284_39899" x1="60" y1="324" x2="60" y2="372" gradientUnits="userSpaceOnUse">
<stop stop-color="white"/>
<stop offset="1" stop-color="white" stop-opacity="0"/>
</linearGradient>
<linearGradient id="paint55_linear_7284_39899" x1="124" y1="260" x2="124" y2="308" gradientUnits="userSpaceOnUse">
<stop stop-color="#57606F"/>
<stop offset="1" stop-color="#313740"/>
</linearGradient>
<linearGradient id="paint56_linear_7284_39899" x1="124" y1="260" x2="124" y2="308" gradientUnits="userSpaceOnUse">
<stop stop-color="white"/>
<stop offset="1" stop-color="white" stop-opacity="0"/>
</linearGradient>
<linearGradient id="paint57_linear_7284_39899" x1="252" y1="324" x2="252" y2="372" gradientUnits="userSpaceOnUse">
<stop stop-color="#57657A"/>
<stop offset="1" stop-color="#3D4858"/>
</linearGradient>
<linearGradient id="paint58_linear_7284_39899" x1="252" y1="324" x2="252" y2="372" gradientUnits="userSpaceOnUse">
<stop stop-color="white"/>
<stop offset="1" stop-color="white" stop-opacity="0"/>
</linearGradient>
<linearGradient id="paint59_linear_7284_39899" x1="316" y1="324" x2="316" y2="372" gradientUnits="userSpaceOnUse">
<stop stop-color="#57657A"/>
<stop offset="1" stop-color="#3D4858"/>
</linearGradient>
<linearGradient id="paint60_linear_7284_39899" x1="316" y1="324" x2="316" y2="372" gradientUnits="userSpaceOnUse">
<stop stop-color="white"/>
<stop offset="1" stop-color="white" stop-opacity="0"/>
</linearGradient>
<linearGradient id="paint61_linear_7284_39899" x1="60" y1="388" x2="60" y2="436" gradientUnits="userSpaceOnUse">
<stop stop-color="#57657A"/>
<stop offset="1" stop-color="#3D4858"/>
</linearGradient>
<linearGradient id="paint62_linear_7284_39899" x1="60" y1="388" x2="60" y2="436" gradientUnits="userSpaceOnUse">
<stop stop-color="white"/>
<stop offset="1" stop-color="white" stop-opacity="0"/>
</linearGradient>
<linearGradient id="paint63_linear_7284_39899" x1="188" y1="388" x2="188" y2="436" gradientUnits="userSpaceOnUse">
<stop stop-color="#57657A"/>
<stop offset="1" stop-color="#3D4858"/>
</linearGradient>
<linearGradient id="paint64_linear_7284_39899" x1="188" y1="388" x2="188" y2="436" gradientUnits="userSpaceOnUse">
<stop stop-color="white"/>
<stop offset="1" stop-color="white" stop-opacity="0"/>
</linearGradient>
<linearGradient id="paint65_linear_7284_39899" x1="124" y1="388" x2="124" y2="436" gradientUnits="userSpaceOnUse">
<stop stop-color="#57657A"/>
<stop offset="1" stop-color="#3D4858"/>
</linearGradient>
<linearGradient id="paint66_linear_7284_39899" x1="124" y1="388" x2="124" y2="436" gradientUnits="userSpaceOnUse">
<stop stop-color="white"/>
<stop offset="1" stop-color="white" stop-opacity="0"/>
</linearGradient>
<linearGradient id="paint67_linear_7284_39899" x1="252" y1="388" x2="252" y2="436" gradientUnits="userSpaceOnUse">
<stop stop-color="#57657A"/>
<stop offset="1" stop-color="#3D4858"/>
</linearGradient>
<linearGradient id="paint68_linear_7284_39899" x1="252" y1="388" x2="252" y2="436" gradientUnits="userSpaceOnUse">
<stop stop-color="white"/>
<stop offset="1" stop-color="white" stop-opacity="0"/>
</linearGradient>
<linearGradient id="paint69_linear_7284_39899" x1="316" y1="388" x2="316" y2="436" gradientUnits="userSpaceOnUse">
<stop stop-color="#57657A"/>
<stop offset="1" stop-color="#3D4858"/>
</linearGradient>
<linearGradient id="paint70_linear_7284_39899" x1="316" y1="388" x2="316" y2="436" gradientUnits="userSpaceOnUse">
<stop stop-color="white"/>
<stop offset="1" stop-color="white" stop-opacity="0"/>
</linearGradient>
<clipPath id="clip0_7284_39899">
<rect width="375" height="503" fill="white"/>
</clipPath>
</defs>
</svg>
