<svg width="375" height="503" fill="none" xmlns="http://www.w3.org/2000/svg"><g clip-path="url(#a)"><rect x="20.917" y="266.007" width="67.786" height="67.786" rx="33.893" fill="#161B22"/><g opacity=".1" clip-path="url(#b)"><path d="M41.082 308.376c.245-.248.583-.393.94-.393h32.46c.593 0 .89.723.47 1.147l-6.412 6.477a1.323 1.323 0 0 1-.94.392H35.14c-.593 0-.89-.723-.47-1.146l6.412-6.477z" fill="url(#c)"/><path d="M41.082 284.194a1.36 1.36 0 0 1 .94-.393h32.46c.593 0 .89.723.47 1.147l-6.412 6.477a1.323 1.323 0 0 1-.94.392H35.14c-.593 0-.89-.723-.47-1.146l6.412-6.477z" fill="url(#d)"/><path d="M68.54 296.209a1.324 1.324 0 0 0-.94-.393H35.14c-.593 0-.89.724-.47 1.147l6.412 6.477c.245.248.583.392.94.392h32.46c.593 0 .89-.723.47-1.146l-6.412-6.477z" fill="url(#e)"/></g><rect x="65.826" y="347.351" width="67.786" height="67.786" rx="33.893" fill="#2D2C27"/><g opacity=".1" clip-path="url(#f)" fill="#fff"><path d="m91.49 377.864 8.228-8.228 8.232 8.231 4.788-4.787-13.02-13.019-13.014 13.015 4.787 4.787v.001zm-12.955 3.38 4.788-4.788 4.787 4.787-4.787 4.788-4.788-4.787zm12.956 3.381 8.227 8.228 8.232-8.232 4.79 4.785-.002.003-13.02 13.018-13.014-13.015-.007-.006 4.794-4.781zm19.836-3.379 4.787-4.787 4.788 4.787-4.788 4.788-4.787-4.788z"/><path d="M104.574 381.242h.002l-4.858-4.858-3.59 3.589-.413.413-.85.851-.007.006.007.007 4.853 4.855 4.858-4.858.003-.003-.005-.002"/></g><rect x="237" y="23" width="67.786" height="67.786" rx="33.893" fill="#1B2025"/><g opacity=".02" clip-path="url(#g)" fill="#fff"><path d="m262.665 53.513 8.228-8.228 8.231 8.231 4.788-4.787-13.019-13.019-13.015 13.015 4.787 4.787zm-12.956 3.38 4.788-4.788 4.787 4.787-4.787 4.788-4.788-4.787zm12.956 3.381 8.228 8.228 8.231-8.232 4.79 4.785-.002.003-13.019 13.018-13.015-13.015-.007-.006 4.794-4.781zm19.836-3.379 4.788-4.787 4.787 4.787-4.788 4.787-4.787-4.787z"/><path d="M275.748 56.89h.002l-4.857-4.857-3.591 3.59-.412.412-.851.85-.007.007.007.007 4.854 4.855 4.857-4.858.003-.003-.005-.002"/></g><rect x="236.985" y="347.351" width="67.786" height="67.786" rx="33.893" fill="#2D333A"/><g opacity=".1" clip-path="url(#h)"><path d="m270.847 359.214-.296.984v28.568l.296.289 13.553-7.838-13.553-22.003z" fill="#343434"/><path d="m270.847 359.214-13.554 22.003 13.554 7.838v-29.841z" fill="#8C8C8C"/><path d="m270.847 391.566-.166.199v10.176l.166.477 13.562-18.687-13.562 7.835z" fill="#3C3C3B"/><path d="M270.846 402.418v-10.852l-13.553-7.835 13.553 18.687z" fill="#8C8C8C"/><path d="m270.848 389.054 13.553-7.838-13.553-6.028v13.866z" fill="#141414"/><path d="m257.293 381.216 13.553 7.838v-13.866l-13.553 6.028z" fill="#393939"/></g><rect x="151.58" y="23" width="67.786" height="67.786" rx="33.893" fill="#1B2129"/><g opacity=".02" clip-path="url(#i)"><path d="m185.441 34.863-.296.984v28.568l.296.289 13.554-7.838-13.554-22.003z" fill="#343434"/><path d="m185.441 34.863-13.553 22.002 13.553 7.839V34.863z" fill="#8C8C8C"/><path d="m185.442 67.215-.167.199V77.59l.167.477 13.561-18.687-13.561 7.835z" fill="#3C3C3B"/><path d="M185.441 78.067V67.215l-13.553-7.835 13.553 18.687z" fill="#8C8C8C"/><path d="m185.442 64.703 13.553-7.838-13.553-6.028v13.866z" fill="#141414"/><path d="m171.888 56.865 13.553 7.838V50.837l-13.553 6.028z" fill="#393939"/></g><rect x="280.199" y="266.007" width="67.786" height="67.786" rx="33.893" fill="#2D2A25"/><path d="M328.571 295.983c.598-4.266-2.448-6.559-6.612-8.089l1.351-5.78-3.299-.876-1.315 5.627c-.867-.231-1.758-.448-2.643-.664l1.325-5.664-3.297-.876-1.351 5.777a98.137 98.137 0 0 1-2.107-.528l.004-.018-4.549-1.212-.877 3.758s2.447.598 2.396.635c1.335.355 1.577 1.299 1.537 2.046l-1.539 6.584c.092.025.211.061.343.117-.11-.029-.227-.061-.349-.092l-2.157 9.223c-.163.433-.577 1.083-1.511.836.033.051-2.398-.638-2.398-.638l-1.638 4.027 4.293 1.141c.799.214 1.581.437 2.352.647l-1.365 5.846 3.295.876 1.351-5.783c.9.261 1.774.501 2.629.728l-1.347 5.756 3.299.876 1.364-5.834c5.625 1.135 9.855.677 11.635-4.749 1.434-4.368-.072-6.888-3.031-8.531 2.156-.53 3.779-2.042 4.212-5.165l-.001-.001zm-7.537 11.271c-1.019 4.369-7.916 2.007-10.152 1.415l1.812-7.744c2.235.595 9.406 1.773 8.34 6.329zm1.02-11.334c-.93 3.974-6.67 1.955-8.532 1.46l1.642-7.024c1.862.495 7.859 1.419 6.891 5.564h-.001z" fill="#fff" opacity=".1"/><rect x="151.406" y="347.351" width="67.786" height="67.786" rx="33.893" fill="#301E26"/><g opacity=".1" clip-path="url(#j)"><path d="M204.989 375.193c-1.827-1.687-4.354-4.264-6.413-6.091l-.122-.085a2.303 2.303 0 0 0-.676-.377c-4.963-.926-28.063-5.244-28.514-5.189a.836.836 0 0 0-.353.134l-.116.091a1.37 1.37 0 0 0-.317.512l-.03.079v.499c2.601 7.241 12.869 30.963 14.89 36.529.122.378.354 1.096.786 1.133h.098c.231 0 1.218-1.303 1.218-1.303s17.637-21.389 19.421-23.667c.231-.28.435-.582.609-.901a1.461 1.461 0 0 0-.481-1.364zm-15.024 2.49 7.527-6.242 4.415 4.068-11.942 2.174zm-2.924-.408-12.96-10.621 20.969 3.867-8.009 6.754zm1.17 2.784 13.264-2.138-15.165 18.27 1.901-16.132zm-15.89-12.345 13.636 11.571-1.973 16.919-11.663-28.49z" fill="#fff"/></g><rect x="66" y="23" width="67.786" height="67.786" rx="33.893" fill="#1C1D24"/><g opacity=".02" clip-path="url(#k)"><path d="M119.584 50.842c-1.828-1.688-4.355-4.264-6.413-6.09l-.122-.086a2.327 2.327 0 0 0-.676-.377c-4.964-.926-28.064-5.244-28.514-5.19a.854.854 0 0 0-.354.135l-.115.091c-.143.145-.251.32-.317.511l-.03.08v.499c2.6 7.241 12.868 30.962 14.89 36.529.122.378.353 1.096.786 1.133h.097c.231 0 1.218-1.304 1.218-1.304s17.637-21.388 19.422-23.666c.231-.28.435-.582.609-.901a1.476 1.476 0 0 0-.481-1.364zm-15.025 2.49 7.528-6.242 4.415 4.068-11.943 2.174zm-2.923-.408-12.96-10.62 20.968 3.866-8.008 6.754zm1.169 2.784 13.264-2.138-15.164 18.27 1.9-16.133zm-15.89-12.345 13.637 11.571-1.974 16.919-11.662-28.49z" fill="#fff"/></g><g clip-path="url(#l)"><circle cx="56.504" cy="137.214" r="33.893" fill="#1A1F26"/><g opacity=".1" fill="#fff"><path d="M33.699 135.386c-.047-.468-.084-.6-.07-.727.588-5.076.588-5.079 5.617-5.076 5.442.004 10.884-.006 16.325.035 1.52.011 2.762-.315 3.812-1.568 1.447-1.727 2.01-1.725 3.396-.027 1.026 1.258 2.203 1.641 3.77 1.591 3.144-.1 6.298.075 9.439-.073 1.748-.082 2.54.566 2.758 2.221.137 1.033.382 2.052.636 3.377-.79.093-1.442.234-2.096.236-4.458.02-8.917-.05-13.374.041-1.709.035-3.06-.318-4.055-1.802-.922-1.376-2.056-1.395-2.998-.066-1.125 1.586-2.596 1.903-4.43 1.872-5.506-.094-11.015-.034-16.522-.034H33.7zM33.799 141.479c4.594 0 8.848-.068 13.097.03 1.9.044 3.467-.29 4.634-1.936.89-1.254 1.987-1.286 2.86.005 1.146 1.692 2.72 1.958 4.61 1.931 5.838-.083 11.677-.03 17.515-.03h2.614c-.646 1.921-1.107 3.585-1.797 5.148-.177.4-1.078.672-1.649.676-7.019.044-14.04.094-21.056-.048-.979-.02-2.118-.886-2.865-1.666-1.17-1.222-2.138-1.481-3.193-.049-1.133 1.54-2.625 1.935-4.464 1.824a54.057 54.057 0 0 0-6.49.003c-1.53.092-2.315-.508-2.678-1.922-.307-1.199-.68-2.381-1.138-3.966zM38.156 123.515c9.239-12.486 28.122-11.936 36.328-.157-2.53.177-4.97.843-6.691-1.798-.823-1.263-1.901-1.062-2.715.068-1.166 1.618-2.7 1.953-4.608 1.925-6.617-.097-13.237-.038-19.855-.038h-2.459zM72.936 152.883c-7.498 9.153-24.228 10.307-32.823.309.802-.745 1.673-1.425 2.385-2.244 1.021-1.175 2.025-1.252 2.892.003 1.154 1.671 2.694 1.987 4.597 1.964 6.818-.083 13.639-.032 20.458-.032h2.49z"/></g></g><g clip-path="url(#m)"><path d="M142.085 171.108c18.719 0 33.893-15.175 33.893-33.894 0-18.718-15.174-33.893-33.893-33.893s-33.893 15.175-33.893 33.893c0 18.719 15.174 33.894 33.893 33.894z" fill="#24313E"/><path opacity=".1" fill-rule="evenodd" clip-rule="evenodd" d="M128.898 151.512c2.752 4.768 7.682 7.615 13.187 7.615 5.505 0 10.435-2.847 13.188-7.615 2.753-4.767 2.753-10.459 0-15.227l-11.599-20.089c-.706-1.223-2.471-1.223-3.177 0l-11.599 20.089c-2.753 4.767-2.753 10.459 0 15.227zm9.92-25.759 2.473-4.283a.917.917 0 0 1 1.589 0l9.514 16.478c1.747 3.028 2.076 6.531.984 9.738a10.28 10.28 0 0 0-.487-1.599c-1.314-3.317-4.285-5.876-8.833-7.607-3.127-1.186-5.123-2.93-5.934-5.185-1.044-2.906.047-6.074.694-7.542zm-4.217 7.304-2.824 4.891c-2.152 3.727-2.152 8.176 0 11.903 2.152 3.727 6.005 5.951 10.308 5.951 2.859 0 5.519-.982 7.614-2.733.273-.688 1.119-3.206.074-5.801-.966-2.396-3.289-4.309-6.905-5.687-4.089-1.55-6.745-3.971-7.894-7.193a10.118 10.118 0 0 1-.373-1.331z" fill="#fff"/></g><g clip-path="url(#n)"><path d="M144.085 491.107c18.719 0 33.893-15.174 33.893-33.893s-15.174-33.893-33.893-33.893-33.893 15.174-33.893 33.893 15.174 33.893 33.893 33.893z" fill="#192029"/><path opacity=".02" fill-rule="evenodd" clip-rule="evenodd" d="M130.898 471.512c2.752 4.768 7.682 7.614 13.187 7.614 5.505 0 10.435-2.846 13.188-7.614 2.753-4.767 2.753-10.459 0-15.227l-11.599-20.09c-.706-1.223-2.471-1.223-3.178 0l-11.598 20.09c-2.753 4.767-2.753 10.459 0 15.227zm9.92-25.759 2.473-4.284a.918.918 0 0 1 1.589 0l9.513 16.479c1.748 3.027 2.076 6.531.985 9.737a10.313 10.313 0 0 0-.487-1.599c-1.314-3.316-4.286-5.875-8.833-7.607-3.127-1.186-5.123-2.93-5.934-5.184-1.044-2.906.047-6.075.694-7.542zm-4.217 7.304-2.824 4.891c-2.152 3.727-2.152 8.176 0 11.903 2.152 3.727 6.005 5.951 10.308 5.951 2.859 0 5.519-.982 7.614-2.734.273-.688 1.119-3.205.074-5.8-.966-2.396-3.289-4.309-6.906-5.687-4.088-1.551-6.744-3.972-7.893-7.194a10.105 10.105 0 0 1-.373-1.33z" fill="#fff"/></g><g clip-path="url(#o)"><path d="M313.245 171.108c18.719 0 33.893-15.175 33.893-33.894 0-18.718-15.174-33.893-33.893-33.893-18.718 0-33.893 15.175-33.893 33.893 0 18.719 15.175 33.894 33.893 33.894z" fill="#172C39"/><path opacity=".1" fill-rule="evenodd" clip-rule="evenodd" d="m315.788 130.647 7.626-4.448v8.897l-7.626-4.449zm7.626 19.065-10.168 5.931-10.168-5.931v-10.38l10.168 5.932 10.168-5.932v10.38zm-20.336-23.513 7.626 4.448-7.626 4.449v-8.897zm11.439 6.566 7.626 4.449-7.626 4.448v-8.897zm-2.542 8.897-7.626-4.448 7.626-4.449v8.897zm10.168-17.582-8.897 5.084-8.897-5.084 8.897-5.295 8.897 5.295zm-21.607-.847v27.75l12.71 7.202 12.71-7.202v-27.75l-12.71-7.202-12.71 7.202z" fill="#fff"/></g><rect x="193.772" y="103.321" width="67.786" height="67.786" rx="33.893" fill="#161D27"/><path opacity=".1" fill-rule="evenodd" clip-rule="evenodd" d="m237.592 120.829 9.561 5.478v22.256l-9.63 5.518-9.631 5.518h-.455l-9.63-5.518-9.631-5.518V126.306l9.708-5.561 9.707-5.561.22.083.22.084 9.561 5.478zm-16.776 5.018-6.628 3.808-.001 7.78v7.779l6.615 3.781 6.615 3.78h.512l6.606-3.78 6.606-3.781V129.655l-6.604-3.781-6.603-3.78-.245-.028-.244-.028-6.629 3.809zm11.449 3.735 4.472 2.545-.037.127-.036.127-1.859 1.077-1.859 1.078-2.541-1.459-2.541-1.459h-.394l-2.467 1.412-2.467 1.412V140.427l2.467 1.412 2.467 1.412h.394l2.541-1.459 2.541-1.459 1.859 1.078 1.859 1.077.036.127.036.127-4.536 2.584-4.535 2.585-4.536-2.585-4.536-2.584v-10.615l4.499-2.573 4.499-2.573.102.028.101.029 4.471 2.544z" fill="#fff"/><rect x="194.772" y="423.321" width="67.786" height="67.786" rx="33.893" fill="#171D25"/><path opacity=".02" fill-rule="evenodd" clip-rule="evenodd" d="m238.592 440.828 9.561 5.478V468.563l-9.63 5.518-9.631 5.518h-.455l-9.63-5.518-9.631-5.518V446.306l9.708-5.562 9.707-5.561.22.084.22.083 9.561 5.478zm-16.776 5.018-6.628 3.809-.001 7.779v7.78l6.615 3.78 6.615 3.781h.512l6.606-3.781 6.606-3.78V449.655l-6.604-3.781-6.603-3.781-.245-.027-.244-.028-6.629 3.808zm11.449 3.736 4.472 2.545-.037.126-.036.127-1.859 1.078-1.859 1.077-2.541-1.459-2.541-1.458h-.394l-2.467 1.412-2.467 1.412v5.984l2.467 1.412 2.467 1.412h.394l2.541-1.458 2.541-1.459 1.859 1.077 1.859 1.078.036.127.036.127-4.536 2.584-4.535 2.584-4.536-2.584-4.536-2.584v-10.615l4.499-2.574 4.499-2.573.102.029.101.028 4.471 2.545z" fill="#fff"/><path d="m-24.28 448.307 42.91-74.597m0-298.385L61.54.728l42.91 74.597m-85.82 0-42.91 74.596 42.91 74.596m0-149.192L-27-4m45.63 79.325 42.91 74.596m42.91-74.596 42.91 74.596m-42.91-74.596L147.36.728l42.91 74.597m-85.82 0L61.54 149.92m85.82 0 42.91 74.596m-42.91-74.596 42.91-74.596m-42.91 74.596-42.91 74.596m85.82 0 42.91 74.597m-42.91-74.597 42.91-74.596m-42.91 74.596-42.91 74.597m85.82 0 42.91 74.596m-42.91-74.596 42.91-74.597m-42.91 74.597-42.91 74.596m85.82 0L319 448.307l42.91-74.597m-85.82 0L319 299.114m-42.91 74.596-42.91 74.597-42.91-74.597M407.54-4l-45.63 79.325m0 0L319 149.92m42.91-74.596L319 .728l-42.91 74.597m85.82 0 42.91 74.596-42.91 74.596M319 149.921l-42.91 74.596M319 149.921l-42.91-74.596M319 149.92l42.91 74.596m-85.82 0-42.91-74.596m42.91 74.596L319 299.114M190.27 373.71l-42.91 74.597-42.91-74.597m85.82 0-42.91-74.596M18.63 224.517l42.91 74.597m-42.91-74.597 42.91-74.596m-42.91 74.596-42.91 74.597 42.91 74.596m42.91-74.596 42.91 74.596m-42.91-74.596 42.91-74.597m-42.91 74.597L18.63 373.71m85.82 0 42.91-74.596m-42.91 74.596-42.91 74.597-42.91-74.597M190.27 75.325 233.18.728l42.91 74.597m-85.82 0 42.91 74.596m-128.73 74.596-42.91-74.596m42.91 74.596 42.91 74.597m128.73-223.79-42.91 74.597m128.73 74.596 42.91 74.597-42.91 74.596m0-149.193L319 299.114m42.91 74.596L319 299.114m42.91 74.596 42.91 74.597" stroke="url(#p)" stroke-width="1.4"/><g opacity=".6" filter="url(#q)"><rect x="94" y="167" width="177" height="189" rx="88.5" fill="#68778E" fill-opacity=".52"/></g><g filter="url(#r)"><rect x="65.825" y="184.664" width="67.786" height="67.786" rx="33.893" fill="#8247E5"/><g clip-path="url(#s)"><path d="M110.274 211.08c-.766-.438-1.751-.438-2.627 0l-6.129 3.611-4.159 2.299-6.02 3.611c-.765.438-1.75.438-2.626 0l-4.706-2.845a2.668 2.668 0 0 1-1.313-2.299v-5.472c0-.875.437-1.751 1.313-2.298l4.706-2.736c.766-.438 1.751-.438 2.627 0l4.706 2.845a2.67 2.67 0 0 1 1.313 2.299v3.611l4.159-2.407v-3.722c0-.875-.437-1.751-1.313-2.298l-8.756-5.144c-.766-.438-1.75-.438-2.626 0l-8.975 5.253c-.876.438-1.313 1.314-1.313 2.189v10.288c0 .876.438 1.751 1.313 2.299l8.865 5.144c.766.437 1.751.437 2.627 0l6.02-3.503 4.158-2.407 6.02-3.503c.766-.438 1.751-.438 2.627 0l4.706 2.736a2.67 2.67 0 0 1 1.313 2.299v5.472c0 .876-.438 1.751-1.313 2.299l-4.597 2.736c-.766.437-1.751.437-2.627 0l-4.706-2.736a2.67 2.67 0 0 1-1.313-2.299V222.9l-4.16 2.408v3.611c0 .876.439 1.752 1.314 2.299l8.865 5.144c.767.438 1.752.438 2.627 0l8.865-5.144a2.67 2.67 0 0 0 1.314-2.299v-10.397c0-.876-.438-1.751-1.314-2.298l-8.865-5.144z" fill="#fff"/></g></g><g filter="url(#t)"><path d="M185.298 252.45c18.719 0 33.894-15.174 33.894-33.893 0-18.718-15.175-33.893-33.894-33.893-18.718 0-33.893 15.175-33.893 33.893 0 18.719 15.175 33.893 33.893 33.893z" fill="#FF0420"/><path d="M175.414 227.559c-2.02 0-3.674-.474-4.962-1.424-1.274-.962-1.912-2.345-1.912-4.121 0-.38.041-.827.122-1.369.217-1.22.529-2.685.936-4.406 1.152-4.664 4.135-6.996 8.934-6.996 1.302 0 2.481.217 3.511.664 1.031.421 1.844 1.071 2.441 1.939.596.854.895 1.871.895 3.051 0 .352-.041.799-.123 1.342a54.807 54.807 0 0 1-.921 4.406c-.597 2.318-1.614 4.067-3.078 5.219-1.451 1.139-3.403 1.695-5.843 1.695zm.366-3.66c.949 0 1.749-.285 2.413-.841.678-.556 1.166-1.41 1.451-2.576.393-1.6.691-2.982.895-4.176.067-.352.108-.718.108-1.098 0-1.545-.8-2.318-2.413-2.318-.949 0-1.763.285-2.44.841-.665.555-1.139 1.41-1.424 2.575-.312 1.139-.61 2.522-.922 4.176a5.4 5.4 0 0 0-.108 1.071c-.014 1.573.813 2.346 2.44 2.346zM186.559 227.316c-.19 0-.326-.055-.434-.177a.656.656 0 0 1-.082-.46l3.512-16.54a.677.677 0 0 1 .284-.461.75.75 0 0 1 .488-.177h6.766c1.884 0 3.389.394 4.528 1.166 1.152.787 1.735 1.912 1.735 3.39 0 .42-.054.867-.149 1.328-.42 1.953-1.275 3.39-2.576 4.325-1.274.936-3.023 1.396-5.247 1.396h-3.43l-1.166 5.573a.727.727 0 0 1-.284.46.748.748 0 0 1-.488.177h-3.457zm9.002-9.721c.718 0 1.328-.19 1.857-.583.542-.393.895-.949 1.071-1.681.054-.285.081-.542.081-.759 0-.488-.149-.868-.434-1.125-.284-.272-.786-.407-1.477-.407h-3.051l-.962 4.555h2.915z" fill="#fff"/></g><g filter="url(#u)"><rect x="236.984" y="184.664" width="67.786" height="67.786" rx="33.893" fill="#E84142"/><path d="M280.552 220.279c.91-1.605 2.379-1.605 3.289 0l5.667 10.159c.91 1.606.165 2.915-1.655 2.915h-11.417c-1.799 0-2.544-1.309-1.654-2.915l5.77-10.159zm-10.962-19.558c.911-1.605 2.358-1.605 3.268 0l1.262 2.324 2.978 5.343a5.657 5.657 0 0 1 0 4.837l-9.989 17.678c-.91 1.436-2.42 2.345-4.096 2.45h-8.293c-1.82 0-2.565-1.288-1.655-2.915l16.525-29.717z" fill="#fff"/></g><g filter="url(#v)"><path d="M140.389 333.794c18.896 0 33.893-15.297 33.893-33.893 0-18.896-15.297-33.893-33.893-33.893-18.896 0-33.893 15.297-33.893 33.893s15.297 33.893 33.893 33.893z" fill="#2C374B"/><path fill-rule="evenodd" clip-rule="evenodd" d="M158.988 287.605c-.3-.3-14.997-8.998-16.796-9.598-.6-.3-2.1-.6-3-.3-.9.3-16.496 9.298-17.096 9.898-.3.3-.6.9-.9 1.2-.3.599-.3.899-.3 11.397V311l2.099 1.2c1.2.6 2.1 1.2 2.1 1.2.3 0 14.397-22.496 14.397-22.796 0-.3-3.299-.3-4.199 0-1.2.3-2.1.9-2.699 1.5-.3.3-2.1 3.299-4.5 6.599-2.099 3.299-3.899 6.298-3.899 6.298v-14.697l.3-.3c.6-.6 15.897-9.298 16.497-9.298.3 0 .6 0 4.199 2.1 1.2.6 4.499 2.399 7.198 4.199 2.7 1.5 5.099 2.999 5.399 3.299l.3.3v15.597l-7.498-11.698c-.3-.6-.6-1.199-.9-1.499 0 0-.3.6-2.1 3.599-.299.3-.599.9-.599 1.2l-.3.6.3.3.3.299s0 .3.299.3l.6.9s0 .3.3.3c.3.3.6.9.6 1.2v.3l6.299 10.198-.6.3c-.3.3-.6.3-.9.3l-7.798-11.998-.3-.3-.6 1.2-2.999 4.799 5.998 9.598c-.899.6-5.998 4.199-6.298 4.199-.3 0-7.199-4.499-6.899-4.799 0 0 2.1-3.599 4.499-7.798 2.1-3.6 4.799-8.099 6.599-11.098 2.099-3.599 2.999-5.399 2.999-5.399H142.791l-6.898 11.398c-2.4 4.199-4.799 8.098-5.999 10.198-2.1.3-2.699.899-2.699.899l-.3.6 5.399 3c2.999 1.799 5.698 3.299 6.298 3.599.9.6 2.4.6 3 .6.6-.3 16.196-9.298 17.096-9.898.3-.3.6-.6.9-1.2l.3-.9v-19.796l-.3-.6c0-.599-.6-1.199-.6-1.499z" fill="#fff"/><path d="m157.488 305.901-8.998-13.797-3.3 5.398 8.698 14.098 3.9-1.8-.3-3.899zM153.289 313.399l-8.999-13.797-3.899 5.998 7.199 11.398 4.499-1.8 1.2-1.799z" fill="#24A2EE"/><path fill-rule="evenodd" clip-rule="evenodd" d="m123.893 290.304 16.497-9.598 16.497 9.598V309.5l-16.497 9.598-12.297-6.899-1.5 2.7 13.497 7.798c.3.3.6.3.9 0l18.896-10.798c.3-.299.6-.599.6-.899v-21.596c0-.3-.3-.6-.6-.9l-18.896-10.798c-.3-.3-.6-.3-.9 0l-18.896 10.498c-.3.3-.6.6-.6.9V310.7c0 .3.3.6.6.9l3.899 2.099 1.8-2.699-2.7-1.5v-19.196h-.3z" fill="#98BCDC"/><path d="M147.588 290.304h-6.299l-14.697 23.995 5.099 3 15.897-26.995zM131.692 292.704c1.5-2.4 5.699-2.4 7.498-2.1l-14.397 23.095c-.6-.3-1.799-.899-2.699-1.499-1.2-.6-1.5-.6-1.5-1.5v-1.2c3.299-4.799 9.598-14.397 11.098-16.796z" fill="#fff"/></g><g filter="url(#w)"><rect x="194.619" y="266.008" width="67.786" height="67.786" rx="33.893" fill="#2C2C2C"/><path d="m251.942 305.55-22.31 16.496c-.295.216-.729.236-1.024.019l-22.664-16.022c-.434-.316-.533-.946-.178-1.36l22.29-26.724c.315-.394.906-.394 1.241 0l22.763 26.566c.256.316.217.789-.118 1.025z" fill="#FFF4FC"/><path d="m250.74 304.999-21.206 15.667-.118-15.963-.158-25.068 20.989 24.772.493.592z" fill="url(#x)"/><path d="m206.811 305.334 21.757 15.332-.493-41.031-21.264 25.699z" fill="url(#y)"/><path d="m228.391 304.744-21.423.414-.157.177 21.757 15.333-.177-15.924z" fill="url(#z)"/><path d="m229.415 304.703 20.831-.295.493.591-21.205 15.668-.119-15.964z" fill="url(#A)"/><path d="m229.416 304.506 20.831-.296m-21.856.335-21.423.414m21.324-7.41c-4.611-3.528-6.562-4.079-7.292-3.488-2.01 1.675 5.44 12.573 2.464 15.313-.867.788-2.661.965-6.11 1.3a28.938 28.938 0 0 1-2.522.138m21.619-6.405-7.075-6.188m-4.671-14.702a10.405 10.405 0 0 0 3.528 8.396m16.909 17.027c.178-.256 2.385-3.508 1.025-6.563-1.005-2.266-3.468-3.31-3.843-3.468-.493-.217-.512-.158-2.818-.907-1.399-.473-2.109-.689-2.72-.926a25.073 25.073 0 0 1-4.868-2.404 25.915 25.915 0 0 1-2.581-1.892" stroke="#98C9C0" stroke-width=".394" stroke-miterlimit="10"/></g></g><defs><clipPath id="j"><path fill="#fff" transform="translate(167.504 363.45)" d="M0 0h38.977v38.977H0z"/></clipPath><clipPath id="s"><path fill="#fff" transform="translate(78.535 199.916)" d="M0 0h42.028v36.665H0z"/></clipPath><clipPath id="n"><path fill="#fff" transform="translate(110.192 423.321)" d="M0 0h67.786v67.786H0z"/></clipPath><clipPath id="m"><path fill="#fff" transform="translate(108.192 103.321)" d="M0 0h67.786v67.786H0z"/></clipPath><clipPath id="l"><path fill="#fff" transform="translate(22.611 103.321)" d="M0 0h67.786v67.786H0z"/></clipPath><clipPath id="k"><path fill="#fff" transform="translate(82.099 39.1)" d="M0 0h38.977v38.977H0z"/></clipPath><clipPath id="o"><path fill="#fff" transform="translate(279.352 103.321)" d="M0 0h67.786v67.786H0z"/></clipPath><clipPath id="a"><path fill="#fff" d="M0 0h375v503H0z"/></clipPath><clipPath id="b"><path fill="#fff" transform="translate(34.475 283.801)" d="M0 0h40.672v32.199H0z"/></clipPath><clipPath id="f"><path fill="#fff" transform="translate(78.535 360.061)" d="M0 0h42.366v42.366H0z"/></clipPath><clipPath id="g"><path fill="#fff" transform="translate(249.709 35.71)" d="M0 0h42.366v42.366H0z"/></clipPath><clipPath id="h"><path fill="#fff" transform="translate(257.293 359.214)" d="M0 0h27.114v43.214H0z"/></clipPath><clipPath id="i"><path fill="#fff" transform="translate(171.888 34.863)" d="M0 0h27.114v43.214H0z"/></clipPath><linearGradient id="c" x1="71.381" y1="279.932" x2="48.56" y2="323.207" gradientUnits="userSpaceOnUse"><stop stop-color="#00FFA3"/><stop offset="1" stop-color="#DC1FFF"/></linearGradient><linearGradient id="d" x1="61.559" y1="274.752" x2="38.737" y2="318.027" gradientUnits="userSpaceOnUse"><stop stop-color="#00FFA3"/><stop offset="1" stop-color="#DC1FFF"/></linearGradient><linearGradient id="e" x1="66.439" y1="277.327" x2="43.617" y2="320.602" gradientUnits="userSpaceOnUse"><stop stop-color="#00FFA3"/><stop offset="1" stop-color="#DC1FFF"/></linearGradient><linearGradient id="A" x1="229.42" y1="312.544" x2="250.744" y2="312.544" gradientUnits="userSpaceOnUse"><stop stop-color="#2E2C29"/><stop offset="1" stop-color="#323232"/></linearGradient><linearGradient id="x" x1="229.255" y1="300.152" x2="250.745" y2="300.152" gradientUnits="userSpaceOnUse"><stop stop-color="#3B8270"/><stop offset="1" stop-color="#305C6E"/></linearGradient><linearGradient id="y" x1="206.819" y1="300.152" x2="228.573" y2="300.152" gradientUnits="userSpaceOnUse"><stop stop-color="#4E7F98"/><stop offset="1" stop-color="#3BC0B5"/></linearGradient><linearGradient id="z" x1="206.819" y1="312.704" x2="228.573" y2="312.704" gradientUnits="userSpaceOnUse"><stop stop-color="#30435C"/><stop offset="1" stop-color="#299AA9"/></linearGradient><filter id="r" x="59.17" y="178.009" width="125.462" height="125.462" filterUnits="userSpaceOnUse" color-interpolation-filters="sRGB"><feFlood flood-opacity="0" result="BackgroundImageFix"/><feColorMatrix in="SourceAlpha" values="0 0 0 0 0 0 0 0 0 0 0 0 0 0 0 0 0 0 127 0" result="hardAlpha"/><feOffset dx="22.183" dy="22.183"/><feGaussianBlur stdDeviation="14.419"/><feComposite in2="hardAlpha" operator="out"/><feColorMatrix values="0 0 0 0 0 0 0 0 0 0 0 0 0 0 0 0 0 0 0.3 0"/><feBlend in2="BackgroundImageFix" result="effect1_dropShadow_7284_39784"/><feBlend in="SourceGraphic" in2="effect1_dropShadow_7284_39784" result="shape"/></filter><filter id="w" x="187.964" y="259.353" width="125.462" height="125.462" filterUnits="userSpaceOnUse" color-interpolation-filters="sRGB"><feFlood flood-opacity="0" result="BackgroundImageFix"/><feColorMatrix in="SourceAlpha" values="0 0 0 0 0 0 0 0 0 0 0 0 0 0 0 0 0 0 127 0" result="hardAlpha"/><feOffset dx="22.183" dy="22.183"/><feGaussianBlur stdDeviation="14.419"/><feComposite in2="hardAlpha" operator="out"/><feColorMatrix values="0 0 0 0 0 0 0 0 0 0 0 0 0 0 0 0 0 0 0.3 0"/><feBlend in2="BackgroundImageFix" result="effect1_dropShadow_7284_39784"/><feBlend in="SourceGraphic" in2="effect1_dropShadow_7284_39784" result="shape"/></filter><filter id="v" x="99.841" y="259.353" width="125.462" height="125.462" filterUnits="userSpaceOnUse" color-interpolation-filters="sRGB"><feFlood flood-opacity="0" result="BackgroundImageFix"/><feColorMatrix in="SourceAlpha" values="0 0 0 0 0 0 0 0 0 0 0 0 0 0 0 0 0 0 127 0" result="hardAlpha"/><feOffset dx="22.183" dy="22.183"/><feGaussianBlur stdDeviation="14.419"/><feComposite in2="hardAlpha" operator="out"/><feColorMatrix values="0 0 0 0 0 0 0 0 0 0 0 0 0 0 0 0 0 0 0.3 0"/><feBlend in2="BackgroundImageFix" result="effect1_dropShadow_7284_39784"/><feBlend in="SourceGraphic" in2="effect1_dropShadow_7284_39784" result="shape"/></filter><filter id="u" x="230.329" y="178.009" width="125.462" height="125.462" filterUnits="userSpaceOnUse" color-interpolation-filters="sRGB"><feFlood flood-opacity="0" result="BackgroundImageFix"/><feColorMatrix in="SourceAlpha" values="0 0 0 0 0 0 0 0 0 0 0 0 0 0 0 0 0 0 127 0" result="hardAlpha"/><feOffset dx="22.183" dy="22.183"/><feGaussianBlur stdDeviation="14.419"/><feComposite in2="hardAlpha" operator="out"/><feColorMatrix values="0 0 0 0 0 0 0 0 0 0 0 0 0 0 0 0 0 0 0.3 0"/><feBlend in2="BackgroundImageFix" result="effect1_dropShadow_7284_39784"/><feBlend in="SourceGraphic" in2="effect1_dropShadow_7284_39784" result="shape"/></filter><filter id="t" x="144.75" y="178.009" width="125.462" height="125.462" filterUnits="userSpaceOnUse" color-interpolation-filters="sRGB"><feFlood flood-opacity="0" result="BackgroundImageFix"/><feColorMatrix in="SourceAlpha" values="0 0 0 0 0 0 0 0 0 0 0 0 0 0 0 0 0 0 127 0" result="hardAlpha"/><feOffset dx="22.183" dy="22.183"/><feGaussianBlur stdDeviation="14.419"/><feComposite in2="hardAlpha" operator="out"/><feColorMatrix values="0 0 0 0 0 0 0 0 0 0 0 0 0 0 0 0 0 0 0.3 0"/><feBlend in2="BackgroundImageFix" result="effect1_dropShadow_7284_39784"/><feBlend in="SourceGraphic" in2="effect1_dropShadow_7284_39784" result="shape"/></filter><filter id="q" x="4" y="77" width="357" height="369" filterUnits="userSpaceOnUse" color-interpolation-filters="sRGB"><feFlood flood-opacity="0" result="BackgroundImageFix"/><feBlend in="SourceGraphic" in2="BackgroundImageFix" result="shape"/><feGaussianBlur stdDeviation="45" result="effect1_foregroundBlur_7284_39784"/></filter><radialGradient id="p" cx="0" cy="0" r="1" gradientUnits="userSpaceOnUse" gradientTransform="matrix(0 183.5 -241.84 0 190 254)"><stop offset=".08" stop-color="#55657B"/><stop offset=".364" stop-color="#F3F4F5" stop-opacity=".059"/><stop offset="1" stop-color="#fff" stop-opacity="0"/></radialGradient></defs></svg>