<svg width="375" height="503" fill="none" xmlns="http://www.w3.org/2000/svg"><g clip-path="url(#a)"><path opacity=".1" d="M61 45v420.5" stroke="url(#b)" stroke-width="1.4"/><path opacity=".1" d="M124 45v420.5" stroke="url(#c)" stroke-width="1.4"/><path opacity=".1" d="M188 45v420.5" stroke="url(#d)" stroke-width="1.4"/><path opacity=".1" d="M252 45v420.5" stroke="url(#e)" stroke-width="1.4"/><path opacity=".1" d="M316 45v420.5" stroke="url(#f)" stroke-width="1.4"/><path opacity=".1" d="M16 412h343" stroke="url(#g)" stroke-width="1.4"/><path opacity=".1" d="M16 348h343" stroke="url(#h)" stroke-width="1.4"/><path opacity=".1" d="M16 284h343" stroke="url(#i)" stroke-width="1.4"/><path opacity=".1" d="M16 220h343" stroke="url(#j)" stroke-width="1.4"/><path opacity=".1" d="M16 156h343" stroke="url(#k)" stroke-width="1.4"/><path opacity=".1" d="M16 92h343" stroke="url(#l)" stroke-width="1.4"/><g opacity=".5"><g opacity=".75" filter="url(#m)"><rect x="304" y="225" width="44" height="47" rx="12.329" transform="rotate(90 304 225)" fill="#4ADE80"/></g><g opacity=".75" filter="url(#n)"><rect x="257" y="296" width="43" height="47" rx="12.329" transform="rotate(90 257 296)" fill="#4ADE80"/></g><g opacity=".75" filter="url(#o)"><rect x="234" y="180" width="95" height="103" rx="12.329" transform="rotate(90 234 180)" fill="#4ADE80"/></g><g opacity=".75" filter="url(#p)"><rect x="249" y="359" width="43" height="47" rx="12.329" transform="rotate(90 249 359)" fill="#4ADE80"/></g><g opacity=".75" filter="url(#q)"><rect x="183" y="147" width="43" height="47" rx="12.329" transform="rotate(90 183 147)" fill="#4ADE80"/></g><g opacity=".75" filter="url(#r)"><rect x="299" y="172" width="44" height="47" rx="12.329" transform="rotate(90 299 172)" fill="#4ADE80"/></g><g opacity=".75" filter="url(#s)"><rect x="130" y="99" width="43" height="47" rx="12.329" transform="rotate(90 130 99)" fill="#FFC700"/></g><g opacity=".75" filter="url(#t)"><rect x="89" y="291" width="43" height="47" rx="12.329" transform="rotate(90 89 291)" fill="#FFC700"/></g><g opacity=".75" filter="url(#u)"><rect x="166" y="364" width="43" height="47" rx="12.329" transform="rotate(90 166 364)" fill="#FFC700"/></g><g opacity=".75" filter="url(#v)"><rect x="323" y="335" width="66" height="71" rx="12.329" transform="rotate(90 323 335)" fill="#FF3C3C"/></g><g opacity=".75" filter="url(#w)"><rect x="303" y="76" width="54" height="57" rx="12.329" transform="rotate(90 303 76)" fill="#FF3C3C"/></g></g><g filter="url(#x)"><rect x="228" y="196" width="48" height="48" rx="12" fill="url(#y)" shape-rendering="crispEdges"/><path d="M254.934 224.574h-6.116l-1.012 2.926h-3.234l5.522-15.378h3.586l5.522 15.378h-3.256l-1.012-2.926zm-.836-2.464-2.222-6.424-2.222 6.424h4.444z" fill="#1DC981"/><rect x="228.555" y="196.555" width="46.89" height="46.89" rx="11.445" stroke="url(#z)" stroke-width="1.11" shape-rendering="crispEdges"/></g><g filter="url(#A)"><rect x="100" y="132" width="48" height="48" rx="12" fill="url(#B)" shape-rendering="crispEdges"/><path d="M126.934 160.574h-6.116l-1.012 2.926h-3.234l5.522-15.378h3.586l5.522 15.378h-3.256l-1.012-2.926zm-.836-2.464-2.222-6.424-2.222 6.424h4.444z" fill="#1DC981"/><rect x="100.555" y="132.555" width="46.89" height="46.89" rx="11.445" stroke="url(#C)" stroke-width="1.11" shape-rendering="crispEdges"/></g><g opacity=".7"><rect x="164.555" y="132.555" width="46.89" height="46.89" rx="11.445" fill="url(#D)" fill-opacity=".3"/><path d="M183.73 155.624a3.45 3.45 0 0 1 2.134 1.298c.557.704.836 1.511.836 2.42 0 .821-.205 1.547-.616 2.178-.396.616-.975 1.1-1.738 1.452-.763.352-1.665.528-2.706.528h-6.622v-15.356h6.336c1.041 0 1.936.169 2.684.506.763.337 1.335.807 1.716 1.408.396.601.594 1.283.594 2.046 0 .895-.242 1.643-.726 2.244-.469.601-1.1 1.027-1.892 1.276zm-5.632-1.144h2.816c.733 0 1.298-.161 1.694-.484.396-.337.594-.814.594-1.43s-.198-1.093-.594-1.43c-.396-.337-.961-.506-1.694-.506h-2.816v3.85zm3.102 6.512c.748 0 1.327-.176 1.738-.528.425-.352.638-.851.638-1.496 0-.66-.22-1.173-.66-1.54-.44-.381-1.034-.572-1.782-.572h-3.036v4.136h3.102zm19.461-3.982h-4.158v4.268h-2.904v-4.268h-4.158v-2.684h4.158v-4.268h2.904v4.268h4.158v2.684z" fill="#FFD15C"/><rect x="164.555" y="132.555" width="46.89" height="46.89" rx="11.445" stroke="url(#E)" stroke-width="1.11"/></g><g opacity=".3"><rect x="292.555" y="132.555" width="46.89" height="46.89" rx="11.445" fill="url(#F)" fill-opacity=".3"/><path d="M308.27 155.8c0-1.511.337-2.86 1.012-4.048a7.302 7.302 0 0 1 2.794-2.794c1.188-.675 2.515-1.012 3.982-1.012 1.716 0 3.219.44 4.51 1.32 1.291.88 2.193 2.097 2.706 3.652h-3.542c-.352-.733-.851-1.283-1.496-1.65-.631-.367-1.364-.55-2.2-.55-.895 0-1.694.213-2.398.638-.689.411-1.232.997-1.628 1.76-.381.763-.572 1.657-.572 2.684 0 1.012.191 1.907.572 2.684.396.763.939 1.357 1.628 1.782.704.411 1.503.616 2.398.616.836 0 1.569-.183 2.2-.55.645-.381 1.144-.939 1.496-1.672h3.542c-.513 1.569-1.415 2.794-2.706 3.674-1.276.865-2.779 1.298-4.51 1.298-1.467 0-2.794-.33-3.982-.99a7.514 7.514 0 0 1-2.794-2.794c-.675-1.188-1.012-2.537-1.012-4.048z" fill="#FF5151"/><rect x="292.555" y="132.555" width="46.89" height="46.89" rx="11.445" stroke="url(#G)" stroke-width="1.11"/></g><g filter="url(#H)"><rect x="164" y="324" width="48" height="48" rx="12" fill="url(#I)" shape-rendering="crispEdges"/><path d="M190.934 352.574h-6.116l-1.012 2.926h-3.234l5.522-15.378h3.586l5.522 15.378h-3.256l-1.012-2.926zm-.836-2.464-2.222-6.424-2.222 6.424h4.444z" fill="#1DC981"/><rect x="164.555" y="324.555" width="46.89" height="46.89" rx="11.445" stroke="url(#J)" stroke-width="1.11" shape-rendering="crispEdges"/></g><g filter="url(#K)"><rect x="228" y="132" width="48" height="48" rx="12" fill="url(#L)" shape-rendering="crispEdges"/><path d="M254.934 160.574h-6.116l-1.012 2.926h-3.234l5.522-15.378h3.586l5.522 15.378h-3.256l-1.012-2.926zm-.836-2.464-2.222-6.424-2.222 6.424h4.444z" fill="#1DC981"/><rect x="228.555" y="132.555" width="46.89" height="46.89" rx="11.445" stroke="url(#M)" stroke-width="1.11" shape-rendering="crispEdges"/></g><g opacity=".7"><rect x="164.555" y="68.555" width="46.89" height="46.89" rx="11.445" fill="url(#N)" fill-opacity=".3"/><path d="M190.73 91.624a3.451 3.451 0 0 1 2.134 1.298c.557.704.836 1.51.836 2.42 0 .821-.205 1.547-.616 2.178-.396.616-.975 1.1-1.738 1.452-.763.352-1.665.528-2.706.528h-6.622V84.144h6.336c1.041 0 1.936.169 2.684.506.763.337 1.335.807 1.716 1.408.396.601.594 1.283.594 2.046 0 .895-.242 1.643-.726 2.244-.469.601-1.1 1.027-1.892 1.276zm-5.632-1.144h2.816c.733 0 1.298-.161 1.694-.484.396-.337.594-.814.594-1.43s-.198-1.093-.594-1.43c-.396-.337-.961-.506-1.694-.506h-2.816v3.85zm3.102 6.512c.748 0 1.327-.176 1.738-.528.425-.352.638-.85.638-1.496 0-.66-.22-1.173-.66-1.54-.44-.381-1.034-.572-1.782-.572h-3.036v4.136h3.102z" fill="#FFD15C"/><rect x="164.555" y="68.555" width="46.89" height="46.89" rx="11.445" stroke="url(#O)" stroke-width="1.11"/></g><g opacity=".16"><rect x="100.555" y="68.555" width="46.89" height="46.89" rx="11.445" fill="url(#P)" fill-opacity=".3"/><path d="M119.73 91.624a3.451 3.451 0 0 1 2.134 1.298c.557.704.836 1.51.836 2.42 0 .821-.205 1.547-.616 2.178-.396.616-.975 1.1-1.738 1.452-.763.352-1.665.528-2.706.528h-6.622V84.144h6.336c1.041 0 1.936.169 2.684.506.763.337 1.335.807 1.716 1.408.396.601.594 1.283.594 2.046 0 .895-.242 1.643-.726 2.244-.469.601-1.1 1.027-1.892 1.276zm-5.632-1.144h2.816c.733 0 1.298-.161 1.694-.484.396-.337.594-.814.594-1.43s-.198-1.093-.594-1.43c-.396-.337-.961-.506-1.694-.506h-2.816v3.85zm3.102 6.512c.748 0 1.327-.176 1.738-.528.425-.352.638-.85.638-1.496 0-.66-.22-1.173-.66-1.54-.44-.381-1.034-.572-1.782-.572h-3.036v4.136h3.102zm19.461-3.982h-4.158v4.268h-2.904V93.01h-4.158v-2.684h4.158v-4.268h2.904v4.268h4.158v2.684z" fill="#FFD15C"/><rect x="100.555" y="68.555" width="46.89" height="46.89" rx="11.445" stroke="url(#Q)" stroke-width="1.11"/></g><g opacity=".3"><rect x="228.555" y="68.555" width="46.89" height="46.89" rx="11.445" fill="url(#R)" fill-opacity=".3"/><path d="M248.73 91.624a3.451 3.451 0 0 1 2.134 1.298c.557.704.836 1.51.836 2.42 0 .821-.205 1.547-.616 2.178-.396.616-.975 1.1-1.738 1.452-.763.352-1.665.528-2.706.528h-6.622V84.144h6.336c1.041 0 1.936.169 2.684.506.763.337 1.335.807 1.716 1.408.396.601.594 1.283.594 2.046 0 .895-.242 1.643-.726 2.244-.469.601-1.1 1.027-1.892 1.276zm-5.632-1.144h2.816c.733 0 1.298-.161 1.694-.484.396-.337.594-.814.594-1.43s-.198-1.093-.594-1.43c-.396-.337-.961-.506-1.694-.506h-2.816v3.85zm3.102 6.512c.748 0 1.327-.176 1.738-.528.425-.352.638-.85.638-1.496 0-.66-.22-1.173-.66-1.54-.44-.381-1.034-.572-1.782-.572h-3.036v4.136h3.102zm17.327-6.644v2.596h-9.328v-2.596h9.328z" fill="#FFD15C"/><rect x="228.555" y="68.555" width="46.89" height="46.89" rx="11.445" stroke="url(#S)" stroke-width="1.11"/></g><g opacity=".07"><rect x="292.555" y="68.555" width="46.89" height="46.89" rx="11.445" fill="url(#T)" fill-opacity=".3"/><path d="M300.77 91.8c0-1.51.337-2.86 1.012-4.048a7.304 7.304 0 0 1 2.794-2.794c1.188-.675 2.515-1.012 3.982-1.012 1.716 0 3.219.44 4.51 1.32 1.291.88 2.193 2.097 2.706 3.652h-3.542c-.352-.733-.851-1.283-1.496-1.65-.631-.367-1.364-.55-2.2-.55-.895 0-1.694.213-2.398.638-.689.41-1.232.997-1.628 1.76-.381.763-.572 1.657-.572 2.684 0 1.012.191 1.907.572 2.684.396.763.939 1.357 1.628 1.782.704.41 1.503.616 2.398.616.836 0 1.569-.183 2.2-.55.645-.381 1.144-.939 1.496-1.672h3.542c-.513 1.57-1.415 2.794-2.706 3.674-1.276.865-2.779 1.298-4.51 1.298-1.467 0-2.794-.33-3.982-.99a7.512 7.512 0 0 1-2.794-2.794c-.675-1.188-1.012-2.537-1.012-4.048zm29.141 1.21h-4.158v4.268h-2.904V93.01h-4.158v-2.684h4.158v-4.268h2.904v4.268h4.158v2.684z" fill="#FF5151"/><rect x="292.555" y="68.555" width="46.89" height="46.89" rx="11.445" stroke="url(#U)" stroke-width="1.11"/></g><g filter="url(#V)"><rect x="164" y="260" width="48" height="48" rx="12" fill="url(#W)" shape-rendering="crispEdges"/><path d="M183.434 288.574h-6.116l-1.012 2.926h-3.234l5.522-15.378h3.586l5.522 15.378h-3.256l-1.012-2.926zm-.836-2.464-2.222-6.424-2.222 6.424h4.444zm18.674-1.1h-4.158v4.268h-2.904v-4.268h-4.158v-2.684h4.158v-4.268h2.904v4.268h4.158v2.684z" fill="#1DC981"/><rect x="164.555" y="260.555" width="46.89" height="46.89" rx="11.445" stroke="url(#X)" stroke-width="1.11" shape-rendering="crispEdges"/></g><g opacity=".16"><rect x="36.555" y="132.555" width="46.89" height="46.89" rx="11.445" fill="url(#Y)" fill-opacity=".3"/><path d="M56.73 155.624a3.45 3.45 0 0 1 2.134 1.298c.557.704.836 1.511.836 2.42 0 .821-.205 1.547-.616 2.178-.396.616-.975 1.1-1.738 1.452-.763.352-1.665.528-2.706.528h-6.622v-15.356h6.336c1.041 0 1.936.169 2.684.506.763.337 1.335.807 1.716 1.408.396.601.594 1.283.594 2.046 0 .895-.242 1.643-.726 2.244-.47.601-1.1 1.027-1.892 1.276zm-5.632-1.144h2.816c.733 0 1.298-.161 1.694-.484.396-.337.594-.814.594-1.43s-.198-1.093-.594-1.43c-.396-.337-.96-.506-1.694-.506h-2.816v3.85zm3.102 6.512c.748 0 1.327-.176 1.738-.528.425-.352.638-.851.638-1.496 0-.66-.22-1.173-.66-1.54-.44-.381-1.034-.572-1.782-.572h-3.036v4.136H54.2zm17.327-6.644v2.596h-9.328v-2.596h9.328z" fill="#FFD15C"/><rect x="36.555" y="132.555" width="46.89" height="46.89" rx="11.445" stroke="url(#Z)" stroke-width="1.11"/></g><g opacity=".07"><rect x="36.555" y="68.555" width="46.89" height="46.89" rx="11.445" fill="url(#aa)" fill-opacity=".3"/><path d="M62.73 91.624a3.451 3.451 0 0 1 2.134 1.298c.557.704.836 1.51.836 2.42 0 .821-.205 1.547-.616 2.178-.396.616-.975 1.1-1.738 1.452-.763.352-1.665.528-2.706.528h-6.622V84.144h6.336c1.041 0 1.936.169 2.684.506.763.337 1.335.807 1.716 1.408.396.601.594 1.283.594 2.046 0 .895-.242 1.643-.726 2.244-.47.601-1.1 1.027-1.892 1.276zm-5.632-1.144h2.816c.733 0 1.298-.161 1.694-.484.396-.337.594-.814.594-1.43s-.198-1.093-.594-1.43c-.396-.337-.96-.506-1.694-.506h-2.816v3.85zm3.102 6.512c.748 0 1.327-.176 1.738-.528.425-.352.638-.85.638-1.496 0-.66-.22-1.173-.66-1.54-.44-.381-1.034-.572-1.782-.572h-3.036v4.136H60.2z" fill="#FFD15C"/><rect x="36.555" y="68.555" width="46.89" height="46.89" rx="11.445" stroke="url(#ab)" stroke-width="1.11"/></g><g opacity=".7"><rect x="100.555" y="324.555" width="46.89" height="46.89" rx="11.445" fill="url(#ac)" fill-opacity=".3"/><path d="M126.73 347.624a3.45 3.45 0 0 1 2.134 1.298c.557.704.836 1.511.836 2.42 0 .821-.205 1.547-.616 2.178-.396.616-.975 1.1-1.738 1.452-.763.352-1.665.528-2.706.528h-6.622v-15.356h6.336c1.041 0 1.936.169 2.684.506.763.337 1.335.807 1.716 1.408.396.601.594 1.283.594 2.046 0 .895-.242 1.643-.726 2.244-.469.601-1.1 1.027-1.892 1.276zm-5.632-1.144h2.816c.733 0 1.298-.161 1.694-.484.396-.337.594-.814.594-1.43s-.198-1.093-.594-1.43c-.396-.337-.961-.506-1.694-.506h-2.816v3.85zm3.102 6.512c.748 0 1.327-.176 1.738-.528.425-.352.638-.851.638-1.496 0-.66-.22-1.173-.66-1.54-.44-.381-1.034-.572-1.782-.572h-3.036v4.136h3.102z" fill="#FFD15C"/><rect x="100.555" y="324.555" width="46.89" height="46.89" rx="11.445" stroke="url(#ad)" stroke-width="1.11"/></g><g opacity=".4"><rect x="228.555" y="260.555" width="46.89" height="46.89" rx="11.445" fill="url(#ae)" fill-opacity=".3"/><path d="M236.77 283.8c0-1.511.337-2.86 1.012-4.048a7.302 7.302 0 0 1 2.794-2.794c1.188-.675 2.515-1.012 3.982-1.012 1.716 0 3.219.44 4.51 1.32 1.291.88 2.193 2.097 2.706 3.652h-3.542c-.352-.733-.851-1.283-1.496-1.65-.631-.367-1.364-.55-2.2-.55-.895 0-1.694.213-2.398.638-.689.411-1.232.997-1.628 1.76-.381.763-.572 1.657-.572 2.684 0 1.012.191 1.907.572 2.684.396.763.939 1.357 1.628 1.782.704.411 1.503.616 2.398.616.836 0 1.569-.183 2.2-.55.645-.381 1.144-.939 1.496-1.672h3.542c-.513 1.569-1.415 2.794-2.706 3.674-1.276.865-2.779 1.298-4.51 1.298-1.467 0-2.794-.33-3.982-.99a7.514 7.514 0 0 1-2.794-2.794c-.675-1.188-1.012-2.537-1.012-4.048zm29.141 1.21h-4.158v4.268h-2.904v-4.268h-4.158v-2.684h4.158v-4.268h2.904v4.268h4.158v2.684z" fill="#FF5151"/><rect x="228.555" y="260.555" width="46.89" height="46.89" rx="11.445" stroke="url(#af)" stroke-width="1.11"/></g><g opacity=".4"><rect x="292.555" y="260.555" width="46.89" height="46.89" rx="11.445" fill="url(#ag)" fill-opacity=".3"/><path d="M308.27 283.8c0-1.511.337-2.86 1.012-4.048a7.302 7.302 0 0 1 2.794-2.794c1.188-.675 2.515-1.012 3.982-1.012 1.716 0 3.219.44 4.51 1.32 1.291.88 2.193 2.097 2.706 3.652h-3.542c-.352-.733-.851-1.283-1.496-1.65-.631-.367-1.364-.55-2.2-.55-.895 0-1.694.213-2.398.638-.689.411-1.232.997-1.628 1.76-.381.763-.572 1.657-.572 2.684 0 1.012.191 1.907.572 2.684.396.763.939 1.357 1.628 1.782.704.411 1.503.616 2.398.616.836 0 1.569-.183 2.2-.55.645-.381 1.144-.939 1.496-1.672h3.542c-.513 1.569-1.415 2.794-2.706 3.674-1.276.865-2.779 1.298-4.51 1.298-1.467 0-2.794-.33-3.982-.99a7.514 7.514 0 0 1-2.794-2.794c-.675-1.188-1.012-2.537-1.012-4.048z" fill="#FF5151"/><rect x="292.555" y="260.555" width="46.89" height="46.89" rx="11.445" stroke="url(#ah)" stroke-width="1.11"/></g><g filter="url(#ai)"><rect x="164" y="196" width="48" height="48" rx="12" fill="url(#aj)" shape-rendering="crispEdges"/><path d="M183.434 224.574h-6.116l-1.012 2.926h-3.234l5.522-15.378h3.586l5.522 15.378h-3.256l-1.012-2.926zm-.836-2.464-2.222-6.424-2.222 6.424h4.444zm18.674-1.1h-4.158v4.268h-2.904v-4.268h-4.158v-2.684h4.158v-4.268h2.904v4.268h4.158v2.684z" fill="#1DC981"/><rect x="164.555" y="196.555" width="46.89" height="46.89" rx="11.445" stroke="url(#ak)" stroke-width="1.11" shape-rendering="crispEdges"/></g><g opacity=".7"><rect x="100.555" y="196.555" width="46.89" height="46.89" rx="11.445" fill="url(#al)" fill-opacity=".3"/><path d="M119.73 219.624a3.45 3.45 0 0 1 2.134 1.298c.557.704.836 1.511.836 2.42 0 .821-.205 1.547-.616 2.178-.396.616-.975 1.1-1.738 1.452-.763.352-1.665.528-2.706.528h-6.622v-15.356h6.336c1.041 0 1.936.169 2.684.506.763.337 1.335.807 1.716 1.408.396.601.594 1.283.594 2.046 0 .895-.242 1.643-.726 2.244-.469.601-1.1 1.027-1.892 1.276zm-5.632-1.144h2.816c.733 0 1.298-.161 1.694-.484.396-.337.594-.814.594-1.43s-.198-1.093-.594-1.43c-.396-.337-.961-.506-1.694-.506h-2.816v3.85zm3.102 6.512c.748 0 1.327-.176 1.738-.528.425-.352.638-.851.638-1.496 0-.66-.22-1.173-.66-1.54-.44-.381-1.034-.572-1.782-.572h-3.036v4.136h3.102zm19.461-3.982h-4.158v4.268h-2.904v-4.268h-4.158v-2.684h4.158v-4.268h2.904v4.268h4.158v2.684z" fill="#FFD15C"/><rect x="100.555" y="196.555" width="46.89" height="46.89" rx="11.445" stroke="url(#am)" stroke-width="1.11"/></g><g opacity=".5"><rect x="36.555" y="196.555" width="46.89" height="46.89" rx="11.445" fill="url(#an)" fill-opacity=".3"/><path d="M55.73 219.624a3.45 3.45 0 0 1 2.134 1.298c.557.704.836 1.511.836 2.42 0 .821-.205 1.547-.616 2.178-.396.616-.975 1.1-1.738 1.452-.763.352-1.665.528-2.706.528h-6.622v-15.356h6.336c1.041 0 1.936.169 2.684.506.763.337 1.335.807 1.716 1.408.396.601.594 1.283.594 2.046 0 .895-.242 1.643-.726 2.244-.47.601-1.1 1.027-1.892 1.276zm-5.632-1.144h2.816c.733 0 1.298-.161 1.694-.484.396-.337.594-.814.594-1.43s-.198-1.093-.594-1.43c-.396-.337-.96-.506-1.694-.506h-2.816v3.85zm3.102 6.512c.748 0 1.327-.176 1.738-.528.425-.352.638-.851.638-1.496 0-.66-.22-1.173-.66-1.54-.44-.381-1.034-.572-1.782-.572h-3.036v4.136H53.2zm19.46-3.982h-4.157v4.268h-2.904v-4.268H61.44v-2.684h4.158v-4.268h2.904v4.268h4.158v2.684z" fill="#FFD15C"/><rect x="36.555" y="196.555" width="46.89" height="46.89" rx="11.445" stroke="url(#ao)" stroke-width="1.11"/></g><g opacity=".5"><rect x="36.555" y="260.555" width="46.89" height="46.89" rx="11.445" fill="url(#ap)" fill-opacity=".3"/><path d="M56.73 283.624a3.45 3.45 0 0 1 2.134 1.298c.557.704.836 1.511.836 2.42 0 .821-.205 1.547-.616 2.178-.396.616-.975 1.1-1.738 1.452-.763.352-1.665.528-2.706.528h-6.622v-15.356h6.336c1.041 0 1.936.169 2.684.506.763.337 1.335.807 1.716 1.408.396.601.594 1.283.594 2.046 0 .895-.242 1.643-.726 2.244-.47.601-1.1 1.027-1.892 1.276zm-5.632-1.144h2.816c.733 0 1.298-.161 1.694-.484.396-.337.594-.814.594-1.43s-.198-1.093-.594-1.43c-.396-.337-.96-.506-1.694-.506h-2.816v3.85zm3.102 6.512c.748 0 1.327-.176 1.738-.528.425-.352.638-.851.638-1.496 0-.66-.22-1.173-.66-1.54-.44-.381-1.034-.572-1.782-.572h-3.036v4.136H54.2zm17.327-6.644v2.596h-9.328v-2.596h9.328z" fill="#FFD15C"/><rect x="36.555" y="260.555" width="46.89" height="46.89" rx="11.445" stroke="url(#aq)" stroke-width="1.11"/></g><g opacity=".4"><rect x="292.555" y="196.555" width="46.89" height="46.89" rx="11.445" fill="url(#ar)" fill-opacity=".3"/><path d="M301.77 219.8c0-1.511.337-2.86 1.012-4.048a7.302 7.302 0 0 1 2.794-2.794c1.188-.675 2.515-1.012 3.982-1.012 1.716 0 3.219.44 4.51 1.32 1.291.88 2.193 2.097 2.706 3.652h-3.542c-.352-.733-.851-1.283-1.496-1.65-.631-.367-1.364-.55-2.2-.55-.895 0-1.694.213-2.398.638-.689.411-1.232.997-1.628 1.76-.381.763-.572 1.657-.572 2.684 0 1.012.191 1.907.572 2.684.396.763.939 1.357 1.628 1.782.704.411 1.503.616 2.398.616.836 0 1.569-.183 2.2-.55.645-.381 1.144-.939 1.496-1.672h3.542c-.513 1.569-1.415 2.794-2.706 3.674-1.276.865-2.779 1.298-4.51 1.298-1.467 0-2.794-.33-3.982-.99a7.514 7.514 0 0 1-2.794-2.794c-.675-1.188-1.012-2.537-1.012-4.048zm27.007-1.452v2.596h-9.328v-2.596h9.328z" fill="#FF5151"/><rect x="292.555" y="196.555" width="46.89" height="46.89" rx="11.445" stroke="url(#as)" stroke-width="1.11"/></g><g opacity=".3"><rect x="36.555" y="324.555" width="46.89" height="46.89" rx="11.445" fill="url(#at)" fill-opacity=".3"/><path d="M55.73 347.624a3.45 3.45 0 0 1 2.134 1.298c.557.704.836 1.511.836 2.42 0 .821-.205 1.547-.616 2.178-.396.616-.975 1.1-1.738 1.452-.763.352-1.665.528-2.706.528h-6.622v-15.356h6.336c1.041 0 1.936.169 2.684.506.763.337 1.335.807 1.716 1.408.396.601.594 1.283.594 2.046 0 .895-.242 1.643-.726 2.244-.47.601-1.1 1.027-1.892 1.276zm-5.632-1.144h2.816c.733 0 1.298-.161 1.694-.484.396-.337.594-.814.594-1.43s-.198-1.093-.594-1.43c-.396-.337-.96-.506-1.694-.506h-2.816v3.85zm3.102 6.512c.748 0 1.327-.176 1.738-.528.425-.352.638-.851.638-1.496 0-.66-.22-1.173-.66-1.54-.44-.381-1.034-.572-1.782-.572h-3.036v4.136H53.2zm19.46-3.982h-4.157v4.268h-2.904v-4.268H61.44v-2.684h4.158v-4.268h2.904v4.268h4.158v2.684z" fill="#FFD15C"/><rect x="36.555" y="324.555" width="46.89" height="46.89" rx="11.445" stroke="url(#au)" stroke-width="1.11"/></g><g filter="url(#av)"><rect x="100" y="260" width="48" height="48" rx="12" fill="url(#aw)" shape-rendering="crispEdges"/><path d="M126.934 288.574h-6.116l-1.012 2.926h-3.234l5.522-15.378h3.586l5.522 15.378h-3.256l-1.012-2.926zm-.836-2.464-2.222-6.424-2.222 6.424h4.444z" fill="#1DC981"/><rect x="100.555" y="260.555" width="46.89" height="46.89" rx="11.445" stroke="url(#ax)" stroke-width="1.11" shape-rendering="crispEdges"/></g><g opacity=".4"><rect x="228.555" y="324.555" width="46.89" height="46.89" rx="11.445" fill="url(#ay)" fill-opacity=".3"/><path d="M244.27 347.8c0-1.511.337-2.86 1.012-4.048a7.302 7.302 0 0 1 2.794-2.794c1.188-.675 2.515-1.012 3.982-1.012 1.716 0 3.219.44 4.51 1.32 1.291.88 2.193 2.097 2.706 3.652h-3.542c-.352-.733-.851-1.283-1.496-1.65-.631-.367-1.364-.55-2.2-.55-.895 0-1.694.213-2.398.638-.689.411-1.232.997-1.628 1.76-.381.763-.572 1.657-.572 2.684 0 1.012.191 1.907.572 2.684.396.763.939 1.357 1.628 1.782.704.411 1.503.616 2.398.616.836 0 1.569-.183 2.2-.55.645-.381 1.144-.939 1.496-1.672h3.542c-.513 1.569-1.415 2.794-2.706 3.674-1.276.865-2.779 1.298-4.51 1.298-1.467 0-2.794-.33-3.982-.99a7.514 7.514 0 0 1-2.794-2.794c-.675-1.188-1.012-2.537-1.012-4.048z" fill="#FF5151"/><rect x="228.555" y="324.555" width="46.89" height="46.89" rx="11.445" stroke="url(#az)" stroke-width="1.11"/></g><g opacity=".16"><rect x="292.555" y="324.555" width="46.89" height="46.89" rx="11.445" fill="url(#aA)" fill-opacity=".3"/><path d="M301.77 347.8c0-1.511.337-2.86 1.012-4.048a7.302 7.302 0 0 1 2.794-2.794c1.188-.675 2.515-1.012 3.982-1.012 1.716 0 3.219.44 4.51 1.32 1.291.88 2.193 2.097 2.706 3.652h-3.542c-.352-.733-.851-1.283-1.496-1.65-.631-.367-1.364-.55-2.2-.55-.895 0-1.694.213-2.398.638-.689.411-1.232.997-1.628 1.76-.381.763-.572 1.657-.572 2.684 0 1.012.191 1.907.572 2.684.396.763.939 1.357 1.628 1.782.704.411 1.503.616 2.398.616.836 0 1.569-.183 2.2-.55.645-.381 1.144-.939 1.496-1.672h3.542c-.513 1.569-1.415 2.794-2.706 3.674-1.276.865-2.779 1.298-4.51 1.298-1.467 0-2.794-.33-3.982-.99a7.514 7.514 0 0 1-2.794-2.794c-.675-1.188-1.012-2.537-1.012-4.048zm27.007-1.452v2.596h-9.328v-2.596h9.328z" fill="#FF5151"/><rect x="292.555" y="324.555" width="46.89" height="46.89" rx="11.445" stroke="url(#aB)" stroke-width="1.11"/></g><g opacity=".07"><rect x="36.555" y="388.555" width="46.89" height="46.89" rx="11.445" fill="url(#aC)" fill-opacity=".3"/><path d="M62.73 411.624a3.45 3.45 0 0 1 2.134 1.298c.557.704.836 1.511.836 2.42 0 .821-.205 1.547-.616 2.178-.396.616-.975 1.1-1.738 1.452-.763.352-1.665.528-2.706.528h-6.622v-15.356h6.336c1.041 0 1.936.169 2.684.506.763.337 1.335.807 1.716 1.408.396.601.594 1.283.594 2.046 0 .895-.242 1.643-.726 2.244-.47.601-1.1 1.027-1.892 1.276zm-5.632-1.144h2.816c.733 0 1.298-.161 1.694-.484.396-.337.594-.814.594-1.43s-.198-1.093-.594-1.43c-.396-.337-.96-.506-1.694-.506h-2.816v3.85zm3.102 6.512c.748 0 1.327-.176 1.738-.528.425-.352.638-.851.638-1.496 0-.66-.22-1.173-.66-1.54-.44-.381-1.034-.572-1.782-.572h-3.036v4.136H60.2z" fill="#FFD15C"/><rect x="36.555" y="388.555" width="46.89" height="46.89" rx="11.445" stroke="url(#aD)" stroke-width="1.11"/></g><g opacity=".7"><rect x="164.555" y="388.555" width="46.89" height="46.89" rx="11.445" fill="url(#aE)" fill-opacity=".3"/><path d="M184.73 411.624a3.45 3.45 0 0 1 2.134 1.298c.557.704.836 1.511.836 2.42 0 .821-.205 1.547-.616 2.178-.396.616-.975 1.1-1.738 1.452-.763.352-1.665.528-2.706.528h-6.622v-15.356h6.336c1.041 0 1.936.169 2.684.506.763.337 1.335.807 1.716 1.408.396.601.594 1.283.594 2.046 0 .895-.242 1.643-.726 2.244-.469.601-1.1 1.027-1.892 1.276zm-5.632-1.144h2.816c.733 0 1.298-.161 1.694-.484.396-.337.594-.814.594-1.43s-.198-1.093-.594-1.43c-.396-.337-.961-.506-1.694-.506h-2.816v3.85zm3.102 6.512c.748 0 1.327-.176 1.738-.528.425-.352.638-.851.638-1.496 0-.66-.22-1.173-.66-1.54-.44-.381-1.034-.572-1.782-.572h-3.036v4.136h3.102zm17.327-6.644v2.596h-9.328v-2.596h9.328z" fill="#FFD15C"/><rect x="164.555" y="388.555" width="46.89" height="46.89" rx="11.445" stroke="url(#aF)" stroke-width="1.11"/></g><g opacity=".3"><rect x="100.555" y="388.555" width="46.89" height="46.89" rx="11.445" fill="url(#aG)" fill-opacity=".3"/><path d="M119.73 411.624a3.45 3.45 0 0 1 2.134 1.298c.557.704.836 1.511.836 2.42 0 .821-.205 1.547-.616 2.178-.396.616-.975 1.1-1.738 1.452-.763.352-1.665.528-2.706.528h-6.622v-15.356h6.336c1.041 0 1.936.169 2.684.506.763.337 1.335.807 1.716 1.408.396.601.594 1.283.594 2.046 0 .895-.242 1.643-.726 2.244-.469.601-1.1 1.027-1.892 1.276zm-5.632-1.144h2.816c.733 0 1.298-.161 1.694-.484.396-.337.594-.814.594-1.43s-.198-1.093-.594-1.43c-.396-.337-.961-.506-1.694-.506h-2.816v3.85zm3.102 6.512c.748 0 1.327-.176 1.738-.528.425-.352.638-.851.638-1.496 0-.66-.22-1.173-.66-1.54-.44-.381-1.034-.572-1.782-.572h-3.036v4.136h3.102zm19.461-3.982h-4.158v4.268h-2.904v-4.268h-4.158v-2.684h4.158v-4.268h2.904v4.268h4.158v2.684z" fill="#FFD15C"/><rect x="100.555" y="388.555" width="46.89" height="46.89" rx="11.445" stroke="url(#aH)" stroke-width="1.11"/></g><g opacity=".16"><rect x="228.555" y="388.555" width="46.89" height="46.89" rx="11.445" fill="url(#aI)" fill-opacity=".3"/><path d="M236.77 411.8c0-1.511.337-2.86 1.012-4.048a7.302 7.302 0 0 1 2.794-2.794c1.188-.675 2.515-1.012 3.982-1.012 1.716 0 3.219.44 4.51 1.32 1.291.88 2.193 2.097 2.706 3.652h-3.542c-.352-.733-.851-1.283-1.496-1.65-.631-.367-1.364-.55-2.2-.55-.895 0-1.694.213-2.398.638-.689.411-1.232.997-1.628 1.76-.381.763-.572 1.657-.572 2.684 0 1.012.191 1.907.572 2.684.396.763.939 1.357 1.628 1.782.704.411 1.503.616 2.398.616.836 0 1.569-.183 2.2-.55.645-.381 1.144-.939 1.496-1.672h3.542c-.513 1.569-1.415 2.794-2.706 3.674-1.276.865-2.779 1.298-4.51 1.298-1.467 0-2.794-.33-3.982-.99a7.514 7.514 0 0 1-2.794-2.794c-.675-1.188-1.012-2.537-1.012-4.048zm29.141 1.21h-4.158v4.268h-2.904v-4.268h-4.158v-2.684h4.158v-4.268h2.904v4.268h4.158v2.684z" fill="#FF5151"/><rect x="228.555" y="388.555" width="46.89" height="46.89" rx="11.445" stroke="url(#aJ)" stroke-width="1.11"/></g><g opacity=".07"><rect x="292.555" y="388.555" width="46.89" height="46.89" rx="11.445" fill="url(#aK)" fill-opacity=".3"/><path d="M301.77 411.8c0-1.511.337-2.86 1.012-4.048a7.302 7.302 0 0 1 2.794-2.794c1.188-.675 2.515-1.012 3.982-1.012 1.716 0 3.219.44 4.51 1.32 1.291.88 2.193 2.097 2.706 3.652h-3.542c-.352-.733-.851-1.283-1.496-1.65-.631-.367-1.364-.55-2.2-.55-.895 0-1.694.213-2.398.638-.689.411-1.232.997-1.628 1.76-.381.763-.572 1.657-.572 2.684 0 1.012.191 1.907.572 2.684.396.763.939 1.357 1.628 1.782.704.411 1.503.616 2.398.616.836 0 1.569-.183 2.2-.55.645-.381 1.144-.939 1.496-1.672h3.542c-.513 1.569-1.415 2.794-2.706 3.674-1.276.865-2.779 1.298-4.51 1.298-1.467 0-2.794-.33-3.982-.99a7.514 7.514 0 0 1-2.794-2.794c-.675-1.188-1.012-2.537-1.012-4.048zm27.007-1.452v2.596h-9.328v-2.596h9.328z" fill="#FF5151"/><rect x="292.555" y="388.555" width="46.89" height="46.89" rx="11.445" stroke="url(#aL)" stroke-width="1.11"/></g></g><defs><linearGradient id="aa" x1="60" y1="68" x2="60" y2="116" gradientUnits="userSpaceOnUse"><stop stop-color="#57657A"/><stop offset="1" stop-color="#3D4858"/></linearGradient><linearGradient id="R" x1="252" y1="68" x2="252" y2="116" gradientUnits="userSpaceOnUse"><stop stop-color="#57657A"/><stop offset="1" stop-color="#3D4858"/></linearGradient><linearGradient id="c" x1="124.5" y1="45" x2="124.5" y2="465.5" gradientUnits="userSpaceOnUse"><stop stop-color="#fff" stop-opacity="0"/><stop offset=".526" stop-color="#4C596D"/><stop offset="1" stop-color="#fff" stop-opacity="0"/></linearGradient><linearGradient id="d" x1="188.5" y1="45" x2="188.5" y2="465.5" gradientUnits="userSpaceOnUse"><stop stop-color="#fff" stop-opacity="0"/><stop offset=".526" stop-color="#4C596D"/><stop offset="1" stop-color="#fff" stop-opacity="0"/></linearGradient><linearGradient id="e" x1="252.5" y1="45" x2="252.5" y2="465.5" gradientUnits="userSpaceOnUse"><stop stop-color="#fff" stop-opacity="0"/><stop offset=".526" stop-color="#4C596D"/><stop offset="1" stop-color="#fff" stop-opacity="0"/></linearGradient><linearGradient id="f" x1="316.5" y1="45" x2="316.5" y2="465.5" gradientUnits="userSpaceOnUse"><stop stop-color="#fff" stop-opacity="0"/><stop offset=".526" stop-color="#4C596D"/><stop offset="1" stop-color="#fff" stop-opacity="0"/></linearGradient><linearGradient id="g" x1="16" y1="411.5" x2="359" y2="411.5" gradientUnits="userSpaceOnUse"><stop stop-color="#fff" stop-opacity="0"/><stop offset=".526" stop-color="#4C596D"/><stop offset="1" stop-color="#fff" stop-opacity="0"/></linearGradient><linearGradient id="h" x1="16" y1="347.5" x2="359" y2="347.5" gradientUnits="userSpaceOnUse"><stop stop-color="#fff" stop-opacity="0"/><stop offset=".526" stop-color="#4C596D"/><stop offset="1" stop-color="#fff" stop-opacity="0"/></linearGradient><linearGradient id="i" x1="16" y1="283.5" x2="359" y2="283.5" gradientUnits="userSpaceOnUse"><stop stop-color="#fff" stop-opacity="0"/><stop offset=".526" stop-color="#4C596D"/><stop offset="1" stop-color="#fff" stop-opacity="0"/></linearGradient><linearGradient id="j" x1="16" y1="219.5" x2="359" y2="219.5" gradientUnits="userSpaceOnUse"><stop stop-color="#fff" stop-opacity="0"/><stop offset=".526" stop-color="#4C596D"/><stop offset="1" stop-color="#fff" stop-opacity="0"/></linearGradient><linearGradient id="k" x1="16" y1="155.5" x2="359" y2="155.5" gradientUnits="userSpaceOnUse"><stop stop-color="#fff" stop-opacity="0"/><stop offset=".526" stop-color="#4C596D"/><stop offset="1" stop-color="#fff" stop-opacity="0"/></linearGradient><linearGradient id="l" x1="16" y1="91.5" x2="359" y2="91.5" gradientUnits="userSpaceOnUse"><stop stop-color="#fff" stop-opacity="0"/><stop offset=".526" stop-color="#4C596D"/><stop offset="1" stop-color="#fff" stop-opacity="0"/></linearGradient><linearGradient id="y" x1="252" y1="196" x2="252" y2="244" gradientUnits="userSpaceOnUse"><stop stop-color="#57606F"/><stop offset="1" stop-color="#313740"/></linearGradient><linearGradient id="z" x1="252" y1="196" x2="252" y2="244" gradientUnits="userSpaceOnUse"><stop stop-color="#fff"/><stop offset="1" stop-color="#fff" stop-opacity="0"/></linearGradient><linearGradient id="B" x1="124" y1="132" x2="124" y2="180" gradientUnits="userSpaceOnUse"><stop stop-color="#57606F"/><stop offset="1" stop-color="#313740"/></linearGradient><linearGradient id="C" x1="124" y1="132" x2="124" y2="180" gradientUnits="userSpaceOnUse"><stop stop-color="#fff"/><stop offset="1" stop-color="#fff" stop-opacity="0"/></linearGradient><linearGradient id="D" x1="188" y1="132" x2="188" y2="180" gradientUnits="userSpaceOnUse"><stop stop-color="#57657A"/><stop offset="1" stop-color="#3D4858"/></linearGradient><linearGradient id="E" x1="188" y1="132" x2="188" y2="180" gradientUnits="userSpaceOnUse"><stop stop-color="#fff"/><stop offset="1" stop-color="#fff" stop-opacity="0"/></linearGradient><linearGradient id="F" x1="316" y1="132" x2="316" y2="180" gradientUnits="userSpaceOnUse"><stop stop-color="#57657A"/><stop offset="1" stop-color="#3D4858"/></linearGradient><linearGradient id="G" x1="316" y1="132" x2="316" y2="180" gradientUnits="userSpaceOnUse"><stop stop-color="#fff"/><stop offset="1" stop-color="#fff" stop-opacity="0"/></linearGradient><linearGradient id="I" x1="188" y1="324" x2="188" y2="372" gradientUnits="userSpaceOnUse"><stop stop-color="#57606F"/><stop offset="1" stop-color="#313740"/></linearGradient><linearGradient id="J" x1="188" y1="324" x2="188" y2="372" gradientUnits="userSpaceOnUse"><stop stop-color="#fff"/><stop offset="1" stop-color="#fff" stop-opacity="0"/></linearGradient><linearGradient id="L" x1="252" y1="132" x2="252" y2="180" gradientUnits="userSpaceOnUse"><stop stop-color="#57606F"/><stop offset="1" stop-color="#313740"/></linearGradient><linearGradient id="M" x1="252" y1="132" x2="252" y2="180" gradientUnits="userSpaceOnUse"><stop stop-color="#fff"/><stop offset="1" stop-color="#fff" stop-opacity="0"/></linearGradient><linearGradient id="N" x1="188" y1="68" x2="188" y2="116" gradientUnits="userSpaceOnUse"><stop stop-color="#57657A"/><stop offset="1" stop-color="#3D4858"/></linearGradient><linearGradient id="O" x1="188" y1="68" x2="188" y2="116" gradientUnits="userSpaceOnUse"><stop stop-color="#fff"/><stop offset="1" stop-color="#fff" stop-opacity="0"/></linearGradient><linearGradient id="P" x1="124" y1="68" x2="124" y2="116" gradientUnits="userSpaceOnUse"><stop stop-color="#57657A"/><stop offset="1" stop-color="#3D4858"/></linearGradient><linearGradient id="Q" x1="124" y1="68" x2="124" y2="116" gradientUnits="userSpaceOnUse"><stop stop-color="#fff"/><stop offset="1" stop-color="#fff" stop-opacity="0"/></linearGradient><linearGradient id="S" x1="252" y1="68" x2="252" y2="116" gradientUnits="userSpaceOnUse"><stop stop-color="#fff"/><stop offset="1" stop-color="#fff" stop-opacity="0"/></linearGradient><linearGradient id="T" x1="316" y1="68" x2="316" y2="116" gradientUnits="userSpaceOnUse"><stop stop-color="#57657A"/><stop offset="1" stop-color="#3D4858"/></linearGradient><linearGradient id="U" x1="316" y1="68" x2="316" y2="116" gradientUnits="userSpaceOnUse"><stop stop-color="#fff"/><stop offset="1" stop-color="#fff" stop-opacity="0"/></linearGradient><linearGradient id="W" x1="188" y1="260" x2="188" y2="308" gradientUnits="userSpaceOnUse"><stop stop-color="#57606F"/><stop offset="1" stop-color="#313740"/></linearGradient><linearGradient id="X" x1="188" y1="260" x2="188" y2="308" gradientUnits="userSpaceOnUse"><stop stop-color="#fff"/><stop offset="1" stop-color="#fff" stop-opacity="0"/></linearGradient><linearGradient id="Y" x1="60" y1="132" x2="60" y2="180" gradientUnits="userSpaceOnUse"><stop stop-color="#57657A"/><stop offset="1" stop-color="#3D4858"/></linearGradient><linearGradient id="Z" x1="60" y1="132" x2="60" y2="180" gradientUnits="userSpaceOnUse"><stop stop-color="#fff"/><stop offset="1" stop-color="#fff" stop-opacity="0"/></linearGradient><linearGradient id="b" x1="61.5" y1="45" x2="61.5" y2="465.5" gradientUnits="userSpaceOnUse"><stop stop-color="#fff" stop-opacity="0"/><stop offset=".526" stop-color="#4C596D"/><stop offset="1" stop-color="#fff" stop-opacity="0"/></linearGradient><linearGradient id="ab" x1="60" y1="68" x2="60" y2="116" gradientUnits="userSpaceOnUse"><stop stop-color="#fff"/><stop offset="1" stop-color="#fff" stop-opacity="0"/></linearGradient><linearGradient id="ac" x1="124" y1="324" x2="124" y2="372" gradientUnits="userSpaceOnUse"><stop stop-color="#57657A"/><stop offset="1" stop-color="#3D4858"/></linearGradient><linearGradient id="ad" x1="124" y1="324" x2="124" y2="372" gradientUnits="userSpaceOnUse"><stop stop-color="#fff"/><stop offset="1" stop-color="#fff" stop-opacity="0"/></linearGradient><linearGradient id="ae" x1="252" y1="260" x2="252" y2="308" gradientUnits="userSpaceOnUse"><stop stop-color="#57657A"/><stop offset="1" stop-color="#3D4858"/></linearGradient><linearGradient id="af" x1="252" y1="260" x2="252" y2="308" gradientUnits="userSpaceOnUse"><stop stop-color="#fff"/><stop offset="1" stop-color="#fff" stop-opacity="0"/></linearGradient><linearGradient id="ag" x1="316" y1="260" x2="316" y2="308" gradientUnits="userSpaceOnUse"><stop stop-color="#57657A"/><stop offset="1" stop-color="#3D4858"/></linearGradient><linearGradient id="ah" x1="316" y1="260" x2="316" y2="308" gradientUnits="userSpaceOnUse"><stop stop-color="#fff"/><stop offset="1" stop-color="#fff" stop-opacity="0"/></linearGradient><linearGradient id="aj" x1="188" y1="196" x2="188" y2="244" gradientUnits="userSpaceOnUse"><stop stop-color="#57606F"/><stop offset="1" stop-color="#313740"/></linearGradient><linearGradient id="ak" x1="188" y1="196" x2="188" y2="244" gradientUnits="userSpaceOnUse"><stop stop-color="#fff"/><stop offset="1" stop-color="#fff" stop-opacity="0"/></linearGradient><linearGradient id="al" x1="124" y1="196" x2="124" y2="244" gradientUnits="userSpaceOnUse"><stop stop-color="#57657A"/><stop offset="1" stop-color="#3D4858"/></linearGradient><linearGradient id="am" x1="124" y1="196" x2="124" y2="244" gradientUnits="userSpaceOnUse"><stop stop-color="#fff"/><stop offset="1" stop-color="#fff" stop-opacity="0"/></linearGradient><linearGradient id="an" x1="60" y1="196" x2="60" y2="244" gradientUnits="userSpaceOnUse"><stop stop-color="#57657A"/><stop offset="1" stop-color="#3D4858"/></linearGradient><linearGradient id="ao" x1="60" y1="196" x2="60" y2="244" gradientUnits="userSpaceOnUse"><stop stop-color="#fff"/><stop offset="1" stop-color="#fff" stop-opacity="0"/></linearGradient><linearGradient id="ap" x1="60" y1="260" x2="60" y2="308" gradientUnits="userSpaceOnUse"><stop stop-color="#57657A"/><stop offset="1" stop-color="#3D4858"/></linearGradient><linearGradient id="aq" x1="60" y1="260" x2="60" y2="308" gradientUnits="userSpaceOnUse"><stop stop-color="#fff"/><stop offset="1" stop-color="#fff" stop-opacity="0"/></linearGradient><linearGradient id="ar" x1="316" y1="196" x2="316" y2="244" gradientUnits="userSpaceOnUse"><stop stop-color="#57657A"/><stop offset="1" stop-color="#3D4858"/></linearGradient><linearGradient id="as" x1="316" y1="196" x2="316" y2="244" gradientUnits="userSpaceOnUse"><stop stop-color="#fff"/><stop offset="1" stop-color="#fff" stop-opacity="0"/></linearGradient><linearGradient id="at" x1="60" y1="324" x2="60" y2="372" gradientUnits="userSpaceOnUse"><stop stop-color="#57657A"/><stop offset="1" stop-color="#3D4858"/></linearGradient><linearGradient id="au" x1="60" y1="324" x2="60" y2="372" gradientUnits="userSpaceOnUse"><stop stop-color="#fff"/><stop offset="1" stop-color="#fff" stop-opacity="0"/></linearGradient><linearGradient id="aw" x1="124" y1="260" x2="124" y2="308" gradientUnits="userSpaceOnUse"><stop stop-color="#57606F"/><stop offset="1" stop-color="#313740"/></linearGradient><linearGradient id="ax" x1="124" y1="260" x2="124" y2="308" gradientUnits="userSpaceOnUse"><stop stop-color="#fff"/><stop offset="1" stop-color="#fff" stop-opacity="0"/></linearGradient><linearGradient id="ay" x1="252" y1="324" x2="252" y2="372" gradientUnits="userSpaceOnUse"><stop stop-color="#57657A"/><stop offset="1" stop-color="#3D4858"/></linearGradient><linearGradient id="az" x1="252" y1="324" x2="252" y2="372" gradientUnits="userSpaceOnUse"><stop stop-color="#fff"/><stop offset="1" stop-color="#fff" stop-opacity="0"/></linearGradient><linearGradient id="aA" x1="316" y1="324" x2="316" y2="372" gradientUnits="userSpaceOnUse"><stop stop-color="#57657A"/><stop offset="1" stop-color="#3D4858"/></linearGradient><linearGradient id="aB" x1="316" y1="324" x2="316" y2="372" gradientUnits="userSpaceOnUse"><stop stop-color="#fff"/><stop offset="1" stop-color="#fff" stop-opacity="0"/></linearGradient><linearGradient id="aC" x1="60" y1="388" x2="60" y2="436" gradientUnits="userSpaceOnUse"><stop stop-color="#57657A"/><stop offset="1" stop-color="#3D4858"/></linearGradient><linearGradient id="aD" x1="60" y1="388" x2="60" y2="436" gradientUnits="userSpaceOnUse"><stop stop-color="#fff"/><stop offset="1" stop-color="#fff" stop-opacity="0"/></linearGradient><linearGradient id="aE" x1="188" y1="388" x2="188" y2="436" gradientUnits="userSpaceOnUse"><stop stop-color="#57657A"/><stop offset="1" stop-color="#3D4858"/></linearGradient><linearGradient id="aF" x1="188" y1="388" x2="188" y2="436" gradientUnits="userSpaceOnUse"><stop stop-color="#fff"/><stop offset="1" stop-color="#fff" stop-opacity="0"/></linearGradient><linearGradient id="aG" x1="124" y1="388" x2="124" y2="436" gradientUnits="userSpaceOnUse"><stop stop-color="#57657A"/><stop offset="1" stop-color="#3D4858"/></linearGradient><linearGradient id="aH" x1="124" y1="388" x2="124" y2="436" gradientUnits="userSpaceOnUse"><stop stop-color="#fff"/><stop offset="1" stop-color="#fff" stop-opacity="0"/></linearGradient><linearGradient id="aI" x1="252" y1="388" x2="252" y2="436" gradientUnits="userSpaceOnUse"><stop stop-color="#57657A"/><stop offset="1" stop-color="#3D4858"/></linearGradient><linearGradient id="aJ" x1="252" y1="388" x2="252" y2="436" gradientUnits="userSpaceOnUse"><stop stop-color="#fff"/><stop offset="1" stop-color="#fff" stop-opacity="0"/></linearGradient><linearGradient id="aK" x1="316" y1="388" x2="316" y2="436" gradientUnits="userSpaceOnUse"><stop stop-color="#57657A"/><stop offset="1" stop-color="#3D4858"/></linearGradient><linearGradient id="aL" x1="316" y1="388" x2="316" y2="436" gradientUnits="userSpaceOnUse"><stop stop-color="#fff"/><stop offset="1" stop-color="#fff" stop-opacity="0"/></linearGradient><filter id="m" x="177" y="145" width="207" height="204" filterUnits="userSpaceOnUse" color-interpolation-filters="sRGB"><feFlood flood-opacity="0" result="BackgroundImageFix"/><feBlend in="SourceGraphic" in2="BackgroundImageFix" result="shape"/><feGaussianBlur stdDeviation="40" result="effect1_foregroundBlur_7284_39899"/></filter><filter id="o" x="51" y="100" width="263" height="255" filterUnits="userSpaceOnUse" color-interpolation-filters="sRGB"><feFlood flood-opacity="0" result="BackgroundImageFix"/><feBlend in="SourceGraphic" in2="BackgroundImageFix" result="shape"/><feGaussianBlur stdDeviation="40" result="effect1_foregroundBlur_7284_39899"/></filter><filter id="p" x="122" y="279" width="207" height="203" filterUnits="userSpaceOnUse" color-interpolation-filters="sRGB"><feFlood flood-opacity="0" result="BackgroundImageFix"/><feBlend in="SourceGraphic" in2="BackgroundImageFix" result="shape"/><feGaussianBlur stdDeviation="40" result="effect1_foregroundBlur_7284_39899"/></filter><filter id="q" x="56" y="67" width="207" height="203" filterUnits="userSpaceOnUse" color-interpolation-filters="sRGB"><feFlood flood-opacity="0" result="BackgroundImageFix"/><feBlend in="SourceGraphic" in2="BackgroundImageFix" result="shape"/><feGaussianBlur stdDeviation="40" result="effect1_foregroundBlur_7284_39899"/></filter><filter id="r" x="172" y="92" width="207" height="204" filterUnits="userSpaceOnUse" color-interpolation-filters="sRGB"><feFlood flood-opacity="0" result="BackgroundImageFix"/><feBlend in="SourceGraphic" in2="BackgroundImageFix" result="shape"/><feGaussianBlur stdDeviation="40" result="effect1_foregroundBlur_7284_39899"/></filter><filter id="s" x="3" y="19" width="207" height="203" filterUnits="userSpaceOnUse" color-interpolation-filters="sRGB"><feFlood flood-opacity="0" result="BackgroundImageFix"/><feBlend in="SourceGraphic" in2="BackgroundImageFix" result="shape"/><feGaussianBlur stdDeviation="40" result="effect1_foregroundBlur_7284_39899"/></filter><filter id="t" x="-38" y="211" width="207" height="203" filterUnits="userSpaceOnUse" color-interpolation-filters="sRGB"><feFlood flood-opacity="0" result="BackgroundImageFix"/><feBlend in="SourceGraphic" in2="BackgroundImageFix" result="shape"/><feGaussianBlur stdDeviation="40" result="effect1_foregroundBlur_7284_39899"/></filter><filter id="u" x="39" y="284" width="207" height="203" filterUnits="userSpaceOnUse" color-interpolation-filters="sRGB"><feFlood flood-opacity="0" result="BackgroundImageFix"/><feBlend in="SourceGraphic" in2="BackgroundImageFix" result="shape"/><feGaussianBlur stdDeviation="40" result="effect1_foregroundBlur_7284_39899"/></filter><filter id="v" x="172" y="255" width="231" height="226" filterUnits="userSpaceOnUse" color-interpolation-filters="sRGB"><feFlood flood-opacity="0" result="BackgroundImageFix"/><feBlend in="SourceGraphic" in2="BackgroundImageFix" result="shape"/><feGaussianBlur stdDeviation="40" result="effect1_foregroundBlur_7284_39899"/></filter><filter id="w" x="166" y="-4" width="217" height="214" filterUnits="userSpaceOnUse" color-interpolation-filters="sRGB"><feFlood flood-opacity="0" result="BackgroundImageFix"/><feBlend in="SourceGraphic" in2="BackgroundImageFix" result="shape"/><feGaussianBlur stdDeviation="40" result="effect1_foregroundBlur_7284_39899"/></filter><filter id="n" x="130" y="216" width="207" height="203" filterUnits="userSpaceOnUse" color-interpolation-filters="sRGB"><feFlood flood-opacity="0" result="BackgroundImageFix"/><feBlend in="SourceGraphic" in2="BackgroundImageFix" result="shape"/><feGaussianBlur stdDeviation="40" result="effect1_foregroundBlur_7284_39899"/></filter><filter id="x" x="221.345" y="189.345" width="105.676" height="105.676" filterUnits="userSpaceOnUse" color-interpolation-filters="sRGB"><feFlood flood-opacity="0" result="BackgroundImageFix"/><feColorMatrix in="SourceAlpha" values="0 0 0 0 0 0 0 0 0 0 0 0 0 0 0 0 0 0 127 0" result="hardAlpha"/><feOffset dx="22.183" dy="22.183"/><feGaussianBlur stdDeviation="14.419"/><feComposite in2="hardAlpha" operator="out"/><feColorMatrix values="0 0 0 0 0 0 0 0 0 0 0 0 0 0 0 0 0 0 0.3 0"/><feBlend in2="BackgroundImageFix" result="effect1_dropShadow_7284_39899"/><feBlend in="SourceGraphic" in2="effect1_dropShadow_7284_39899" result="shape"/></filter><filter id="A" x="93.345" y="125.345" width="105.676" height="105.676" filterUnits="userSpaceOnUse" color-interpolation-filters="sRGB"><feFlood flood-opacity="0" result="BackgroundImageFix"/><feColorMatrix in="SourceAlpha" values="0 0 0 0 0 0 0 0 0 0 0 0 0 0 0 0 0 0 127 0" result="hardAlpha"/><feOffset dx="22.183" dy="22.183"/><feGaussianBlur stdDeviation="14.419"/><feComposite in2="hardAlpha" operator="out"/><feColorMatrix values="0 0 0 0 0 0 0 0 0 0 0 0 0 0 0 0 0 0 0.3 0"/><feBlend in2="BackgroundImageFix" result="effect1_dropShadow_7284_39899"/><feBlend in="SourceGraphic" in2="effect1_dropShadow_7284_39899" result="shape"/></filter><filter id="H" x="157.345" y="317.345" width="105.676" height="105.676" filterUnits="userSpaceOnUse" color-interpolation-filters="sRGB"><feFlood flood-opacity="0" result="BackgroundImageFix"/><feColorMatrix in="SourceAlpha" values="0 0 0 0 0 0 0 0 0 0 0 0 0 0 0 0 0 0 127 0" result="hardAlpha"/><feOffset dx="22.183" dy="22.183"/><feGaussianBlur stdDeviation="14.419"/><feComposite in2="hardAlpha" operator="out"/><feColorMatrix values="0 0 0 0 0 0 0 0 0 0 0 0 0 0 0 0 0 0 0.3 0"/><feBlend in2="BackgroundImageFix" result="effect1_dropShadow_7284_39899"/><feBlend in="SourceGraphic" in2="effect1_dropShadow_7284_39899" result="shape"/></filter><filter id="K" x="221.345" y="125.345" width="105.676" height="105.676" filterUnits="userSpaceOnUse" color-interpolation-filters="sRGB"><feFlood flood-opacity="0" result="BackgroundImageFix"/><feColorMatrix in="SourceAlpha" values="0 0 0 0 0 0 0 0 0 0 0 0 0 0 0 0 0 0 127 0" result="hardAlpha"/><feOffset dx="22.183" dy="22.183"/><feGaussianBlur stdDeviation="14.419"/><feComposite in2="hardAlpha" operator="out"/><feColorMatrix values="0 0 0 0 0 0 0 0 0 0 0 0 0 0 0 0 0 0 0.3 0"/><feBlend in2="BackgroundImageFix" result="effect1_dropShadow_7284_39899"/><feBlend in="SourceGraphic" in2="effect1_dropShadow_7284_39899" result="shape"/></filter><filter id="V" x="157.345" y="253.345" width="105.676" height="105.676" filterUnits="userSpaceOnUse" color-interpolation-filters="sRGB"><feFlood flood-opacity="0" result="BackgroundImageFix"/><feColorMatrix in="SourceAlpha" values="0 0 0 0 0 0 0 0 0 0 0 0 0 0 0 0 0 0 127 0" result="hardAlpha"/><feOffset dx="22.183" dy="22.183"/><feGaussianBlur stdDeviation="14.419"/><feComposite in2="hardAlpha" operator="out"/><feColorMatrix values="0 0 0 0 0 0 0 0 0 0 0 0 0 0 0 0 0 0 0.3 0"/><feBlend in2="BackgroundImageFix" result="effect1_dropShadow_7284_39899"/><feBlend in="SourceGraphic" in2="effect1_dropShadow_7284_39899" result="shape"/></filter><filter id="ai" x="157.345" y="189.345" width="105.676" height="105.676" filterUnits="userSpaceOnUse" color-interpolation-filters="sRGB"><feFlood flood-opacity="0" result="BackgroundImageFix"/><feColorMatrix in="SourceAlpha" values="0 0 0 0 0 0 0 0 0 0 0 0 0 0 0 0 0 0 127 0" result="hardAlpha"/><feOffset dx="22.183" dy="22.183"/><feGaussianBlur stdDeviation="14.419"/><feComposite in2="hardAlpha" operator="out"/><feColorMatrix values="0 0 0 0 0 0 0 0 0 0 0 0 0 0 0 0 0 0 0.3 0"/><feBlend in2="BackgroundImageFix" result="effect1_dropShadow_7284_39899"/><feBlend in="SourceGraphic" in2="effect1_dropShadow_7284_39899" result="shape"/></filter><filter id="av" x="93.345" y="253.345" width="105.676" height="105.676" filterUnits="userSpaceOnUse" color-interpolation-filters="sRGB"><feFlood flood-opacity="0" result="BackgroundImageFix"/><feColorMatrix in="SourceAlpha" values="0 0 0 0 0 0 0 0 0 0 0 0 0 0 0 0 0 0 127 0" result="hardAlpha"/><feOffset dx="22.183" dy="22.183"/><feGaussianBlur stdDeviation="14.419"/><feComposite in2="hardAlpha" operator="out"/><feColorMatrix values="0 0 0 0 0 0 0 0 0 0 0 0 0 0 0 0 0 0 0.3 0"/><feBlend in2="BackgroundImageFix" result="effect1_dropShadow_7284_39899"/><feBlend in="SourceGraphic" in2="effect1_dropShadow_7284_39899" result="shape"/></filter><clipPath id="a"><path fill="#fff" d="M0 0h375v503H0z"/></clipPath></defs></svg>