<svg width="375" height="503" fill="none" xmlns="http://www.w3.org/2000/svg"><g clip-path="url(#a)"><g opacity=".6" filter="url(#b)"><rect x="82" y="158" width="140.776" height="147.605" rx="10.577" fill="#00A3FF"/></g><path d="M20 338.098a6.994 6.994 0 0 1 6.995-6.994h102.414c12.972 0 23.488 10.515 23.488 23.487v102.415a6.994 6.994 0 0 1-6.995 6.994C76.368 464 20 407.632 20 338.098z" fill="url(#c)"/><path d="M26.995 331.922h102.414c12.52 0 22.669 10.149 22.669 22.669v102.415a6.176 6.176 0 0 1-6.176 6.176c-69.082 0-125.083-56.002-125.083-125.084a6.176 6.176 0 0 1 6.176-6.176z" stroke="#fff" stroke-opacity=".11" stroke-width="1.637"/><rect width="106.572" height="106.572" rx="53.286" transform="rotate(-44.98 240.487 -224.358)" fill="url(#d)"/><rect x="1.158" width="104.935" height="104.935" rx="52.468" transform="rotate(-44.98 241.646 -224.358)" stroke="#fff" stroke-opacity=".11" stroke-width="1.637"/><g opacity=".6" filter="url(#e)"><rect x="203" y="248" width="112" height="118" rx="10.577" fill="#FF8BB3"/></g><g filter="url(#f)"><rect x="68.623" y="81.069" width="253.946" height="341.018" rx="16" fill="url(#g)" shape-rendering="crispEdges"/><path d="M83.15 102.089v1.614h2.602v1.499h-2.601v1.75h2.942v1.557h-4.885v-7.976h4.885v1.556h-2.942zm7.954 6.42-1.215-1.761-1.023 1.761h-2.102l2.09-3.238-2.147-3.102h2.182l1.215 1.749 1.023-1.749h2.102l-2.125 3.192 2.182 3.148h-2.182zm2.544-3.17c0-.659.133-1.235.398-1.727a2.852 2.852 0 0 1 1.125-1.137c.484-.265 1.037-.397 1.659-.397.795 0 1.458.208 1.988.625.538.416.89 1.003 1.057 1.761h-2.068c-.174-.485-.511-.727-1.011-.727-.357 0-.64.14-.853.42-.212.273-.318.667-.318 1.182 0 .515.106.912.318 1.193.213.272.496.409.853.409.5 0 .837-.243 1.01-.727h2.069c-.167.742-.52 1.325-1.057 1.749-.538.425-1.2.637-1.988.637-.621 0-1.174-.133-1.66-.398a2.85 2.85 0 0 1-1.124-1.136c-.265-.493-.398-1.068-.398-1.727zm11.163-3.239c.727 0 1.311.243 1.75.728.439.477.659 1.136.659 1.977v3.704h-1.932v-3.443c0-.424-.109-.754-.329-.988-.22-.235-.515-.353-.886-.353s-.667.118-.887.353c-.219.234-.329.564-.329.988v3.443h-1.943v-8.408h1.943v2.92c.197-.28.466-.504.807-.671.341-.166.723-.25 1.147-.25zm3.373 3.227c0-.651.121-1.223.363-1.715a2.8 2.8 0 0 1 1.012-1.137 2.623 2.623 0 0 1 1.42-.397c.447 0 .837.091 1.17.272.341.182.603.421.784.716v-.897h1.943v6.34h-1.943v-.898a2.08 2.08 0 0 1-.795.716c-.333.182-.723.273-1.17.273-.515 0-.985-.133-1.409-.398a2.879 2.879 0 0 1-1.012-1.148c-.242-.5-.363-1.075-.363-1.727zm4.749.012c0-.485-.136-.868-.409-1.148a1.293 1.293 0 0 0-.977-.42c-.386 0-.716.14-.988.42-.266.273-.398.652-.398 1.136 0 .485.132.871.398 1.159.272.281.602.421.988.421s.712-.14.977-.421c.273-.28.409-.662.409-1.147zm7.212-3.239c.742 0 1.333.243 1.773.728.446.477.67 1.136.67 1.977v3.704h-1.932v-3.443c0-.424-.11-.754-.329-.988-.22-.235-.515-.353-.886-.353-.372 0-.667.118-.887.353-.219.234-.329.564-.329.988v3.443h-1.943v-6.34h1.943v.84c.197-.28.462-.499.795-.659.333-.166.708-.25 1.125-.25zm6.202-.022c.447 0 .837.091 1.17.272.341.182.602.421.784.716v-.897h1.943v6.328c0 .584-.117 1.11-.352 1.58a2.59 2.59 0 0 1-1.057 1.136c-.469.28-1.056.42-1.761.42-.939 0-1.701-.223-2.284-.67-.583-.439-.916-1.038-1-1.795h1.921c.06.242.204.432.431.568.228.144.508.216.841.216.402 0 .72-.118.955-.352.242-.228.363-.595.363-1.103v-.897a2.201 2.201 0 0 1-.784.727c-.333.182-.723.273-1.17.273-.523 0-.996-.133-1.42-.398a2.871 2.871 0 0 1-1.012-1.148c-.242-.5-.363-1.075-.363-1.727 0-.651.121-1.223.363-1.715.25-.493.587-.871 1.012-1.137a2.623 2.623 0 0 1 1.42-.397zm1.954 3.261c0-.485-.136-.868-.409-1.148a1.293 1.293 0 0 0-.977-.42c-.386 0-.716.14-.989.42-.265.273-.397.652-.397 1.136 0 .485.132.871.397 1.159.273.281.603.421.989.421s.712-.14.977-.421c.273-.28.409-.662.409-1.147zm9.325-.103c0 .182-.011.372-.034.569h-4.397c.03.393.155.696.375.909.227.204.504.306.829.306.485 0 .822-.204 1.012-.613h2.068c-.106.416-.3.791-.58 1.125a2.83 2.83 0 0 1-1.034.784 3.34 3.34 0 0 1-1.397.284c-.622 0-1.175-.133-1.659-.398a2.832 2.832 0 0 1-1.137-1.136c-.272-.493-.409-1.068-.409-1.727s.133-1.235.398-1.727a2.838 2.838 0 0 1 1.136-1.137c.485-.265 1.042-.397 1.671-.397.613 0 1.159.129 1.636.386a2.74 2.74 0 0 1 1.113 1.102c.273.477.409 1.034.409 1.67zm-1.988-.511c0-.333-.114-.598-.341-.795-.227-.197-.511-.296-.852-.296-.326 0-.602.095-.83.284-.219.19-.356.459-.409.807h2.432zM305.878 100.729a6.034 6.034 0 0 0-4.909-1.75c-2.78.28-5.067 2.538-5.378 5.318a6.048 6.048 0 0 0 11.468 3.318.758.758 0 0 0-.681-1.091.736.736 0 0 0-.667.401 4.54 4.54 0 0 1-5.151 2.508 4.505 4.505 0 0 1-3.393-3.424 4.541 4.541 0 0 1 .884-3.837 4.55 4.55 0 0 1 3.547-1.708c1.257 0 2.379.523 3.197 1.348l-1.144 1.144c-.477.477-.144 1.296.53 1.296h2.719a.76.76 0 0 0 .758-.758v-2.719c0-.674-.818-1.015-1.295-.538l-.485.492z" fill="#fff"/><rect x="80.503" y="122.145" width="230.186" height="70.545" rx="9.09" fill="#1E242D"/><path d="M93.965 136.263c0 .281-.066.546-.199.796a1.514 1.514 0 0 1-.636.612c-.292.154-.666.231-1.122.231h-1.002v2.243H90.1v-5.528h1.908c.425 0 .782.074 1.074.223.297.143.517.339.66.588a1.6 1.6 0 0 1 .223.835zm-1.957.899c.345 0 .602-.077.772-.231.17-.159.254-.381.254-.668 0-.604-.342-.907-1.026-.907h-1.002v1.806h1.002zm6.154 1.853h-2.314l-.398 1.13h-.946l1.98-5.536h1.05l1.98 5.536h-.954l-.398-1.13zm-.254-.74-.899-2.569-.907 2.569h1.806zm6.564-3.658-1.83 3.523v2.005h-.906v-2.005l-1.838-3.523h1.01l1.281 2.712 1.28-2.712h1.003zM210.548 139.055a28.695 28.695 0 0 0 1.471-1.257 4.97 4.97 0 0 0 .764-.867c.206-.302.31-.596.31-.883 0-.217-.05-.387-.151-.509-.101-.122-.252-.183-.454-.183a.567.567 0 0 0-.477.231c-.111.149-.167.361-.167.636h-1.312c.01-.45.106-.827.286-1.129.186-.302.427-.525.724-.668a2.312 2.312 0 0 1 1.002-.215c.631 0 1.106.162 1.424.485.323.324.485.745.485 1.265 0 .567-.194 1.095-.581 1.583-.387.482-.88.954-1.479 1.415h2.147v1.106h-3.992v-1.01zm8.679-3.531h-2.481v1.097c.106-.117.254-.212.445-.286.191-.074.398-.112.621-.112.397 0 .726.091.986.271.265.18.459.413.58.7.122.286.183.596.183.93 0 .621-.175 1.114-.525 1.48-.349.36-.843.541-1.479.541-.424 0-.793-.072-1.105-.215a1.72 1.72 0 0 1-.724-.613 1.757 1.757 0 0 1-.279-.898h1.329a.727.727 0 0 0 .23.413c.122.106.289.159.501.159.25 0 .435-.079.557-.238.122-.159.183-.372.183-.637 0-.259-.064-.458-.191-.596-.127-.138-.313-.207-.557-.207a.708.708 0 0 0-.445.135.598.598 0 0 0-.231.342h-1.312v-3.46h3.714v1.194zm.974.278c0-.43.122-.761.366-.994.249-.234.57-.35.962-.35s.711.116.954.35c.244.233.366.564.366.994 0 .429-.122.761-.366.994-.243.233-.562.35-.954.35-.392 0-.713-.117-.962-.35-.244-.233-.366-.565-.366-.994zm5.4-1.257-3.062 5.6h-1.312l3.062-5.6h1.312zm-4.08.708c-.254 0-.382.183-.382.549 0 .36.128.541.382.541a.339.339 0 0 0 .286-.135c.069-.091.104-.226.104-.406 0-.366-.13-.549-.39-.549zm2.466 3.635c0-.43.122-.761.366-.994.243-.234.562-.35.954-.35.392 0 .711.116.954.35.244.233.366.564.366.994 0 .429-.122.761-.366.994-.243.233-.562.35-.954.35-.392 0-.711-.117-.954-.35-.244-.233-.366-.565-.366-.994zm1.312-.549a.34.34 0 0 0-.286.135c-.064.09-.096.228-.096.414 0 .36.128.541.382.541a.338.338 0 0 0 .286-.136c.069-.09.104-.225.104-.405 0-.18-.035-.316-.104-.406a.334.334 0 0 0-.286-.143zM238.501 135.524h-2.482v1.097c.107-.117.255-.212.446-.286.191-.074.398-.112.62-.112.398 0 .727.091.986.271.266.18.459.413.581.7.122.286.183.596.183.93 0 .621-.175 1.114-.525 1.48-.35.36-.843.541-1.479.541-.424 0-.793-.072-1.106-.215a1.725 1.725 0 0 1-.724-.613 1.765 1.765 0 0 1-.278-.898h1.328a.734.734 0 0 0 .231.413c.122.106.289.159.501.159.249 0 .435-.079.557-.238.122-.159.183-.372.183-.637 0-.259-.064-.458-.191-.596-.127-.138-.313-.207-.557-.207a.706.706 0 0 0-.445.135.593.593 0 0 0-.231.342h-1.312v-3.46h3.714v1.194zm1.085 1.638c0-.912.175-1.631.525-2.155.355-.525.925-.788 1.71-.788.784 0 1.352.263 1.702.788.355.524.533 1.243.533 2.155 0 .923-.178 1.646-.533 2.171-.35.525-.918.788-1.702.788-.785 0-1.355-.263-1.71-.788-.35-.525-.525-1.248-.525-2.171zm3.133 0c0-.536-.058-.947-.175-1.233-.116-.291-.357-.437-.723-.437s-.607.146-.724.437c-.117.286-.175.697-.175 1.233 0 .361.021.66.064.899.042.233.127.424.254.572.133.144.326.215.581.215.254 0 .445-.071.572-.215.133-.148.22-.339.263-.572.042-.239.063-.538.063-.899zm1.944-1.36c0-.43.122-.761.366-.994.249-.234.57-.35.962-.35s.711.116.955.35c.243.233.365.564.365.994 0 .429-.122.761-.365.994-.244.233-.563.35-.955.35s-.713-.117-.962-.35c-.244-.233-.366-.565-.366-.994zm5.4-1.257-3.062 5.6h-1.312l3.062-5.6h1.312zm-4.08.708c-.254 0-.382.183-.382.549 0 .36.128.541.382.541a.339.339 0 0 0 .286-.135c.069-.091.104-.226.104-.406 0-.366-.13-.549-.39-.549zm2.466 3.635c0-.43.122-.761.366-.994.244-.234.562-.35.954-.35.392 0 .711.116.954.35.244.233.366.564.366.994 0 .429-.122.761-.366.994-.243.233-.562.35-.954.35-.392 0-.71-.117-.954-.35-.244-.233-.366-.565-.366-.994zm1.312-.549a.34.34 0 0 0-.286.135c-.064.09-.096.228-.096.414 0 .36.128.541.382.541a.337.337 0 0 0 .286-.136c.069-.09.104-.225.104-.405 0-.18-.035-.316-.104-.406a.333.333 0 0 0-.286-.143zM262.936 135.356l-1.996 4.789h-1.392l2.02-4.637h-2.473v-1.162h3.841v1.01zm4.639.168h-2.482v1.097a1.15 1.15 0 0 1 .446-.286c.19-.074.397-.112.62-.112.398 0 .726.091.986.271.265.18.459.413.581.7.122.286.183.596.183.93 0 .621-.175 1.114-.525 1.48-.35.36-.843.541-1.48.541-.424 0-.792-.072-1.105-.215a1.725 1.725 0 0 1-.724-.613 1.756 1.756 0 0 1-.278-.898h1.328a.734.734 0 0 0 .231.413c.122.106.289.159.501.159.249 0 .434-.079.556-.238.122-.159.183-.372.183-.637 0-.259-.063-.458-.191-.596-.127-.138-.312-.207-.556-.207a.709.709 0 0 0-.446.135.597.597 0 0 0-.23.342h-1.313v-3.46h3.715v1.194zm.973.278c0-.43.122-.761.366-.994.249-.234.57-.35.962-.35.393 0 .711.116.955.35.244.233.366.564.366.994 0 .429-.122.761-.366.994-.244.233-.562.35-.955.35-.392 0-.713-.117-.962-.35-.244-.233-.366-.565-.366-.994zm5.401-1.257-3.063 5.6h-1.312l3.062-5.6h1.313zm-4.081.708c-.254 0-.381.183-.381.549 0 .36.127.541.381.541a.342.342 0 0 0 .287-.135c.069-.091.103-.226.103-.406 0-.366-.13-.549-.39-.549zm2.466 3.635c0-.43.122-.761.366-.994.244-.234.562-.35.954-.35.393 0 .711.116.955.35.244.233.366.564.366.994 0 .429-.122.761-.366.994-.244.233-.562.35-.955.35-.392 0-.71-.117-.954-.35-.244-.233-.366-.565-.366-.994zm1.312-.549a.34.34 0 0 0-.286.135c-.064.09-.095.228-.095.414 0 .36.127.541.381.541a.34.34 0 0 0 .287-.136c.069-.09.103-.225.103-.405 0-.18-.034-.316-.103-.406a.336.336 0 0 0-.287-.143zM289.506 134.561v5.584h-1.36v-3.349l-1.249 3.349h-1.098l-1.256-3.357v3.357h-1.36v-5.584h1.606l1.567 3.866 1.551-3.866h1.599zm4.454 4.597h-2.084l-.334.987h-1.424l2.02-5.584h1.575l2.02 5.584h-1.439l-.334-.987zm-.35-1.05-.692-2.044-.684 2.044h1.376zm6.158 2.037-1.137-1.71-1.002 1.71h-1.543l1.789-2.84-1.829-2.744h1.583l1.121 1.686.986-1.686h1.543l-1.773 2.816 1.845 2.768h-1.583z" fill="#7D7D7D"/><rect x="89.503" y="148.189" width="20" height="20" rx="10" fill="#E6E9F2"/><g clip-path="url(#h)"><g opacity=".6"><mask id="i" style="mask-type:luminance" maskUnits="userSpaceOnUse" x="95" y="156" width="9" height="5"><path d="M95.275 156.299h8.461v4.425h-8.462v-4.425z" fill="#fff"/></mask><g mask="url(#i)"><path d="m99.506 156.299-4.231 1.925 4.231 2.5 4.23-2.5-4.23-1.925z" fill="#010101"/></g></g><g opacity=".45"><mask id="j" style="mask-type:luminance" maskUnits="userSpaceOnUse" x="95" y="151" width="5" height="10"><path d="M95.275 151.202h4.231v9.521h-4.231v-9.521z" fill="#fff"/></mask><g mask="url(#j)"><path d="m95.275 158.223 4.231 2.5v-9.521l-4.231 7.021z" fill="#010101"/></g></g><g opacity=".8"><mask id="k" style="mask-type:luminance" maskUnits="userSpaceOnUse" x="99" y="151" width="5" height="10"><path d="M99.506 151.202h4.232v9.521h-4.232v-9.521z" fill="#fff"/></mask><g mask="url(#k)"><path d="M99.506 151.202v9.521l4.23-2.5-4.23-7.021z" fill="#010101"/></g></g><g opacity=".45"><mask id="l" style="mask-type:luminance" maskUnits="userSpaceOnUse" x="95" y="159" width="5" height="6"><path d="M95.275 159.025h4.231v5.962h-4.231v-5.962z" fill="#fff"/></mask><g mask="url(#l)"><path d="m95.275 159.025 4.231 5.962v-3.462l-4.231-2.5z" fill="#010101"/></g></g><g opacity=".8"><mask id="m" style="mask-type:luminance" maskUnits="userSpaceOnUse" x="99" y="159" width="5" height="6"><path d="M99.506 159.025h4.233v5.962h-4.233v-5.962z" fill="#fff"/></mask><g mask="url(#m)"><path d="M99.506 161.525v3.462l4.233-5.962-4.233 2.5z" fill="#010101"/></g></g></g><path d="M117.263 155.27v1.613h2.602v1.5h-2.602v1.75h2.943v1.556h-4.885v-7.976h4.885v1.557h-2.943zm9.943-1.557v1.557h-2.114v6.419h-1.943v-6.419h-2.113v-1.557h6.17zm7.883 0v7.976h-1.943v-3.283h-3.022v3.283h-1.943v-7.976h1.943v3.125h3.022v-3.125h1.943z" fill="#fff"/><path d="m145.138 157.054 3.282 3.408 3.535-3.408" stroke="#fff" stroke-width="1.704" stroke-linecap="round" stroke-linejoin="round"/><path d="M255.867 157.503c0-1.599.268-2.848.804-3.744.546-.906 1.48-1.359 2.802-1.359s2.251.453 2.787 1.359c.546.896.818 2.145.818 3.744 0 1.618-.272 2.884-.818 3.8-.536.906-1.465 1.359-2.787 1.359-1.322 0-2.256-.453-2.802-1.359-.536-.916-.804-2.182-.804-3.8zm5.658 0c0-.749-.051-1.382-.152-1.9-.093-.518-.287-.938-.583-1.262-.296-.333-.735-.499-1.317-.499-.583 0-1.022.166-1.318.499-.296.324-.494.744-.596 1.262-.093.518-.139 1.151-.139 1.9 0 .777.046 1.428.139 1.955.092.527.287.953.582 1.276.305.324.749.485 1.332.485.582 0 1.021-.161 1.317-.485.305-.323.504-.749.596-1.276.093-.527.139-1.178.139-1.955zm4.072 5.284a.98.98 0 0 1-.721-.292.979.979 0 0 1-.291-.721.98.98 0 0 1 .291-.721.979.979 0 0 1 .721-.291c.277 0 .513.097.707.291a.98.98 0 0 1 .291.721.979.979 0 0 1-.291.721.964.964 0 0 1-.707.292zm2.499-5.284c0-1.599.268-2.848.804-3.744.546-.906 1.48-1.359 2.802-1.359s2.251.453 2.787 1.359c.546.896.818 2.145.818 3.744 0 1.618-.272 2.884-.818 3.8-.536.906-1.465 1.359-2.787 1.359-1.322 0-2.256-.453-2.802-1.359-.536-.916-.804-2.182-.804-3.8zm5.658 0c0-.749-.051-1.382-.152-1.9-.093-.518-.287-.938-.583-1.262-.296-.333-.735-.499-1.317-.499-.583 0-1.022.166-1.318.499-.296.324-.494.744-.596 1.262-.092.518-.139 1.151-.139 1.9 0 .777.047 1.428.139 1.955.092.527.287.953.582 1.276.306.324.749.485 1.332.485.582 0 1.021-.161 1.317-.485.305-.323.504-.749.596-1.276.093-.527.139-1.178.139-1.955zm3.226 0c0-1.599.268-2.848.804-3.744.546-.906 1.48-1.359 2.802-1.359s2.251.453 2.787 1.359c.546.896.818 2.145.818 3.744 0 1.618-.272 2.884-.818 3.8-.536.906-1.465 1.359-2.787 1.359-1.322 0-2.256-.453-2.802-1.359-.536-.916-.804-2.182-.804-3.8zm5.658 0c0-.749-.051-1.382-.152-1.9-.093-.518-.287-.938-.583-1.262-.296-.333-.735-.499-1.317-.499-.583 0-1.022.166-1.318.499-.296.324-.494.744-.596 1.262-.092.518-.139 1.151-.139 1.9 0 .777.047 1.428.139 1.955.092.527.287.953.582 1.276.306.324.749.485 1.332.485.582 0 1.021-.161 1.317-.485.305-.323.504-.749.596-1.276.093-.527.139-1.178.139-1.955zm8.662-2.579c-.101-.426-.286-.745-.554-.957-.269-.213-.643-.319-1.124-.319-.73 0-1.276.282-1.636.846-.361.554-.55 1.479-.569 2.773a2.39 2.39 0 0 1 1.054-.943 3.419 3.419 0 0 1 1.498-.333c.61 0 1.146.134 1.609.403a2.65 2.65 0 0 1 1.095 1.137c.268.499.402 1.095.402 1.789 0 .647-.129 1.225-.388 1.733-.25.509-.624.911-1.123 1.207-.499.286-1.1.429-1.803.429-.952 0-1.701-.208-2.247-.624-.536-.425-.915-1.021-1.137-1.789-.212-.767-.319-1.724-.319-2.87 0-3.384 1.193-5.076 3.578-5.076.925 0 1.65.25 2.177.749.537.499.851 1.114.943 1.845H291.3zm-1.678 2.399c-.564 0-1.044.171-1.442.513-.388.333-.582.818-.582 1.456s.18 1.146.54 1.525c.37.37.883.555 1.54.555.582 0 1.04-.18 1.373-.541.342-.36.513-.841.513-1.442 0-.629-.167-1.128-.499-1.498-.324-.379-.805-.568-1.443-.568zm11.547-3.523-3.856 8.889h-1.594l3.896-8.722h-5.131v-1.346h6.685v1.179z" fill="#fff"/><path d="M264.823 177.309c.1-.56.287-.973.56-1.24.273-.273.617-.41 1.03-.41.187 0 .35.03.49.09.147.06.313.15.5.27.167.1.297.174.39.22.1.047.21.07.33.07a.661.661 0 0 0 .44-.16.717.717 0 0 0 .24-.47h.83c-.1.56-.29.977-.57 1.25-.273.267-.617.4-1.03.4-.187 0-.35-.03-.49-.09s-.303-.15-.49-.27a2.466 2.466 0 0 0-.38-.22.851.851 0 0 0-.34-.07.691.691 0 0 0-.46.17.695.695 0 0 0-.23.46h-.82zm10.607.4c0 .334-.083.647-.25.94-.16.294-.4.54-.72.74-.313.2-.686.32-1.12.36v.81h-.65v-.81c-.626-.06-1.133-.256-1.52-.59-.386-.333-.58-.773-.58-1.32h1.22c.02.26.104.477.25.65.147.167.357.274.63.32v-2.2a8.541 8.541 0 0 1-1.09-.34 1.82 1.82 0 0 1-.72-.56c-.193-.253-.29-.6-.29-1.04 0-.553.194-1.01.58-1.37.387-.366.894-.58 1.52-.64v-.81h.65v.81c.587.054 1.057.24 1.41.56.36.314.564.747.61 1.3h-1.22a.959.959 0 0 0-.24-.55 1.052 1.052 0 0 0-.56-.34v2.16c.447.107.81.22 1.09.34.28.114.517.297.71.55.194.247.29.59.29 1.03zm-3.68-3.1c0 .274.08.487.24.64.167.154.4.277.7.37v-2.02c-.286.034-.516.137-.69.31-.166.174-.25.407-.25.7zm1.59 4.2c.294-.046.524-.163.69-.35a1.02 1.02 0 0 0 .25-.69c0-.266-.083-.473-.25-.62-.16-.153-.39-.276-.69-.37v2.03zm3.604-5.37v-1.04h2.08v7.29h-1.15v-6.25h-.93zm3.646 2.51c0-1.153.194-2.053.58-2.7.394-.653 1.067-.98 2.02-.98.954 0 1.624.327 2.01.98.394.647.59 1.547.59 2.7 0 1.167-.196 2.08-.59 2.74-.386.654-1.056.98-2.01.98-.953 0-1.626-.326-2.02-.98-.386-.66-.58-1.573-.58-2.74zm4.08 0c0-.54-.036-.996-.11-1.37-.066-.373-.206-.676-.42-.91-.213-.24-.53-.36-.95-.36-.42 0-.736.12-.95.36-.213.234-.356.537-.43.91-.066.374-.1.83-.1 1.37 0 .56.034 1.03.1 1.41.067.38.207.687.42.92.22.234.54.35.96.35.42 0 .737-.116.95-.35.22-.233.364-.54.43-.92.067-.38.1-.85.1-1.41zm2.937 3.81a.706.706 0 0 1-.52-.21.706.706 0 0 1-.21-.52c0-.206.07-.38.21-.52.14-.14.313-.21.52-.21.2 0 .37.07.51.21.14.14.21.314.21.52 0 .207-.07.38-.21.52-.14.14-.31.21-.51.21zm1.802-3.81c0-1.153.193-2.053.58-2.7.393-.653 1.066-.98 2.02-.98.953 0 1.623.327 2.01.98.393.647.59 1.547.59 2.7 0 1.167-.197 2.08-.59 2.74-.387.654-1.057.98-2.01.98-.954 0-1.627-.326-2.02-.98-.387-.66-.58-1.573-.58-2.74zm4.08 0c0-.54-.037-.996-.11-1.37-.067-.373-.207-.676-.42-.91-.214-.24-.53-.36-.95-.36-.42 0-.737.12-.95.36-.214.234-.357.537-.43.91-.067.374-.1.83-.1 1.37 0 .56.033 1.03.1 1.41.066.38.206.687.42.92.22.234.54.35.96.35.42 0 .736-.116.95-.35.22-.233.363-.54.43-.92.066-.38.1-.85.1-1.41zm2.186 2.22v-.86l3.36-4.82h1.38v4.69h.93v.99h-.93v1.52h-1.12v-1.52h-3.62zm3.67-4.52-2.36 3.53h2.36v-3.53zM80.797 210.049c0-.541.125-1.026.374-1.456a2.704 2.704 0 0 1 1.026-1.002 2.86 2.86 0 0 1 1.424-.366c.589 0 1.11.146 1.567.438.461.286.795.694 1.002 1.225H85.1a1.457 1.457 0 0 0-.596-.652 1.761 1.761 0 0 0-.883-.215c-.366 0-.692.082-.978.246a1.75 1.75 0 0 0-.676.708 2.31 2.31 0 0 0-.239 1.074c0 .408.08.766.239 1.074.164.307.39.546.676.715.286.165.612.247.978.247.334 0 .628-.072.883-.215.254-.143.453-.36.596-.652h1.09c-.207.53-.54.939-1.002 1.225-.456.286-.978.429-1.567.429-.52 0-.994-.119-1.424-.357a2.757 2.757 0 0 1-1.026-1.011 2.843 2.843 0 0 1-.374-1.455zm10.868-2.752v5.528h-.906v-2.418h-2.601v2.418h-.907v-5.528h.907v2.37h2.6v-2.37h.907zm4.527 4.398h-2.315l-.397 1.13h-.947l1.98-5.536h1.05l1.98 5.536h-.954l-.397-1.13zm-.255-.739-.899-2.569-.906 2.569h1.805zm3.375-3.659v5.528h-.907v-5.528h.907zm5.732 5.528h-.907l-2.728-4.128v4.128h-.907v-5.536h.907l2.728 4.12v-4.12h.907v5.536z" fill="#7D7D7D"/><path d="M121.258 217.762a7.938 7.938 0 1 0-.001-15.875 7.938 7.938 0 0 0 .001 15.875z" fill="#FF0420"/><path d="M119.077 212.048c-.478 0-.871-.115-1.176-.346-.302-.234-.453-.568-.453-1 0-.09.01-.202.03-.333.053-.297.127-.653.224-1.068.273-1.132.979-1.698 2.118-1.698.309 0 .587.054.832.161.246.103.439.259.58.469.14.206.211.453.211.741 0 .086-.01.195-.03.327-.061.366-.133.722-.218 1.068-.14.564-.384.985-.73 1.265-.346.276-.808.414-1.388.414zm.085-.889a.845.845 0 0 0 .573-.204c.161-.136.276-.343.344-.623.093-.387.163-.725.211-1.013.016-.086.024-.175.024-.265 0-.375-.191-.562-.573-.562a.868.868 0 0 0-.579.204c-.157.136-.27.343-.338.623-.073.276-.145.614-.217 1.013a1.348 1.348 0 0 0-.024.259c0 .379.193.568.579.568zM121.719 211.984c-.044 0-.078-.014-.102-.043a.147.147 0 0 1-.019-.111l.833-4.013a.176.176 0 0 1 .067-.111.178.178 0 0 1 .114-.043h1.605c.447 0 .805.095 1.074.284.274.189.411.463.411.821 0 .103-.012.21-.036.321-.101.473-.304.823-.61 1.049-.302.227-.716.34-1.243.34h-.815l-.277 1.352a.176.176 0 0 1-.067.111.178.178 0 0 1-.114.043h-.821zm2.136-2.358a.708.708 0 0 0 .441-.142.668.668 0 0 0 .253-.407c.012-.07.018-.132.018-.186 0-.119-.034-.21-.102-.271-.069-.066-.185-.099-.35-.099h-.724l-.23 1.105h.694z" fill="#fff"/><circle cx="141.132" cy="209.825" r="7.937" fill="#1D1336"/><path d="M137.733 209.626c0-.096.078-.173.174-.173h6.431a.173.173 0 0 1 0 .346h-6.431a.174.174 0 0 1-.174-.173zM136.429 210.387c0-.096.078-.173.174-.173h4.693a.173.173 0 1 1 0 .346h-4.693a.174.174 0 0 1-.174-.173zM140.792 212.497a.173.173 0 1 0 0 .346h2.903a.173.173 0 0 0 0-.346h-2.903zM138.845 213.431c0-.095.078-.173.174-.173h2.885a.173.173 0 1 1 0 .346h-2.885a.173.173 0 0 1-.174-.173zM137.907 210.975a.173.173 0 1 0 0 .346h5.666a.173.173 0 1 0 0-.346h-5.666zM136.759 211.909c0-.095.078-.173.174-.173h2.26a.173.173 0 1 1 0 .346h-2.26a.173.173 0 0 1-.174-.173zM139.853 211.736a.173.173 0 1 0 0 .346h4.693a.173.173 0 1 0 0-.346h-4.693zM137.489 209.626a.174.174 0 0 1-.347 0 .173.173 0 0 1 .347 0zM136.012 210.56a.173.173 0 1 0 0-.346.173.173 0 1 0 0 .346zM140.375 212.67a.173.173 0 0 1-.174.173.173.173 0 1 1 0-.346c.096 0 .174.078.174.173zM138.428 213.604a.173.173 0 1 0 0-.346.173.173 0 1 0 0 .346zM137.489 211.148a.173.173 0 1 1-.347 0 .173.173 0 0 1 .347 0zM136.342 212.082a.173.173 0 1 0 0-.346.173.173 0 1 0 0 .346z" fill="#E1147B"/><path d="M143.691 207.753c.14.336.211.696.211 1.06a.138.138 0 0 1-.139.138h-5.283a.14.14 0 0 1-.14-.138 2.755 2.755 0 0 1 .815-1.957 2.782 2.782 0 0 1 1.966-.811 2.798 2.798 0 0 1 1.967.811c.258.257.463.562.603.897z" fill="#53CBC7"/><path d="M165.885 204.6h-9.795v8.908h9.795V204.6z" fill="#fff"/><path fill-rule="evenodd" clip-rule="evenodd" d="M168.921 209.814a7.927 7.927 0 1 1-15.852 0 7.927 7.927 0 0 1 15.852 0zm-10.172 3.154h-1.539c-.323 0-.482 0-.58-.062a.391.391 0 0 1-.177-.306c-.006-.114.074-.255.234-.535l3.798-6.695c.162-.284.243-.426.347-.479a.394.394 0 0 1 .354 0c.103.053.185.195.347.479l.784 1.37c.175.305.263.46.302.622a1.15 1.15 0 0 1 0 .541c-.039.164-.126.32-.304.629l-1.995 3.527-.005.009c-.176.308-.265.463-.388.581a1.16 1.16 0 0 1-.473.275c-.162.044-.343.044-.705.044zm3.885 0h2.204c.325 0 .488 0 .586-.064a.39.39 0 0 0 .177-.307c.006-.112-.072-.246-.225-.51l-.016-.028-1.104-1.889-.013-.021c-.155-.262-.234-.395-.334-.446a.392.392 0 0 0-.353 0c-.101.053-.183.191-.344.469l-1.1 1.889-.004.007c-.161.278-.242.417-.236.531a.395.395 0 0 0 .177.307c.096.062.259.062.585.062z" fill="#E84142"/><path d="M188.795 209.825a7.938 7.938 0 1 1-15.876-.002 7.938 7.938 0 0 1 15.876.002z" fill="#EAB300"/><path d="M183.981 207.879c-.102-1.063-1.019-1.419-2.179-1.521v-1.475h-.897v1.436c-.236 0-.477.004-.717.009v-1.445h-.897l-.001 1.474c-.194.004-.385.008-.571.008v-.005l-1.238-.001v.959s.663-.012.652 0c.363 0 .482.21.516.393v1.68c.025 0 .058.001.094.006h-.094l-.001 2.354c-.016.114-.083.296-.337.297.011.01-.652 0-.652 0l-.179 1.072h1.169c.217 0 .431.004.641.005v1.492h.897v-1.476c.246.005.484.007.717.007l-.001 1.469h.898v-1.489c1.509-.086 2.566-.467 2.697-1.884.106-1.141-.431-1.651-1.288-1.856.522-.265.848-.731.771-1.509zm-1.256 3.189c0 1.114-1.908.988-2.517.988v-1.977c.609.001 2.517-.173 2.517.989zm-.418-2.788c0 1.014-1.592.895-2.099.896v-1.792c.507 0 2.1-.162 2.099.896z" fill="#fff"/><path d="M178.648 209.352h.135v.099h-.135v-.099z" fill="#fff"/><path d="M208.669 209.825a7.937 7.937 0 1 1-15.874 0 7.937 7.937 0 0 1 15.874 0z" fill="#000"/><path fill-rule="evenodd" clip-rule="evenodd" d="M197.379 212.486a.797.797 0 0 1-.383-.681v-1.551a.332.332 0 0 1 .502-.287l3.499 2.041a.665.665 0 0 1 .331.575v1.606a.399.399 0 0 1-.608.342l-3.341-2.045zm5.216-2.944c.205.119.33.339.331.576v3.26a.266.266 0 0 1-.136.232l-.766.431a.107.107 0 0 1-.031.013v-1.811a.668.668 0 0 0-.324-.572l-3.074-1.838v-2.044a.332.332 0 0 1 .502-.287l3.498 2.04zm1.532-2.408a.667.667 0 0 1 .331.577v4.762a.268.268 0 0 1-.14.234l-.726.392v-3.315a.67.67 0 0 0-.323-.572l-3.142-1.884v-1.938a.334.334 0 0 1 .5-.288l3.5 2.032z" fill="#00D395"/><rect x="212.669" y="201.888" width="15.874" height="15.874" rx="7.937" fill="#171717"/><path d="M225.203 209.437h-.094c-1.102 0-2.204 0-3.306.002a.37.37 0 0 1-.301-.137 14.556 14.556 0 0 0-.285-.322c-.135-.15-.296-.153-.438-.006a23.4 23.4 0 0 0-.344.362.309.309 0 0 1-.236.102l-4.098-.001c-.025 0-.05-.002-.093-.004.029-.189.051-.373.088-.554.035-.168.089-.332.13-.498.017-.069.052-.086.121-.086 1.426.002 2.852 0 4.279.003.203 0 .367-.062.494-.225.071-.09.15-.174.229-.257.122-.129.286-.125.405.007.097.109.197.217.29.329a.4.4 0 0 0 .333.146c.83-.002 1.659 0 2.488-.003.076 0 .107.021.13.095.107.337.179.68.208 1.047zM216.458 211.832a4.52 4.52 0 0 1-.378-1.153h2.931a.555.555 0 0 0 .46-.208c.076-.093.157-.182.239-.271.12-.129.287-.129.406.001.1.11.201.221.297.335a.394.394 0 0 0 .325.143l4.296-.001h.108c-.071.39-.192.755-.354 1.108-.025.055-.065.046-.106.046h-2.445c-.689 0-1.378-.002-2.067.001a.398.398 0 0 1-.337-.153c-.089-.108-.185-.211-.279-.316-.122-.136-.285-.142-.413-.012-.126.126-.243.261-.374.38a.34.34 0 0 1-.201.095c-.7.007-1.4.005-2.108.005zM224.283 207.06H223.425a.338.338 0 0 1-.266-.118c-.106-.117-.209-.236-.315-.353-.123-.135-.287-.138-.414-.008a16.13 16.13 0 0 0-.338.355.364.364 0 0 1-.288.125c-1.59-.002-3.179-.001-4.769-.001h-.121c.791-1.011 1.792-1.637 3.044-1.799 1.771-.228 3.21.401 4.334 1.767l-.009.032zM217.25 212.977a.602.602 0 0 0 .438-.253c.064-.081.136-.156.205-.233.118-.131.286-.135.406-.006.097.105.193.211.284.322a.424.424 0 0 0 .353.159c1.641-.003 3.282-.002 4.923-.002h.101c-.784.843-1.744 1.339-2.885 1.446-1.499.14-2.773-.355-3.825-1.433z" fill="#fff"/><rect x="123.839" y="211.941" width="6.817" height="6.817" rx="3.409" fill="#59A662"/><path d="m125.825 215.482 1.041 1.338 2.084-2.557" stroke="#fff" stroke-width=".852" stroke-linecap="round" stroke-linejoin="round"/><path d="m303.494 208.046-3.928-3.896-3.647 3.896m3.787 3.571 3.928 3.896 3.647-3.896" stroke="#7D7D7D" stroke-width="1.704" stroke-linecap="round" stroke-linejoin="round"/><rect x="80.503" y="226.96" width="230.186" height="70.545" rx="9.09" fill="#1E242D"/><path d="m92.97 244.96-1.272-2.211h-.692v2.211H90.1v-5.528h1.909c.424 0 .782.074 1.073.223.297.148.517.347.66.596.149.25.223.528.223.836 0 .36-.106.689-.318.986-.207.291-.528.49-.962.596l1.368 2.291H92.97zm-1.964-2.935h1.002c.34 0 .594-.085.764-.254.175-.17.263-.398.263-.684 0-.287-.085-.509-.255-.669-.17-.164-.427-.246-.772-.246h-1.002v1.853zm5.026-1.861v1.622h1.909v.74h-1.91v1.694h2.148v.74h-3.054v-5.536h3.054v.74h-2.147zm2.962 2.02c0-.541.124-1.026.374-1.455.254-.43.596-.764 1.026-1.002a2.856 2.856 0 0 1 1.423-.366c.589 0 1.111.145 1.567.437.461.286.795.695 1.002 1.225h-1.089a1.46 1.46 0 0 0-.597-.652 1.771 1.771 0 0 0-.883-.215c-.366 0-.692.082-.978.247a1.74 1.74 0 0 0-.676.707 2.31 2.31 0 0 0-.239 1.074c0 .408.08.766.239 1.074.164.307.39.546.676.716.286.164.612.246.978.246.334 0 .629-.071.883-.214.255-.144.453-.361.597-.653h1.089a2.44 2.44 0 0 1-1.002 1.225c-.456.287-.978.43-1.567.43-.519 0-.994-.12-1.423-.358a2.76 2.76 0 0 1-1.026-1.01 2.85 2.85 0 0 1-.374-1.456zm7.36-2.02v1.622h1.909v.74h-1.909v1.694h2.148v.74h-3.054v-5.536h3.054v.74h-2.148zm4.171-.732v5.528h-.906v-5.528h.906zm5.955 0-2.076 5.528h-1.05l-2.084-5.528h.971l1.638 4.597 1.646-4.597h.955zm1.665.732v1.622h1.909v.74h-1.909v1.694h2.147v.74h-3.054v-5.536h3.054v.74h-2.147zM270.619 243.831h-2.315l-.397 1.129h-.947l1.981-5.536h1.049l1.981 5.536h-.955l-.397-1.129zm-.255-.74-.899-2.569-.906 2.569h1.805zm8.29-3.659v5.528h-.907v-3.786l-1.686 3.786h-.628l-1.694-3.786v3.786h-.907v-5.528h.978l1.941 4.335 1.933-4.335h.97zm3.713 5.584a2.92 2.92 0 0 1-1.424-.358 2.769 2.769 0 0 1-1.026-1.01 2.894 2.894 0 0 1-.374-1.464c0-.541.125-1.026.374-1.455.255-.43.597-.764 1.026-1.002.435-.244.91-.366 1.424-.366.52 0 .994.122 1.424.366.434.238.776.572 1.026 1.002.249.429.373.914.373 1.455s-.124 1.029-.373 1.464c-.25.429-.592.766-1.026 1.01a2.89 2.89 0 0 1-1.424.358zm0-.788c.366 0 .692-.082.978-.246.287-.17.509-.409.668-.716.165-.313.247-.674.247-1.082a2.24 2.24 0 0 0-.247-1.074 1.685 1.685 0 0 0-.668-.707 1.921 1.921 0 0 0-.978-.247c-.366 0-.692.082-.978.247-.287.164-.512.4-.676.707a2.31 2.31 0 0 0-.239 1.074c0 .408.08.769.239 1.082.164.307.389.546.676.716.286.164.612.246.978.246zm4.614-4.796v3.524c0 .419.109.734.327.946.222.212.53.318.922.318.398 0 .705-.106.923-.318.222-.212.334-.527.334-.946v-3.524h.907v3.508c0 .45-.099.832-.295 1.145a1.824 1.824 0 0 1-.787.7 2.538 2.538 0 0 1-1.09.231c-.397 0-.761-.077-1.089-.231a1.786 1.786 0 0 1-.772-.7c-.191-.313-.286-.695-.286-1.145v-3.508h.906zm9.135 5.528h-.907l-2.728-4.128v4.128h-.907v-5.536h.907l2.728 4.12v-4.12h.907v5.536zm4.761-5.528v.74h-1.471v4.788h-.907v-4.788h-1.479v-.74h3.857z" fill="#7D7D7D"/><g clip-path="url(#n)"><path d="M99.503 273.005c5.542 0 10-4.458 10-10s-4.458-10-10-10c-5.541 0-10 4.458-10 10s4.459 10 10 10z" fill="#2775CA"/><path d="M102.253 264.588c0-1.458-.875-1.958-2.625-2.166-1.25-.167-1.5-.5-1.5-1.084 0-.583.417-.958 1.25-.958.75 0 1.167.25 1.375.875a.314.314 0 0 0 .292.208h.666a.285.285 0 0 0 .292-.291v-.042a2.081 2.081 0 0 0-1.875-1.708v-1c0-.167-.125-.292-.333-.334h-.625c-.167 0-.292.125-.334.334v.958c-1.25.167-2.041 1-2.041 2.042 0 1.375.833 1.916 2.583 2.125 1.167.208 1.542.458 1.542 1.125 0 .666-.584 1.125-1.375 1.125-1.084 0-1.459-.459-1.584-1.084-.041-.166-.166-.25-.291-.25h-.709a.285.285 0 0 0-.291.292v.042c.166 1.041.833 1.791 2.208 2v1c0 .166.125.291.333.333h.625c.167 0 .292-.125.334-.333v-1c1.25-.209 2.083-1.084 2.083-2.209z" fill="#fff"/><path d="M97.378 268.963c-3.25-1.166-4.917-4.791-3.708-8 .625-1.75 2-3.083 3.708-3.708.167-.083.25-.208.25-.417v-.583c0-.167-.083-.292-.25-.333-.042 0-.125 0-.167.041-3.958 1.25-6.125 5.459-4.875 9.417a7.496 7.496 0 0 0 4.875 4.875c.167.083.334 0 .375-.167.042-.041.042-.083.042-.166v-.584c0-.125-.125-.291-.25-.375zm4.417-13c-.167-.083-.334 0-.375.167-.042.042-.042.083-.042.167v.583c0 .167.125.333.25.417 3.25 1.166 4.917 4.791 3.708 8a6.164 6.164 0 0 1-3.708 3.708c-.167.083-.25.208-.25.417v.583c0 .167.083.292.25.333.042 0 .125 0 .167-.041 3.958-1.25 6.125-5.459 4.875-9.417a7.559 7.559 0 0 0-4.875-4.917z" fill="#fff"/></g><path d="M117.23 258.529v4.772c0 .477.117.844.352 1.102.235.257.579.386 1.034.386.454 0 .803-.129 1.045-.386.242-.258.364-.625.364-1.102v-4.772h1.943v4.76c0 .712-.152 1.315-.455 1.807a2.904 2.904 0 0 1-1.227 1.113 3.807 3.807 0 0 1-1.704.375c-.629 0-1.193-.121-1.693-.363a2.803 2.803 0 0 1-1.171-1.114c-.287-.5-.431-1.106-.431-1.818v-4.76h1.943zm8.988 8.055c-.583 0-1.106-.094-1.568-.284a2.598 2.598 0 0 1-1.114-.84c-.272-.372-.416-.819-.431-1.341h2.068c.03.295.132.522.306.682.175.151.402.227.682.227.288 0 .515-.065.682-.193a.681.681 0 0 0 .25-.557.642.642 0 0 0-.205-.489 1.512 1.512 0 0 0-.488-.318 7.49 7.49 0 0 0-.818-.284 9.005 9.005 0 0 1-1.262-.477 2.324 2.324 0 0 1-.84-.705c-.235-.31-.353-.715-.353-1.215 0-.743.269-1.322.807-1.739.538-.424 1.239-.636 2.102-.636.879 0 1.587.212 2.125.636.538.417.826 1 .863 1.75h-2.102c-.015-.258-.109-.458-.284-.602-.174-.152-.397-.227-.67-.227-.235 0-.424.064-.568.193-.144.121-.216.299-.216.534 0 .257.121.458.364.602.242.144.621.299 1.136.466.515.174.931.341 1.25.5.325.159.606.39.84.693.235.303.353.693.353 1.17 0 .455-.118.867-.353 1.239-.227.371-.56.666-.999.886-.44.22-.959.329-1.557.329zm7.093-8.055c.84 0 1.575.166 2.204.5a3.518 3.518 0 0 1 1.454 1.408c.349.599.523 1.292.523 2.08 0 .78-.174 1.473-.523 2.079a3.507 3.507 0 0 1-1.465 1.409c-.629.333-1.36.5-2.193.5h-2.989v-7.976h2.989zm-.125 6.294c.734 0 1.306-.2 1.715-.602.409-.401.614-.97.614-1.704 0-.735-.205-1.307-.614-1.716-.409-.409-.981-.614-1.715-.614h-.921v4.636h.921zm5.062-2.318c0-.787.171-1.488.512-2.102a3.612 3.612 0 0 1 1.42-1.443c.613-.348 1.306-.522 2.079-.522.947 0 1.757.25 2.432.75.674.5 1.124 1.181 1.352 2.045h-2.136a1.717 1.717 0 0 0-.682-.761 1.864 1.864 0 0 0-.989-.262c-.598 0-1.083.209-1.454.625-.371.417-.557.973-.557 1.67s.186 1.254.557 1.671c.371.416.856.625 1.454.625.372 0 .701-.088.989-.262.295-.174.523-.428.682-.761h2.136c-.228.863-.678 1.545-1.352 2.045-.675.493-1.485.739-2.432.739-.773 0-1.466-.171-2.079-.512a3.702 3.702 0 0 1-1.42-1.443c-.341-.613-.512-1.314-.512-2.102z" fill="#fff"/><path d="m155.138 261.869 3.282 3.408 3.535-3.408" stroke="#fff" stroke-width="1.704" stroke-linecap="round" stroke-linejoin="round"/><path d="M267.468 258.838v-1.443h2.885v10.11h-1.595v-8.667h-1.29zm5.057 3.48c0-1.599.268-2.847.804-3.744.546-.906 1.479-1.359 2.801-1.359s2.252.453 2.788 1.359c.545.897.818 2.145.818 3.744 0 1.618-.273 2.885-.818 3.8-.536.906-1.466 1.359-2.788 1.359-1.322 0-2.255-.453-2.801-1.359-.536-.915-.804-2.182-.804-3.8zm5.658 0c0-.748-.051-1.382-.153-1.9-.092-.517-.286-.938-.582-1.261-.296-.333-.735-.5-1.318-.5-.582 0-1.021.167-1.317.5-.296.323-.495.744-.596 1.261-.093.518-.139 1.152-.139 1.9 0 .777.046 1.429.139 1.956.092.527.286.952.582 1.276.305.323.749.485 1.331.485.583 0 1.022-.162 1.318-.485.305-.324.504-.749.596-1.276.093-.527.139-1.179.139-1.956zm4.072 5.284a.979.979 0 0 1-.721-.291.977.977 0 0 1-.292-.721.98.98 0 0 1 .292-.722.979.979 0 0 1 .721-.291c.277 0 .513.097.707.291a.982.982 0 0 1 .291.722.98.98 0 0 1-.291.721.963.963 0 0 1-.707.291zm2.499-5.284c0-1.599.268-2.847.804-3.744.546-.906 1.479-1.359 2.801-1.359s2.252.453 2.788 1.359c.545.897.818 2.145.818 3.744 0 1.618-.273 2.885-.818 3.8-.536.906-1.466 1.359-2.788 1.359-1.322 0-2.255-.453-2.801-1.359-.536-.915-.804-2.182-.804-3.8zm5.658 0c0-.748-.051-1.382-.153-1.9-.092-.517-.286-.938-.582-1.261-.296-.333-.735-.5-1.318-.5-.582 0-1.021.167-1.317.5-.296.323-.495.744-.596 1.261-.093.518-.139 1.152-.139 1.9 0 .777.046 1.429.139 1.956.092.527.286.952.582 1.276.305.323.749.485 1.331.485.583 0 1.022-.162 1.318-.485.305-.324.504-.749.596-1.276.093-.527.139-1.179.139-1.956zm3.226 0c0-1.599.268-2.847.804-3.744.546-.906 1.479-1.359 2.801-1.359s2.252.453 2.788 1.359c.545.897.818 2.145.818 3.744 0 1.618-.273 2.885-.818 3.8-.536.906-1.466 1.359-2.788 1.359-1.322 0-2.255-.453-2.801-1.359-.536-.915-.804-2.182-.804-3.8zm5.658 0c0-.748-.051-1.382-.153-1.9-.092-.517-.286-.938-.582-1.261-.296-.333-.735-.5-1.318-.5-.582 0-1.021.167-1.317.5-.296.323-.495.744-.596 1.261-.093.518-.139 1.152-.139 1.9 0 .777.046 1.429.139 1.956.092.527.286.952.582 1.276.305.323.749.485 1.331.485.583 0 1.022-.162 1.318-.485.305-.324.504-.749.596-1.276.093-.527.139-1.179.139-1.956z" fill="#fff"/><path d="M269.315 282.125c.1-.56.287-.973.56-1.24a1.4 1.4 0 0 1 1.03-.41c.187 0 .35.03.49.09.147.06.314.15.5.27.167.1.297.173.39.22.1.047.21.07.33.07a.66.66 0 0 0 .44-.16.708.708 0 0 0 .24-.47h.83c-.1.56-.29.977-.57 1.25-.273.267-.616.4-1.03.4-.186 0-.35-.03-.49-.09s-.303-.15-.49-.27a2.42 2.42 0 0 0-.38-.22.831.831 0 0 0-.34-.07.693.693 0 0 0-.46.17.7.7 0 0 0-.23.46h-.82zm10.608.4c0 .333-.084.647-.25.94-.16.293-.4.54-.72.74-.314.2-.687.32-1.12.36v.81h-.65v-.81c-.627-.06-1.134-.257-1.52-.59-.387-.333-.58-.773-.58-1.32h1.22c.02.26.103.477.25.65.146.167.356.273.63.32v-2.2a8.652 8.652 0 0 1-1.09-.34c-.28-.12-.52-.307-.72-.56-.194-.253-.29-.6-.29-1.04 0-.553.193-1.01.58-1.37.386-.367.893-.58 1.52-.64v-.81h.65v.81c.586.053 1.056.24 1.41.56.36.313.563.747.61 1.3h-1.22a.956.956 0 0 0-.24-.55 1.05 1.05 0 0 0-.56-.34v2.16c.446.107.81.22 1.09.34.28.113.516.297.71.55.193.247.29.59.29 1.03zm-3.68-3.1c0 .273.08.487.24.64.166.153.4.277.7.37v-2.02c-.287.033-.517.137-.69.31-.167.173-.25.407-.25.7zm1.59 4.2c.293-.047.523-.163.69-.35.166-.193.25-.423.25-.69 0-.267-.084-.473-.25-.62-.16-.153-.39-.277-.69-.37v2.03zm5.174-1.1c.066.333.21.587.43.76.22.173.516.26.89.26.473 0 .82-.187 1.04-.56.22-.373.33-1.01.33-1.91a1.57 1.57 0 0 1-.68.53c-.287.12-.6.18-.94.18-.434 0-.827-.087-1.18-.26a2.029 2.029 0 0 1-.84-.79c-.2-.353-.3-.78-.3-1.28 0-.733.213-1.317.64-1.75.433-.44 1.026-.66 1.78-.66.906 0 1.55.303 1.93.91.386.6.58 1.523.58 2.77 0 .86-.074 1.563-.22 2.11-.14.547-.387.96-.74 1.24-.354.28-.844.42-1.47.42-.714 0-1.264-.187-1.65-.56-.387-.373-.604-.843-.65-1.41h1.05zm1.27-1.7c.4 0 .713-.123.94-.37.233-.253.35-.587.35-1 0-.46-.124-.817-.37-1.07-.24-.26-.57-.39-.99-.39-.42 0-.754.133-1 .4-.24.26-.36.603-.36 1.03 0 .407.116.743.35 1.01.24.26.6.39 1.08.39zm4.267 3.75a.707.707 0 0 1-.52-.21.706.706 0 0 1-.21-.52c0-.207.07-.38.21-.52.14-.14.314-.21.52-.21.2 0 .37.07.51.21.14.14.21.313.21.52 0 .207-.07.38-.21.52-.14.14-.31.21-.51.21zm3.222-2.05c.067.333.21.587.43.76.22.173.517.26.89.26.474 0 .82-.187 1.04-.56.22-.373.33-1.01.33-1.91-.16.227-.386.403-.68.53-.286.12-.6.18-.94.18a2.65 2.65 0 0 1-1.18-.26 2.041 2.041 0 0 1-.84-.79c-.2-.353-.3-.78-.3-1.28 0-.733.214-1.317.64-1.75.434-.44 1.027-.66 1.78-.66.907 0 1.55.303 1.93.91.387.6.58 1.523.58 2.77 0 .86-.073 1.563-.22 2.11-.14.547-.386.96-.74 1.24-.353.28-.843.42-1.47.42-.713 0-1.263-.187-1.65-.56-.386-.373-.603-.843-.65-1.41h1.05zm1.27-1.7c.4 0 .714-.123.94-.37.234-.253.35-.587.35-1 0-.46-.123-.817-.37-1.07-.24-.26-.57-.39-.99-.39-.42 0-.753.133-1 .4-.24.26-.36.603-.36 1.03 0 .407.117.743.35 1.01.24.26.6.39 1.08.39zm8.278-2.73-2.78 6.41h-1.15l2.81-6.29h-3.7v-.97h4.82v.85zM85.603 317.664c0 .321-.076.624-.228.909-.151.285-.394.518-.727.7-.333.176-.76.264-1.281.264H82.22v2.563h-1.036v-6.317h2.181c.485 0 .894.085 1.228.254.339.164.59.388.754.673.17.285.255.603.255.954zm-2.236 1.027c.393 0 .687-.087.881-.263.194-.182.291-.436.291-.764 0-.691-.39-1.036-1.172-1.036H82.22v2.063h1.145zm4.26-.872c.152-.255.352-.452.6-.591.254-.145.554-.218.9-.218v1.072h-.264c-.406 0-.715.103-.927.309-.206.206-.309.564-.309 1.073v2.636h-1.036v-5.008h1.036v.727zm2.98-1.391a.643.643 0 0 1-.473-.191.642.642 0 0 1-.19-.472c0-.188.063-.346.19-.473a.643.643 0 0 1 .473-.191c.181 0 .336.064.463.191.128.127.191.285.191.473a.641.641 0 0 1-.19.472.632.632 0 0 1-.464.191zm.509.664v5.008h-1.037v-5.008h1.037zm1.015 2.499c0-.515.103-.966.309-1.354.212-.394.503-.697.872-.909.37-.212.794-.318 1.273-.318.606 0 1.106.145 1.5.436.4.285.67.694.809 1.227h-1.118a1.18 1.18 0 0 0-.437-.581c-.2-.14-.451-.21-.754-.21-.424 0-.764.152-1.018.455-.249.297-.373.715-.373 1.254 0 .54.124.961.373 1.264.254.303.594.454 1.018.454.6 0 .997-.263 1.19-.791h1.119a2.26 2.26 0 0 1-.818 1.219c-.4.296-.897.445-1.491.445-.479 0-.903-.106-1.273-.318a2.33 2.33 0 0 1-.872-.909c-.206-.394-.31-.849-.31-1.364zm10.386-.118c0 .188-.012.358-.037.509h-3.826c.03.4.178.721.445.964.267.242.594.363.982.363.557 0 .951-.233 1.181-.7h1.118c-.151.461-.427.84-.827 1.137-.394.29-.884.436-1.472.436-.479 0-.91-.106-1.291-.318a2.375 2.375 0 0 1-.89-.909c-.213-.394-.319-.849-.319-1.364 0-.515.103-.966.31-1.354.211-.394.505-.697.88-.909a2.651 2.651 0 0 1 1.31-.318c.472 0 .894.103 1.263.309.37.206.658.497.864.872.206.37.309.797.309 1.282zm-1.082-.327c-.006-.382-.142-.688-.409-.918-.267-.23-.597-.346-.991-.346-.357 0-.663.116-.918.346-.254.224-.406.53-.454.918h2.772zM84.466 340.1l-1.454-2.527h-.79v2.527h-1.037v-6.317h2.181c.485 0 .894.085 1.228.254.339.17.59.397.754.682.17.285.255.603.255.954a1.9 1.9 0 0 1-.364 1.128c-.236.333-.603.56-1.1.681l1.564 2.618h-1.237zm-2.245-3.354h1.145c.388 0 .68-.097.873-.291.2-.194.3-.454.3-.782 0-.327-.097-.581-.29-.763-.195-.188-.489-.282-.882-.282H82.22v2.118zm6.88 3.436c-.473 0-.9-.106-1.282-.318a2.356 2.356 0 0 1-.9-.909c-.218-.394-.327-.849-.327-1.364 0-.509.112-.96.336-1.354.224-.394.53-.697.918-.909a2.665 2.665 0 0 1 1.3-.318c.479 0 .912.106 1.3.318.388.212.694.515.918.909.224.394.336.845.336 1.354 0 .509-.115.961-.345 1.355-.23.394-.546.7-.945.918-.394.212-.83.318-1.31.318zm0-.9c.266 0 .515-.064.745-.191.236-.127.427-.318.573-.573.145-.254.218-.563.218-.927 0-.363-.07-.669-.21-.918a1.404 1.404 0 0 0-.554-.572 1.509 1.509 0 0 0-.745-.191c-.267 0-.515.063-.746.191a1.366 1.366 0 0 0-.536.572c-.133.249-.2.555-.2.918 0 .54.137.958.41 1.255.278.291.627.436 1.045.436zm8.16-4.19v5.008h-1.037v-.591c-.163.206-.379.37-.645.491-.26.115-.54.173-.836.173-.394 0-.749-.082-1.064-.246a1.806 1.806 0 0 1-.736-.727c-.176-.321-.264-.709-.264-1.163v-2.945h1.027v2.79c0 .449.112.794.337 1.036.224.237.53.355.918.355s.694-.118.918-.355c.23-.242.345-.587.345-1.036v-2.79h1.036zm2.576.845v2.772c0 .188.042.325.127.409.091.079.242.119.454.119h.637v.863h-.818c-.467 0-.825-.109-1.073-.327-.248-.218-.373-.573-.373-1.064v-2.772h-.59v-.845h.59v-1.246h1.046v1.246h1.218v.845h-1.218zm2.7-1.509a.645.645 0 0 1-.473-.191.642.642 0 0 1-.191-.472c0-.188.064-.346.191-.473a.645.645 0 0 1 .473-.191c.182 0 .336.064.464.191.127.127.19.285.19.473a.642.642 0 0 1-.19.472.634.634 0 0 1-.464.191zm.509.664v5.008h-1.036v-5.008h1.036zm3.887-.082c.394 0 .746.082 1.055.245.315.164.56.406.736.727.176.322.264.709.264 1.164v2.954h-1.027v-2.8c0-.448-.113-.79-.337-1.027-.224-.242-.53-.363-.918-.363s-.697.121-.927.363c-.224.237-.336.579-.336 1.027v2.8h-1.037v-5.008h1.037v.572c.169-.206.385-.366.645-.481.267-.116.549-.173.845-.173zm5.394 0c.388 0 .731.079 1.028.236.303.152.539.343.709.573v-.727h1.045v5.09c0 .46-.097.869-.291 1.227a2.087 2.087 0 0 1-.845.854c-.364.207-.8.31-1.309.31-.679 0-1.243-.161-1.691-.482a1.747 1.747 0 0 1-.763-1.291h1.027c.078.261.245.47.5.627.26.164.569.246.927.246.418 0 .754-.128 1.009-.382.26-.255.391-.624.391-1.109v-.836a2.142 2.142 0 0 1-1.737.836c-.436 0-.836-.109-1.199-.327a2.437 2.437 0 0 1-.855-.927 2.917 2.917 0 0 1-.309-1.355c0-.503.103-.948.309-1.336a2.304 2.304 0 0 1 2.054-1.227zm1.737 2.581a1.78 1.78 0 0 0-.219-.9 1.466 1.466 0 0 0-2.045-.581c-.23.127-.418.318-.563.572-.14.249-.209.546-.209.891 0 .346.069.649.209.909.145.261.333.461.563.6.237.133.485.2.746.2a1.462 1.462 0 0 0 1.299-.782c.146-.26.219-.563.219-.909zm-30.797 21.573c-.425 0-.806-.073-1.146-.218a1.914 1.914 0 0 1-.8-.637 1.602 1.602 0 0 1-.29-.954h1.108c.025.273.13.497.319.673.193.175.463.263.808.263.358 0 .637-.085.837-.254.2-.176.3-.4.3-.673a.719.719 0 0 0-.191-.518 1.195 1.195 0 0 0-.464-.309 6.618 6.618 0 0 0-.763-.237 7.954 7.954 0 0 1-1.01-.327 1.709 1.709 0 0 1-.654-.527c-.181-.236-.272-.551-.272-.945 0-.364.09-.682.272-.955.182-.272.437-.482.764-.627a2.781 2.781 0 0 1 1.136-.218c.612 0 1.112.154 1.5.463.394.303.612.722.654 1.255H84.23a.832.832 0 0 0-.327-.591c-.2-.164-.464-.245-.791-.245-.297 0-.54.075-.727.227-.188.151-.282.369-.282.654a.69.69 0 0 0 .173.482c.12.121.272.218.454.291.182.073.43.151.745.236.419.115.758.231 1.019.346.266.115.49.294.672.536.188.236.282.554.282.954 0 .322-.088.625-.264.909-.17.285-.42.515-.754.691-.327.17-.715.255-1.164.255zm4.44-6.79v6.726h-1.036v-6.726h1.036zm1.888 1.054a.643.643 0 0 1-.473-.191.641.641 0 0 1-.19-.472c0-.188.063-.346.19-.473a.643.643 0 0 1 .473-.191c.181 0 .336.064.463.191s.191.285.191.473a.641.641 0 0 1-.19.472.632.632 0 0 1-.464.191zm.509.664v5.008h-1.037v-5.008h1.037zm2.396.736a2.2 2.2 0 0 1 1.745-.818c.437 0 .834.109 1.191.327.364.212.649.512.855.9.206.388.309.833.309 1.336 0 .503-.103.955-.31 1.355a2.35 2.35 0 0 1-.854.927 2.242 2.242 0 0 1-1.19.327c-.382 0-.721-.076-1.018-.227a2.347 2.347 0 0 1-.728-.582v3.109h-1.036v-7.39H92.5v.736zm3.046 1.745c0-.345-.073-.642-.219-.891a1.387 1.387 0 0 0-.563-.572 1.488 1.488 0 0 0-1.49 0c-.231.133-.42.327-.564.581-.14.255-.21.555-.21.9 0 .346.07.649.21.909.145.255.333.449.563.582.236.133.485.2.745.2.267 0 .516-.067.746-.2.236-.139.424-.339.563-.6a1.83 1.83 0 0 0 .219-.909zm3.115-1.745a2.198 2.198 0 0 1 1.745-.818c.436 0 .833.109 1.191.327.363.212.648.512.854.9.206.388.309.833.309 1.336 0 .503-.103.955-.309 1.355a2.352 2.352 0 0 1-.854.927 2.245 2.245 0 0 1-1.191.327c-.382 0-.721-.076-1.018-.227a2.345 2.345 0 0 1-.727-.582v3.109h-1.036v-7.39h1.036v.736zm3.045 1.745a1.74 1.74 0 0 0-.218-.891 1.388 1.388 0 0 0-.564-.572 1.488 1.488 0 0 0-1.49 0c-.23.133-.419.327-.564.581a1.85 1.85 0 0 0-.21.9c0 .346.07.649.21.909.145.255.333.449.563.582.237.133.485.2.746.2.267 0 .515-.067.745-.2.237-.139.424-.339.564-.6.145-.26.218-.563.218-.909zm1.734 0c0-.503.103-.948.309-1.336a2.309 2.309 0 0 1 2.054-1.227c.394 0 .736.079 1.027.236.297.152.533.343.709.573v-.727h1.046v5.008h-1.046v-.745a2.069 2.069 0 0 1-.718.591 2.218 2.218 0 0 1-1.036.236 2.23 2.23 0 0 1-1.182-.327 2.443 2.443 0 0 1-.854-.927 2.917 2.917 0 0 1-.309-1.355zm4.099.018a1.79 1.79 0 0 0-.218-.9 1.466 1.466 0 0 0-2.045-.581 1.47 1.47 0 0 0-.564.572 1.8 1.8 0 0 0-.209.891c0 .346.07.649.209.909.146.261.334.461.564.6a1.498 1.498 0 0 0 1.491 0c.23-.133.415-.327.554-.582.145-.26.218-.563.218-.909zm4.424-2.581c.388 0 .731.079 1.028.236.303.152.539.343.709.573v-.727h1.045v5.09c0 .46-.097.869-.291 1.227a2.087 2.087 0 0 1-.845.854c-.364.207-.8.31-1.309.31-.679 0-1.242-.161-1.691-.482a1.747 1.747 0 0 1-.763-1.291h1.027c.079.261.245.47.5.627.26.164.569.246.927.246.418 0 .754-.128 1.009-.382.26-.255.391-.624.391-1.109v-.836a2.157 2.157 0 0 1-.718.6 2.149 2.149 0 0 1-1.019.236c-.436 0-.836-.109-1.199-.327a2.437 2.437 0 0 1-.855-.927 2.917 2.917 0 0 1-.309-1.355c0-.503.103-.948.309-1.336a2.304 2.304 0 0 1 2.054-1.227zm1.737 2.581a1.78 1.78 0 0 0-.219-.9 1.466 1.466 0 0 0-2.045-.581c-.23.127-.418.318-.563.572-.14.249-.209.546-.209.891 0 .346.069.649.209.909.145.261.333.461.563.6.237.133.485.2.746.2a1.462 1.462 0 0 0 1.299-.782c.146-.26.219-.563.219-.909zm6.996-.118c0 .188-.012.358-.036.509h-3.827c.031.4.179.721.446.964.266.242.593.363.981.363.558 0 .952-.233 1.182-.7h1.118c-.151.461-.427.84-.827 1.137-.394.29-.885.436-1.473.436a2.61 2.61 0 0 1-1.29-.318 2.373 2.373 0 0 1-.891-.909c-.212-.394-.318-.849-.318-1.364 0-.515.103-.966.309-1.354.212-.394.506-.697.881-.909a2.651 2.651 0 0 1 1.309-.318c.473 0 .894.103 1.264.309.369.206.657.497.863.872.206.37.309.797.309 1.282zm-1.081-.327c-.006-.382-.143-.688-.409-.918-.267-.23-.597-.346-.991-.346a1.32 1.32 0 0 0-.918.346c-.255.224-.406.53-.455.918h2.773z" fill="#7D7D7D"/><path d="M216.704 311.869v-.945h1.89v6.626h-1.045v-5.681h-.845zm6.848.2v1.854h2.181v.846h-2.181v1.936h2.454v.845h-3.491v-6.326h3.491v.845h-2.454zm7.811-.836v.845h-1.681v5.472h-1.036v-5.472h-1.691v-.845h4.408zm6.095 0v6.317h-1.036v-2.763h-2.973v2.763h-1.036v-6.317h1.036v2.709h2.973v-2.709h1.036zm8.979 1.563v.873h-4.836v-.873h4.836zm0 2.064v.872h-4.836v-.872h4.836zm3.874-2.991v-.945h1.891v6.626h-1.046v-5.681h-.845zm4.587 4.436-1.1 2.509h-.673l.646-2.509h1.127zm.642-.136v-.782l3.054-4.381h1.254v4.263h.845v.9h-.845v1.381h-1.018v-1.381h-3.29zm3.335-4.109-2.145 3.209h2.145v-3.209zm3.795 2.027c-.63-.315-.945-.812-.945-1.491 0-.327.082-.627.245-.9.164-.272.409-.487.736-.645.328-.164.728-.245 1.2-.245.467 0 .864.081 1.191.245.333.158.582.373.745.645.164.273.246.573.246.9 0 .34-.088.64-.264.9a1.693 1.693 0 0 1-.681.591c.345.127.618.336.818.627.2.285.3.621.3 1.009 0 .394-.1.743-.3 1.046-.2.303-.479.536-.837.699a2.887 2.887 0 0 1-1.218.246c-.454 0-.86-.082-1.218-.246a1.95 1.95 0 0 1-.827-.699c-.2-.303-.3-.652-.3-1.046s.1-.733.3-1.018c.2-.285.47-.491.809-.618zm2.427-1.363c0-.34-.106-.6-.318-.782-.212-.182-.503-.273-.873-.273-.363 0-.651.091-.863.273-.212.182-.318.445-.318.791 0 .303.109.551.327.745.224.188.509.282.854.282.346 0 .631-.097.855-.291a.94.94 0 0 0 .336-.745zm-1.191 1.818c-.4 0-.727.1-.981.3-.249.193-.373.475-.373.845 0 .345.121.627.364.845.242.212.572.318.99.318.412 0 .737-.109.973-.327.242-.218.364-.497.364-.836 0-.364-.125-.645-.373-.845-.243-.2-.564-.3-.964-.3zm7.006-2.082c-.067-.279-.188-.488-.364-.627-.176-.14-.421-.209-.736-.209-.479 0-.836.185-1.073.554-.236.364-.36.97-.372 1.818.157-.266.387-.472.69-.618.303-.145.631-.218.982-.218.4 0 .752.088 1.055.264.309.169.548.418.718.745.175.327.263.718.263 1.172 0 .425-.085.803-.254 1.137a1.855 1.855 0 0 1-.737.791c-.327.187-.721.281-1.181.281-.624 0-1.115-.136-1.473-.409-.351-.279-.6-.669-.745-1.172-.139-.503-.209-1.13-.209-1.882 0-2.218.782-3.327 2.345-3.327.606 0 1.082.164 1.427.491.352.327.558.73.618 1.209h-.954zm-1.1 1.573c-.37 0-.685.112-.945.336-.255.218-.382.536-.382.954 0 .418.118.752.354 1 .243.243.579.364 1.009.364.382 0 .682-.118.9-.355.224-.236.336-.551.336-.945 0-.412-.109-.739-.327-.982-.212-.248-.527-.372-.945-.372zm3.923 3.581a.645.645 0 0 1-.473-.191.642.642 0 0 1-.19-.473c0-.187.063-.345.19-.472a.64.64 0 0 1 .473-.191.63.63 0 0 1 .464.191.642.642 0 0 1 .191.472.643.643 0 0 1-.191.473.634.634 0 0 1-.464.191zm1.502-5.745v-.945h1.89v6.626h-1.045v-5.681h-.845zm7.514-.145-2.527 5.826h-1.046l2.554-5.717h-3.363v-.882h4.382v.773zm4.411-.491v4.027c0 .478.124.839.373 1.081.254.243.606.364 1.054.364.455 0 .806-.121 1.055-.364.254-.242.381-.603.381-1.081v-4.027h1.037v4.008c0 .516-.112.952-.337 1.309a2.077 2.077 0 0 1-.9.8c-.375.176-.79.264-1.245.264a2.9 2.9 0 0 1-1.245-.264 2.033 2.033 0 0 1-.882-.8c-.218-.357-.327-.793-.327-1.309v-4.008h1.036zm7.33 6.381c-.424 0-.806-.073-1.145-.218a1.918 1.918 0 0 1-.8-.637 1.6 1.6 0 0 1-.291-.954h1.109c.024.273.131.497.318.673.194.175.464.263.809.263.358 0 .637-.085.837-.254.2-.176.3-.4.3-.673a.72.72 0 0 0-.191-.518 1.205 1.205 0 0 0-.464-.309 6.465 6.465 0 0 0-.763-.236 7.91 7.91 0 0 1-1.009-.328 1.699 1.699 0 0 1-.655-.527c-.182-.236-.273-.551-.273-.945 0-.364.091-.682.273-.955.182-.272.436-.481.764-.627a2.78 2.78 0 0 1 1.136-.218c.612 0 1.112.155 1.5.464.394.303.612.721.654 1.254h-1.145a.83.83 0 0 0-.327-.591c-.2-.163-.464-.245-.791-.245-.297 0-.539.076-.727.227-.188.152-.282.37-.282.655 0 .193.057.354.173.481.121.121.272.218.454.291.182.073.43.152.745.236.419.116.758.231 1.019.346.266.115.49.294.672.536.188.237.282.555.282.955 0 .321-.088.624-.264.909a1.856 1.856 0 0 1-.754.69c-.327.17-.715.255-1.164.255zm5.468-6.381c.673 0 1.26.13 1.763.391.509.254.9.624 1.173 1.109.279.478.418 1.039.418 1.681 0 .643-.139 1.2-.418 1.673a2.73 2.73 0 0 1-1.173 1.091c-.503.248-1.09.372-1.763.372h-2.063v-6.317h2.063zm0 5.472c.739 0 1.306-.2 1.7-.6.394-.4.591-.964.591-1.691 0-.733-.197-1.306-.591-1.718-.394-.412-.961-.618-1.7-.618h-1.027v4.627h1.027zm4.036-2.327c0-.618.142-1.173.427-1.663a3.087 3.087 0 0 1 1.173-1.146 3.264 3.264 0 0 1 1.627-.418c.672 0 1.269.167 1.79.5a2.79 2.79 0 0 1 1.146 1.4h-1.246a1.675 1.675 0 0 0-.681-.746 2.032 2.032 0 0 0-1.009-.245c-.418 0-.791.094-1.118.282a1.985 1.985 0 0 0-.773.809c-.182.351-.273.76-.273 1.227 0 .467.091.876.273 1.227.188.352.445.624.773.818.327.188.7.282 1.118.282.381 0 .718-.082 1.009-.245.29-.164.518-.413.681-.746h1.246a2.79 2.79 0 0 1-1.146 1.4c-.521.327-1.118.491-1.79.491a3.298 3.298 0 0 1-1.627-.409 3.155 3.155 0 0 1-1.173-1.155 3.248 3.248 0 0 1-.427-1.663z" fill="#fff"/><path d="M269.197 345.537a7.937 7.937 0 1 0 0-15.874 7.937 7.937 0 0 0 0 15.874z" fill="#FF0420"/><path d="M267.016 339.823c-.478 0-.871-.115-1.176-.345-.302-.235-.453-.568-.453-1 0-.091.01-.202.03-.334.053-.296.127-.652.223-1.068.274-1.132.98-1.697 2.119-1.697.309 0 .587.053.832.16.246.103.439.259.58.469.14.206.211.453.211.741 0 .086-.01.196-.03.327-.061.366-.133.722-.218 1.068-.14.564-.384.986-.73 1.266-.346.275-.808.413-1.388.413zm.085-.889a.85.85 0 0 0 .573-.203c.161-.136.276-.344.344-.624.093-.387.163-.724.211-1.012.016-.087.024-.175.024-.266 0-.374-.191-.561-.573-.561a.867.867 0 0 0-.579.203c-.157.136-.27.344-.338.624a13.14 13.14 0 0 0-.217 1.012 1.355 1.355 0 0 0-.025.259c0 .379.194.568.58.568zM269.658 339.759c-.044 0-.078-.014-.102-.043a.147.147 0 0 1-.019-.111l.833-4.012a.175.175 0 0 1 .067-.112.184.184 0 0 1 .114-.043h1.605c.447 0 .805.095 1.074.284.274.19.411.463.411.821 0 .103-.012.21-.036.321-.101.474-.304.823-.61 1.05-.302.226-.716.339-1.243.339h-.815l-.277 1.352a.176.176 0 0 1-.067.111.178.178 0 0 1-.114.043h-.821zm2.136-2.358a.708.708 0 0 0 .441-.142.663.663 0 0 0 .253-.407c.012-.07.018-.132.018-.185 0-.12-.034-.21-.102-.272-.069-.066-.185-.099-.35-.099h-.724l-.23 1.105h.694z" fill="#fff"/><path d="m285.132 340.126 2.526-2.433-2.526-2.619" stroke="#fff" stroke-width="1.263" stroke-linecap="round" stroke-linejoin="round"/><path d="M310.69 337.6a7.937 7.937 0 1 1-15.874 0 7.937 7.937 0 0 1 15.874 0z" fill="#000"/><path fill-rule="evenodd" clip-rule="evenodd" d="M299.399 340.262a.802.802 0 0 1-.383-.681v-1.551a.333.333 0 0 1 .502-.288l3.5 2.041c.204.119.33.338.33.575v1.607a.398.398 0 0 1-.607.341l-3.342-2.044zm5.216-2.944c.205.119.33.339.331.575v3.261a.261.261 0 0 1-.136.231l-.765.431a.12.12 0 0 1-.031.013v-1.81a.668.668 0 0 0-.325-.573l-3.073-1.838v-2.044a.332.332 0 0 1 .501-.287l3.498 2.041zm1.532-2.408a.665.665 0 0 1 .332.576v4.762a.27.27 0 0 1-.141.234l-.726.392v-3.315a.666.666 0 0 0-.323-.571l-3.141-1.885v-1.938c0-.059.016-.117.044-.167a.335.335 0 0 1 .456-.121l3.499 2.033z" fill="#00D395"/><path d="M289.421 358.924v.872h-3.736v-.872h3.736zm1.336.327c0-1.049.175-1.867.527-2.454.357-.594.969-.891 1.836-.891.866 0 1.475.297 1.827.891.357.587.536 1.405.536 2.454 0 1.06-.179 1.89-.536 2.49-.352.594-.961.891-1.827.891-.867 0-1.479-.297-1.836-.891-.352-.6-.527-1.43-.527-2.49zm3.708 0a6.55 6.55 0 0 0-.1-1.245c-.06-.34-.188-.616-.382-.828-.193-.218-.481-.327-.863-.327s-.67.109-.864.327c-.194.212-.324.488-.39.828a7.18 7.18 0 0 0-.091 1.245c0 .509.03.936.091 1.281.06.346.187.625.381.837.2.212.491.318.873.318s.67-.106.863-.318c.2-.212.331-.491.391-.837.061-.345.091-.772.091-1.281zm2.669 3.463a.64.64 0 0 1-.472-.191.64.64 0 0 1-.191-.473c0-.187.063-.345.191-.472a.64.64 0 0 1 .472-.191c.182 0 .336.064.464.191a.642.642 0 0 1 .191.472.643.643 0 0 1-.191.473.634.634 0 0 1-.464.191zm2.211-1.473a34.779 34.779 0 0 0 1.372-1.236c.34-.327.622-.666.846-1.018.224-.351.336-.703.336-1.054 0-.364-.088-.649-.263-.855-.17-.206-.44-.309-.809-.309-.358 0-.637.115-.837.346-.194.224-.297.527-.309.909h-1c.019-.691.225-1.218.618-1.582.4-.37.906-.554 1.518-.554.661 0 1.176.181 1.546.545.375.364.563.848.563 1.454 0 .437-.112.858-.336 1.264-.218.4-.482.76-.791 1.082-.303.315-.691.681-1.163 1.099l-.409.364h2.881v.863h-4.418v-.754l.655-.564zm4.51-3.617c0-.443.127-.788.382-1.036.26-.255.593-.382.999-.382s.737.127.991.382c.261.248.391.593.391 1.036 0 .442-.13.791-.391 1.045-.254.255-.585.382-.991.382s-.739-.127-.999-.382c-.255-.254-.382-.603-.382-1.045zm5.545-1.3-3.627 6.326h-1.018l3.627-6.326h1.018zm-4.164.509c-.381 0-.572.264-.572.791 0 .533.191.8.572.8a.496.496 0 0 0 .419-.191c.103-.134.154-.337.154-.609 0-.527-.191-.791-.573-.791zm2.318 4.508c0-.442.128-.787.382-1.036.261-.254.594-.382 1-.382.4 0 .727.128.982.382.26.249.391.594.391 1.036 0 .443-.131.791-.391 1.046-.255.254-.582.382-.982.382-.406 0-.739-.128-1-.382-.254-.255-.382-.603-.382-1.046zm1.373-.79c-.382 0-.573.263-.573.79 0 .528.191.791.573.791.382 0 .573-.263.573-.791 0-.527-.191-.79-.573-.79z" fill="#FF5151"/><rect x="80.503" y="377.696" width="230.186" height="29.542" rx="6.817" fill="#0085FF"/><path d="M167.471 391.794c0-1.903.341-3.394 1.024-4.472.693-1.079 1.837-1.618 3.433-1.618 1.595 0 2.734.539 3.416 1.618.693 1.078 1.04 2.569 1.04 4.472 0 1.915-.347 3.417-1.04 4.506-.682 1.09-1.821 1.634-3.416 1.634-1.596 0-2.74-.544-3.433-1.634-.683-1.089-1.024-2.591-1.024-4.506zm6.635 0c0-.814-.055-1.496-.165-2.046-.099-.561-.308-1.018-.627-1.37-.308-.352-.77-.528-1.386-.528-.617 0-1.084.176-1.403.528-.308.352-.518.809-.628 1.37-.099.55-.148 1.232-.148 2.046 0 .837.049 1.541.148 2.113.099.561.309 1.018.628 1.37.319.341.786.512 1.403.512.616 0 1.083-.171 1.402-.512.32-.352.529-.809.628-1.37.099-.572.148-1.276.148-2.113zm3.771-2.904c0-.837.242-1.491.726-1.964.496-.474 1.128-.71 1.899-.71.77 0 1.397.236 1.881.71.495.473.743 1.127.743 1.964 0 .847-.248 1.507-.743 1.98-.484.473-1.111.71-1.881.71-.771 0-1.403-.237-1.899-.71-.484-.473-.726-1.133-.726-1.98zm10.596-2.476-6.486 11.553h-2.245l6.47-11.553h2.261zm-7.988 1.188c-.605 0-.908.429-.908 1.288 0 .869.303 1.303.908 1.303.297 0 .528-.104.693-.313.165-.22.248-.55.248-.99 0-.859-.314-1.288-.941-1.288zm4.638 7.873c0-.847.242-1.502.726-1.964.495-.473 1.128-.71 1.898-.71s1.392.237 1.865.71c.484.462.726 1.117.726 1.964s-.242 1.507-.726 1.981c-.473.473-1.095.709-1.865.709-.781 0-1.414-.236-1.898-.709-.484-.474-.726-1.134-.726-1.981zm2.608-1.287c-.627 0-.941.429-.941 1.287 0 .869.314 1.304.941 1.304.616 0 .924-.435.924-1.304 0-.858-.308-1.287-.924-1.287zm15.405-7.741v1.865h-4.803v2.954h3.681v1.832h-3.681v4.869h-2.311v-11.52h7.114zm10.139 6.75c0 .33-.022.628-.066.892h-6.685c.055.66.286 1.177.693 1.551.407.374.908.561 1.502.561.859 0 1.469-.368 1.832-1.106h2.493a4.212 4.212 0 0 1-1.519 2.179c-.748.561-1.667.842-2.756.842-.88 0-1.673-.193-2.377-.578a4.253 4.253 0 0 1-1.634-1.667c-.385-.715-.578-1.54-.578-2.476 0-.946.193-1.777.578-2.492a4.026 4.026 0 0 1 1.618-1.65c.693-.385 1.491-.578 2.393-.578.869 0 1.645.187 2.327.561a3.872 3.872 0 0 1 1.601 1.601c.385.682.578 1.469.578 2.36zm-2.394-.66c-.011-.594-.225-1.067-.643-1.419-.418-.363-.93-.545-1.535-.545-.572 0-1.057.176-1.453.528-.385.341-.621.82-.709 1.436h4.34zm12.58.66c0 .33-.022.628-.066.892h-6.684c.055.66.286 1.177.693 1.551.407.374.908.561 1.502.561.858 0 1.469-.368 1.832-1.106h2.492a4.205 4.205 0 0 1-1.518 2.179c-.748.561-1.667.842-2.757.842-.88 0-1.672-.193-2.376-.578a4.253 4.253 0 0 1-1.634-1.667c-.385-.715-.578-1.54-.578-2.476 0-.946.193-1.777.578-2.492a4.03 4.03 0 0 1 1.617-1.65c.693-.385 1.491-.578 2.393-.578.87 0 1.645.187 2.328.561a3.878 3.878 0 0 1 1.601 1.601c.385.682.577 1.469.577 2.36zm-2.393-.66c-.011-.594-.226-1.067-.644-1.419-.418-.363-.929-.545-1.535-.545-.572 0-1.056.176-1.452.528-.385.341-.622.82-.71 1.436h4.341z" fill="#fff"/><rect x="69.224" y="81.67" width="252.745" height="339.818" rx="15.4" stroke="url(#o)" stroke-width="1.2" shape-rendering="crispEdges"/></g></g><defs><linearGradient id="c" x1="38.39" y1="349.792" x2="152.897" y2="464" gradientUnits="userSpaceOnUse"><stop stop-color="#EF9011"/><stop offset="1" stop-color="#EF9011" stop-opacity="0"/></linearGradient><linearGradient id="d" x1="106.723" y1="-.151" x2="0" y2="106.572" gradientUnits="userSpaceOnUse"><stop stop-color="#FF8BB3"/><stop offset="1" stop-color="#FF8BB3" stop-opacity="0"/></linearGradient><linearGradient id="g" x1="69.152" y1="81.069" x2="298.942" y2="437.31" gradientUnits="userSpaceOnUse"><stop stop-color="#424F62"/><stop offset="1" stop-color="#1E242D"/></linearGradient><linearGradient id="o" x1="69.152" y1="81.069" x2="209.388" y2="337.234" gradientUnits="userSpaceOnUse"><stop stop-color="#fff"/><stop offset="1" stop-color="#fff" stop-opacity="0"/></linearGradient><clipPath id="a"><path fill="#fff" d="M0 0h375v503H0z"/></clipPath><clipPath id="h"><path fill="#fff" transform="translate(94.11 151.144)" d="M0 0h10.011v14.015H0z"/></clipPath><clipPath id="n"><path fill="#fff" transform="translate(89.503 253.005)" d="M0 0h20v20H0z"/></clipPath><filter id="b" x="-58" y="18" width="420.776" height="427.605" filterUnits="userSpaceOnUse" color-interpolation-filters="sRGB"><feFlood flood-opacity="0" result="BackgroundImageFix"/><feBlend in="SourceGraphic" in2="BackgroundImageFix" result="shape"/><feGaussianBlur stdDeviation="70" result="effect1_foregroundBlur_7284_39569"/></filter><filter id="e" x="83" y="128" width="352" height="358" filterUnits="userSpaceOnUse" color-interpolation-filters="sRGB"><feFlood flood-opacity="0" result="BackgroundImageFix"/><feBlend in="SourceGraphic" in2="BackgroundImageFix" result="shape"/><feGaussianBlur stdDeviation="60" result="effect1_foregroundBlur_7284_39569"/></filter><filter id="f" x="62.589" y="75.035" width="306.243" height="393.315" filterUnits="userSpaceOnUse" color-interpolation-filters="sRGB"><feFlood flood-opacity="0" result="BackgroundImageFix"/><feColorMatrix in="SourceAlpha" values="0 0 0 0 0 0 0 0 0 0 0 0 0 0 0 0 0 0 127 0" result="hardAlpha"/><feOffset dx="20.114" dy="20.114"/><feGaussianBlur stdDeviation="13.074"/><feComposite in2="hardAlpha" operator="out"/><feColorMatrix values="0 0 0 0 0 0 0 0 0 0 0 0 0 0 0 0 0 0 0.3 0"/><feBlend in2="BackgroundImageFix" result="effect1_dropShadow_7284_39569"/><feBlend in="SourceGraphic" in2="effect1_dropShadow_7284_39569" result="shape"/></filter></defs></svg>