<svg width="375" height="503" fill="none" xmlns="http://www.w3.org/2000/svg"><g clip-path="url(#a)"><g filter="url(#b)"><rect x="157.48" y="108.866" width="166.154" height="59.077" rx="12.391" transform="rotate(90 157.48 108.866)" fill="#3772FF"/></g><g filter="url(#c)"><rect x="267.303" y="230.427" width="166.154" height="59.077" rx="12.391" transform="rotate(90 267.303 230.427)" fill="#FF8BB3"/></g><g filter="url(#d)"><g clip-path="url(#e)"><rect x="71" y="50" width="229.373" height="408" rx="16" fill="#171D25"/><rect x="71" y="50" width="229.373" height="408" rx="16" fill="url(#f)"/><rect x="71" y="50" width="229.373" height="408" rx="16" fill="#1E242D"/><rect x="71" y="50" width="229.373" height="408" rx="16" fill="url(#g)" fill-opacity=".2"/><path d="M88.593 76.287a4.123 4.123 0 0 1-2.032-.513 3.905 3.905 0 0 1-1.463-1.43c-.357-.617-.536-1.31-.536-2.076 0-.767.179-1.455.536-2.065a3.904 3.904 0 0 1 1.463-1.43 4.123 4.123 0 0 1 2.031-.513c.737 0 1.41.171 2.021.514a3.72 3.72 0 0 1 1.452 1.429c.357.61.535 1.298.535 2.065 0 .767-.178 1.459-.535 2.077a3.822 3.822 0 0 1-1.452 1.429 4.06 4.06 0 0 1-2.02.513zm0-1.742c.625 0 1.123-.208 1.495-.625.38-.416.57-.967.57-1.652 0-.692-.19-1.243-.57-1.652-.372-.417-.87-.626-1.495-.626-.633 0-1.14.205-1.519.615-.372.409-.558.963-.558 1.663 0 .692.186 1.247.558 1.663.38.41.886.615 1.519.615zm7.872-.122 1.35-4.444h2.032l-2.21 6.23h-2.356l-2.21-6.23h2.043l1.35 4.444zm10.058-1.43c0 .18-.011.365-.033.559h-4.321c.03.387.153.685.369.893.223.201.495.302.815.302.476 0 .807-.201.993-.603h2.032c-.104.409-.294.777-.569 1.105a2.776 2.776 0 0 1-1.016.77c-.409.186-.867.28-1.373.28-.611 0-1.154-.131-1.63-.391a2.777 2.777 0 0 1-1.117-1.117c-.268-.484-.402-1.05-.402-1.697s.131-1.213.391-1.697c.268-.484.64-.856 1.117-1.116.476-.26 1.023-.39 1.641-.39.603 0 1.139.126 1.607.379.469.253.834.614 1.095 1.083.267.469.401 1.016.401 1.64zm-1.953-.502c0-.327-.112-.588-.335-.781-.224-.194-.503-.29-.838-.29-.32 0-.591.093-.815.279-.215.186-.349.45-.401.792h2.389zm4.87-1.473c.223-.343.502-.61.837-.804.335-.201.707-.302 1.116-.302v2.021h-.524c-.477 0-.834.104-1.072.313-.238.2-.357.558-.357 1.072v2.891h-1.909v-6.23h1.909v1.039zm5.668 3.405 1.351-4.444h2.032l-2.211 6.23h-2.355l-2.211-6.23h2.043l1.351 4.444zm5.146-5.091c-.334 0-.61-.097-.826-.29a.985.985 0 0 1-.312-.737c0-.298.104-.544.312-.737.216-.201.492-.302.826-.302.328 0 .596.101.804.302.216.193.324.439.324.737 0 .29-.108.536-.324.737-.208.193-.476.29-.804.29zm.949.647v6.23h-1.909v-6.23h1.909zm7.256 3.015c0 .178-.011.364-.033.558h-4.321c.03.387.153.685.369.893.223.201.495.302.815.302.476 0 .807-.201.993-.603h2.032c-.104.409-.294.777-.569 1.105a2.776 2.776 0 0 1-1.016.77c-.41.186-.867.28-1.373.28-.611 0-1.154-.131-1.63-.391a2.777 2.777 0 0 1-1.117-1.117c-.268-.484-.402-1.05-.402-1.697s.131-1.213.391-1.697c.268-.484.64-.856 1.117-1.116.476-.26 1.023-.39 1.641-.39.603 0 1.138.126 1.607.379.469.253.834.614 1.094 1.083.268.469.402 1.016.402 1.64zm-1.953-.503c0-.327-.112-.588-.335-.781-.224-.194-.503-.29-.838-.29-.32 0-.591.093-.815.279-.216.186-.349.45-.402.792h2.39zm11.903-2.512-1.686 6.23h-2.11l-.982-4.041-1.016 4.041h-2.099l-1.697-6.23h1.909l.882 4.455 1.049-4.455h2.021l1.061 4.433.871-4.433h1.797z" fill="#fff"/><path d="M287.644 69.15a1.437 1.437 0 0 1 .719 1.256v4.698a1.438 1.438 0 0 1-.74 1.257l-4.313 2.756a1.44 1.44 0 0 1-1.396 0L277.6 76.36a1.435 1.435 0 0 1-.739-1.256v-4.7a1.437 1.437 0 0 1 .739-1.256l4.314-2.568a1.479 1.479 0 0 1 1.438 0l4.313 2.569h-.021z" stroke="#fff" stroke-width="1.438" stroke-linecap="round" stroke-linejoin="round"/><path d="M282.612 74.994a2.156 2.156 0 1 0 0-4.313 2.156 2.156 0 0 0 0 4.313z" stroke="#fff" stroke-width="1.438" stroke-linecap="round" stroke-linejoin="round"/><g filter="url(#h)"><ellipse cx="188.509" cy="165.096" rx="38.719" ry="68.888" transform="rotate(-81.474 188.509 165.096)" fill="#00CFF6"/></g><g filter="url(#i)"><ellipse cx="186.83" cy="164.844" rx="39.628" ry="64.313" transform="rotate(-81.474 186.83 164.844)" fill="#00CFF6"/></g><circle cx="187.414" cy="166.359" r="60.99" transform="rotate(7.748 187.414 166.359)" fill="#1F252D"/><circle cx="187.414" cy="166.359" r="60.99" transform="rotate(7.748 187.414 166.359)" fill="url(#j)"/><circle cx="187.414" cy="166.359" r="60.99" transform="rotate(7.748 187.414 166.359)" fill="url(#k)"/><path d="M159.419 166.438c0 .563-.146 1.093-.438 1.591-.281.487-.704.893-1.267 1.218-.552.314-1.207.498-1.965.552v1.315h-1.039v-1.331c-1.082-.098-1.954-.422-2.614-.974-.661-.563-1.002-1.321-1.023-2.274h2.436c.064.78.465 1.25 1.201 1.413v-3.102c-.779-.195-1.407-.389-1.884-.584a3.053 3.053 0 0 1-1.234-.942c-.346-.433-.519-1.023-.519-1.77 0-.942.335-1.711 1.006-2.306.683-.596 1.559-.937 2.631-1.023v-1.316h1.039v1.316c1.04.086 1.868.4 2.485.942.628.541.98 1.288 1.056 2.241h-2.453a1.44 1.44 0 0 0-.341-.812 1.469 1.469 0 0 0-.747-.504v3.069c.812.206 1.451.406 1.917.601.476.184.887.493 1.234.926.346.422.519 1.007.519 1.754zm-5.975-5.002c0 .357.108.65.324.877.217.217.531.395.942.536v-2.809c-.39.054-.698.2-.925.438-.228.238-.341.558-.341.958zm2.305 6.544c.412-.075.731-.243.959-.503.238-.26.357-.574.357-.942 0-.357-.114-.644-.341-.861-.228-.216-.552-.395-.975-.535v2.841zm12.087-7.161c-.108-.455-.298-.796-.568-1.023-.26-.227-.639-.341-1.137-.341-.747 0-1.299.303-1.656.909-.347.596-.526 1.57-.536 2.923.259-.433.638-.768 1.136-1.006a3.583 3.583 0 0 1 1.624-.374c.704 0 1.326.152 1.868.455a3.14 3.14 0 0 1 1.266 1.331c.303.574.455 1.267.455 2.079 0 .769-.157 1.456-.471 2.062a3.283 3.283 0 0 1-1.348 1.397c-.595.335-1.304.503-2.127.503-1.126 0-2.014-.249-2.663-.747-.639-.498-1.088-1.191-1.348-2.078-.249-.899-.373-2.003-.373-3.313 0-1.981.341-3.475 1.023-4.482.682-1.018 1.759-1.526 3.231-1.526 1.137 0 2.019.308 2.647.925.628.617.991 1.386 1.088 2.306h-2.111zm-1.656 2.955c-.574 0-1.056.168-1.446.504-.389.335-.584.823-.584 1.461 0 .639.178 1.143.536 1.511.368.368.882.552 1.542.552.585 0 1.045-.179 1.381-.536.346-.357.519-.839.519-1.445 0-.628-.168-1.126-.503-1.494-.325-.368-.807-.553-1.445-.553zm8.649 3.541-1.9 4.563h-1.461l1.055-4.563h2.306zm2.093-.179a62.421 62.421 0 0 0 2.485-2.16 10.288 10.288 0 0 0 1.543-1.819c.411-.627.617-1.245.617-1.851 0-.552-.13-.985-.39-1.299-.26-.314-.66-.471-1.202-.471-.541 0-.958.184-1.25.552-.292.358-.444.85-.455 1.478h-2.208c.043-1.299.427-2.284 1.153-2.955.736-.672 1.667-1.007 2.793-1.007 1.234 0 2.181.33 2.842.99.66.65.99 1.511.99 2.582a4.68 4.68 0 0 1-.682 2.42 9.736 9.736 0 0 1-1.559 2.013 51.985 51.985 0 0 1-2.289 2.047h4.79v1.883h-8.022v-1.689l.844-.714zm14.749-6.317c-.108-.455-.298-.796-.569-1.023-.259-.227-.638-.341-1.136-.341-.747 0-1.299.303-1.657.909-.346.596-.525 1.57-.535 2.923.259-.433.638-.768 1.136-1.006a3.583 3.583 0 0 1 1.624-.374c.704 0 1.326.152 1.868.455a3.14 3.14 0 0 1 1.266 1.331c.303.574.455 1.267.455 2.079 0 .769-.157 1.456-.471 2.062a3.283 3.283 0 0 1-1.348 1.397c-.595.335-1.304.503-2.127.503-1.126 0-2.014-.249-2.663-.747-.639-.498-1.088-1.191-1.348-2.078-.249-.899-.374-2.003-.374-3.313 0-1.981.341-3.475 1.023-4.482.682-1.018 1.76-1.526 3.232-1.526 1.137 0 2.019.308 2.647.925.628.617.99 1.386 1.088 2.306h-2.111zm-1.657 2.955c-.573 0-1.055.168-1.445.504-.389.335-.584.823-.584 1.461 0 .639.178 1.143.536 1.511.368.368.882.552 1.542.552.585 0 1.045-.179 1.381-.536.346-.357.519-.839.519-1.445 0-.628-.168-1.126-.503-1.494-.325-.368-.807-.553-1.446-.553zm13.863-3.946h-5.262v2.777c.228-.281.552-.509.975-.682a3.333 3.333 0 0 1 1.347-.276c.867 0 1.576.19 2.128.569.552.378.952.866 1.201 1.461a4.76 4.76 0 0 1 .374 1.884c0 1.245-.357 2.246-1.072 3.004-.703.758-1.71 1.137-3.02 1.137-1.234 0-2.22-.309-2.956-.926-.736-.617-1.153-1.424-1.25-2.42h2.208c.098.434.314.78.65 1.04.346.26.785.389 1.315.389.639 0 1.121-.2 1.446-.6.324-.401.487-.931.487-1.592 0-.671-.168-1.18-.504-1.526-.324-.357-.806-.536-1.445-.536-.455 0-.834.114-1.137.341-.303.227-.519.53-.649.909h-2.176v-6.95h7.34v1.997z" fill="#fff"/><path d="M207.637 169.815c-.411 0-.753-.124-1.023-.373-.26-.26-.39-.579-.39-.958s.13-.693.39-.942c.27-.26.612-.39 1.023-.39.4 0 .731.13.99.39.26.249.39.563.39.942s-.13.698-.39.958c-.259.249-.59.373-.99.373zm2.984-8.834c.054-1.082.433-1.916 1.137-2.5.714-.596 1.651-.893 2.809-.893.79 0 1.467.14 2.03.422.563.27.985.644 1.267 1.12.292.466.438.996.438 1.592 0 .682-.179 1.261-.536 1.737-.346.466-.763.78-1.25.942v.065c.628.195 1.115.541 1.461 1.039.357.498.536 1.137.536 1.916 0 .65-.151 1.229-.455 1.738-.292.509-.73.909-1.315 1.202-.574.281-1.267.422-2.079.422-1.223 0-2.219-.309-2.987-.926-.769-.617-1.175-1.526-1.218-2.728h2.208c.022.531.2.958.536 1.283.346.314.817.471 1.413.471.552 0 .974-.152 1.266-.455.304-.314.455-.714.455-1.201 0-.65-.206-1.116-.617-1.397-.411-.281-1.05-.422-1.916-.422h-.471v-1.868h.471c1.537 0 2.306-.514 2.306-1.542 0-.466-.141-.829-.422-1.088-.271-.26-.666-.39-1.186-.39-.509 0-.904.141-1.185.422-.271.271-.428.617-.471 1.039h-2.225zm9.413-1.023v-2.094h3.913v11.838h-2.338v-9.744h-1.575z" fill="#8E9196"/><path d="M176.725 182.715h-1.945v1.973h-.777v-1.973h-1.936v-.704h1.936v-1.982h.777v1.982h1.945v.704zm1.248 2.32c.774-.621 1.38-1.13 1.818-1.526a7.42 7.42 0 0 0 1.105-1.251c.305-.438.457-.868.457-1.288 0-.396-.097-.706-.292-.932-.189-.231-.497-.347-.923-.347-.414 0-.737.131-.968.393-.225.256-.347.6-.365 1.032h-.804c.024-.682.231-1.209.621-1.58s.892-.557 1.507-.557c.627 0 1.124.173 1.489.52.371.348.557.826.557 1.435 0 .505-.152.998-.457 1.479a6.512 6.512 0 0 1-1.023 1.261c-.383.359-.874.779-1.47 1.26h3.142v.695h-4.394v-.594zm5.894.731a.645.645 0 0 1-.475-.192.645.645 0 0 1-.192-.475c0-.189.064-.347.192-.475a.645.645 0 0 1 .475-.192c.182 0 .338.064.466.192a.648.648 0 0 1 .191.475.648.648 0 0 1-.191.475.636.636 0 0 1-.466.192zm1.646-3.481c0-1.053.176-1.875.53-2.466.359-.597.974-.895 1.845-.895s1.483.298 1.836.895c.359.591.539 1.413.539 2.466 0 1.066-.18 1.9-.539 2.503-.353.597-.965.895-1.836.895-.871 0-1.486-.298-1.845-.895-.354-.603-.53-1.437-.53-2.503zm3.727 0c0-.493-.034-.91-.101-1.251-.061-.341-.189-.618-.383-.831-.195-.219-.485-.329-.868-.329-.384 0-.673.11-.868.329-.195.213-.326.49-.393.831a7.254 7.254 0 0 0-.091 1.251c0 .512.03.941.091 1.288.061.347.189.628.384.841.201.213.493.319.877.319.383 0 .673-.106.868-.319.2-.213.331-.494.392-.841s.092-.776.092-1.288zm1.997 2.028v-.785l3.069-4.403h1.26v4.284h.85v.904h-.85v1.389h-1.023v-1.389h-3.306zm3.352-4.128-2.156 3.224h2.156v-3.224zm2.525.465c0-.444.128-.791.384-1.041.262-.256.597-.384 1.005-.384.408 0 .74.128.995.384.262.25.393.597.393 1.041 0 .445-.131.795-.393 1.051-.255.256-.587.383-.995.383-.408 0-.743-.127-1.005-.383-.256-.256-.384-.606-.384-1.051zm5.572-1.306-3.644 6.358h-1.023l3.644-6.358h1.023zm-4.183.512c-.384 0-.576.265-.576.794 0 .536.192.804.576.804a.498.498 0 0 0 .42-.192c.103-.134.155-.338.155-.612 0-.529-.192-.794-.575-.794zm2.329 4.53c0-.444.128-.791.384-1.041.261-.256.596-.384 1.004-.384.402 0 .731.128.987.384.262.25.393.597.393 1.041 0 .445-.131.795-.393 1.051-.256.256-.585.383-.987.383-.408 0-.743-.127-1.004-.383-.256-.256-.384-.606-.384-1.051zm1.379-.794c-.383 0-.575.265-.575.794 0 .53.192.795.575.795.384 0 .576-.265.576-.795 0-.529-.192-.794-.576-.794z" fill="#1DC981"/><g filter="url(#l)"><rect x="84.194" y="249.94" width="205" height="67" rx="14.331" fill="#303947"/><rect x="103.872" y="260.222" width="28.661" height="28.661" rx="14.331" fill="#0085FF"/><path d="M114.62 274.552h7.165M118.202 278.135v-7.165" stroke="#fff" stroke-width=".896" stroke-linecap="round" stroke-linejoin="round"/><path d="m105.451 302.659-1.338-2.324h-.727v2.324h-.953v-5.81h2.006c.446 0 .822.078 1.129.234.312.156.543.365.694.627.156.262.234.555.234.878 0 .379-.112.725-.335 1.037-.217.306-.554.515-1.011.627l1.438 2.407h-1.137zm-2.065-3.084h1.053c.357 0 .624-.09.803-.268.184-.178.276-.418.276-.719s-.09-.535-.268-.702c-.178-.173-.448-.259-.811-.259h-1.053v1.948zm8.55.668c0 .173-.011.329-.033.468h-3.519c.027.368.164.664.409.887.245.222.546.334.903.334.513 0 .875-.215 1.087-.644h1.028a2.084 2.084 0 0 1-.761 1.045c-.362.268-.813.401-1.354.401-.44 0-.836-.097-1.187-.292a2.179 2.179 0 0 1-.819-.836 2.604 2.604 0 0 1-.293-1.254c0-.474.095-.889.284-1.246.195-.362.466-.64.811-.836a2.439 2.439 0 0 1 1.204-.292c.435 0 .822.095 1.162.284a2 2 0 0 1 .794.803c.19.34.284.732.284 1.178zm-.994-.301c-.006-.351-.131-.632-.377-.844-.245-.212-.549-.318-.911-.318-.329 0-.61.106-.844.318-.234.206-.374.488-.418.844h2.55zm1.614.41c0-.474.095-.889.285-1.246.195-.362.462-.64.802-.836a2.31 2.31 0 0 1 1.171-.292c.557 0 1.017.134 1.379.401.368.262.616.638.744 1.129h-1.028a1.087 1.087 0 0 0-.402-.535c-.184-.129-.415-.193-.693-.193-.391 0-.703.14-.937.418-.228.273-.342.658-.342 1.154 0 .496.114.883.342 1.162.234.279.546.418.937.418.551 0 .916-.243 1.095-.727h1.028a2.082 2.082 0 0 1-.753 1.12c-.367.273-.824.409-1.37.409a2.31 2.31 0 0 1-1.171-.292 2.144 2.144 0 0 1-.802-.836c-.19-.362-.285-.78-.285-1.254zm9.552-.109c0 .173-.011.329-.033.468h-3.52c.028.368.165.664.41.887.245.222.546.334.903.334.512 0 .875-.215 1.086-.644h1.029a2.09 2.09 0 0 1-.761 1.045c-.362.268-.814.401-1.354.401a2.4 2.4 0 0 1-1.187-.292 2.188 2.188 0 0 1-.82-.836c-.195-.362-.292-.78-.292-1.254s.095-.889.284-1.246a2.06 2.06 0 0 1 .811-.836 2.436 2.436 0 0 1 1.204-.292c.434 0 .822.095 1.162.284.34.19.604.457.794.803.189.34.284.732.284 1.178zm-.995-.301c-.005-.351-.131-.632-.376-.844-.245-.212-.549-.318-.911-.318-.329 0-.61.106-.844.318-.234.206-.374.488-.418.844h2.549zm2.418-2.499a.591.591 0 0 1-.435-.176.59.59 0 0 1-.176-.434c0-.173.059-.318.176-.435a.591.591 0 0 1 .435-.176.58.58 0 0 1 .426.176.591.591 0 0 1 .176.435.59.59 0 0 1-.176.434.58.58 0 0 1-.426.176zm.468.61v4.606h-.953v-4.606h.953zm3.032 3.754 1.304-3.754h1.011l-1.755 4.606h-1.137l-1.747-4.606h1.02l1.304 3.754zm7.257-1.564c0 .173-.011.329-.033.468h-3.52c.028.368.165.664.41.887.245.222.546.334.903.334.512 0 .875-.215 1.086-.644h1.029a2.09 2.09 0 0 1-.761 1.045c-.362.268-.814.401-1.354.401a2.4 2.4 0 0 1-1.187-.292 2.188 2.188 0 0 1-.82-.836c-.195-.362-.292-.78-.292-1.254s.095-.889.284-1.246a2.06 2.06 0 0 1 .811-.836 2.436 2.436 0 0 1 1.204-.292c.434 0 .822.095 1.162.284.34.19.604.457.794.803.189.34.284.732.284 1.178zm-.995-.301c-.005-.351-.131-.632-.376-.844-.245-.212-.549-.318-.911-.318-.329 0-.61.106-.844.318-.234.206-.374.488-.418.844h2.549z" fill="#fff"/><rect x="151.702" y="260.222" width="28.661" height="28.661" rx="14.331" fill="#EF9011"/><rect x="151.702" y="260.222" width="28.661" height="28.661" rx="14.331" fill="url(#m)"/><path fill-rule="evenodd" clip-rule="evenodd" d="M159.465 272.611c0-.247.2-.447.448-.447h11.942a.447.447 0 1 1 0 .895h-11.942a.447.447 0 0 1-.448-.448zM161.853 277.388c0-.247.201-.448.448-.448h1.194a.448.448 0 1 1 0 .896h-1.194a.448.448 0 0 1-.448-.448zM164.54 277.388c0-.247.201-.448.448-.448h2.388a.448.448 0 1 1 0 .896h-2.388a.448.448 0 0 1-.448-.448z" fill="#fff"/><path fill-rule="evenodd" clip-rule="evenodd" d="M160.758 270.469c-.254.251-.398.728-.398 1.778v4.909c0 1.05.144 1.527.398 1.777.255.251.741.393 1.804.39H169.204c1.063 0 1.55-.143 1.805-.395.254-.251.398-.728.398-1.778v-4.903c0-1.05-.144-1.527-.398-1.778-.257-.252-.745-.395-1.811-.395h-6.634c-1.064 0-1.55.143-1.806.395zm-.63-.637c.54-.534 1.379-.654 2.436-.654h6.634c1.059 0 1.899.12 2.44.654.543.536.664 1.37.664 2.415v4.903c0 1.045-.121 1.879-.663 2.415-.54.534-1.379.654-2.435.654h-6.64c-1.056.003-1.895-.116-2.435-.649-.542-.535-.664-1.369-.664-2.414v-4.909c0-1.045.122-1.879.663-2.415z" fill="#fff"/><path d="M161.99 299.675c.312.056.577.22.794.493.217.273.326.582.326.928 0 .295-.078.563-.234.802a1.571 1.571 0 0 1-.661.561c-.289.133-.626.2-1.011.2h-2.324v-5.81h2.215c.396 0 .736.067 1.02.201.284.134.499.315.644.543.145.223.217.474.217.753 0 .334-.089.613-.267.836a1.56 1.56 0 0 1-.719.493zm-2.157-.385h1.179c.312 0 .554-.069.727-.209.178-.145.267-.351.267-.618 0-.262-.089-.466-.267-.61-.173-.151-.415-.226-.727-.226h-1.179v1.663zm1.287 2.592c.324 0 .577-.078.761-.234.184-.156.276-.374.276-.652 0-.285-.098-.51-.293-.677-.195-.168-.454-.251-.777-.251h-1.254v1.814h1.287zm7.197-3.829v4.606h-.953v-.543c-.151.189-.348.34-.594.451a1.878 1.878 0 0 1-.769.159c-.362 0-.688-.075-.978-.226a1.66 1.66 0 0 1-.677-.668c-.161-.296-.242-.652-.242-1.07v-2.709h.944v2.566c0 .413.103.731.31.953.206.218.487.326.844.326s.638-.108.844-.326c.212-.222.318-.54.318-.953v-2.566h.953zm5.404 0-2.826 6.771h-.986l.936-2.24-1.814-4.531h1.062l1.295 3.511 1.346-3.511h.987z" fill="#fff"/><rect x="197.363" y="260.222" width="28.661" height="28.661" rx="14.331" fill="#2C3542"/><path d="M217.665 272.462a3.88 3.88 0 0 1-4.192 3.869 3.886 3.886 0 0 0-3.559-3.558c-.005-.102-.011-.209-.011-.311a3.88 3.88 0 1 1 7.762 0z" stroke="#fff" stroke-width=".896" stroke-linecap="round" stroke-linejoin="round"/><path d="M213.485 276.642a3.88 3.88 0 1 1-7.762 0 3.88 3.88 0 1 1 7.762 0zM207.866 268.581h-1.546a.6.6 0 0 0-.597.597v1.547c0 .531.645.8 1.021.424l1.546-1.547c.371-.376.108-1.021-.424-1.021zM215.521 280.523h1.547a.599.599 0 0 0 .597-.597v-1.546c0-.532-.645-.8-1.021-.424l-1.547 1.546c-.37.376-.107 1.021.424 1.021z" stroke="#fff" stroke-width=".896" stroke-linecap="round" stroke-linejoin="round"/><path d="M202.598 302.718c-.39 0-.741-.067-1.053-.201a1.753 1.753 0 0 1-.736-.585 1.477 1.477 0 0 1-.267-.878h1.019c.023.251.12.457.293.619.178.161.426.242.744.242.329 0 .585-.078.769-.234a.786.786 0 0 0 .276-.618.662.662 0 0 0-.176-.477 1.093 1.093 0 0 0-.426-.284 6.056 6.056 0 0 0-.702-.218c-.379-.1-.688-.2-.928-.3a1.574 1.574 0 0 1-.602-.485c-.167-.218-.251-.507-.251-.87 0-.334.084-.627.251-.877a1.6 1.6 0 0 1 .702-.577 2.55 2.55 0 0 1 1.045-.201c.563 0 1.023.142 1.38.426.362.279.562.664.601 1.154h-1.053a.762.762 0 0 0-.301-.543c-.184-.151-.426-.226-.727-.226-.273 0-.496.07-.669.209-.173.139-.259.34-.259.602 0 .178.053.326.159.443.111.111.251.201.418.267.167.067.395.14.685.218.385.106.697.212.937.317.245.106.451.271.618.494.173.217.259.51.259.877 0 .296-.081.574-.242.836a1.712 1.712 0 0 1-.694.636c-.301.156-.658.234-1.07.234zm9.317-4.665-1.43 4.606h-1.003l-.928-3.402-.928 3.402h-1.003l-1.438-4.606h.97l.961 3.703.978-3.703h.995l.937 3.687.952-3.687h.937zm.394 2.282c0-.462.095-.872.284-1.229a2.131 2.131 0 0 1 1.89-1.128c.362 0 .677.072.944.217.273.14.491.315.652.527v-.669h.962v4.606h-.962v-.685a1.886 1.886 0 0 1-.66.543 2.034 2.034 0 0 1-.953.217c-.396 0-.758-.1-1.087-.301a2.238 2.238 0 0 1-.786-.852 2.687 2.687 0 0 1-.284-1.246zm3.77.017c0-.318-.067-.594-.2-.828a1.35 1.35 0 0 0-.51-.535 1.351 1.351 0 0 0-.686-.184 1.35 1.35 0 0 0-.685.184 1.34 1.34 0 0 0-.518.527 1.643 1.643 0 0 0-.193.819c0 .318.064.597.193.836.133.24.306.424.518.552a1.37 1.37 0 0 0 1.371 0 1.35 1.35 0 0 0 .51-.535c.133-.24.2-.518.2-.836zm3.166-1.622c.162-.212.382-.39.661-.535.278-.145.593-.217.944-.217.402 0 .767.1 1.095.301.335.195.597.471.786.827.19.357.284.767.284 1.229 0 .463-.094.878-.284 1.246a2.142 2.142 0 0 1-.786.852 2.054 2.054 0 0 1-1.095.301c-.351 0-.663-.069-.936-.209a2.136 2.136 0 0 1-.669-.535v2.859h-.953v-6.796h.953v.677zm2.801 1.605c0-.317-.067-.59-.201-.819a1.278 1.278 0 0 0-.518-.527 1.351 1.351 0 0 0-.686-.184 1.38 1.38 0 0 0-.685.184 1.404 1.404 0 0 0-.518.535c-.129.234-.193.51-.193.828 0 .318.064.596.193.836.133.234.306.412.518.535a1.37 1.37 0 0 0 1.371 0c.217-.128.39-.312.518-.552.134-.239.201-.518.201-.836z" fill="#fff"/><path d="m254.608 271.161 5.069-1.69c2.275-.759 3.511.483 2.759 2.758l-1.69 5.07c-1.134 3.409-2.997 3.409-4.132 0l-.501-1.505-1.505-.502c-3.41-1.134-3.41-2.991 0-4.131zM256.226 275.537l2.138-2.143" stroke="#fff" stroke-width=".896" stroke-linecap="round" stroke-linejoin="round"/><rect x="243.323" y="260.52" width="28.064" height="28.064" rx="14.032" stroke="#0085FF" stroke-width=".597"/><path d="M249.247 302.718c-.39 0-.741-.067-1.054-.201a1.75 1.75 0 0 1-.735-.585 1.471 1.471 0 0 1-.268-.878h1.02c.022.251.12.457.293.619.178.161.426.242.744.242.329 0 .585-.078.769-.234a.786.786 0 0 0 .276-.618.662.662 0 0 0-.176-.477 1.093 1.093 0 0 0-.426-.284 6.056 6.056 0 0 0-.702-.218c-.379-.1-.689-.2-.928-.3a1.574 1.574 0 0 1-.602-.485c-.167-.218-.251-.507-.251-.87 0-.334.084-.627.251-.877a1.6 1.6 0 0 1 .702-.577 2.547 2.547 0 0 1 1.045-.201c.563 0 1.023.142 1.379.426.362.279.563.664.602 1.154h-1.053a.762.762 0 0 0-.301-.543c-.184-.151-.426-.226-.727-.226-.273 0-.496.07-.669.209-.173.139-.259.34-.259.602 0 .178.053.326.159.443.111.111.25.201.418.267.167.067.395.14.685.218.385.106.697.212.936.317.245.106.452.271.619.494.173.217.259.51.259.877 0 .296-.081.574-.242.836a1.718 1.718 0 0 1-.694.636c-.301.156-.658.234-1.07.234zm7.352-2.475c0 .173-.011.329-.033.468h-3.52c.028.368.165.664.41.887.245.222.546.334.903.334.512 0 .875-.215 1.086-.644h1.029a2.09 2.09 0 0 1-.761 1.045c-.362.268-.814.401-1.354.401a2.4 2.4 0 0 1-1.187-.292 2.188 2.188 0 0 1-.82-.836c-.195-.362-.292-.78-.292-1.254s.095-.889.284-1.246a2.06 2.06 0 0 1 .811-.836 2.436 2.436 0 0 1 1.204-.292c.434 0 .822.095 1.162.284.34.19.604.457.794.803.189.34.284.732.284 1.178zm-.995-.301c-.005-.351-.131-.632-.376-.844-.245-.212-.549-.318-.911-.318-.329 0-.61.106-.844.318-.235.206-.374.488-.418.844h2.549zm4.257-1.964c.362 0 .685.075.969.226.29.15.516.373.678.668.161.296.242.652.242 1.07v2.717h-.945v-2.575c0-.412-.103-.727-.309-.944-.206-.223-.488-.335-.844-.335-.357 0-.641.112-.853.335-.206.217-.309.532-.309.944v2.575h-.953v-4.606h.953v.527c.156-.19.354-.337.593-.443.246-.106.505-.159.778-.159zm2.787 2.357c0-.462.095-.872.284-1.229a2.124 2.124 0 0 1 2.784-.927c.295.128.529.3.702.518v-2.224h.961v6.186h-.961v-.694a1.774 1.774 0 0 1-.652.552 1.984 1.984 0 0 1-.945.217 2.1 2.1 0 0 1-1.103-.301 2.23 2.23 0 0 1-.786-.852 2.687 2.687 0 0 1-.284-1.246zm3.77.017c0-.318-.067-.594-.201-.828a1.35 1.35 0 0 0-.51-.535 1.348 1.348 0 0 0-.685-.184c-.245 0-.474.062-.686.184a1.354 1.354 0 0 0-.518.527 1.653 1.653 0 0 0-.192.819c0 .318.064.597.192.836.134.24.307.424.518.552a1.374 1.374 0 0 0 1.371 0 1.35 1.35 0 0 0 .51-.535c.134-.24.201-.518.201-.836z" fill="#fff"/></g><path d="M89.888 439.346c0 .359-.085.697-.254 1.015-.17.318-.44.578-.812.781-.372.197-.85.295-1.431.295h-1.279v2.862h-1.157v-7.054h2.436c.541 0 .998.095 1.37.284.379.183.66.433.842.751.19.318.285.674.285 1.066zm-2.497 1.147c.44 0 .768-.098.984-.294.217-.203.325-.488.325-.853 0-.771-.436-1.157-1.31-1.157h-1.278v2.304h1.279zm6.026 3.897a2.894 2.894 0 0 1-1.431-.355 2.637 2.637 0 0 1-1.005-1.015c-.244-.44-.365-.947-.365-1.522 0-.569.125-1.073.375-1.513a2.6 2.6 0 0 1 1.025-1.015 2.984 2.984 0 0 1 1.451-.355c.535 0 1.019.119 1.452.355a2.6 2.6 0 0 1 1.025 1.015c.25.44.375.944.375 1.513 0 .568-.128 1.072-.385 1.512-.257.44-.61.781-1.056 1.025a3.03 3.03 0 0 1-1.461.355zm0-1.005c.297 0 .575-.071.832-.213.264-.142.477-.355.64-.639.162-.284.243-.629.243-1.035 0-.406-.078-.748-.234-1.025a1.564 1.564 0 0 0-.619-.64 1.694 1.694 0 0 0-.832-.213c-.297 0-.575.071-.832.213-.25.142-.45.355-.599.64-.149.277-.223.619-.223 1.025 0 .602.152 1.069.457 1.4.31.325.7.487 1.167.487zm5.203-3.866a1.78 1.78 0 0 1 .67-.66c.284-.163.62-.244 1.005-.244v1.198h-.294c-.454 0-.799.115-1.036.345-.23.23-.345.629-.345 1.198v2.943h-1.157v-5.592h1.157v.812zm4.088.131v3.096c0 .21.048.362.142.457.102.088.271.132.508.132h.71v.964h-.913c-.521 0-.92-.122-1.198-.366-.277-.243-.416-.639-.416-1.187v-3.096h-.66v-.943h.66v-1.391h1.167v1.391h1.36v.943h-1.36zm4.771 0h-1.035v4.649h-1.167v-4.649h-.66v-.943h.66v-.396c0-.643.169-1.11.507-1.401.345-.298.883-.446 1.614-.446v.964c-.352 0-.599.067-.741.203-.142.128-.213.355-.213.68v.396h1.035v.943zm3.451 4.74a2.893 2.893 0 0 1-1.431-.355 2.642 2.642 0 0 1-1.005-1.015c-.243-.44-.365-.947-.365-1.522 0-.569.125-1.073.375-1.513a2.607 2.607 0 0 1 1.026-1.015 2.98 2.98 0 0 1 1.451-.355c.534 0 1.018.119 1.451.355.433.237.775.576 1.025 1.015.251.44.376.944.376 1.513 0 .568-.129 1.072-.386 1.512a2.7 2.7 0 0 1-1.055 1.025c-.44.237-.927.355-1.462.355zm0-1.005c.298 0 .575-.071.832-.213.264-.142.477-.355.64-.639.162-.284.243-.629.243-1.035 0-.406-.077-.748-.233-1.025a1.567 1.567 0 0 0-.619-.64 1.695 1.695 0 0 0-.832-.213c-.298 0-.576.071-.833.213-.25.142-.45.355-.598.64-.149.277-.224.619-.224 1.025 0 .602.153 1.069.457 1.4.311.325.7.487 1.167.487zm5.204-6.597v7.511h-1.157v-7.511h1.157zm2.107 1.178a.716.716 0 0 1-.527-.213.716.716 0 0 1-.214-.528c0-.21.071-.386.214-.528a.716.716 0 0 1 .527-.213c.203 0 .376.071.518.213a.717.717 0 0 1 .213.528c0 .21-.071.385-.213.528a.706.706 0 0 1-.518.213zm.569.741v5.592h-1.157v-5.592h1.157zm3.944 5.683a2.898 2.898 0 0 1-1.431-.355 2.632 2.632 0 0 1-1.004-1.015c-.244-.44-.366-.947-.366-1.522 0-.569.125-1.073.376-1.513.25-.439.592-.778 1.025-1.015a2.983 2.983 0 0 1 1.451-.355c.535 0 1.018.119 1.452.355.433.237.774.576 1.025 1.015.25.44.375.944.375 1.513 0 .568-.128 1.072-.386 1.512a2.7 2.7 0 0 1-1.055 1.025c-.44.237-.927.355-1.462.355zm0-1.005c.298 0 .576-.071.833-.213a1.61 1.61 0 0 0 .639-.639c.162-.284.244-.629.244-1.035 0-.406-.078-.748-.234-1.025a1.561 1.561 0 0 0-.619-.64 1.692 1.692 0 0 0-.832-.213c-.298 0-.575.071-.832.213-.251.142-.45.355-.599.64-.149.277-.223.619-.223 1.025 0 .602.152 1.069.456 1.4.312.325.701.487 1.167.487zM255.437 440.038c.341.061.631.24.868.539.238.298.356.636.356 1.014 0 .322-.085.615-.255.877a1.726 1.726 0 0 1-.722.612 2.616 2.616 0 0 1-1.105.219h-2.54v-6.349h2.421c.432 0 .804.074 1.114.22.311.146.545.344.704.593.158.244.237.518.237.823 0 .365-.097.669-.292.913a1.702 1.702 0 0 1-.786.539zm-2.356-.42h1.288c.341 0 .605-.076.794-.229.195-.158.293-.383.293-.676 0-.286-.098-.508-.293-.666-.189-.165-.453-.247-.794-.247h-1.288v1.818zm1.406 2.831c.354 0 .631-.085.832-.255.201-.171.301-.408.301-.713 0-.31-.107-.557-.32-.74-.213-.182-.496-.274-.849-.274h-1.37v1.982h1.406zm4.347-3.452c.152-.256.353-.454.603-.594.256-.146.557-.219.904-.219v1.077h-.265c-.408 0-.718.104-.931.311-.207.207-.311.566-.311 1.078v2.649h-1.041v-5.033h1.041v.731zm4.648 4.384c-.475 0-.905-.107-1.288-.32a2.37 2.37 0 0 1-.905-.913c-.219-.396-.328-.853-.328-1.37 0-.512.112-.965.338-1.361.225-.396.532-.701.922-.914.39-.213.825-.319 1.306-.319.481 0 .917.106 1.307.319.389.213.697.518.922.914.225.396.338.849.338 1.361 0 .511-.116.965-.347 1.361a2.42 2.42 0 0 1-.95.922 2.73 2.73 0 0 1-1.315.32zm0-.904c.268 0 .517-.064.749-.192.237-.128.429-.32.575-.576.146-.255.219-.566.219-.931 0-.366-.07-.673-.21-.923a1.411 1.411 0 0 0-.557-.575 1.521 1.521 0 0 0-.749-.192c-.268 0-.518.064-.749.192a1.373 1.373 0 0 0-.539.575c-.134.25-.201.557-.201.923 0 .542.137.962.411 1.26.28.293.63.439 1.051.439zm10.401-4.211-1.562 5.033h-1.096l-1.014-3.718-1.014 3.718h-1.096l-1.571-5.033h1.059l1.051 4.046 1.068-4.046h1.087l1.024 4.028 1.041-4.028h1.023zm2.605 5.115c-.396 0-.752-.07-1.069-.21a1.933 1.933 0 0 1-.74-.585 1.479 1.479 0 0 1-.292-.831h1.078a.755.755 0 0 0 .301.539c.189.14.424.21.704.21.292 0 .517-.055.676-.164.164-.116.246-.262.246-.439 0-.189-.091-.329-.274-.42-.176-.091-.46-.192-.849-.301a8.227 8.227 0 0 1-.923-.302 1.656 1.656 0 0 1-.621-.447c-.171-.201-.256-.466-.256-.795 0-.268.079-.512.238-.731.158-.225.383-.402.676-.53a2.589 2.589 0 0 1 1.023-.191c.572 0 1.032.146 1.379.438.353.286.542.679.566 1.178h-1.041a.743.743 0 0 0-.274-.539c-.164-.134-.387-.201-.667-.201-.274 0-.484.052-.63.156a.48.48 0 0 0-.219.411c0 .134.048.246.146.338.097.091.216.164.356.219.14.049.347.113.621.192.366.097.664.198.895.301.238.098.442.244.612.439.171.195.259.453.265.776 0 .286-.079.542-.237.767a1.573 1.573 0 0 1-.676.53 2.466 2.466 0 0 1-1.014.192zm7.665-2.722c0 .189-.012.359-.036.512h-3.846c.031.401.18.724.448.968.268.243.597.365.986.365.561 0 .956-.234 1.188-.703h1.123a2.282 2.282 0 0 1-.831 1.142c-.396.292-.889.438-1.48.438-.481 0-.913-.107-1.297-.32a2.387 2.387 0 0 1-.895-.913c-.213-.396-.32-.853-.32-1.37 0-.518.104-.972.311-1.361.213-.396.508-.701.886-.914a2.664 2.664 0 0 1 1.315-.319c.475 0 .898.103 1.27.31.371.207.661.5.868.877.207.372.31.801.31 1.288zm-1.087-.329c-.006-.383-.143-.691-.411-.922-.268-.232-.6-.348-.995-.348-.36 0-.667.116-.923.348-.256.225-.408.532-.457.922h2.786zm4.823-2.402h1.315l2.101 2.073-2.101 2.074h-1.315l2.11-2.074-2.11-2.073z" fill="#fff"/></g><rect x="71.507" y="50.508" width="228.358" height="406.985" rx="15.492" stroke="url(#n)" stroke-width="1.015"/></g><path d="m88.618 336.538-1.623-2.822h-.883v2.822h-1.157v-7.054h2.435c.542 0 .998.095 1.37.284.38.189.66.443.843.761.19.318.284.673.284 1.066 0 .46-.135.88-.406 1.258-.264.373-.673.626-1.228.762L90 336.538h-1.38zm-2.506-3.745h1.278c.433 0 .758-.109.975-.325.223-.217.335-.508.335-.873s-.109-.65-.325-.853c-.217-.209-.545-.314-.985-.314h-1.278v2.365zm10.38.811c0 .21-.013.4-.04.569h-4.273c.034.446.2.805.498 1.076.297.27.663.406 1.096.406.622 0 1.062-.261 1.319-.782h1.248a2.54 2.54 0 0 1-.923 1.269c-.44.325-.988.487-1.644.487a2.915 2.915 0 0 1-1.442-.355 2.658 2.658 0 0 1-.994-1.015c-.237-.44-.356-.947-.356-1.523 0-.575.116-1.079.346-1.512.236-.44.565-.778.984-1.015.426-.237.913-.355 1.462-.355.527 0 .998.115 1.41.345.413.23.734.555.964.974.23.413.346.89.346 1.431zm-1.207-.365c-.007-.426-.16-.768-.457-1.025-.298-.257-.666-.386-1.106-.386-.4 0-.741.129-1.025.386-.284.25-.454.592-.508 1.025h3.096zm1.96.497c0-.575.116-1.079.346-1.512.236-.44.561-.778.974-1.015.413-.237.886-.355 1.42-.355.677 0 1.236.162 1.675.487.447.318.748.775.904 1.37h-1.249a1.31 1.31 0 0 0-.487-.649c-.223-.156-.504-.234-.842-.234-.474 0-.853.169-1.137.508-.277.331-.416.798-.416 1.4 0 .603.139 1.073.416 1.411.284.338.663.508 1.137.508.67 0 1.113-.295 1.329-.883h1.249a2.53 2.53 0 0 1-.914 1.36c-.446.331-1.001.497-1.664.497-.535 0-1.008-.118-1.421-.355a2.608 2.608 0 0 1-.974-1.015c-.23-.44-.345-.947-.345-1.523zm11.597-.132c0 .21-.013.4-.04.569h-4.273c.034.446.199.805.497 1.076.298.27.663.406 1.096.406.623 0 1.062-.261 1.32-.782h1.248a2.537 2.537 0 0 1-.924 1.269c-.439.325-.988.487-1.644.487a2.915 2.915 0 0 1-1.441-.355 2.659 2.659 0 0 1-.995-1.015c-.236-.44-.355-.947-.355-1.523 0-.575.115-1.079.345-1.512.237-.44.565-.778.985-1.015.426-.237.913-.355 1.461-.355.528 0 .998.115 1.411.345.413.23.734.555.964.974.23.413.345.89.345 1.431zm-1.208-.365c-.006-.426-.159-.768-.456-1.025-.298-.257-.667-.386-1.107-.386-.399 0-.74.129-1.025.386-.284.25-.453.592-.507 1.025h3.095zm5.168-2.385c.44 0 .833.091 1.178.274.351.183.625.453.822.812.196.359.294.792.294 1.299v3.299h-1.147v-3.126c0-.501-.125-.883-.375-1.147-.251-.271-.592-.406-1.025-.406-.433 0-.779.135-1.036.406-.25.264-.375.646-.375 1.147v3.126h-1.157v-5.593h1.157v.64c.189-.23.429-.41.72-.538.298-.129.613-.193.944-.193zm5.12 1.035v3.096c0 .21.047.362.142.456.101.088.27.132.507.132h.711v.965h-.914c-.521 0-.92-.122-1.197-.366-.278-.243-.416-.639-.416-1.187v-3.096h-.66v-.944h.66v-1.39h1.167v1.39h1.36v.944h-1.36zM277.819 334.741h-2.658l-.457 1.297h-1.087l2.275-6.358h1.205l2.275 6.358h-1.096l-.457-1.297zm-.292-.85-1.033-2.95-1.041 2.95h2.074zm3.875-4.613v6.76h-1.041v-6.76h1.041zm2.408 0v6.76h-1.041v-6.76h1.041zm4.078 1.389h1.316l2.101 2.073-2.101 2.074h-1.316l2.11-2.074-2.11-2.073z" fill="#fff"/><rect x="84.193" y="348.657" width="81.194" height="71.045" rx="8.119" fill="#1E242D"/><rect x="84.193" y="348.657" width="81.194" height="71.045" rx="8.119" fill="url(#o)"/><rect x="92.313" y="358.806" width="18.687" height="18.687" rx="9.344" fill="#F0B90B"/><path d="m101.656 362.397 1.421 1.456-3.578 3.578-1.42-1.421 3.577-3.613zM103.814 364.555l1.421 1.455-5.736 5.735-1.42-1.421 5.735-5.769zM97.342 366.712l1.421 1.455-1.42 1.421-1.422-1.421 1.421-1.455zM105.971 366.712l1.421 1.455-5.736 5.735-1.421-1.421 5.736-5.769z" fill="#fff" stroke="#fff" stroke-width=".034"/><path d="M95.09 391.617c-.427 0-.81-.073-1.151-.219a1.918 1.918 0 0 1-.804-.639 1.613 1.613 0 0 1-.292-.96h1.114c.024.274.13.5.32.676.195.177.466.265.813.265.359 0 .639-.085.84-.255a.86.86 0 0 0 .301-.676.722.722 0 0 0-.191-.521 1.205 1.205 0 0 0-.466-.311 6.67 6.67 0 0 0-.768-.237 7.988 7.988 0 0 1-1.013-.329 1.714 1.714 0 0 1-.658-.53c-.183-.237-.274-.554-.274-.95 0-.365.091-.685.274-.959.182-.274.438-.484.767-.63a2.79 2.79 0 0 1 1.142-.219c.615 0 1.117.155 1.507.466.396.304.615.724.658 1.26h-1.151a.836.836 0 0 0-.329-.594c-.201-.164-.466-.246-.795-.246-.298 0-.542.076-.73.228-.19.152-.284.372-.284.658 0 .195.058.356.174.484.122.122.274.219.457.292.182.073.432.152.749.238.42.115.76.231 1.023.347.268.115.493.295.676.539.189.237.283.557.283.959 0 .323-.088.627-.265.913-.17.286-.423.518-.758.694-.329.171-.719.256-1.17.256zm8.033-2.704c0 .189-.012.36-.036.512h-3.846c.03.402.18.725.448.968.268.244.597.366.986.366.561 0 .956-.235 1.188-.704h1.123a2.278 2.278 0 0 1-.831 1.142c-.396.292-.889.438-1.48.438-.481 0-.913-.106-1.297-.319a2.388 2.388 0 0 1-.895-.914c-.213-.396-.32-.852-.32-1.37 0-.517.104-.971.311-1.361.213-.396.508-.7.886-.913.384-.213.822-.32 1.315-.32.475 0 .899.104 1.27.311.372.207.661.499.868.876.207.372.31.801.31 1.288zm-1.087-.328c-.006-.384-.143-.692-.411-.923-.268-.231-.599-.347-.995-.347-.36 0-.667.116-.923.347-.256.225-.408.533-.457.923h2.786zm4.651-2.147c.396 0 .75.082 1.06.247.317.164.563.408.74.73.177.323.265.713.265 1.17v2.968h-1.032v-2.813c0-.451-.113-.795-.338-1.032-.226-.244-.533-.366-.923-.366s-.7.122-.932.366c-.225.237-.338.581-.338 1.032v2.813h-1.041v-5.033h1.041v.576c.171-.207.387-.369.649-.484.268-.116.551-.174.849-.174zm4.608.932v2.786c0 .188.043.325.128.411.091.079.243.118.457.118h.639v.868h-.822c-.469 0-.828-.109-1.078-.329-.25-.219-.374-.575-.374-1.068v-2.786h-.594v-.85h.594v-1.251h1.05v1.251h1.224v.85h-1.224z" fill="#fff"/><path d="M96.396 402.292c.34.061.63.241.868.539.237.299.356.637.356 1.014 0 .323-.085.615-.256.877a1.71 1.71 0 0 1-.722.612 2.615 2.615 0 0 1-1.105.219h-2.54v-6.348h2.421c.433 0 .804.073 1.115.219.31.146.545.344.703.594.158.243.238.517.238.822 0 .365-.098.67-.293.913a1.694 1.694 0 0 1-.785.539zm-2.357-.42h1.288c.341 0 .606-.076.795-.228.195-.159.292-.384.292-.676 0-.286-.097-.509-.292-.667-.189-.164-.454-.247-.795-.247H94.04v1.818zm1.407 2.832c.353 0 .63-.086.831-.256.201-.171.302-.408.302-.713 0-.31-.107-.557-.32-.739-.213-.183-.496-.274-.85-.274h-1.37v1.982h1.407zm4.338-5.499v4.046c0 .481.124.844.374 1.087.256.244.609.366 1.06.366.456 0 .81-.122 1.059-.366.256-.243.384-.606.384-1.087v-4.046h1.041v4.028c0 .518-.112.956-.338 1.315a2.09 2.09 0 0 1-.904.804 2.913 2.913 0 0 1-1.251.265c-.457 0-.874-.088-1.252-.265a2.045 2.045 0 0 1-.886-.804c-.22-.359-.329-.797-.329-1.315v-4.028h1.042zm7.366 6.412c-.426 0-.81-.073-1.151-.219a1.92 1.92 0 0 1-.804-.639 1.612 1.612 0 0 1-.292-.96h1.114c.024.274.131.5.32.676.195.177.466.265.813.265.359 0 .639-.085.84-.255a.86.86 0 0 0 .302-.676.722.722 0 0 0-.192-.521 1.205 1.205 0 0 0-.466-.311 6.74 6.74 0 0 0-.767-.237 8 8 0 0 1-1.014-.329 1.716 1.716 0 0 1-.658-.53c-.183-.237-.274-.554-.274-.95 0-.365.091-.685.274-.959a1.75 1.75 0 0 1 .767-.63c.329-.146.71-.219 1.142-.219.615 0 1.118.155 1.507.466.396.304.615.724.658 1.26h-1.151a.835.835 0 0 0-.329-.594c-.201-.164-.466-.246-.795-.246-.298 0-.541.076-.73.228-.189.152-.283.372-.283.658 0 .195.057.356.173.484.122.122.274.219.457.292.183.073.432.152.749.238.42.115.761.231 1.023.347.268.115.493.295.676.539.189.237.283.557.283.959 0 .323-.088.627-.265.913-.17.286-.423.518-.758.694-.329.171-.719.256-1.169.256zm5.494-6.412c.676 0 1.267.131 1.772.393.512.255.905.627 1.179 1.114.28.481.42 1.044.42 1.69 0 .645-.14 1.206-.42 1.681-.274.475-.667.84-1.179 1.096-.505.249-1.096.374-1.772.374h-2.073v-6.348h2.073zm0 5.499c.743 0 1.313-.201 1.708-.603.396-.402.594-.968.594-1.699 0-.737-.198-1.312-.594-1.727-.395-.414-.965-.621-1.708-.621h-1.032v4.65h1.032z" fill="#8E9196"/><circle cx="109.059" cy="374.394" r="4.567" fill="#F6F6F6"/><path d="m109.059 371.458-.041.134v3.883l.041.039 1.848-1.065-1.848-2.991z" fill="#343434"/><path d="m109.058 371.458-1.848 2.991 1.848 1.065v-4.056z" fill="#8C8C8C"/><path d="m109.059 375.855-.023.027v1.383l.023.065 1.849-2.539-1.849 1.064z" fill="#3C3C3B"/><path d="M109.058 377.33v-1.475l-1.848-1.064 1.848 2.539z" fill="#8C8C8C"/><path d="m109.058 375.514 1.848-1.065-1.848-.82v1.885z" fill="#141414"/><path d="m107.21 374.449 1.848 1.065v-1.885l-1.848.82z" fill="#393939"/><rect x="173.507" y="348.657" width="81.194" height="71.045" rx="8.119" fill="#1E242D"/><rect x="173.507" y="348.657" width="81.194" height="71.045" rx="8.119" fill="url(#p)"/><rect x="181.626" y="359.15" width="18" height="18" rx="9" fill="#E6E9F2"/><g clip-path="url(#q)"><g opacity=".6"><mask id="r" style="mask-type:luminance" maskUnits="userSpaceOnUse" x="186" y="366" width="9" height="5"><path d="M186.354 366.199h8.398v4.392h-8.398v-4.392z" fill="#fff"/></mask><g mask="url(#r)"><path d="m190.554 366.199-4.2 1.91 4.2 2.482 4.198-2.482-4.198-1.91z" fill="#010101"/></g></g><g opacity=".45"><mask id="s" style="mask-type:luminance" maskUnits="userSpaceOnUse" x="186" y="361" width="5" height="10"><path d="M186.354 361.14h4.2v9.45h-4.2v-9.45z" fill="#fff"/></mask><g mask="url(#s)"><path d="m186.354 368.108 4.2 2.482v-9.45l-4.2 6.968z" fill="#010101"/></g></g><g opacity=".8"><mask id="t" style="mask-type:luminance" maskUnits="userSpaceOnUse" x="190" y="361" width="5" height="10"><path d="M190.554 361.14h4.2v9.45h-4.2v-9.45z" fill="#fff"/></mask><g mask="url(#t)"><path d="M190.554 361.14v9.45l4.199-2.482-4.199-6.968z" fill="#010101"/></g></g><g opacity=".45"><mask id="u" style="mask-type:luminance" maskUnits="userSpaceOnUse" x="186" y="368" width="5" height="7"><path d="M186.354 368.905h4.2v5.917h-4.2v-5.917z" fill="#fff"/></mask><g mask="url(#u)"><path d="m186.354 368.905 4.2 5.917v-3.436l-4.2-2.481z" fill="#010101"/></g></g><g opacity=".8"><mask id="v" style="mask-type:luminance" maskUnits="userSpaceOnUse" x="190" y="368" width="5" height="7"><path d="M190.554 368.905h4.202v5.917h-4.202v-5.917z" fill="#fff"/></mask><g mask="url(#v)"><path d="M190.554 371.386v3.436l4.202-5.917-4.202 2.481z" fill="#010101"/></g></g></g><g clip-path="url(#w)"><path d="M200.507 377.15c4.987 0 9-4.013 9-9 0-4.988-4.013-9-9-9-4.988 0-9 4.012-9 9 0 4.987 4.012 9 9 9z" fill="#2775CA"/><path d="M202.982 369.575c0-1.312-.788-1.762-2.363-1.95-1.125-.15-1.35-.45-1.35-.975 0-.525.375-.862 1.125-.862.675 0 1.05.225 1.238.787.037.113.15.188.262.188h.6c.15 0 .263-.113.263-.263v-.037a1.874 1.874 0 0 0-1.688-1.538v-.9c0-.15-.112-.262-.3-.3h-.562c-.15 0-.263.113-.3.3v.863c-1.125.15-1.838.9-1.838 1.837 0 1.238.75 1.725 2.325 1.913 1.05.187 1.388.412 1.388 1.012 0 .6-.525 1.013-1.238 1.013-.975 0-1.312-.413-1.425-.975-.037-.15-.15-.225-.262-.225h-.638a.256.256 0 0 0-.262.262v.038c.15.937.75 1.612 1.987 1.8v.9c0 .15.113.262.3.3h.563c.15 0 .262-.113.3-.3v-.9c1.125-.188 1.875-.975 1.875-1.988z" fill="#fff"/><path d="M198.594 373.512c-2.925-1.05-4.425-4.312-3.337-7.2a5.545 5.545 0 0 1 3.337-3.337c.15-.075.225-.188.225-.375v-.525c0-.15-.075-.263-.225-.3-.037 0-.112 0-.15.037-3.562 1.125-5.512 4.913-4.387 8.475a6.746 6.746 0 0 0 4.387 4.388c.15.075.3 0 .338-.15.037-.038.037-.075.037-.15v-.525c0-.113-.112-.263-.225-.338zm3.975-11.7c-.15-.075-.3 0-.337.15-.038.038-.038.075-.038.15v.525c0 .15.113.3.225.375 2.925 1.05 4.425 4.313 3.338 7.2a5.55 5.55 0 0 1-3.338 3.338c-.15.075-.225.187-.225.375v.525c0 .15.075.262.225.3.038 0 .113 0 .15-.038 3.563-1.125 5.513-4.912 4.388-8.475a6.802 6.802 0 0 0-4.388-4.425z" fill="#fff"/></g><path d="M183.353 385.701v1.864h2.192v.849h-2.192v1.946h2.466v.849h-3.508v-6.357h3.508v.849h-2.466zm5.904 2.96 1.626 2.548h-1.178l-1.087-1.708-1.023 1.708h-1.087l1.626-2.475-1.626-2.558h1.178l1.087 1.709 1.023-1.709h1.087l-1.626 2.485zm2.056.027c0-.517.103-.971.31-1.361.213-.395.506-.7.877-.913.372-.213.798-.32 1.279-.32.609 0 1.111.146 1.507.439.402.286.673.697.813 1.233h-1.124a1.184 1.184 0 0 0-.438-.585c-.201-.14-.454-.21-.758-.21-.426 0-.767.152-1.023.457-.25.298-.375.718-.375 1.26s.125.966.375 1.27c.256.305.597.457 1.023.457.603 0 1.002-.265 1.196-.795h1.124c-.146.512-.42.92-.822 1.224-.402.298-.901.448-1.498.448-.481 0-.907-.107-1.279-.32a2.349 2.349 0 0 1-.877-.913c-.207-.396-.31-.853-.31-1.371zm8.427-2.594c.384 0 .725.082 1.023.247.305.164.542.408.713.731.176.322.264.712.264 1.169v2.968h-1.032v-2.813c0-.451-.112-.795-.338-1.032-.225-.244-.533-.365-.922-.365-.39 0-.701.121-.932.365-.225.237-.338.581-.338 1.032v2.813h-1.041v-6.759h1.041v2.311a1.76 1.76 0 0 1 .667-.493 2.27 2.27 0 0 1 .895-.174zm2.982 2.576c0-.505.103-.953.31-1.343a2.325 2.325 0 0 1 2.065-1.233c.395 0 .739.079 1.032.238.298.152.536.344.712.575v-.731h1.051v5.033h-1.051v-.749a2.056 2.056 0 0 1-.721.594 2.22 2.22 0 0 1-1.042.238c-.432 0-.828-.11-1.187-.329a2.44 2.44 0 0 1-.859-.932 2.927 2.927 0 0 1-.31-1.361zm4.119.018c0-.347-.073-.648-.219-.904a1.468 1.468 0 0 0-1.306-.785c-.268 0-.518.067-.749.201-.232.127-.42.319-.567.575-.14.25-.21.548-.21.895s.07.652.21.914a1.6 1.6 0 0 0 .567.602 1.5 1.5 0 0 0 1.498 0c.231-.134.417-.328.557-.584.146-.262.219-.566.219-.914zm4.958-2.594c.396 0 .749.082 1.059.247.317.164.564.408.74.731.177.322.265.712.265 1.169v2.968h-1.032v-2.813c0-.451-.113-.795-.338-1.032-.225-.244-.533-.365-.923-.365-.389 0-.7.121-.931.365-.226.237-.338.581-.338 1.032v2.813h-1.042v-5.033h1.042v.576c.17-.207.386-.368.648-.484.268-.116.551-.174.85-.174zm5.42 0c.39 0 .734.079 1.032.238.305.152.542.344.713.575v-.731h1.05v5.116c0 .462-.097.874-.292 1.233a2.096 2.096 0 0 1-.85.858c-.365.207-.803.311-1.315.311-.682 0-1.248-.161-1.699-.484a1.755 1.755 0 0 1-.767-1.297h1.032c.079.262.247.472.502.63.262.165.573.247.932.247.42 0 .758-.128 1.014-.384.262-.256.393-.627.393-1.114v-.841a2.147 2.147 0 0 1-1.745.841c-.438 0-.84-.11-1.206-.329a2.438 2.438 0 0 1-.858-.932 2.928 2.928 0 0 1-.311-1.361c0-.505.104-.953.311-1.343a2.322 2.322 0 0 1 2.064-1.233zm1.745 2.594c0-.347-.073-.648-.219-.904a1.463 1.463 0 0 0-1.307-.785 1.47 1.47 0 0 0-.749.201c-.231.127-.42.319-.566.575-.14.25-.21.548-.21.895s.07.652.21.914c.146.261.335.462.566.602.238.134.488.201.749.201a1.468 1.468 0 0 0 1.307-.785c.146-.262.219-.566.219-.914zm7.031-.118c0 .188-.012.359-.037.511h-3.845c.03.402.179.725.447.968.268.244.597.366.987.366.56 0 .956-.235 1.187-.704h1.124c-.152.463-.43.844-.831 1.142-.396.293-.89.439-1.48.439-.481 0-.914-.107-1.297-.32a2.387 2.387 0 0 1-.895-.913c-.214-.396-.32-.853-.32-1.371 0-.517.103-.971.31-1.361.214-.395.509-.7.886-.913.384-.213.823-.32 1.316-.32.475 0 .898.104 1.269.311.372.207.661.499.868.877.207.371.311.8.311 1.288zm-1.087-.329c-.006-.384-.143-.691-.411-.923-.268-.231-.6-.347-.996-.347-.359 0-.667.116-.922.347-.256.226-.408.533-.457.923h2.786z" fill="#fff"/><path d="M183.353 399.701v1.864h2.192v.849h-2.192v1.946h2.466v.849h-3.508v-6.357h3.508v.849h-2.466zm7.85-.84v.85h-1.69v5.498h-1.041v-5.498h-1.699v-.85h4.43zm6.124 0v6.348h-1.041v-2.776h-2.987v2.776h-1.042v-6.348h1.042v2.722h2.987v-2.722h1.041zm4.082.977h1.315l2.101 2.074-2.101 2.073h-1.315l2.11-2.073-2.11-2.074zm8.454-.977v4.047c0 .481.125.843.375 1.087.256.243.609.365 1.059.365.457 0 .81-.122 1.06-.365.256-.244.384-.606.384-1.087v-4.047h1.041v4.028c0 .518-.113.956-.338 1.316a2.103 2.103 0 0 1-.904.804 2.929 2.929 0 0 1-1.252.264c-.456 0-.874-.088-1.251-.264a2.053 2.053 0 0 1-.886-.804c-.219-.36-.329-.798-.329-1.316v-4.028h1.041zm7.367 6.412c-.427 0-.81-.073-1.151-.219a1.92 1.92 0 0 1-.804-.639 1.611 1.611 0 0 1-.292-.959h1.114c.024.274.131.499.32.676.194.176.465.265.813.265.359 0 .639-.086.84-.256a.86.86 0 0 0 .301-.676.727.727 0 0 0-.191-.521 1.21 1.21 0 0 0-.466-.31 6.671 6.671 0 0 0-.768-.238 8 8 0 0 1-1.014-.329 1.704 1.704 0 0 1-.657-.53c-.183-.237-.274-.554-.274-.949 0-.366.091-.686.274-.96.182-.274.438-.484.767-.63.329-.146.71-.219 1.142-.219.615 0 1.117.155 1.507.466.396.304.615.724.658 1.26h-1.151a.832.832 0 0 0-.329-.593c-.201-.165-.466-.247-.795-.247-.298 0-.542.076-.73.228-.189.153-.284.372-.284.658 0 .195.058.356.174.484.122.122.274.219.457.292.182.073.432.153.749.238.42.116.761.231 1.023.347.268.116.493.295.676.539.188.237.283.557.283.959 0 .323-.089.627-.265.913a1.87 1.87 0 0 1-.758.695c-.329.17-.719.255-1.169.255zm5.494-6.412c.676 0 1.267.131 1.772.393.512.256.904.627 1.178 1.114.281.481.421 1.045.421 1.69 0 .646-.14 1.206-.421 1.681-.274.475-.666.84-1.178 1.096-.505.25-1.096.374-1.772.374h-2.073v-6.348h2.073zm0 5.499c.743 0 1.312-.201 1.708-.603.396-.402.594-.968.594-1.699 0-.737-.198-1.312-.594-1.726-.396-.414-.965-.621-1.708-.621h-1.032v4.649h1.032zm4.056-2.338c0-.622.143-1.179.429-1.672a3.099 3.099 0 0 1 1.178-1.151 3.288 3.288 0 0 1 1.635-.42c.676 0 1.276.167 1.8.502.529.329.913.798 1.151 1.407h-1.252a1.674 1.674 0 0 0-.685-.749 2.036 2.036 0 0 0-1.014-.247c-.42 0-.794.095-1.123.284a1.996 1.996 0 0 0-.777.812c-.182.354-.274.765-.274 1.234 0 .468.092.88.274 1.233.189.353.448.627.777.822.329.189.703.283 1.123.283.384 0 .722-.082 1.014-.247.292-.164.521-.414.685-.749h1.252a2.811 2.811 0 0 1-1.151 1.407c-.524.329-1.124.493-1.8.493a3.308 3.308 0 0 1-1.635-.411 3.167 3.167 0 0 1-1.178-1.16 3.269 3.269 0 0 1-.429-1.671z" fill="#8E9196"/><rect x="262.82" y="348.657" width="81.194" height="71.045" rx="8.119" fill="#1E242D"/><rect x="262.82" y="348.657" width="81.194" height="71.045" rx="8.119" fill="url(#x)"/><rect x="270.94" y="359.15" width="18" height="18" rx="9" fill="#E6E9F2"/><g clip-path="url(#y)"><g opacity=".6"><mask id="z" style="mask-type:luminance" maskUnits="userSpaceOnUse" x="276" y="366" width="9" height="5"><path d="M276.099 366.29h7.986v4.175h-7.986v-4.175z" fill="#fff"/></mask><g mask="url(#z)"><path d="m280.093 366.29-3.994 1.816 3.994 2.359 3.992-2.359-3.992-1.816z" fill="#010101"/></g></g><g opacity=".45"><mask id="A" style="mask-type:luminance" maskUnits="userSpaceOnUse" x="276" y="361" width="5" height="10"><path d="M276.099 361.479h3.994v8.986h-3.994v-8.986z" fill="#fff"/></mask><g mask="url(#A)"><path d="m276.099 368.105 3.994 2.36v-8.986l-3.994 6.626z" fill="#010101"/></g></g><g opacity=".8"><mask id="B" style="mask-type:luminance" maskUnits="userSpaceOnUse" x="280" y="361" width="5" height="10"><path d="M280.093 361.479h3.993v8.986h-3.993v-8.986z" fill="#fff"/></mask><g mask="url(#B)"><path d="M280.093 361.479v8.986l3.992-2.36-3.992-6.626z" fill="#010101"/></g></g><g opacity=".45"><mask id="C" style="mask-type:luminance" maskUnits="userSpaceOnUse" x="276" y="368" width="5" height="7"><path d="M276.099 368.862h3.994v5.627h-3.994v-5.627z" fill="#fff"/></mask><g mask="url(#C)"><path d="m276.099 368.862 3.994 5.627v-3.267l-3.994-2.36z" fill="#010101"/></g></g><g opacity=".8"><mask id="D" style="mask-type:luminance" maskUnits="userSpaceOnUse" x="280" y="368" width="5" height="7"><path d="M280.093 368.862h3.995v5.627h-3.995v-5.627z" fill="#fff"/></mask><g mask="url(#D)"><path d="M280.093 371.222v3.267l3.995-5.627-3.995 2.36z" fill="#010101"/></g></g></g><path d="m274.922 391.209-1.461-2.539h-.795v2.539h-1.041v-6.348h2.192c.487 0 .898.085 1.233.256.341.17.594.399.758.685.171.286.256.606.256.959 0 .414-.122.792-.365 1.133-.238.335-.606.563-1.106.685l1.572 2.63h-1.243zm-2.256-3.37h1.151c.39 0 .682-.098.877-.292.201-.195.301-.457.301-.786s-.097-.585-.292-.767c-.195-.189-.49-.283-.886-.283h-1.151v2.128zm9.343.731c0 .188-.012.359-.037.511h-3.845c.03.402.18.725.447.968.268.244.597.366.987.366.56 0 .956-.235 1.187-.704h1.124a2.278 2.278 0 0 1-.831 1.142c-.396.293-.889.439-1.48.439-.481 0-.913-.107-1.297-.32a2.387 2.387 0 0 1-.895-.913c-.213-.396-.32-.853-.32-1.371 0-.517.104-.971.311-1.361.213-.395.508-.7.886-.913.383-.213.822-.32 1.315-.32.475 0 .898.104 1.27.311.371.207.66.499.867.877.207.371.311.8.311 1.288zm-1.087-.329c-.006-.384-.143-.691-.411-.923-.268-.231-.6-.347-.996-.347-.359 0-.667.116-.922.347-.256.226-.408.533-.457.923h2.786zm1.765.447c0-.517.103-.971.31-1.361.213-.395.506-.7.877-.913.372-.213.798-.32 1.279-.32.609 0 1.111.146 1.507.439.402.286.673.697.813 1.233h-1.124a1.184 1.184 0 0 0-.438-.585c-.201-.14-.454-.21-.758-.21-.426 0-.767.152-1.023.457-.25.298-.375.718-.375 1.26s.125.966.375 1.27c.256.305.597.457 1.023.457.603 0 1.002-.265 1.196-.795h1.124c-.146.512-.42.92-.822 1.224-.402.298-.901.448-1.498.448-.481 0-.907-.107-1.279-.32a2.349 2.349 0 0 1-.877-.913c-.207-.396-.31-.853-.31-1.371zm10.437-.118c0 .188-.013.359-.037.511h-3.845c.03.402.179.725.447.968.268.244.597.366.987.366.56 0 .956-.235 1.187-.704h1.124c-.153.463-.43.844-.832 1.142-.395.293-.889.439-1.479.439-.481 0-.914-.107-1.297-.32a2.396 2.396 0 0 1-.896-.913c-.213-.396-.319-.853-.319-1.371 0-.517.103-.971.31-1.361.213-.395.509-.7.886-.913.384-.213.822-.32 1.316-.32.475 0 .898.104 1.269.311.372.207.661.499.868.877.207.371.311.8.311 1.288zm-1.087-.329c-.006-.384-.143-.691-.411-.923-.268-.231-.6-.347-.996-.347a1.33 1.33 0 0 0-.923.347c-.255.226-.408.533-.456.923h2.786zm2.641-2.731a.645.645 0 0 1-.475-.192.645.645 0 0 1-.192-.475c0-.189.064-.347.192-.475a.645.645 0 0 1 .475-.192c.183 0 .338.064.466.192a.645.645 0 0 1 .192.475.645.645 0 0 1-.192.475.634.634 0 0 1-.466.192zm.512.666v5.033h-1.042v-5.033h1.042zm3.312 4.102 1.425-4.102h1.106l-1.919 5.033h-1.242l-1.909-5.033h1.114l1.425 4.102zm7.931-1.708c0 .188-.013.359-.037.511h-3.845c.03.402.179.725.447.968.268.244.597.366.987.366.56 0 .956-.235 1.187-.704h1.124c-.153.463-.43.844-.832 1.142-.395.293-.889.439-1.479.439-.481 0-.914-.107-1.297-.32a2.396 2.396 0 0 1-.896-.913c-.213-.396-.319-.853-.319-1.371 0-.517.103-.971.31-1.361.213-.395.509-.7.886-.913.384-.213.822-.32 1.316-.32.475 0 .898.104 1.269.311.372.207.661.499.868.877.207.371.311.8.311 1.288zm-1.087-.329c-.006-.384-.143-.691-.411-.923-.268-.231-.6-.347-.996-.347a1.33 1.33 0 0 0-.923.347c-.255.226-.408.533-.456.923h2.786zm1.764.429c0-.505.104-.953.311-1.343a2.322 2.322 0 0 1 3.042-1.014c.322.141.578.329.767.567v-2.43h1.05v6.759h-1.05v-.758a1.936 1.936 0 0 1-.713.603 2.159 2.159 0 0 1-1.032.238c-.438 0-.84-.11-1.206-.329a2.438 2.438 0 0 1-.858-.932 2.928 2.928 0 0 1-.311-1.361zm4.12.018c0-.347-.073-.648-.219-.904a1.463 1.463 0 0 0-1.307-.785 1.47 1.47 0 0 0-.749.201c-.231.127-.42.319-.566.575-.14.25-.21.548-.21.895s.07.652.21.914c.146.261.335.462.566.602.238.134.488.201.749.201a1.468 1.468 0 0 0 1.307-.785c.146-.262.219-.566.219-.914z" fill="#fff"/><path d="M272.666 399.701v1.864h2.192v.849h-2.192v1.946h2.466v.849h-3.507v-6.357h3.507v.849h-2.466zm7.85-.84v.85h-1.69v5.498h-1.041v-5.498h-1.699v-.85h4.43zm6.124 0v6.348h-1.041v-2.776h-2.987v2.776h-1.041v-6.348h1.041v2.722h2.987v-2.722h1.041z" fill="#8E9196"/><rect x="352.134" y="348.657" width="81.194" height="71.045" rx="8.119" fill="#1E242D"/><rect x="352.134" y="348.657" width="81.194" height="71.045" rx="8.119" fill="url(#E)"/><rect x="360.253" y="358.975" width="18.35" height="18.35" rx="9.175" fill="#F0B90B"/><path d="m369.428 362.501 1.396 1.429-3.514 3.514-1.395-1.396 3.513-3.547zM371.546 364.62l1.396 1.429-5.632 5.631-1.395-1.395 5.631-5.665zM365.192 366.738l1.395 1.429-1.395 1.395-1.396-1.395 1.396-1.429zM373.665 366.738l1.395 1.429-5.632 5.632-1.395-1.396 5.632-5.665z" fill="#fff" stroke="#fff" stroke-width=".034"/><path d="M363.012 385.036c.676 0 1.266.131 1.772.393.511.256.904.627 1.178 1.115.28.481.42 1.044.42 1.689 0 .646-.14 1.206-.42 1.681-.274.475-.667.84-1.178 1.096-.506.25-1.096.375-1.772.375h-2.074v-6.349h2.074zm0 5.499c.743 0 1.312-.201 1.708-.603.396-.402.594-.968.594-1.699 0-.736-.198-1.312-.594-1.726-.396-.414-.965-.621-1.708-.621h-1.032v4.649h1.032zm9.015-1.79c0 .189-.012.359-.036.511h-3.846c.031.402.18.725.448.969.268.243.596.365.986.365.56 0 .956-.234 1.188-.703h1.123a2.282 2.282 0 0 1-.831 1.142c-.396.292-.889.438-1.48.438-.481 0-.913-.107-1.297-.32a2.387 2.387 0 0 1-.895-.913c-.213-.396-.32-.853-.32-1.37 0-.518.104-.972.311-1.361.213-.396.508-.701.886-.914a2.661 2.661 0 0 1 1.315-.319c.475 0 .898.103 1.27.31.371.207.661.499.868.877.207.371.31.801.31 1.288zm-1.087-.329c-.006-.384-.143-.691-.411-.922-.268-.232-.6-.348-.996-.348-.359 0-.666.116-.922.348-.256.225-.408.532-.457.922h2.786zm3.153-1.324c.177-.232.417-.427.722-.585a2.204 2.204 0 0 1 1.032-.237c.438 0 .837.109 1.197.328.365.214.651.515.858.905.207.389.311.837.311 1.342 0 .506-.104.96-.311 1.361a2.348 2.348 0 0 1-.858.932c-.36.219-.759.329-1.197.329a2.22 2.22 0 0 1-1.023-.228 2.371 2.371 0 0 1-.731-.585v3.124h-1.041v-7.426h1.041v.74zm3.06 1.753c0-.347-.073-.645-.219-.895a1.395 1.395 0 0 0-.566-.575 1.5 1.5 0 0 0-1.498 0 1.54 1.54 0 0 0-.567.584c-.14.256-.21.558-.21.905s.07.651.21.913c.146.256.335.451.567.585a1.5 1.5 0 0 0 1.498 0c.237-.14.426-.341.566-.603.146-.262.219-.566.219-.914zm4.273 2.622c-.475 0-.905-.107-1.288-.32a2.37 2.37 0 0 1-.905-.913c-.219-.396-.328-.853-.328-1.37 0-.512.112-.966.338-1.361.225-.396.532-.701.922-.914.39-.213.825-.319 1.306-.319.481 0 .917.106 1.307.319.389.213.697.518.922.914.225.395.338.849.338 1.361 0 .511-.116.965-.347 1.361a2.42 2.42 0 0 1-.95.922 2.73 2.73 0 0 1-1.315.32zm0-.904c.268 0 .517-.064.749-.192.237-.128.429-.32.575-.576.146-.255.219-.566.219-.931 0-.366-.07-.673-.21-.923a1.411 1.411 0 0 0-.557-.575 1.521 1.521 0 0 0-.749-.192c-.268 0-.518.064-.749.192a1.373 1.373 0 0 0-.539.575c-.134.25-.201.557-.201.923 0 .542.137.962.411 1.26.28.293.63.439 1.051.439zm5.468.904c-.395 0-.752-.07-1.068-.21a1.918 1.918 0 0 1-.74-.585 1.48 1.48 0 0 1-.293-.831h1.078a.756.756 0 0 0 .302.539c.189.14.423.21.703.21.292 0 .518-.055.676-.164.164-.116.247-.262.247-.439 0-.189-.092-.329-.274-.42-.177-.091-.46-.192-.85-.301a8.2 8.2 0 0 1-.922-.302 1.651 1.651 0 0 1-.622-.447c-.17-.201-.255-.466-.255-.795 0-.268.079-.512.237-.731.158-.225.384-.402.676-.53a2.571 2.571 0 0 1 1.023-.191c.573 0 1.032.146 1.379.438.354.286.542.679.567 1.178h-1.042a.74.74 0 0 0-.274-.539c-.164-.134-.386-.201-.666-.201-.274 0-.485.052-.631.156a.48.48 0 0 0-.219.411c0 .134.049.246.146.338.098.091.216.164.356.219.141.049.348.113.622.192.365.097.663.198.895.301.237.098.441.244.612.439.17.195.259.453.265.776 0 .286-.079.542-.238.767a1.561 1.561 0 0 1-.676.53 2.466 2.466 0 0 1-1.014.192zm3.583-5.782a.645.645 0 0 1-.475-.192.645.645 0 0 1-.192-.475c0-.189.064-.347.192-.475a.645.645 0 0 1 .475-.192c.182 0 .338.064.465.192a.645.645 0 0 1 .192.475.645.645 0 0 1-.192.475.632.632 0 0 1-.465.192zm.511.667v5.033h-1.041v-5.033h1.041zm2.582.849v2.786c0 .189.043.326.128.411.091.079.244.119.457.119h.639v.868h-.822c-.469 0-.828-.11-1.078-.329-.249-.219-.374-.576-.374-1.069v-2.786h-.594v-.849h.594V385.1h1.05v1.252h1.224v.849h-1.224z" fill="#fff"/><path d="M363.012 399.036c.676 0 1.266.131 1.772.393.511.256.904.627 1.178 1.115.28.481.42 1.044.42 1.689 0 .646-.14 1.206-.42 1.681-.274.475-.667.84-1.178 1.096-.506.25-1.096.375-1.772.375h-2.074v-6.349h2.074zm0 5.499c.743 0 1.312-.201 1.708-.603.396-.402.594-.968.594-1.699 0-.736-.198-1.312-.594-1.726-.396-.414-.965-.621-1.708-.621h-1.032v4.649h1.032zm8.23-.447h-2.658l-.457 1.297h-1.087l2.274-6.358h1.206l2.274 6.358h-1.096l-.456-1.297zm-.293-.85-1.032-2.95-1.041 2.95h2.073zm3.876-4.202v6.349h-1.042v-6.349h1.042zm4.747-2.274-2.485 10.221h-1.023l2.475-10.221h1.033zm2.344 2.274v4.047c0 .481.125.843.375 1.087.255.243.609.365 1.059.365.457 0 .81-.122 1.06-.365.255-.244.383-.606.383-1.087v-4.047h1.042v4.029c0 .517-.113.956-.338 1.315a2.105 2.105 0 0 1-.905.804 2.921 2.921 0 0 1-1.251.265c-.457 0-.874-.089-1.251-.265a2.053 2.053 0 0 1-.886-.804c-.22-.359-.329-.798-.329-1.315v-4.029h1.041zm10.49 6.349h-1.041l-3.133-4.741v4.741h-1.042v-6.358h1.042l3.133 4.732v-4.732h1.041v6.358zm2.409-6.349v6.349h-1.041v-6.349h1.041zm4.747-2.274-2.485 10.221h-1.023l2.476-10.221h1.032zm5.139 7.326h-2.658l-.456 1.297H400.5l2.274-6.358h1.206l2.274 6.358h-1.096l-.457-1.297zm-.292-.85-1.032-2.95-1.041 2.95h2.073zm6.936-4.202v.85h-1.69v5.499h-1.042v-5.499h-1.699v-.85h4.431zm3.95 6.413a3.341 3.341 0 0 1-1.635-.411 3.17 3.17 0 0 1-1.179-1.16 3.324 3.324 0 0 1-.429-1.681c0-.621.143-1.178.429-1.672a3.101 3.101 0 0 1 1.179-1.151 3.285 3.285 0 0 1 1.635-.42c.596 0 1.141.14 1.635.42.499.274.892.658 1.178 1.151.286.494.429 1.051.429 1.672s-.143 1.181-.429 1.681c-.286.493-.679.88-1.178 1.16a3.314 3.314 0 0 1-1.635.411zm0-.905c.42 0 .794-.094 1.123-.283.329-.195.585-.469.767-.822.189-.359.284-.773.284-1.242s-.095-.88-.284-1.233a1.938 1.938 0 0 0-.767-.813 2.212 2.212 0 0 0-1.123-.283c-.42 0-.795.094-1.124.283-.329.189-.587.46-.776.813-.183.353-.274.764-.274 1.233 0 .469.091.883.274 1.242.189.353.447.627.776.822.329.189.704.283 1.124.283zm4.687.905a.645.645 0 0 1-.475-.192.645.645 0 0 1-.192-.475c0-.189.064-.347.192-.475a.645.645 0 0 1 .475-.192c.183 0 .338.064.466.192a.645.645 0 0 1 .192.475.645.645 0 0 1-.192.475.634.634 0 0 1-.466.192zm2.204 0a.643.643 0 0 1-.475-.192.645.645 0 0 1-.192-.475c0-.189.064-.347.192-.475a.643.643 0 0 1 .475-.192c.182 0 .338.064.465.192a.645.645 0 0 1 .192.475.645.645 0 0 1-.192.475.632.632 0 0 1-.465.192zm2.203 0a.645.645 0 0 1-.475-.192.645.645 0 0 1-.192-.475c0-.189.064-.347.192-.475a.645.645 0 0 1 .475-.192c.183 0 .338.064.466.192a.645.645 0 0 1 .192.475.645.645 0 0 1-.192.475.634.634 0 0 1-.466.192z" fill="#8E9196"/></g><defs><linearGradient id="m" x1="151.702" y1="288.883" x2="180.363" y2="288.883" gradientUnits="userSpaceOnUse"><stop stop-color="#E4BF31"/><stop offset="1" stop-color="#F87996"/></linearGradient><linearGradient id="f" x1="71.478" y1="50" x2="369.556" y2="398.869" gradientUnits="userSpaceOnUse"><stop stop-color="#424F62"/><stop offset="1" stop-color="#1E242D"/></linearGradient><linearGradient id="E" x1="352.303" y1="348.657" x2="389.843" y2="437.975" gradientUnits="userSpaceOnUse"><stop stop-color="#424F62"/><stop offset="1" stop-color="#1E242D"/></linearGradient><linearGradient id="x" x1="262.989" y1="348.657" x2="300.53" y2="437.975" gradientUnits="userSpaceOnUse"><stop stop-color="#424F62"/><stop offset="1" stop-color="#1E242D"/></linearGradient><linearGradient id="p" x1="173.676" y1="348.657" x2="211.216" y2="437.975" gradientUnits="userSpaceOnUse"><stop stop-color="#424F62"/><stop offset="1" stop-color="#1E242D"/></linearGradient><linearGradient id="n" x1="71.478" y1="50" x2="260.781" y2="311.06" gradientUnits="userSpaceOnUse"><stop stop-color="#fff"/><stop offset="1" stop-color="#fff" stop-opacity="0"/></linearGradient><linearGradient id="o" x1="84.362" y1="348.657" x2="121.903" y2="437.975" gradientUnits="userSpaceOnUse"><stop stop-color="#424F62"/><stop offset="1" stop-color="#1E242D"/></linearGradient><filter id="d" x="64.91" y="43.91" width="282.149" height="460.776" filterUnits="userSpaceOnUse" color-interpolation-filters="sRGB"><feFlood flood-opacity="0" result="BackgroundImageFix"/><feColorMatrix in="SourceAlpha" values="0 0 0 0 0 0 0 0 0 0 0 0 0 0 0 0 0 0 127 0" result="hardAlpha"/><feOffset dx="20.299" dy="20.299"/><feGaussianBlur stdDeviation="13.194"/><feComposite in2="hardAlpha" operator="out"/><feColorMatrix values="0 0 0 0 0 0 0 0 0 0 0 0 0 0 0 0 0 0 0.3 0"/><feBlend in2="BackgroundImageFix" result="effect1_dropShadow_7284_39514"/><feBlend in="SourceGraphic" in2="effect1_dropShadow_7284_39514" result="shape"/></filter><filter id="h" x="109.988" y="115.307" width="157.042" height="99.579" filterUnits="userSpaceOnUse" color-interpolation-filters="sRGB"><feFlood flood-opacity="0" result="BackgroundImageFix"/><feBlend in="SourceGraphic" in2="BackgroundImageFix" result="shape"/><feGaussianBlur stdDeviation="5.075" result="effect1_foregroundBlur_7284_39514"/></filter><filter id="i" x="120.923" y="122.472" width="131.814" height="84.745" filterUnits="userSpaceOnUse" color-interpolation-filters="sRGB"><feFlood flood-opacity="0" result="BackgroundImageFix"/><feBlend in="SourceGraphic" in2="BackgroundImageFix" result="shape"/><feGaussianBlur stdDeviation="1.015" result="effect1_foregroundBlur_7284_39514"/></filter><filter id="c" x="85.149" y="107.35" width="305.231" height="412.308" filterUnits="userSpaceOnUse" color-interpolation-filters="sRGB"><feFlood flood-opacity="0" result="BackgroundImageFix"/><feBlend in="SourceGraphic" in2="BackgroundImageFix" result="shape"/><feGaussianBlur stdDeviation="61.538" result="effect1_foregroundBlur_7284_39514"/></filter><filter id="l" x="77.029" y="247.552" width="219.33" height="81.331" filterUnits="userSpaceOnUse" color-interpolation-filters="sRGB"><feFlood flood-opacity="0" result="BackgroundImageFix"/><feColorMatrix in="SourceAlpha" values="0 0 0 0 0 0 0 0 0 0 0 0 0 0 0 0 0 0 127 0" result="hardAlpha"/><feOffset dy="4.777"/><feGaussianBlur stdDeviation="3.583"/><feColorMatrix values="0 0 0 0 0 0 0 0 0 0 0 0 0 0 0 0 0 0 0.25 0"/><feBlend in2="BackgroundImageFix" result="effect1_dropShadow_7284_39514"/><feBlend in="SourceGraphic" in2="effect1_dropShadow_7284_39514" result="shape"/></filter><filter id="b" x="-24.673" y="-14.211" width="305.231" height="412.308" filterUnits="userSpaceOnUse" color-interpolation-filters="sRGB"><feFlood flood-opacity="0" result="BackgroundImageFix"/><feBlend in="SourceGraphic" in2="BackgroundImageFix" result="shape"/><feGaussianBlur stdDeviation="61.538" result="effect1_foregroundBlur_7284_39514"/></filter><clipPath id="a"><path fill="#fff" d="M0 0h375v503H0z"/></clipPath><clipPath id="e"><rect x="71" y="50" width="229.373" height="408" rx="16" fill="#fff"/></clipPath><clipPath id="q"><path fill="#fff" transform="translate(185.199 361.083)" d="M0 0h9.936v13.91H0z"/></clipPath><clipPath id="w"><path fill="#fff" transform="translate(191.507 359.15)" d="M0 0h18v18H0z"/></clipPath><clipPath id="y"><path fill="#fff" transform="translate(275 361.424)" d="M0 0h9.448v13.227H0z"/></clipPath><radialGradient id="k" cx="0" cy="0" r="1" gradientUnits="userSpaceOnUse" gradientTransform="matrix(0 70.7924 -92.8699 0 187.414 166.359)"><stop offset=".657" stop-color="#171D25" stop-opacity="0"/><stop offset=".763" stop-color="#E84142"/><stop offset=".805" stop-color="#EAB300"/></radialGradient><radialGradient id="j" cx="0" cy="0" r="1" gradientUnits="userSpaceOnUse" gradientTransform="rotate(172.252 88.074 89.525) scale(58.8106)"><stop offset=".797" stop-opacity="0"/><stop offset=".953" stop-color="#00CFF6"/></radialGradient><radialGradient id="g" cx="0" cy="0" r="1" gradientUnits="userSpaceOnUse" gradientTransform="matrix(0 408 -425.41 0 185.687 50)"><stop stop-color="#fff"/><stop offset=".58" stop-opacity="0"/></radialGradient></defs></svg>