<svg width="375" height="503" viewBox="0 0 375 503" fill="none" xmlns="http://www.w3.org/2000/svg">
<g clip-path="url(#clip0_7284_39784)">
<rect x="20.917" y="266.007" width="67.7863" height="67.7863" rx="33.8931" fill="#161B22"/>
<g opacity="0.1" clip-path="url(#clip1_7284_39784)">
<path d="M41.0817 308.376C41.3271 308.128 41.6646 307.983 42.0225 307.983H74.4822C75.0754 307.983 75.372 308.706 74.9527 309.13L68.5405 315.607C68.295 315.855 67.9576 315.999 67.5996 315.999H35.1399C34.5468 315.999 34.2502 315.276 34.6695 314.853L41.0817 308.376Z" fill="url(#paint0_linear_7284_39784)"/>
<path d="M41.0817 284.194C41.3374 283.946 41.6748 283.801 42.0225 283.801H74.4822C75.0754 283.801 75.372 284.524 74.9527 284.948L68.5405 291.425C68.295 291.673 67.9576 291.817 67.5996 291.817H35.1399C34.5468 291.817 34.2502 291.094 34.6695 290.671L41.0817 284.194Z" fill="url(#paint1_linear_7284_39784)"/>
<path d="M68.5405 296.209C68.295 295.961 67.9576 295.816 67.5996 295.816H35.1399C34.5468 295.816 34.2502 296.54 34.6695 296.963L41.0817 303.44C41.3271 303.688 41.6646 303.832 42.0225 303.832H74.4822C75.0754 303.832 75.372 303.109 74.9527 302.686L68.5405 296.209Z" fill="url(#paint2_linear_7284_39784)"/>
</g>
<rect x="65.8258" y="347.351" width="67.7863" height="67.7863" rx="33.8931" fill="#2D2C27"/>
<g opacity="0.1" clip-path="url(#clip2_7284_39784)">
<path d="M91.4905 377.864L99.7184 369.636L107.95 377.867L112.738 373.08L99.7184 360.061L86.7035 373.076L91.4907 377.863L91.4905 377.864ZM78.5353 381.244L83.3228 376.456L88.11 381.243L83.3225 386.031L78.5353 381.244ZM91.4905 384.625L99.7184 392.853L107.95 384.621L112.74 389.406L112.738 389.409L99.7184 402.427L86.7035 389.412L86.6967 389.406L91.491 384.625L91.4905 384.625ZM111.327 381.246L116.114 376.459L120.902 381.246L116.114 386.034L111.327 381.246Z" fill="white"/>
<path d="M104.574 381.242H104.576L99.7183 376.384L96.1279 379.973L95.7154 380.386L94.8647 381.237L94.8579 381.243L94.8647 381.25L99.7183 386.105L104.576 381.247L104.579 381.244L104.574 381.242" fill="white"/>
</g>
<rect x="237" y="23" width="67.7863" height="67.7863" rx="33.8931" fill="#1B2025"/>
<g opacity="0.02" clip-path="url(#clip3_7284_39784)">
<path d="M262.665 53.5127L270.893 45.2848L279.124 53.5162L283.912 48.7288L270.893 35.71L257.878 48.7249L262.665 53.5123L262.665 53.5127ZM249.709 56.8932L254.497 52.1049L259.284 56.8921L254.497 61.6797L249.709 56.8932ZM262.665 60.2742L270.893 68.5016L279.124 60.2703L283.914 65.0551L283.912 65.0577L270.893 78.0764L257.878 65.0614L257.871 65.0546L262.665 60.2737L262.665 60.2742ZM282.501 56.8952L287.289 52.1076L292.076 56.8949L287.288 61.6824L282.501 56.8952Z" fill="white"/>
<path d="M275.748 56.8906H275.75L270.893 52.0327L267.302 55.6222L266.89 56.0348L266.039 56.8857L266.032 56.8923L266.039 56.8992L270.893 61.7536L275.75 56.8957L275.753 56.893L275.748 56.8906" fill="white"/>
</g>
<rect x="236.985" y="347.351" width="67.7863" height="67.7863" rx="33.8931" fill="#2D333A"/>
<g opacity="0.1" clip-path="url(#clip4_7284_39784)">
<path d="M270.847 359.214L270.551 360.198V388.766L270.847 389.055L284.4 381.217L270.847 359.214Z" fill="#343434"/>
<path d="M270.847 359.214L257.293 381.217L270.847 389.055V375.189V359.214Z" fill="#8C8C8C"/>
<path d="M270.847 391.566L270.681 391.765V401.941L270.847 402.418L284.409 383.731L270.847 391.566Z" fill="#3C3C3B"/>
<path d="M270.846 402.418V391.566L257.293 383.731L270.846 402.418Z" fill="#8C8C8C"/>
<path d="M270.848 389.054L284.401 381.216L270.848 375.188V389.054Z" fill="#141414"/>
<path d="M257.293 381.216L270.846 389.054V375.188L257.293 381.216Z" fill="#393939"/>
</g>
<rect x="151.58" y="23" width="67.7863" height="67.7863" rx="33.8931" fill="#1B2129"/>
<g opacity="0.02" clip-path="url(#clip5_7284_39784)">
<path d="M185.441 34.8628L185.145 35.8473V64.4148L185.441 64.7039L198.995 56.8655L185.441 34.8628Z" fill="#343434"/>
<path d="M185.441 34.8628L171.888 56.8655L185.441 64.704V50.8382V34.8628Z" fill="#8C8C8C"/>
<path d="M185.442 67.2148L185.275 67.4138V77.5901L185.442 78.0669L199.003 59.3804L185.442 67.2148Z" fill="#3C3C3B"/>
<path d="M185.441 78.0669V67.2148L171.888 59.3804L185.441 78.0669Z" fill="#8C8C8C"/>
<path d="M185.442 64.703L198.995 56.8647L185.442 50.8374V64.703Z" fill="#141414"/>
<path d="M171.888 56.8647L185.441 64.703V50.8374L171.888 56.8647Z" fill="#393939"/>
</g>
<rect x="280.199" y="266.007" width="67.7863" height="67.7863" rx="33.8931" fill="#2D2A25"/>
<g opacity="0.1">
<path d="M328.571 295.983C329.169 291.717 326.123 289.424 321.959 287.894L323.31 282.114L320.011 281.238L318.696 286.865C317.829 286.634 316.938 286.417 316.053 286.201L317.378 280.537L314.081 279.661L312.73 285.438C312.012 285.264 311.307 285.092 310.623 284.91L310.627 284.892L306.078 283.68L305.201 287.438C305.201 287.438 307.648 288.036 307.597 288.073C308.932 288.428 309.174 289.372 309.134 290.119L307.595 296.703C307.687 296.728 307.806 296.764 307.938 296.82C307.828 296.791 307.711 296.759 307.589 296.728L305.432 305.951C305.269 306.384 304.855 307.034 303.921 306.787C303.954 306.838 301.523 306.149 301.523 306.149L299.885 310.176L304.178 311.317C304.977 311.531 305.759 311.754 306.53 311.964L305.165 317.81L308.46 318.686L309.811 312.903C310.711 313.164 311.585 313.404 312.44 313.631L311.093 319.387L314.392 320.263L315.756 314.429C321.381 315.564 325.611 315.106 327.391 309.68C328.825 305.312 327.319 302.792 324.36 301.149C326.516 300.619 328.139 299.107 328.572 295.984L328.571 295.983L328.571 295.983ZM321.034 307.254C320.015 311.623 313.118 309.261 310.882 308.669L312.694 300.925C314.929 301.52 322.1 302.698 321.034 307.254H321.034ZM322.054 295.92C321.124 299.894 315.384 297.875 313.522 297.38L315.164 290.356C317.026 290.851 323.023 291.775 322.055 295.92H322.054Z" fill="white"/>
</g>
<rect x="151.406" y="347.351" width="67.7863" height="67.7863" rx="33.8931" fill="#301E26"/>
<g opacity="0.1" clip-path="url(#clip6_7284_39784)">
<path d="M204.989 375.193C203.162 373.506 200.635 370.929 198.576 369.102L198.454 369.017C198.252 368.854 198.023 368.727 197.778 368.64V368.64C192.815 367.714 169.715 363.396 169.264 363.451C169.138 363.468 169.017 363.514 168.911 363.585L168.795 363.676C168.653 363.821 168.544 363.996 168.478 364.188L168.448 364.267V364.699V364.766C171.049 372.007 181.317 395.729 183.338 401.295C183.46 401.673 183.692 402.391 184.124 402.428H184.222C184.453 402.428 185.44 401.125 185.44 401.125C185.44 401.125 203.077 379.736 204.861 377.458C205.092 377.178 205.296 376.876 205.47 376.557C205.515 376.307 205.494 376.05 205.409 375.811C205.325 375.572 205.18 375.359 204.989 375.193V375.193ZM189.965 377.683L197.492 371.441L201.907 375.509L189.965 377.683ZM187.041 377.275L174.081 366.654L195.05 370.521L187.041 377.275ZM188.211 380.059L201.475 377.921L186.31 396.191L188.211 380.059ZM172.321 367.714L185.957 379.285L183.984 396.204L172.321 367.714Z" fill="white"/>
</g>
<rect x="66" y="23" width="67.7863" height="67.7863" rx="33.8931" fill="#1C1D24"/>
<g opacity="0.02" clip-path="url(#clip7_7284_39784)">
<path d="M119.584 50.8415C117.756 49.1545 115.229 46.5784 113.171 44.7513L113.049 44.6661C112.846 44.5033 112.618 44.3757 112.373 44.2885V44.2885C107.409 43.3628 84.3092 39.0448 83.8586 39.0996C83.7323 39.1173 83.6116 39.1631 83.5053 39.2336L83.3896 39.325C83.2471 39.4697 83.1389 39.6445 83.0729 39.8365L83.0425 39.9157V40.3481V40.4151C85.643 47.6563 95.911 71.3775 97.933 76.944C98.0548 77.3216 98.2862 78.0402 98.7186 78.0767H98.816C99.0475 78.0767 100.034 76.7734 100.034 76.7734C100.034 76.7734 117.671 55.3848 119.456 53.107C119.687 52.8265 119.891 52.5247 120.065 52.2057C120.109 51.9561 120.088 51.6993 120.004 51.4602C119.919 51.2211 119.775 51.008 119.584 50.8415V50.8415ZM104.559 53.3324L112.087 47.0899L116.502 51.1582L104.559 53.3324ZM101.636 52.9243L88.6759 42.3031L109.644 46.1703L101.636 52.9243ZM102.805 55.7075L116.069 53.5699L100.905 71.8404L102.805 55.7075ZM86.9158 43.3628L100.552 54.9341L98.5785 71.8526L86.9158 43.3628Z" fill="white"/>
</g>
<g clip-path="url(#clip8_7284_39784)">
<circle cx="56.5043" cy="137.214" r="33.8931" fill="#1A1F26"/>
<g opacity="0.1">
<path d="M33.699 135.386C33.6521 134.918 33.6149 134.786 33.6296 134.659C34.2168 129.583 34.2174 129.58 39.2463 129.583C44.6879 129.587 50.1297 129.577 55.571 129.618C57.0919 129.629 58.3332 129.303 59.3829 128.05C60.8299 126.323 61.3939 126.325 62.7795 128.023C63.805 129.281 64.9819 129.664 66.5495 129.614C69.6933 129.514 72.8475 129.689 75.9877 129.541C77.7358 129.459 78.5275 130.107 78.7465 131.762C78.8832 132.795 79.1282 133.814 79.3821 135.139C78.5923 135.232 77.9397 135.373 77.2865 135.375C72.8282 135.395 68.3687 135.325 63.9122 135.416C62.203 135.451 60.852 135.098 59.8573 133.614C58.9347 132.238 57.801 132.219 56.8585 133.548C55.7337 135.134 54.2625 135.451 52.4286 135.42C46.9229 135.326 41.4145 135.386 35.9072 135.386L33.699 135.386Z" fill="white"/>
<path d="M33.799 141.479C38.3934 141.479 42.6465 141.411 46.8958 141.509C48.7961 141.553 50.3629 141.219 51.5298 139.573C52.4194 138.319 53.5167 138.287 54.3904 139.578C55.536 141.27 57.1107 141.536 59.0007 141.509C64.8378 141.426 70.6769 141.479 76.5152 141.479C77.2259 141.479 77.9366 141.479 79.1285 141.479C78.4833 143.4 78.0222 145.064 77.3315 146.627C77.1545 147.027 76.2535 147.299 75.6831 147.303C68.6643 147.347 61.6438 147.397 54.6275 147.255C53.6481 147.235 52.509 146.369 51.7623 145.589C50.5925 144.367 49.6243 144.108 48.5694 145.54C47.4356 147.08 45.9439 147.475 44.1055 147.364C41.9439 147.235 39.7765 147.236 37.615 147.367C36.0852 147.459 35.3 146.859 34.9373 145.445C34.6297 144.246 34.2571 143.064 33.799 141.479Z" fill="white"/>
<path d="M38.1562 123.515C47.3949 111.029 66.2783 111.579 74.4845 123.358C71.9547 123.535 69.5133 124.201 67.7928 121.56C66.9696 120.297 65.892 120.498 65.078 121.628C63.9122 123.246 62.3772 123.581 60.4703 123.553C53.853 123.456 47.2334 123.515 40.6146 123.515L38.1562 123.515Z" fill="white"/>
<path d="M72.9357 152.883C65.4384 162.036 48.7084 163.19 40.1128 153.192C40.9152 152.447 41.7865 151.767 42.4984 150.948C43.5191 149.773 44.5226 149.696 45.3896 150.951C46.5435 152.622 48.0842 152.938 49.9869 152.915C56.8054 152.832 63.6256 152.883 70.4452 152.883H72.9357Z" fill="white"/>
</g>
</g>
<g clip-path="url(#clip9_7284_39784)">
<path d="M142.085 171.108C160.804 171.108 175.978 155.933 175.978 137.214C175.978 118.496 160.804 103.321 142.085 103.321C123.366 103.321 108.192 118.496 108.192 137.214C108.192 155.933 123.366 171.108 142.085 171.108Z" fill="#24313E"/>
<path opacity="0.1" fill-rule="evenodd" clip-rule="evenodd" d="M128.898 151.512C131.65 156.28 136.58 159.127 142.085 159.127C147.59 159.127 152.52 156.28 155.273 151.512C158.026 146.745 158.026 141.053 155.273 136.285L143.674 116.196C142.968 114.973 141.203 114.973 140.497 116.196L128.898 136.285C126.145 141.052 126.145 146.744 128.898 151.512ZM138.818 125.753L141.291 121.47C141.644 120.858 142.527 120.858 142.88 121.47L152.394 137.948C154.141 140.976 154.47 144.479 153.378 147.686C153.264 147.163 153.105 146.627 152.891 146.087C151.577 142.77 148.606 140.211 144.058 138.48C140.931 137.294 138.935 135.55 138.124 133.295C137.08 130.389 138.171 127.221 138.818 125.753V125.753ZM134.601 133.057L131.777 137.948C129.625 141.675 129.625 146.124 131.777 149.851C133.929 153.578 137.782 155.802 142.085 155.802C144.944 155.802 147.604 154.82 149.699 153.069C149.972 152.381 150.818 149.863 149.773 147.268C148.807 144.872 146.484 142.959 142.868 141.581C138.779 140.031 136.123 137.61 134.974 134.388C134.816 133.944 134.693 133.499 134.601 133.057V133.057Z" fill="white"/>
</g>
<g clip-path="url(#clip10_7284_39784)">
<path d="M144.085 491.107C162.804 491.107 177.978 475.933 177.978 457.214C177.978 438.495 162.804 423.321 144.085 423.321C125.366 423.321 110.192 438.495 110.192 457.214C110.192 475.933 125.366 491.107 144.085 491.107Z" fill="#192029"/>
<path opacity="0.02" fill-rule="evenodd" clip-rule="evenodd" d="M130.898 471.512C133.65 476.28 138.58 479.126 144.085 479.126C149.59 479.126 154.52 476.28 157.273 471.512C160.026 466.745 160.026 461.053 157.273 456.285L145.674 436.195C144.968 434.972 143.203 434.972 142.496 436.195L130.898 456.285C128.145 461.052 128.145 466.744 130.898 471.512ZM140.818 445.753L143.291 441.469C143.644 440.858 144.527 440.858 144.88 441.469L154.393 457.948C156.141 460.975 156.469 464.479 155.378 467.685C155.264 467.162 155.105 466.627 154.891 466.086C153.577 462.77 150.605 460.211 146.058 458.479C142.931 457.293 140.935 455.549 140.124 453.295C139.08 450.389 140.171 447.22 140.818 445.753V445.753ZM136.601 453.057L133.777 457.948C131.625 461.675 131.625 466.124 133.777 469.851C135.929 473.578 139.782 475.802 144.085 475.802C146.944 475.802 149.604 474.82 151.699 473.068C151.972 472.38 152.818 469.863 151.773 467.268C150.807 464.872 148.484 462.959 144.867 461.581C140.779 460.03 138.123 457.609 136.974 454.387C136.816 453.943 136.693 453.499 136.601 453.057V453.057Z" fill="white"/>
</g>
<g clip-path="url(#clip11_7284_39784)">
<path d="M313.245 171.108C331.964 171.108 347.138 155.933 347.138 137.214C347.138 118.496 331.964 103.321 313.245 103.321C294.527 103.321 279.352 118.496 279.352 137.214C279.352 155.933 294.527 171.108 313.245 171.108Z" fill="#172C39"/>
<path opacity="0.1" fill-rule="evenodd" clip-rule="evenodd" d="M315.788 130.647L323.414 126.199V135.096L315.788 130.647ZM323.414 149.712L313.246 155.643L303.078 149.712V139.332L313.246 145.264L323.414 139.332V149.712ZM303.078 126.199L310.704 130.647L303.078 135.096V126.199ZM314.517 132.765L322.143 137.214L314.517 141.662V132.765ZM311.975 141.662L304.349 137.214L311.975 132.765V141.662ZM322.143 124.08L313.246 129.164L304.349 124.08L313.246 118.785L322.143 124.08ZM300.536 123.233V150.983L313.246 158.185L325.956 150.983V123.233L313.246 116.031L300.536 123.233Z" fill="white"/>
</g>
<rect x="193.772" y="103.321" width="67.7863" height="67.7863" rx="33.8931" fill="#161D27"/>
<path opacity="0.1" fill-rule="evenodd" clip-rule="evenodd" d="M237.592 120.829L247.153 126.307V137.435V148.563L237.523 154.081L227.892 159.599H227.665H227.437L217.807 154.081L208.176 148.563V137.435V126.306L217.884 120.745L227.591 115.184L227.811 115.267L228.031 115.351L237.592 120.829ZM220.816 125.847L214.188 129.655L214.187 137.435L214.187 145.214L220.802 148.995L227.417 152.775H227.673H227.929L234.535 148.995L241.141 145.214V137.435V129.655L234.537 125.874L227.934 122.094L227.689 122.066L227.445 122.038L220.816 125.847ZM232.265 129.582L236.737 132.127L236.7 132.254L236.664 132.381L234.805 133.458L232.946 134.536L230.405 133.077L227.864 131.618H227.667H227.47L225.003 133.03L222.536 134.442V137.435V140.427L225.003 141.839L227.47 143.251H227.667H227.864L230.405 141.792L232.946 140.333L234.805 141.411L236.664 142.488L236.7 142.615L236.736 142.742L232.2 145.326L227.665 147.911L223.129 145.326L218.593 142.742V137.435V132.127L223.092 129.554L227.591 126.981L227.693 127.009L227.794 127.038L232.265 129.582Z" fill="white"/>
<rect x="194.772" y="423.321" width="67.7863" height="67.7863" rx="33.8931" fill="#171D25"/>
<path opacity="0.02" fill-rule="evenodd" clip-rule="evenodd" d="M238.592 440.828L248.153 446.306V457.434V468.563L238.523 474.081L228.892 479.599H228.665H228.437L218.807 474.081L209.176 468.563V457.434V446.306L218.884 440.744L228.591 435.183L228.811 435.267L229.031 435.35L238.592 440.828ZM221.816 445.846L215.188 449.655L215.187 457.434L215.187 465.214L221.802 468.994L228.417 472.775H228.673H228.929L235.535 468.994L242.141 465.214V457.434V449.655L235.537 445.874L228.934 442.093L228.689 442.066L228.445 442.038L221.816 445.846ZM233.265 449.582L237.737 452.127L237.7 452.253L237.664 452.38L235.805 453.458L233.946 454.535L231.405 453.076L228.864 451.618H228.667H228.47L226.003 453.03L223.536 454.442V457.434V460.426L226.003 461.838L228.47 463.25H228.667H228.864L231.405 461.792L233.946 460.333L235.805 461.41L237.664 462.488L237.7 462.615L237.736 462.742L233.2 465.326L228.665 467.91L224.129 465.326L219.593 462.742V457.434V452.127L224.092 449.553L228.591 446.98L228.693 447.009L228.794 447.037L233.265 449.582Z" fill="white"/>
<path d="M-24.2804 448.307L18.6297 373.71M18.6297 75.3245L61.5397 0.727936L104.45 75.3245M18.6297 75.3245L-24.2804 149.921L18.6297 224.517M18.6297 75.3245L-27 -4M18.6297 75.3245L61.5397 149.921M104.45 75.3245L147.36 149.921M104.45 75.3245L147.36 0.727936L190.27 75.3245M104.45 75.3245L61.5397 149.921M147.36 149.921L190.27 224.517M147.36 149.921L190.27 75.3245M147.36 149.921L104.45 224.517M190.27 224.517L233.18 299.114M190.27 224.517L233.18 149.921M190.27 224.517L147.36 299.114M233.18 299.114L276.09 373.71M233.18 299.114L276.09 224.517M233.18 299.114L190.27 373.71M276.09 373.71L319 448.307L361.91 373.71M276.09 373.71L319 299.114M276.09 373.71L233.18 448.307L190.27 373.71M407.54 -4L361.91 75.3245M361.91 75.3245L319 149.921M361.91 75.3245L319 0.727966L276.09 75.3245M361.91 75.3245L404.82 149.921L361.91 224.517M319 149.921L276.09 224.517M319 149.921L276.09 75.3245M319 149.921L361.91 224.517M276.09 224.517L233.18 149.921M276.09 224.517L319 299.114M190.27 373.71L147.36 448.307L104.45 373.71M190.27 373.71L147.36 299.114M18.6297 224.517L61.5397 299.114M18.6297 224.517L61.5397 149.921M18.6297 224.517L-24.2804 299.114L18.6297 373.71M61.5397 299.114L104.45 373.71M61.5397 299.114L104.45 224.517M61.5397 299.114L18.6297 373.71M104.45 373.71L147.36 299.114M104.45 373.71L61.5397 448.307L18.6297 373.71M190.27 75.3245L233.18 0.727966L276.09 75.3245M190.27 75.3245L233.18 149.921M104.45 224.517L61.5397 149.921M104.45 224.517L147.36 299.114M276.09 75.3245L233.18 149.921M361.91 224.517L404.82 299.114L361.91 373.71M361.91 224.517L319 299.114M361.91 373.71L319 299.114M361.91 373.71L404.82 448.307" stroke="url(#paint3_radial_7284_39784)" stroke-width="1.4"/>
<g opacity="0.6" filter="url(#filter0_f_7284_39784)">
<rect x="94" y="167" width="177" height="189" rx="88.5" fill="#68778E" fill-opacity="0.52"/>
</g>
<g filter="url(#filter1_d_7284_39784)">
<rect x="65.8252" y="184.664" width="67.7863" height="67.7863" rx="33.8931" fill="#8247E5"/>
<g clip-path="url(#clip12_7284_39784)">
<path d="M110.274 211.08C109.508 210.642 108.523 210.642 107.647 211.08L101.518 214.691L97.3595 216.99L91.3399 220.601C90.5738 221.039 89.5888 221.039 88.7132 220.601L84.007 217.756C83.2409 217.318 82.6936 216.443 82.6936 215.457V209.985C82.6936 209.11 83.1314 208.234 84.007 207.687L88.7132 204.951C89.4793 204.513 90.4643 204.513 91.3399 204.951L96.0461 207.796C96.8122 208.234 97.3595 209.11 97.3595 210.095V213.706L101.518 211.299V207.577C101.518 206.702 101.081 205.826 100.205 205.279L91.4494 200.135C90.6832 199.697 89.6982 199.697 88.8226 200.135L79.848 205.388C78.9725 205.826 78.5347 206.702 78.5347 207.577V217.865C78.5347 218.741 78.9725 219.616 79.848 220.164L88.7132 225.308C89.4793 225.745 90.4643 225.745 91.3399 225.308L97.3595 221.805L101.518 219.398L107.538 215.895C108.304 215.457 109.289 215.457 110.165 215.895L114.871 218.631C115.637 219.069 116.184 219.945 116.184 220.93V226.402C116.184 227.278 115.746 228.153 114.871 228.701L110.274 231.437C109.508 231.874 108.523 231.874 107.647 231.437L102.941 228.701C102.175 228.263 101.628 227.387 101.628 226.402V222.9L97.4689 225.308V228.919C97.4689 229.795 97.9067 230.671 98.7823 231.218L107.647 236.362C108.414 236.8 109.399 236.8 110.274 236.362L119.139 231.218C119.905 230.78 120.453 229.904 120.453 228.919V218.522C120.453 217.646 120.015 216.771 119.139 216.224L110.274 211.08Z" fill="white"/>
</g>
</g>
<g filter="url(#filter2_d_7284_39784)">
<path d="M185.298 252.45C204.017 252.45 219.192 237.276 219.192 218.557C219.192 199.839 204.017 184.664 185.298 184.664C166.58 184.664 151.405 199.839 151.405 218.557C151.405 237.276 166.58 252.45 185.298 252.45Z" fill="#FF0420"/>
<path d="M175.414 227.559C173.394 227.559 171.74 227.085 170.452 226.135C169.178 225.173 168.54 223.79 168.54 222.014C168.54 221.634 168.581 221.187 168.662 220.645C168.879 219.425 169.191 217.96 169.598 216.239C170.75 211.575 173.733 209.243 178.532 209.243C179.834 209.243 181.013 209.46 182.043 209.907C183.074 210.328 183.887 210.978 184.484 211.846C185.08 212.7 185.379 213.717 185.379 214.897C185.379 215.249 185.338 215.696 185.256 216.239C184.999 217.744 184.701 219.221 184.335 220.645C183.738 222.963 182.721 224.712 181.257 225.864C179.806 227.003 177.854 227.559 175.414 227.559ZM175.78 223.899C176.729 223.899 177.529 223.614 178.193 223.058C178.871 222.502 179.359 221.648 179.644 220.482C180.037 218.882 180.335 217.5 180.539 216.306C180.606 215.954 180.647 215.588 180.647 215.208C180.647 213.663 179.847 212.89 178.234 212.89C177.285 212.89 176.471 213.175 175.794 213.731C175.129 214.286 174.655 215.141 174.37 216.306C174.058 217.445 173.76 218.828 173.448 220.482C173.38 220.821 173.34 221.174 173.34 221.553C173.326 223.126 174.153 223.899 175.78 223.899Z" fill="white"/>
<path d="M186.559 227.316C186.369 227.316 186.233 227.261 186.125 227.139C186.043 227.004 186.016 226.855 186.043 226.679L189.555 210.139C189.582 209.949 189.677 209.8 189.839 209.678C189.989 209.556 190.151 209.501 190.327 209.501H197.093C198.977 209.501 200.482 209.895 201.621 210.667C202.773 211.454 203.356 212.579 203.356 214.057C203.356 214.477 203.302 214.924 203.207 215.385C202.787 217.338 201.932 218.775 200.631 219.71C199.357 220.646 197.608 221.106 195.384 221.106H191.954L190.788 226.679C190.748 226.868 190.666 227.017 190.504 227.139C190.355 227.261 190.192 227.316 190.016 227.316H186.559ZM195.561 217.595C196.279 217.595 196.889 217.405 197.418 217.012C197.96 216.619 198.313 216.063 198.489 215.331C198.543 215.046 198.57 214.789 198.57 214.572C198.57 214.084 198.421 213.704 198.136 213.447C197.852 213.175 197.35 213.04 196.659 213.04H193.608L192.646 217.595H195.561V217.595Z" fill="white"/>
</g>
<g filter="url(#filter3_d_7284_39784)">
<rect x="236.984" y="184.664" width="67.7863" height="67.7863" rx="33.8931" fill="#E84142"/>
<path d="M280.552 220.279C281.462 218.674 282.931 218.674 283.841 220.279L289.508 230.438C290.418 232.044 289.673 233.353 287.853 233.353H276.436C274.637 233.353 273.892 232.044 274.782 230.438L280.552 220.279ZM269.59 200.721C270.501 199.116 271.948 199.116 272.858 200.721L274.12 203.045L277.098 208.388C277.822 209.909 277.822 211.704 277.098 213.225L267.109 230.903C266.199 232.339 264.689 233.248 263.013 233.353H254.72C252.9 233.353 252.155 232.065 253.065 230.438L269.59 200.721Z" fill="white"/>
</g>
<g filter="url(#filter4_d_7284_39784)">
<path d="M140.389 333.794C159.285 333.794 174.282 318.497 174.282 299.901C174.282 281.005 158.985 266.008 140.389 266.008C121.493 266.008 106.496 281.305 106.496 299.901C106.496 318.497 121.793 333.794 140.389 333.794Z" fill="#2C374B"/>
<path fill-rule="evenodd" clip-rule="evenodd" d="M158.988 287.605C158.688 287.305 143.991 278.607 142.192 278.007C141.592 277.707 140.092 277.407 139.192 277.707C138.292 278.007 122.696 287.005 122.096 287.605C121.796 287.905 121.496 288.505 121.196 288.805C120.896 289.404 120.896 289.704 120.896 300.202V311L122.995 312.2C124.195 312.8 125.095 313.4 125.095 313.4C125.395 313.4 139.492 290.904 139.492 290.604C139.492 290.304 136.193 290.304 135.293 290.604C134.093 290.904 133.193 291.504 132.594 292.104C132.294 292.404 130.494 295.403 128.094 298.703C125.995 302.002 124.195 305.001 124.195 305.001C124.195 305.001 124.195 302.002 124.195 297.803V290.304L124.495 290.004C125.095 289.404 140.392 280.706 140.992 280.706C141.292 280.706 141.592 280.706 145.191 282.806C146.391 283.406 149.69 285.205 152.389 287.005C155.089 288.505 157.488 290.004 157.788 290.304L158.088 290.604V306.201L150.59 294.503C150.29 293.903 149.99 293.304 149.69 293.004C149.69 293.004 149.39 293.604 147.59 296.603C147.291 296.903 146.991 297.503 146.991 297.803L146.691 298.403L146.991 298.703L147.291 299.002C147.291 299.002 147.291 299.302 147.59 299.302L148.19 300.202C148.19 300.202 148.19 300.502 148.49 300.502C148.79 300.802 149.09 301.402 149.09 301.702C149.09 301.702 149.09 301.702 149.09 302.002L155.389 312.2L154.789 312.5C154.489 312.8 154.189 312.8 153.889 312.8L146.091 300.802L145.791 300.502L145.191 301.702L142.192 306.501L148.19 316.099C147.291 316.699 142.192 320.298 141.892 320.298C141.592 320.298 134.693 315.799 134.993 315.499C134.993 315.499 137.093 311.9 139.492 307.701C141.592 304.101 144.291 299.602 146.091 296.603C148.19 293.004 149.09 291.204 149.09 291.204C149.09 291.204 147.59 291.204 145.791 291.204H142.791L135.893 302.602C133.493 306.801 131.094 310.7 129.894 312.8C127.794 313.1 127.195 313.699 127.195 313.699L126.895 314.299L132.294 317.299C135.293 319.098 137.992 320.598 138.592 320.898C139.492 321.498 140.992 321.498 141.592 321.498C142.192 321.198 157.788 312.2 158.688 311.6C158.988 311.3 159.288 311 159.588 310.4L159.888 309.5V299.602V289.704L159.588 289.104C159.588 288.505 158.988 287.905 158.988 287.605Z" fill="white"/>
<path d="M157.488 305.901L148.49 292.104L145.19 297.502L153.888 311.6L157.788 309.8L157.488 305.901Z" fill="#24A2EE"/>
<path d="M153.289 313.399L144.29 299.602L140.391 305.6L147.59 316.998L152.089 315.198L153.289 313.399Z" fill="#24A2EE"/>
<path fill-rule="evenodd" clip-rule="evenodd" d="M123.893 290.304L140.39 280.706L156.887 290.304V309.5L140.39 319.098L128.093 312.199L126.593 314.899L140.09 322.697C140.39 322.997 140.69 322.997 140.99 322.697L159.886 311.899C160.186 311.6 160.486 311.3 160.486 311V289.404C160.486 289.104 160.186 288.804 159.886 288.504L140.99 277.706C140.69 277.406 140.39 277.406 140.09 277.706L121.194 288.204C120.894 288.504 120.594 288.804 120.594 289.104V310.7C120.594 311 120.894 311.3 121.194 311.6L125.093 313.699L126.893 311L124.193 309.5V290.304H123.893Z" fill="#98BCDC"/>
<path d="M147.588 290.304H141.289L126.592 314.299L131.691 317.299L147.588 290.304Z" fill="white"/>
<path d="M131.692 292.704C133.192 290.304 137.391 290.304 139.19 290.604L124.793 313.699C124.193 313.399 122.994 312.8 122.094 312.2C120.894 311.6 120.594 311.6 120.594 310.7V309.5C123.893 304.701 130.192 295.103 131.692 292.704Z" fill="white"/>
</g>
<g filter="url(#filter5_d_7284_39784)">
<rect x="194.619" y="266.008" width="67.7863" height="67.7863" rx="33.8931" fill="#2C2C2C"/>
<path d="M251.942 305.55L229.632 322.046C229.337 322.262 228.903 322.282 228.608 322.065L205.944 306.043C205.51 305.727 205.411 305.097 205.766 304.683L228.056 277.959C228.371 277.565 228.962 277.565 229.297 277.959L252.06 304.525C252.316 304.841 252.277 305.314 251.942 305.55Z" fill="#FFF4FC"/>
<path d="M250.74 304.999L229.534 320.666L229.416 304.703L229.258 279.635L250.247 304.407L250.74 304.999Z" fill="url(#paint4_linear_7284_39784)"/>
<path d="M206.811 305.334L228.568 320.666L228.075 279.635L206.811 305.334Z" fill="url(#paint5_linear_7284_39784)"/>
<path d="M228.391 304.744L206.968 305.158L206.811 305.335L228.568 320.668L228.391 304.744Z" fill="url(#paint6_linear_7284_39784)"/>
<path d="M229.415 304.703L250.246 304.408L250.739 304.999L229.534 320.667L229.415 304.703Z" fill="url(#paint7_linear_7284_39784)"/>
<path d="M229.416 304.506L250.247 304.21M228.391 304.545L206.968 304.959M228.292 297.549C223.681 294.021 221.73 293.47 221 294.061C218.99 295.736 226.44 306.634 223.464 309.374C222.597 310.162 220.803 310.339 217.354 310.674C216.29 310.773 215.403 310.812 214.832 310.812M236.451 304.407L229.376 298.219M224.705 283.517C224.646 284.483 224.686 286.394 225.671 288.503C226.459 290.198 227.543 291.302 228.233 291.913M245.142 308.94C245.32 308.684 247.527 305.432 246.167 302.377C245.162 300.111 242.699 299.067 242.324 298.909C241.831 298.692 241.812 298.751 239.506 298.002C238.107 297.529 237.397 297.313 236.786 297.076C235.84 296.721 234.007 296.012 231.918 294.672C231.229 294.238 230.342 293.607 229.337 292.78" stroke="#98C9C0" stroke-width="0.394156" stroke-miterlimit="10"/>
</g>
</g>
<defs>
<filter id="filter0_f_7284_39784" x="4" y="77" width="357" height="369" filterUnits="userSpaceOnUse" color-interpolation-filters="sRGB">
<feFlood flood-opacity="0" result="BackgroundImageFix"/>
<feBlend mode="normal" in="SourceGraphic" in2="BackgroundImageFix" result="shape"/>
<feGaussianBlur stdDeviation="45" result="effect1_foregroundBlur_7284_39784"/>
</filter>
<filter id="filter1_d_7284_39784" x="59.1703" y="178.009" width="125.462" height="125.462" filterUnits="userSpaceOnUse" color-interpolation-filters="sRGB">
<feFlood flood-opacity="0" result="BackgroundImageFix"/>
<feColorMatrix in="SourceAlpha" type="matrix" values="0 0 0 0 0 0 0 0 0 0 0 0 0 0 0 0 0 0 127 0" result="hardAlpha"/>
<feOffset dx="22.1831" dy="22.1831"/>
<feGaussianBlur stdDeviation="14.419"/>
<feComposite in2="hardAlpha" operator="out"/>
<feColorMatrix type="matrix" values="0 0 0 0 0 0 0 0 0 0 0 0 0 0 0 0 0 0 0.3 0"/>
<feBlend mode="normal" in2="BackgroundImageFix" result="effect1_dropShadow_7284_39784"/>
<feBlend mode="normal" in="SourceGraphic" in2="effect1_dropShadow_7284_39784" result="shape"/>
</filter>
<filter id="filter2_d_7284_39784" x="144.75" y="178.009" width="125.462" height="125.462" filterUnits="userSpaceOnUse" color-interpolation-filters="sRGB">
<feFlood flood-opacity="0" result="BackgroundImageFix"/>
<feColorMatrix in="SourceAlpha" type="matrix" values="0 0 0 0 0 0 0 0 0 0 0 0 0 0 0 0 0 0 127 0" result="hardAlpha"/>
<feOffset dx="22.1831" dy="22.1831"/>
<feGaussianBlur stdDeviation="14.419"/>
<feComposite in2="hardAlpha" operator="out"/>
<feColorMatrix type="matrix" values="0 0 0 0 0 0 0 0 0 0 0 0 0 0 0 0 0 0 0.3 0"/>
<feBlend mode="normal" in2="BackgroundImageFix" result="effect1_dropShadow_7284_39784"/>
<feBlend mode="normal" in="SourceGraphic" in2="effect1_dropShadow_7284_39784" result="shape"/>
</filter>
<filter id="filter3_d_7284_39784" x="230.329" y="178.009" width="125.462" height="125.462" filterUnits="userSpaceOnUse" color-interpolation-filters="sRGB">
<feFlood flood-opacity="0" result="BackgroundImageFix"/>
<feColorMatrix in="SourceAlpha" type="matrix" values="0 0 0 0 0 0 0 0 0 0 0 0 0 0 0 0 0 0 127 0" result="hardAlpha"/>
<feOffset dx="22.1831" dy="22.1831"/>
<feGaussianBlur stdDeviation="14.419"/>
<feComposite in2="hardAlpha" operator="out"/>
<feColorMatrix type="matrix" values="0 0 0 0 0 0 0 0 0 0 0 0 0 0 0 0 0 0 0.3 0"/>
<feBlend mode="normal" in2="BackgroundImageFix" result="effect1_dropShadow_7284_39784"/>
<feBlend mode="normal" in="SourceGraphic" in2="effect1_dropShadow_7284_39784" result="shape"/>
</filter>
<filter id="filter4_d_7284_39784" x="99.8412" y="259.353" width="125.462" height="125.462" filterUnits="userSpaceOnUse" color-interpolation-filters="sRGB">
<feFlood flood-opacity="0" result="BackgroundImageFix"/>
<feColorMatrix in="SourceAlpha" type="matrix" values="0 0 0 0 0 0 0 0 0 0 0 0 0 0 0 0 0 0 127 0" result="hardAlpha"/>
<feOffset dx="22.1831" dy="22.1831"/>
<feGaussianBlur stdDeviation="14.419"/>
<feComposite in2="hardAlpha" operator="out"/>
<feColorMatrix type="matrix" values="0 0 0 0 0 0 0 0 0 0 0 0 0 0 0 0 0 0 0.3 0"/>
<feBlend mode="normal" in2="BackgroundImageFix" result="effect1_dropShadow_7284_39784"/>
<feBlend mode="normal" in="SourceGraphic" in2="effect1_dropShadow_7284_39784" result="shape"/>
</filter>
<filter id="filter5_d_7284_39784" x="187.964" y="259.353" width="125.462" height="125.462" filterUnits="userSpaceOnUse" color-interpolation-filters="sRGB">
<feFlood flood-opacity="0" result="BackgroundImageFix"/>
<feColorMatrix in="SourceAlpha" type="matrix" values="0 0 0 0 0 0 0 0 0 0 0 0 0 0 0 0 0 0 127 0" result="hardAlpha"/>
<feOffset dx="22.1831" dy="22.1831"/>
<feGaussianBlur stdDeviation="14.419"/>
<feComposite in2="hardAlpha" operator="out"/>
<feColorMatrix type="matrix" values="0 0 0 0 0 0 0 0 0 0 0 0 0 0 0 0 0 0 0.3 0"/>
<feBlend mode="normal" in2="BackgroundImageFix" result="effect1_dropShadow_7284_39784"/>
<feBlend mode="normal" in="SourceGraphic" in2="effect1_dropShadow_7284_39784" result="shape"/>
</filter>
<linearGradient id="paint0_linear_7284_39784" x1="71.3814" y1="279.932" x2="48.5601" y2="323.207" gradientUnits="userSpaceOnUse">
<stop stop-color="#00FFA3"/>
<stop offset="1" stop-color="#DC1FFF"/>
</linearGradient>
<linearGradient id="paint1_linear_7284_39784" x1="61.5586" y1="274.752" x2="38.7373" y2="318.027" gradientUnits="userSpaceOnUse">
<stop stop-color="#00FFA3"/>
<stop offset="1" stop-color="#DC1FFF"/>
</linearGradient>
<linearGradient id="paint2_linear_7284_39784" x1="66.4387" y1="277.327" x2="43.6175" y2="320.602" gradientUnits="userSpaceOnUse">
<stop stop-color="#00FFA3"/>
<stop offset="1" stop-color="#DC1FFF"/>
</linearGradient>
<radialGradient id="paint3_radial_7284_39784" cx="0" cy="0" r="1" gradientUnits="userSpaceOnUse" gradientTransform="translate(190 254) rotate(90) scale(183.5 241.84)">
<stop offset="0.0796662" stop-color="#55657B"/>
<stop offset="0.364239" stop-color="#F3F4F5" stop-opacity="0.0590283"/>
<stop offset="1" stop-color="white" stop-opacity="0"/>
</radialGradient>
<linearGradient id="paint4_linear_7284_39784" x1="229.255" y1="300.152" x2="250.745" y2="300.152" gradientUnits="userSpaceOnUse">
<stop stop-color="#3B8270"/>
<stop offset="1" stop-color="#305C6E"/>
</linearGradient>
<linearGradient id="paint5_linear_7284_39784" x1="206.819" y1="300.152" x2="228.573" y2="300.152" gradientUnits="userSpaceOnUse">
<stop stop-color="#4E7F98"/>
<stop offset="1" stop-color="#3BC0B5"/>
</linearGradient>
<linearGradient id="paint6_linear_7284_39784" x1="206.819" y1="312.704" x2="228.573" y2="312.704" gradientUnits="userSpaceOnUse">
<stop stop-color="#30435C"/>
<stop offset="1" stop-color="#299AA9"/>
</linearGradient>
<linearGradient id="paint7_linear_7284_39784" x1="229.42" y1="312.544" x2="250.744" y2="312.544" gradientUnits="userSpaceOnUse">
<stop stop-color="#2E2C29"/>
<stop offset="1" stop-color="#323232"/>
</linearGradient>
<clipPath id="clip0_7284_39784">
<rect width="375" height="503" fill="white"/>
</clipPath>
<clipPath id="clip1_7284_39784">
<rect width="40.6718" height="32.1985" fill="white" transform="translate(34.4746 283.801)"/>
</clipPath>
<clipPath id="clip2_7284_39784">
<rect width="42.3664" height="42.3664" fill="white" transform="translate(78.5353 360.061)"/>
</clipPath>
<clipPath id="clip3_7284_39784">
<rect width="42.3664" height="42.3664" fill="white" transform="translate(249.709 35.71)"/>
</clipPath>
<clipPath id="clip4_7284_39784">
<rect width="27.1145" height="43.2137" fill="white" transform="translate(257.293 359.214)"/>
</clipPath>
<clipPath id="clip5_7284_39784">
<rect width="27.1145" height="43.2137" fill="white" transform="translate(171.888 34.8628)"/>
</clipPath>
<clipPath id="clip6_7284_39784">
<rect width="38.9771" height="38.9771" fill="white" transform="translate(167.504 363.45)"/>
</clipPath>
<clipPath id="clip7_7284_39784">
<rect width="38.9771" height="38.9771" fill="white" transform="translate(82.0988 39.0991)"/>
</clipPath>
<clipPath id="clip8_7284_39784">
<rect width="67.7863" height="67.7863" fill="white" transform="translate(22.6112 103.321)"/>
</clipPath>
<clipPath id="clip9_7284_39784">
<rect width="67.7863" height="67.7863" fill="white" transform="translate(108.192 103.321)"/>
</clipPath>
<clipPath id="clip10_7284_39784">
<rect width="67.7863" height="67.7863" fill="white" transform="translate(110.192 423.321)"/>
</clipPath>
<clipPath id="clip11_7284_39784">
<rect width="67.7863" height="67.7863" fill="white" transform="translate(279.352 103.321)"/>
</clipPath>
<clipPath id="clip12_7284_39784">
<rect width="42.0275" height="36.6646" fill="white" transform="translate(78.5347 199.916)"/>
</clipPath>
</defs>
</svg>
