<svg width="375" height="733" viewBox="0 0 375 733" fill="none" xmlns="http://www.w3.org/2000/svg">
    <path d="M146.667 -9.98076e-06L146.667 812M266.667 -4.7354e-06L266.667 812M26.6667 -1.52261e-05L26.6667 812M206.667 -7.35808e-06L206.667 812M326.667 -2.11272e-06L326.667 812M86.6667 -1.26034e-05L86.6667 812M176.667 -8.66942e-06L176.667 812M296.667 -3.42406e-06L296.667 812M56.6667 -1.39148e-05L56.6667 812M236.667 -6.04674e-06L236.667 812M356.667 -8.01376e-07L356.667 812M116.667 -1.12921e-05L116.667 812M375 96.8479L1.65303e-05 96.8479M375 218.648L1.12062e-05 218.648M375 157.748L1.38683e-05 157.748M375 279.548L8.54422e-06 279.548M375 35.9479L1.91923e-05 35.9479M375 127.298L1.51993e-05 127.298M375 249.098L9.87523e-06 249.098M375 5.49792L2.05233e-05 5.49786M375 188.198L1.25373e-05 188.198M375 309.998L7.21321e-06 309.998M375 66.3979L1.78613e-05 66.3979M375 462.248L5.58151e-07 462.248M375 584.048L-4.7659e-06 584.048M375 340.448L5.8822e-06 340.448M375 523.148L-2.10387e-06 523.148M375 644.948L-7.42792e-06 644.948M375 401.348L3.22017e-06 401.348M375 492.698L-7.72862e-07 492.698M375 614.498L-6.09691e-06 614.498M375 370.898L4.55118e-06 370.898M375 553.598L-3.43488e-06 553.598M375 675.398L-8.75893e-06 675.398M375 431.798L1.88916e-06 431.798M375 705.848L-1.00899e-05 705.848M375 766.748L-1.2752e-05 766.748M375 736.298L-1.1421e-05 736.298M375 797.198L-1.4083e-05 797.198"
          stroke="url(#paint0_linear_6428_54693)" stroke-width="1.65929"/>
    <defs>
        <linearGradient id="paint0_linear_6428_54693" x1="218.322" y1="-244.782" x2="219.137" y2="323.28"
                        gradientUnits="userSpaceOnUse">
            <stop stop-color="#3A3E4B"/>
            <stop offset="1" stop-color="#3A3E4B" stop-opacity="0"/>
        </linearGradient>
    </defs>
</svg>
