<svg width="46" height="36" viewBox="0 0 46 36" fill="none" xmlns="http://www.w3.org/2000/svg">
    <path fill-rule="evenodd" clip-rule="evenodd" d="M9.57828 1.07592C5.3014 5.60743 5.22574 12.8966 9.41951 16.3768C11.5342 18.1316 11.9137 18.608 11.6307 19.1523C11.2961 19.7958 8.75557 18.929 6.33901 17.3468C3.05565 15.1971 2.54526 15.0665 1.83516 16.1946C0.365794 18.5293 0.696722 22.0621 2.50044 23.2972L3.23884 23.8028L4.87709 23.6774C8.8086 23.3762 9.6234 23.5165 10.1427 24.5847C10.5667 25.4565 9.67404 25.7185 5.91961 25.8248C2.11068 25.9325 1.72837 26.1521 2.69256 27.6772C4.39604 30.3718 7.11941 30.896 9.39643 28.9675C10.2306 28.2608 10.3414 28.2755 10.6434 29.1323C12.7215 37.7929 33.2398 37.7929 35.3179 29.2824C35.8852 28.2719 36.063 28.235 36.8611 28.9617C39.0565 30.9602 42.2815 30.2272 43.7324 27.4C44.3899 26.1186 43.9777 25.9282 40.3229 25.8248C36.5685 25.7185 35.6758 25.4565 36.0998 24.5847C36.6164 23.5222 37.5334 23.3607 41.2372 23.6799C44.4614 23.9579 46.0642 21.5991 45.1085 17.9828C44.3201 14.9991 43.6342 14.862 40.3582 17.0331C35.5508 20.2189 32.0869 20.1422 36.1565 16.9401C39.5931 14.236 40.5181 11.6936 39.6429 7.35746C38.8304 3.33185 36.1022 -0.614824 34.9889 0.624946C34.0418 1.67937 32.3806 7.28753 31.3792 12.8106C30.7041 16.5339 29.8189 17.1246 26.2899 16.2063C24.1799 15.6572 22.0626 15.6572 19.9526 16.2063C16.4557 17.1162 15.5524 16.5326 14.8731 12.9242C13.7071 6.73 12.2409 1.76221 11.2411 0.618041C10.8342 0.152509 10.3149 0.295529 9.57828 1.07592ZM16.5982 22.1221C18.0824 22.5375 19.1022 25.1074 18.653 27.3006C17.7134 31.8875 13.2098 30.9451 13.243 26.1683C13.2623 23.3825 14.7388 21.6018 16.5982 22.1221ZM31.0891 22.2485C33.252 23.2494 33.7455 27.5444 31.9158 29.4442C30.8064 30.5961 29.5499 30.5979 28.5741 29.4491C26.1286 26.5702 28.1182 20.8738 31.0891 22.2485Z" fill="white"/>
</svg>
