<svg width="37" height="36" viewBox="0 0 37 36" fill="none" xmlns="http://www.w3.org/2000/svg">
    <g clip-path="url(#clip0_7208_52103)">
        <path fill-rule="evenodd" clip-rule="evenodd"
              d="M36.5133 18.0066C36.5133 8.06262 28.4507 0 18.5066 0C8.56262 0 0.5 8.06262 0.5 18.0066C0.5 26.9935 7.08385 34.4433 15.6934 35.7956V23.2129H11.1201V18.0066H15.6934V14.0386C15.6934 9.52615 18.3826 7.03191 22.4949 7.03191C24.4649 7.03191 26.5262 7.38388 26.5262 7.38388V11.8153H24.2547C22.0189 11.8153 21.3199 13.203 21.3199 14.6286V18.0065H26.3134L25.5157 23.2128H21.3198V35.7955C29.9293 34.4456 36.5132 26.9958 36.5132 18.0065L36.5133 18.0066Z"
              fill="#1977F3"/>
        <path fill-rule="evenodd" clip-rule="evenodd"
              d="M25.5159 23.2126L26.3136 18.0063H21.3201V14.6284C21.3201 13.2053 22.0165 11.8152 24.255 11.8152H26.5264V7.38371C26.5264 7.38371 24.4653 7.03174 22.4951 7.03174C18.3828 7.03174 15.6936 9.52349 15.6936 14.0384V18.0065H11.1204V23.2128H15.6936V35.7955C16.6102 35.9396 17.5497 36.0131 18.5069 36.0131C19.4641 36.0131 20.4035 35.9371 21.3201 35.7955V23.2128H25.5161L25.5159 23.2126Z"
              fill="#FEFEFE"/>
    </g>
    <defs>
        <clipPath id="clip0_7208_52103">
            <rect width="36" height="36" fill="white" transform="translate(0.5)"/>
        </clipPath>
    </defs>
</svg>
