<svg width="37" height="36" viewBox="0 0 37 36" fill="none" xmlns="http://www.w3.org/2000/svg">
    <g clip-path="url(#clip0_7208_52096)">
        <path d="M36.071 18.3368C36.071 16.8619 35.9513 15.7856 35.6923 14.6694H18.8503V21.3264H28.7362C28.537 22.9808 27.4607 25.4722 25.0689 27.1463L25.0353 27.3692L30.3604 31.4945L30.7294 31.5313C34.1176 28.4021 36.071 23.7979 36.071 18.3368Z" fill="#4285F4"/>
        <path d="M18.8504 35.8762C23.6936 35.8762 27.7595 34.2816 30.7294 31.5312L25.0689 27.1462C23.5541 28.2026 21.5211 28.94 18.8504 28.94C14.1068 28.94 10.0807 25.8109 8.64547 21.4858L8.4351 21.5037L2.89797 25.7889L2.82556 25.9902C5.77536 31.85 11.8345 35.8762 18.8504 35.8762Z" fill="#34A853"/>
        <path d="M8.6455 21.4862C8.26681 20.37 8.04765 19.1741 8.04765 17.9384C8.04765 16.7026 8.26681 15.5068 8.62558 14.3906L8.61554 14.1529L3.00903 9.79883L2.82559 9.88608C1.60983 12.3177 0.912231 15.0484 0.912231 17.9384C0.912231 20.8284 1.60983 23.5589 2.82559 25.9906L8.6455 21.4862Z" fill="#FBBC05"/>
        <path d="M18.8504 6.93605C22.2187 6.93605 24.4908 8.39102 25.7864 9.60692L30.8489 4.66392C27.7398 1.77389 23.6936 0 18.8504 0C11.8345 0 5.77536 4.02609 2.82556 9.88585L8.62555 14.3904C10.0807 10.0653 14.1068 6.93605 18.8504 6.93605Z" fill="#EB4335"/>
    </g>
    <defs>
        <clipPath id="clip0_7208_52096">
            <rect width="36" height="36" fill="white" transform="translate(0.5)"/>
        </clipPath>
    </defs>
</svg>
