<svg width="32" height="26" viewBox="0 0 32 26" fill="none" xmlns="http://www.w3.org/2000/svg">
    <path d="M28.6387 6.29546C28.6581 6.57546 28.6581 6.85546 28.6581 7.13804C28.6581 15.7484 22.1032 25.6787 10.1174 25.6787V25.6735C6.57677 25.6787 3.10967 24.6645 0.129028 22.7522C0.643867 22.8142 1.16129 22.8451 1.68 22.8464C4.61419 22.849 7.46451 21.8645 9.7729 20.0516C6.98451 19.9987 4.53935 18.1806 3.68516 15.5264C4.66193 15.7148 5.66838 15.6761 6.62709 15.4142C3.58709 14.8 1.4 12.129 1.4 9.02707V8.94449C2.3058 9.44901 3.32 9.72901 4.35742 9.75998C1.49419 7.84643 0.611609 4.0374 2.34064 1.05933C5.64903 5.1303 10.5303 7.60514 15.7703 7.86707C15.2452 5.60385 15.9626 3.23223 17.6555 1.64127C20.28 -0.82583 24.4077 -0.699379 26.8748 1.92385C28.3342 1.63611 29.7329 1.10062 31.0129 0.341912C30.5264 1.8503 29.5084 3.13159 28.1484 3.94578C29.44 3.79353 30.7019 3.44772 31.8903 2.91998C31.0155 4.23094 29.9135 5.37288 28.6387 6.29546Z"
          fill="#1D9BF0"/>
</svg>
